%TF.GenerationSoftware,KiCad,Pcbnew,9.0.2-2.fc42*%
%TF.CreationDate,2025-06-23T11:30:10+02:00*%
%TF.ProjectId,bioamplifier,62696f61-6d70-46c6-9966-6965722e6b69,rev?*%
%TF.SameCoordinates,Original*%
%TF.FileFunction,Legend,Top*%
%TF.FilePolarity,Positive*%
%FSLAX46Y46*%
G04 Gerber Fmt 4.6, Leading zero omitted, Abs format (unit mm)*
G04 Created by KiCad (PCBNEW 9.0.2-2.fc42) date 2025-06-23 11:30:10*
%MOMM*%
%LPD*%
G01*
G04 APERTURE LIST*
%ADD10C,0.150000*%
%ADD11C,0.254000*%
%ADD12C,0.125000*%
%ADD13C,0.250000*%
%ADD14C,0.120000*%
%ADD15C,0.200000*%
%ADD16C,0.152400*%
%ADD17C,0.000000*%
%ADD18C,0.100000*%
%TA.AperFunction,Profile*%
%ADD19C,0.100000*%
%TD*%
G04 APERTURE END LIST*
D10*
X67357142Y-81454819D02*
X67023809Y-80978628D01*
X66785714Y-81454819D02*
X66785714Y-80454819D01*
X66785714Y-80454819D02*
X67166666Y-80454819D01*
X67166666Y-80454819D02*
X67261904Y-80502438D01*
X67261904Y-80502438D02*
X67309523Y-80550057D01*
X67309523Y-80550057D02*
X67357142Y-80645295D01*
X67357142Y-80645295D02*
X67357142Y-80788152D01*
X67357142Y-80788152D02*
X67309523Y-80883390D01*
X67309523Y-80883390D02*
X67261904Y-80931009D01*
X67261904Y-80931009D02*
X67166666Y-80978628D01*
X67166666Y-80978628D02*
X66785714Y-80978628D01*
X67738095Y-80550057D02*
X67785714Y-80502438D01*
X67785714Y-80502438D02*
X67880952Y-80454819D01*
X67880952Y-80454819D02*
X68119047Y-80454819D01*
X68119047Y-80454819D02*
X68214285Y-80502438D01*
X68214285Y-80502438D02*
X68261904Y-80550057D01*
X68261904Y-80550057D02*
X68309523Y-80645295D01*
X68309523Y-80645295D02*
X68309523Y-80740533D01*
X68309523Y-80740533D02*
X68261904Y-80883390D01*
X68261904Y-80883390D02*
X67690476Y-81454819D01*
X67690476Y-81454819D02*
X68309523Y-81454819D01*
X68690476Y-80550057D02*
X68738095Y-80502438D01*
X68738095Y-80502438D02*
X68833333Y-80454819D01*
X68833333Y-80454819D02*
X69071428Y-80454819D01*
X69071428Y-80454819D02*
X69166666Y-80502438D01*
X69166666Y-80502438D02*
X69214285Y-80550057D01*
X69214285Y-80550057D02*
X69261904Y-80645295D01*
X69261904Y-80645295D02*
X69261904Y-80740533D01*
X69261904Y-80740533D02*
X69214285Y-80883390D01*
X69214285Y-80883390D02*
X68642857Y-81454819D01*
X68642857Y-81454819D02*
X69261904Y-81454819D01*
D11*
X3060237Y-4199318D02*
X3060237Y-2929318D01*
X4390714Y-4078365D02*
X4330238Y-4138842D01*
X4330238Y-4138842D02*
X4148809Y-4199318D01*
X4148809Y-4199318D02*
X4027857Y-4199318D01*
X4027857Y-4199318D02*
X3846428Y-4138842D01*
X3846428Y-4138842D02*
X3725476Y-4017889D01*
X3725476Y-4017889D02*
X3664999Y-3896937D01*
X3664999Y-3896937D02*
X3604523Y-3655032D01*
X3604523Y-3655032D02*
X3604523Y-3473603D01*
X3604523Y-3473603D02*
X3664999Y-3231699D01*
X3664999Y-3231699D02*
X3725476Y-3110746D01*
X3725476Y-3110746D02*
X3846428Y-2989794D01*
X3846428Y-2989794D02*
X4027857Y-2929318D01*
X4027857Y-2929318D02*
X4148809Y-2929318D01*
X4148809Y-2929318D02*
X4330238Y-2989794D01*
X4330238Y-2989794D02*
X4390714Y-3050270D01*
X5600238Y-4199318D02*
X4874523Y-4199318D01*
X5237380Y-4199318D02*
X5237380Y-2929318D01*
X5237380Y-2929318D02*
X5116428Y-3110746D01*
X5116428Y-3110746D02*
X4995476Y-3231699D01*
X4995476Y-3231699D02*
X4874523Y-3292175D01*
D10*
X77163400Y-83573819D02*
X77163400Y-83811914D01*
X76925305Y-83716676D02*
X77163400Y-83811914D01*
X77163400Y-83811914D02*
X77401495Y-83716676D01*
X77020543Y-84002390D02*
X77163400Y-83811914D01*
X77163400Y-83811914D02*
X77306257Y-84002390D01*
X77163400Y-83573819D02*
X77163400Y-83811914D01*
X76925305Y-83716676D02*
X77163400Y-83811914D01*
X77163400Y-83811914D02*
X77401495Y-83716676D01*
X77020543Y-84002390D02*
X77163400Y-83811914D01*
X77163400Y-83811914D02*
X77306257Y-84002390D01*
X105666666Y-76424819D02*
X105666666Y-77139104D01*
X105666666Y-77139104D02*
X105619047Y-77281961D01*
X105619047Y-77281961D02*
X105523809Y-77377200D01*
X105523809Y-77377200D02*
X105380952Y-77424819D01*
X105380952Y-77424819D02*
X105285714Y-77424819D01*
X106047619Y-76424819D02*
X106666666Y-76424819D01*
X106666666Y-76424819D02*
X106333333Y-76805771D01*
X106333333Y-76805771D02*
X106476190Y-76805771D01*
X106476190Y-76805771D02*
X106571428Y-76853390D01*
X106571428Y-76853390D02*
X106619047Y-76901009D01*
X106619047Y-76901009D02*
X106666666Y-76996247D01*
X106666666Y-76996247D02*
X106666666Y-77234342D01*
X106666666Y-77234342D02*
X106619047Y-77329580D01*
X106619047Y-77329580D02*
X106571428Y-77377200D01*
X106571428Y-77377200D02*
X106476190Y-77424819D01*
X106476190Y-77424819D02*
X106190476Y-77424819D01*
X106190476Y-77424819D02*
X106095238Y-77377200D01*
X106095238Y-77377200D02*
X106047619Y-77329580D01*
X112238095Y-84054819D02*
X112238095Y-83054819D01*
X112238095Y-83531009D02*
X112809523Y-83531009D01*
X112809523Y-84054819D02*
X112809523Y-83054819D01*
X113238095Y-83150057D02*
X113285714Y-83102438D01*
X113285714Y-83102438D02*
X113380952Y-83054819D01*
X113380952Y-83054819D02*
X113619047Y-83054819D01*
X113619047Y-83054819D02*
X113714285Y-83102438D01*
X113714285Y-83102438D02*
X113761904Y-83150057D01*
X113761904Y-83150057D02*
X113809523Y-83245295D01*
X113809523Y-83245295D02*
X113809523Y-83340533D01*
X113809523Y-83340533D02*
X113761904Y-83483390D01*
X113761904Y-83483390D02*
X113190476Y-84054819D01*
X113190476Y-84054819D02*
X113809523Y-84054819D01*
D12*
X51518333Y-107254809D02*
X51518333Y-107611952D01*
X51518333Y-107611952D02*
X51494524Y-107683380D01*
X51494524Y-107683380D02*
X51446905Y-107731000D01*
X51446905Y-107731000D02*
X51375476Y-107754809D01*
X51375476Y-107754809D02*
X51327857Y-107754809D01*
X51732619Y-107302428D02*
X51756428Y-107278619D01*
X51756428Y-107278619D02*
X51804047Y-107254809D01*
X51804047Y-107254809D02*
X51923095Y-107254809D01*
X51923095Y-107254809D02*
X51970714Y-107278619D01*
X51970714Y-107278619D02*
X51994523Y-107302428D01*
X51994523Y-107302428D02*
X52018333Y-107350047D01*
X52018333Y-107350047D02*
X52018333Y-107397666D01*
X52018333Y-107397666D02*
X51994523Y-107469095D01*
X51994523Y-107469095D02*
X51708809Y-107754809D01*
X51708809Y-107754809D02*
X52018333Y-107754809D01*
D10*
X69357142Y-78024819D02*
X69023809Y-77548628D01*
X68785714Y-78024819D02*
X68785714Y-77024819D01*
X68785714Y-77024819D02*
X69166666Y-77024819D01*
X69166666Y-77024819D02*
X69261904Y-77072438D01*
X69261904Y-77072438D02*
X69309523Y-77120057D01*
X69309523Y-77120057D02*
X69357142Y-77215295D01*
X69357142Y-77215295D02*
X69357142Y-77358152D01*
X69357142Y-77358152D02*
X69309523Y-77453390D01*
X69309523Y-77453390D02*
X69261904Y-77501009D01*
X69261904Y-77501009D02*
X69166666Y-77548628D01*
X69166666Y-77548628D02*
X68785714Y-77548628D01*
X70309523Y-78024819D02*
X69738095Y-78024819D01*
X70023809Y-78024819D02*
X70023809Y-77024819D01*
X70023809Y-77024819D02*
X69928571Y-77167676D01*
X69928571Y-77167676D02*
X69833333Y-77262914D01*
X69833333Y-77262914D02*
X69738095Y-77310533D01*
X70642857Y-77024819D02*
X71309523Y-77024819D01*
X71309523Y-77024819D02*
X70880952Y-78024819D01*
%TO.C,U8*%
X105900000Y-105800001D02*
X103100000Y-105800001D01*
X105900000Y-109199999D02*
X103100000Y-109199999D01*
D13*
X107528102Y-108474999D02*
G75*
G02*
X107278100Y-108474999I-125001J0D01*
G01*
X107278100Y-108474999D02*
G75*
G02*
X107528102Y-108474999I125001J0D01*
G01*
D14*
%TO.C,R14*%
X94080000Y-98846359D02*
X94080000Y-99153641D01*
X94840000Y-98846359D02*
X94840000Y-99153641D01*
%TO.C,RN4*%
X60600000Y-81843435D02*
X61600000Y-81843435D01*
X60600000Y-85203435D02*
X61600000Y-85203435D01*
%TO.C,R22*%
X66262742Y-78477500D02*
X66737258Y-78477500D01*
X66262742Y-79522500D02*
X66737258Y-79522500D01*
%TO.C,R10*%
X104330000Y-98846359D02*
X104330000Y-99153641D01*
X105090000Y-98846359D02*
X105090000Y-99153641D01*
%TO.C,C5*%
X89240000Y-98359420D02*
X89240000Y-98640580D01*
X90260000Y-98359420D02*
X90260000Y-98640580D01*
%TO.C,C4*%
X89357836Y-95640000D02*
X89142164Y-95640000D01*
X89357836Y-96360000D02*
X89142164Y-96360000D01*
%TO.C,R7*%
X102269224Y-89042865D02*
X102576506Y-89042865D01*
X102269224Y-89802865D02*
X102576506Y-89802865D01*
%TO.C,R8*%
X102096359Y-91620000D02*
X102403641Y-91620000D01*
X102096359Y-92380000D02*
X102403641Y-92380000D01*
%TO.C,C23*%
X85890000Y-80392164D02*
X85890000Y-80607836D01*
X86610000Y-80392164D02*
X86610000Y-80607836D01*
%TO.C,C25*%
X107339517Y-108534421D02*
X107339517Y-108815581D01*
X108359517Y-108534421D02*
X108359517Y-108815581D01*
%TO.C,C21*%
X91607836Y-95640000D02*
X91392164Y-95640000D01*
X91607836Y-96360000D02*
X91392164Y-96360000D01*
%TO.C,C20*%
X91142164Y-81640000D02*
X91357836Y-81640000D01*
X91142164Y-82360000D02*
X91357836Y-82360000D01*
%TO.C,U7*%
X83000000Y-102440000D02*
X82200000Y-102440000D01*
X83000000Y-102440000D02*
X83800000Y-102440000D01*
X83000000Y-105560000D02*
X82200000Y-105560000D01*
X83000000Y-105560000D02*
X84800000Y-105560000D01*
%TO.C,RN1*%
X60600000Y-97320000D02*
X61600000Y-97320000D01*
X60600000Y-100680000D02*
X61600000Y-100680000D01*
%TO.C,C1*%
X92392164Y-97140000D02*
X92607836Y-97140000D01*
X92392164Y-97860000D02*
X92607836Y-97860000D01*
D15*
%TO.C,IC1*%
X275000Y-500000D02*
X2025000Y-500000D01*
X2550000Y-375000D02*
X6050000Y-375000D01*
X2550000Y-6875000D02*
X2550000Y-375000D01*
X6050000Y-375000D02*
X6050000Y-6875000D01*
X6050000Y-6875000D02*
X2550000Y-6875000D01*
D14*
%TO.C,U6*%
X116862500Y-102940000D02*
X116062500Y-102940000D01*
X116862500Y-102940000D02*
X117662500Y-102940000D01*
X116862500Y-106060000D02*
X116062500Y-106060000D01*
X116862500Y-106060000D02*
X117662500Y-106060000D01*
X115562500Y-102990000D02*
X115322500Y-102660000D01*
X115802500Y-102660000D01*
X115562500Y-102990000D01*
G36*
X115562500Y-102990000D02*
G01*
X115322500Y-102660000D01*
X115802500Y-102660000D01*
X115562500Y-102990000D01*
G37*
%TO.C,R11*%
X101663332Y-98846359D02*
X101663332Y-99153641D01*
X102423332Y-98846359D02*
X102423332Y-99153641D01*
%TO.C,R2*%
X66107742Y-102977500D02*
X66582258Y-102977500D01*
X66107742Y-104022500D02*
X66582258Y-104022500D01*
%TO.C,C37*%
X61140000Y-104392164D02*
X61140000Y-104607836D01*
X61860000Y-104392164D02*
X61860000Y-104607836D01*
%TO.C,C39*%
X62640000Y-79587836D02*
X62640000Y-79372164D01*
X63360000Y-79587836D02*
X63360000Y-79372164D01*
%TO.C,C38*%
X63607836Y-101558850D02*
X63392164Y-101558850D01*
X63607836Y-102278850D02*
X63392164Y-102278850D01*
%TO.C,JP2*%
X77785140Y-77950000D02*
X79785140Y-77950000D01*
X77785140Y-80750000D02*
X77785140Y-77950000D01*
X79785140Y-77950000D02*
X79785140Y-80750000D01*
X79785140Y-80750000D02*
X77785140Y-80750000D01*
%TO.C,C9*%
X83261252Y-97765000D02*
X82738748Y-97765000D01*
X83261252Y-99235000D02*
X82738748Y-99235000D01*
%TO.C,C44*%
X75990000Y-103584420D02*
X75990000Y-103865580D01*
X77010000Y-103584420D02*
X77010000Y-103865580D01*
%TO.C,C42*%
X86490000Y-103640580D02*
X86490000Y-103359420D01*
X87510000Y-103640580D02*
X87510000Y-103359420D01*
%TO.C,C41*%
X116352500Y-108359420D02*
X116352500Y-108640580D01*
X117372500Y-108359420D02*
X117372500Y-108640580D01*
%TO.C,R13*%
X96330000Y-98846359D02*
X96330000Y-99153641D01*
X97090000Y-98846359D02*
X97090000Y-99153641D01*
%TO.C,R9*%
X106694443Y-98846359D02*
X106694443Y-99153641D01*
X107454443Y-98846359D02*
X107454443Y-99153641D01*
D16*
%TO.C,U1*%
X79017600Y-83267600D02*
X79017600Y-84277560D01*
X79017600Y-92722440D02*
X79017600Y-93732400D01*
X79017600Y-93732400D02*
X80027560Y-93732400D01*
X80027560Y-83267600D02*
X79017600Y-83267600D01*
X88472440Y-93732400D02*
X89482400Y-93732400D01*
X89482400Y-83267600D02*
X88472440Y-83267600D01*
X89482400Y-84277560D02*
X89482400Y-83267600D01*
X89482400Y-93732400D02*
X89482400Y-92722440D01*
D17*
G36*
X77544400Y-89440501D02*
G01*
X77290400Y-89440501D01*
X77290400Y-89059501D01*
X77544400Y-89059501D01*
X77544400Y-89440501D01*
G37*
G36*
X82190499Y-95459600D02*
G01*
X81809499Y-95459600D01*
X81809499Y-95205600D01*
X82190499Y-95205600D01*
X82190499Y-95459600D01*
G37*
G36*
X82690501Y-81794400D02*
G01*
X82309501Y-81794400D01*
X82309501Y-81540400D01*
X82690501Y-81540400D01*
X82690501Y-81794400D01*
G37*
G36*
X87190500Y-95459600D02*
G01*
X86809500Y-95459600D01*
X86809500Y-95205600D01*
X87190500Y-95205600D01*
X87190500Y-95459600D01*
G37*
G36*
X87690501Y-81794400D02*
G01*
X87309501Y-81794400D01*
X87309501Y-81540400D01*
X87690501Y-81540400D01*
X87690501Y-81794400D01*
G37*
G36*
X91209600Y-88940500D02*
G01*
X90955600Y-88940500D01*
X90955600Y-88559499D01*
X91209600Y-88559499D01*
X91209600Y-88940500D01*
G37*
D14*
%TO.C,C7*%
X85642164Y-76640000D02*
X85857836Y-76640000D01*
X85642164Y-77360000D02*
X85857836Y-77360000D01*
D18*
%TO.C,D1*%
X98550000Y-90590000D02*
G75*
G02*
X98450000Y-90590000I-50000J0D01*
G01*
X98450000Y-90590000D02*
G75*
G02*
X98550000Y-90590000I50000J0D01*
G01*
D14*
%TO.C,R20*%
X67762742Y-100977500D02*
X68237258Y-100977500D01*
X67762742Y-102022500D02*
X68237258Y-102022500D01*
%TO.C,R18*%
X74477500Y-79237258D02*
X74477500Y-78762742D01*
X75522500Y-79237258D02*
X75522500Y-78762742D01*
%TO.C,C19*%
X91142164Y-83140000D02*
X91357836Y-83140000D01*
X91142164Y-83860000D02*
X91357836Y-83860000D01*
%TO.C,C22*%
X82662164Y-80140000D02*
X82877836Y-80140000D01*
X82662164Y-80860000D02*
X82877836Y-80860000D01*
%TO.C,R3*%
X102096359Y-78870000D02*
X102403641Y-78870000D01*
X102096359Y-79630000D02*
X102403641Y-79630000D01*
%TO.C,R1*%
X99477500Y-90512742D02*
X99477500Y-90987258D01*
X100522500Y-90512742D02*
X100522500Y-90987258D01*
%TO.C,J3*%
X104670000Y-77970000D02*
X106000000Y-77970000D01*
X104670000Y-79300000D02*
X104670000Y-77970000D01*
X104670000Y-80570000D02*
X104670000Y-95870000D01*
X104670000Y-80570000D02*
X107330000Y-80570000D01*
X104670000Y-95870000D02*
X107330000Y-95870000D01*
X107330000Y-80570000D02*
X107330000Y-95870000D01*
%TO.C,R5*%
X102096359Y-83870000D02*
X102403641Y-83870000D01*
X102096359Y-84630000D02*
X102403641Y-84630000D01*
%TO.C,C30*%
X72945000Y-78372164D02*
X72945000Y-78587836D01*
X73665000Y-78372164D02*
X73665000Y-78587836D01*
%TO.C,C3*%
X90109420Y-77490000D02*
X90390580Y-77490000D01*
X90109420Y-78510000D02*
X90390580Y-78510000D01*
%TO.C,C46*%
X90859420Y-107577500D02*
X91140580Y-107577500D01*
X90859420Y-108597500D02*
X91140580Y-108597500D01*
%TO.C,C6*%
X85642164Y-78140000D02*
X85857836Y-78140000D01*
X85642164Y-78860000D02*
X85857836Y-78860000D01*
%TO.C,C43*%
X79490000Y-105859420D02*
X79490000Y-106140580D01*
X80510000Y-105859420D02*
X80510000Y-106140580D01*
%TO.C,J2*%
X44700000Y-74400000D02*
X50700000Y-74400000D01*
X44700000Y-75160000D02*
X44700000Y-74400000D01*
X44700000Y-76940000D02*
X50700000Y-76940000D01*
X44700000Y-77700000D02*
X44700000Y-76940000D01*
X44700000Y-79480000D02*
X50700000Y-79480000D01*
X44700000Y-80240000D02*
X44700000Y-79480000D01*
X44700000Y-82020000D02*
X50700000Y-82020000D01*
X44700000Y-82780000D02*
X44700000Y-82020000D01*
X44700000Y-84560000D02*
X50700000Y-84560000D01*
X44700000Y-85320000D02*
X44700000Y-84560000D01*
X44700000Y-87100000D02*
X50700000Y-87100000D01*
X44700000Y-87860000D02*
X44700000Y-87100000D01*
X44700000Y-89640000D02*
X50700000Y-89640000D01*
X44700000Y-90400000D02*
X44700000Y-89640000D01*
X44700000Y-92180000D02*
X50700000Y-92180000D01*
X44700000Y-92940000D02*
X44700000Y-92180000D01*
X44700000Y-94720000D02*
X50700000Y-94720000D01*
X44700000Y-95480000D02*
X44700000Y-94720000D01*
X44700000Y-97260000D02*
X50700000Y-97260000D01*
X44700000Y-98020000D02*
X44700000Y-97260000D01*
X44700000Y-99800000D02*
X50700000Y-99800000D01*
X44700000Y-100560000D02*
X44700000Y-99800000D01*
X44700000Y-102340000D02*
X50700000Y-102340000D01*
X44700000Y-103100000D02*
X44700000Y-102340000D01*
X44700000Y-104880000D02*
X50700000Y-104880000D01*
X44700000Y-105640000D02*
X44700000Y-104880000D01*
X50700000Y-73450000D02*
X50700000Y-106590000D01*
X50700000Y-75160000D02*
X44700000Y-75160000D01*
X50700000Y-77700000D02*
X44700000Y-77700000D01*
X50700000Y-80240000D02*
X44700000Y-80240000D01*
X50700000Y-82780000D02*
X44700000Y-82780000D01*
X50700000Y-85320000D02*
X44700000Y-85320000D01*
X50700000Y-87860000D02*
X44700000Y-87860000D01*
X50700000Y-90400000D02*
X44700000Y-90400000D01*
X50700000Y-92940000D02*
X44700000Y-92940000D01*
X50700000Y-95480000D02*
X44700000Y-95480000D01*
X50700000Y-98020000D02*
X44700000Y-98020000D01*
X50700000Y-100560000D02*
X44700000Y-100560000D01*
X50700000Y-103100000D02*
X44700000Y-103100000D01*
X50700000Y-104980000D02*
X44700000Y-104980000D01*
X50700000Y-105100000D02*
X44700000Y-105100000D01*
X50700000Y-105220000D02*
X44700000Y-105220000D01*
X50700000Y-105340000D02*
X44700000Y-105340000D01*
X50700000Y-105460000D02*
X44700000Y-105460000D01*
X50700000Y-105580000D02*
X44700000Y-105580000D01*
X50700000Y-105640000D02*
X44700000Y-105640000D01*
X50700000Y-106590000D02*
X53360000Y-106590000D01*
X53360000Y-73450000D02*
X50700000Y-73450000D01*
X53360000Y-76050000D02*
X50700000Y-76050000D01*
X53360000Y-78590000D02*
X50700000Y-78590000D01*
X53360000Y-81130000D02*
X50700000Y-81130000D01*
X53360000Y-83670000D02*
X50700000Y-83670000D01*
X53360000Y-86210000D02*
X50700000Y-86210000D01*
X53360000Y-88750000D02*
X50700000Y-88750000D01*
X53360000Y-91290000D02*
X50700000Y-91290000D01*
X53360000Y-93830000D02*
X50700000Y-93830000D01*
X53360000Y-96370000D02*
X50700000Y-96370000D01*
X53360000Y-98910000D02*
X50700000Y-98910000D01*
X53360000Y-101450000D02*
X50700000Y-101450000D01*
X53360000Y-103990000D02*
X50700000Y-103990000D01*
X53360000Y-106590000D02*
X53360000Y-73450000D01*
X53757071Y-74400000D02*
X53360000Y-74400000D01*
X53757071Y-75160000D02*
X53360000Y-75160000D01*
X53757071Y-76940000D02*
X53360000Y-76940000D01*
X53757071Y-77700000D02*
X53360000Y-77700000D01*
X53757071Y-79480000D02*
X53360000Y-79480000D01*
X53757071Y-80240000D02*
X53360000Y-80240000D01*
X53757071Y-82020000D02*
X53360000Y-82020000D01*
X53757071Y-82780000D02*
X53360000Y-82780000D01*
X53757071Y-84560000D02*
X53360000Y-84560000D01*
X53757071Y-85320000D02*
X53360000Y-85320000D01*
X53757071Y-87100000D02*
X53360000Y-87100000D01*
X53757071Y-87860000D02*
X53360000Y-87860000D01*
X53757071Y-89640000D02*
X53360000Y-89640000D01*
X53757071Y-90400000D02*
X53360000Y-90400000D01*
X53757071Y-92180000D02*
X53360000Y-92180000D01*
X53757071Y-92940000D02*
X53360000Y-92940000D01*
X53757071Y-94720000D02*
X53360000Y-94720000D01*
X53757071Y-95480000D02*
X53360000Y-95480000D01*
X53757071Y-97260000D02*
X53360000Y-97260000D01*
X53757071Y-98020000D02*
X53360000Y-98020000D01*
X53757071Y-99800000D02*
X53360000Y-99800000D01*
X53757071Y-100560000D02*
X53360000Y-100560000D01*
X53757071Y-102340000D02*
X53360000Y-102340000D01*
X53757071Y-103100000D02*
X53360000Y-103100000D01*
X53757071Y-104880000D02*
X53360000Y-104880000D01*
X53757071Y-105640000D02*
X53360000Y-105640000D01*
X56230000Y-104880000D02*
X55842929Y-104880000D01*
X56230000Y-105640000D02*
X55842929Y-105640000D01*
X56297071Y-74400000D02*
X55842929Y-74400000D01*
X56297071Y-75160000D02*
X55842929Y-75160000D01*
X56297071Y-76940000D02*
X55842929Y-76940000D01*
X56297071Y-77700000D02*
X55842929Y-77700000D01*
X56297071Y-79480000D02*
X55842929Y-79480000D01*
X56297071Y-80240000D02*
X55842929Y-80240000D01*
X56297071Y-82020000D02*
X55842929Y-82020000D01*
X56297071Y-82780000D02*
X55842929Y-82780000D01*
X56297071Y-84560000D02*
X55842929Y-84560000D01*
X56297071Y-85320000D02*
X55842929Y-85320000D01*
X56297071Y-87100000D02*
X55842929Y-87100000D01*
X56297071Y-87860000D02*
X55842929Y-87860000D01*
X56297071Y-89640000D02*
X55842929Y-89640000D01*
X56297071Y-90400000D02*
X55842929Y-90400000D01*
X56297071Y-92180000D02*
X55842929Y-92180000D01*
X56297071Y-92940000D02*
X55842929Y-92940000D01*
X56297071Y-94720000D02*
X55842929Y-94720000D01*
X56297071Y-95480000D02*
X55842929Y-95480000D01*
X56297071Y-97260000D02*
X55842929Y-97260000D01*
X56297071Y-98020000D02*
X55842929Y-98020000D01*
X56297071Y-99800000D02*
X55842929Y-99800000D01*
X56297071Y-100560000D02*
X55842929Y-100560000D01*
X56297071Y-102340000D02*
X55842929Y-102340000D01*
X56297071Y-103100000D02*
X55842929Y-103100000D01*
X58610000Y-105260000D02*
X58610000Y-106530000D01*
X58610000Y-106530000D02*
X57340000Y-106530000D01*
%TO.C,C27*%
X112352500Y-101859420D02*
X112352500Y-102140580D01*
X113372500Y-101859420D02*
X113372500Y-102140580D01*
%TO.C,R17*%
X69762742Y-78477500D02*
X70237258Y-78477500D01*
X69762742Y-79522500D02*
X70237258Y-79522500D01*
%TO.C,C2*%
X88987164Y-79640000D02*
X89202836Y-79640000D01*
X88987164Y-80360000D02*
X89202836Y-80360000D01*
%TO.C,U11*%
X86862500Y-107527500D02*
X86062500Y-107527500D01*
X86862500Y-107527500D02*
X87662500Y-107527500D01*
X86862500Y-110647500D02*
X86062500Y-110647500D01*
X86862500Y-110647500D02*
X87662500Y-110647500D01*
X85562500Y-107577500D02*
X85322500Y-107247500D01*
X85802500Y-107247500D01*
X85562500Y-107577500D01*
G36*
X85562500Y-107577500D02*
G01*
X85322500Y-107247500D01*
X85802500Y-107247500D01*
X85562500Y-107577500D01*
G37*
%TO.C,C29*%
X118352500Y-108359420D02*
X118352500Y-108640580D01*
X119372500Y-108359420D02*
X119372500Y-108640580D01*
%TO.C,R12*%
X98996666Y-98846359D02*
X98996666Y-99153641D01*
X99756666Y-98846359D02*
X99756666Y-99153641D01*
%TO.C,C24*%
X83622164Y-78640000D02*
X83837836Y-78640000D01*
X83622164Y-79360000D02*
X83837836Y-79360000D01*
%TO.C,RN3*%
X60600000Y-92161145D02*
X61600000Y-92161145D01*
X60600000Y-95521145D02*
X61600000Y-95521145D01*
%TO.C,C10*%
X82890580Y-95990000D02*
X82609420Y-95990000D01*
X82890580Y-97010000D02*
X82609420Y-97010000D01*
%TO.C,R6*%
X102123185Y-86524542D02*
X102430467Y-86524542D01*
X102123185Y-87284542D02*
X102430467Y-87284542D01*
%TO.C,C40*%
X99490000Y-107415580D02*
X99490000Y-107134420D01*
X100510000Y-107415580D02*
X100510000Y-107134420D01*
%TO.C,C8*%
X85490000Y-97859420D02*
X85490000Y-98140580D01*
X86510000Y-97859420D02*
X86510000Y-98140580D01*
%TO.C,R4*%
X102106359Y-81370000D02*
X102413641Y-81370000D01*
X102106359Y-82130000D02*
X102413641Y-82130000D01*
%TO.C,RN2*%
X60600000Y-87002290D02*
X61600000Y-87002290D01*
X60600000Y-90362290D02*
X61600000Y-90362290D01*
%TO.C,J1*%
X93050000Y-101170000D02*
X93050000Y-103830000D01*
X108350000Y-101170000D02*
X93050000Y-101170000D01*
X108350000Y-101170000D02*
X108350000Y-103830000D01*
X108350000Y-103830000D02*
X93050000Y-103830000D01*
X109620000Y-101170000D02*
X110950000Y-101170000D01*
X110950000Y-101170000D02*
X110950000Y-102500000D01*
%TD*%
D19*
X52375000Y-72050000D02*
X122375000Y-72050000D01*
X122375000Y-112050000D01*
X52375000Y-112050000D01*
X52375000Y-72050000D01*
M02*
