%TF.GenerationSoftware,KiCad,Pcbnew,9.0.2-2.fc42*%
%TF.CreationDate,2025-06-23T11:30:10+02:00*%
%TF.ProjectId,bioamplifier,62696f61-6d70-46c6-9966-6965722e6b69,rev?*%
%TF.SameCoordinates,Original*%
%TF.FileFunction,Soldermask,Top*%
%TF.FilePolarity,Negative*%
%FSLAX46Y46*%
G04 Gerber Fmt 4.6, Leading zero omitted, Abs format (unit mm)*
G04 Created by KiCad (PCBNEW 9.0.2-2.fc42) date 2025-06-23 11:30:10*
%MOMM*%
%LPD*%
G01*
G04 APERTURE LIST*
G04 Aperture macros list*
%AMRoundRect*
0 Rectangle with rounded corners*
0 $1 Rounding radius*
0 $2 $3 $4 $5 $6 $7 $8 $9 X,Y pos of 4 corners*
0 Add a 4 corners polygon primitive as box body*
4,1,4,$2,$3,$4,$5,$6,$7,$8,$9,$2,$3,0*
0 Add four circle primitives for the rounded corners*
1,1,$1+$1,$2,$3*
1,1,$1+$1,$4,$5*
1,1,$1+$1,$6,$7*
1,1,$1+$1,$8,$9*
0 Add four rect primitives between the rounded corners*
20,1,$1+$1,$2,$3,$4,$5,0*
20,1,$1+$1,$4,$5,$6,$7,0*
20,1,$1+$1,$6,$7,$8,$9,0*
20,1,$1+$1,$8,$9,$2,$3,0*%
G04 Aperture macros list end*
%ADD10R,1.805236X0.612132*%
%ADD11RoundRect,0.135000X-0.185000X0.135000X-0.185000X-0.135000X0.185000X-0.135000X0.185000X0.135000X0*%
%ADD12R,0.800000X0.500000*%
%ADD13R,0.800000X0.400000*%
%ADD14C,3.000000*%
%ADD15RoundRect,0.200000X-0.200000X-0.275000X0.200000X-0.275000X0.200000X0.275000X-0.200000X0.275000X0*%
%ADD16RoundRect,0.225000X-0.250000X0.225000X-0.250000X-0.225000X0.250000X-0.225000X0.250000X0.225000X0*%
%ADD17RoundRect,0.140000X0.140000X0.170000X-0.140000X0.170000X-0.140000X-0.170000X0.140000X-0.170000X0*%
%ADD18RoundRect,0.135000X-0.135000X-0.185000X0.135000X-0.185000X0.135000X0.185000X-0.135000X0.185000X0*%
%ADD19RoundRect,0.140000X-0.170000X0.140000X-0.170000X-0.140000X0.170000X-0.140000X0.170000X0.140000X0*%
%ADD20RoundRect,0.140000X-0.140000X-0.170000X0.140000X-0.170000X0.140000X0.170000X-0.140000X0.170000X0*%
%ADD21RoundRect,0.150000X0.512500X0.150000X-0.512500X0.150000X-0.512500X-0.150000X0.512500X-0.150000X0*%
%ADD22R,1.750000X0.950000*%
%ADD23R,1.750000X3.200000*%
%ADD24RoundRect,0.150000X-0.512500X-0.150000X0.512500X-0.150000X0.512500X0.150000X-0.512500X0.150000X0*%
%ADD25RoundRect,0.140000X0.170000X-0.140000X0.170000X0.140000X-0.170000X0.140000X-0.170000X-0.140000X0*%
%ADD26R,1.500000X1.000000*%
%ADD27RoundRect,0.250000X0.250000X0.475000X-0.250000X0.475000X-0.250000X-0.475000X0.250000X-0.475000X0*%
%ADD28RoundRect,0.225000X0.250000X-0.225000X0.250000X0.225000X-0.250000X0.225000X-0.250000X-0.225000X0*%
%ADD29R,1.346200X0.279400*%
%ADD30R,0.279400X1.346200*%
%ADD31RoundRect,0.147500X0.172500X-0.147500X0.172500X0.147500X-0.172500X0.147500X-0.172500X-0.147500X0*%
%ADD32RoundRect,0.200000X0.275000X-0.200000X0.275000X0.200000X-0.275000X0.200000X-0.275000X-0.200000X0*%
%ADD33RoundRect,0.200000X-0.275000X0.200000X-0.275000X-0.200000X0.275000X-0.200000X0.275000X0.200000X0*%
%ADD34R,1.700000X1.700000*%
%ADD35O,1.700000X1.700000*%
%ADD36C,2.000000*%
%ADD37RoundRect,0.225000X-0.225000X-0.250000X0.225000X-0.250000X0.225000X0.250000X-0.225000X0.250000X0*%
%ADD38RoundRect,0.225000X0.225000X0.250000X-0.225000X0.250000X-0.225000X-0.250000X0.225000X-0.250000X0*%
%TA.AperFunction,Profile*%
%ADD39C,0.100000*%
%TD*%
G04 APERTURE END LIST*
D10*
%TO.C,U8*%
X105650483Y-108450001D03*
X105650483Y-107500000D03*
X105650483Y-106549999D03*
X103349517Y-106549999D03*
X103349517Y-108450001D03*
%TD*%
D11*
%TO.C,R14*%
X94460000Y-98490000D03*
X94460000Y-99510000D03*
%TD*%
D12*
%TO.C,RN4*%
X62000000Y-84723435D03*
D13*
X62000000Y-83923435D03*
X62000000Y-83123435D03*
D12*
X62000000Y-82323435D03*
X60200000Y-82323435D03*
D13*
X60200000Y-83123435D03*
X60200000Y-83923435D03*
D12*
X60200000Y-84723435D03*
%TD*%
D14*
%TO.C,FID4*%
X74000000Y-109000000D03*
%TD*%
D15*
%TO.C,R22*%
X65675000Y-79000000D03*
X67325000Y-79000000D03*
%TD*%
D11*
%TO.C,R10*%
X104710000Y-98490000D03*
X104710000Y-99510000D03*
%TD*%
D16*
%TO.C,C5*%
X89750000Y-97725000D03*
X89750000Y-99275000D03*
%TD*%
D17*
%TO.C,C4*%
X89730000Y-96000000D03*
X88770000Y-96000000D03*
%TD*%
D18*
%TO.C,R7*%
X101912865Y-89422865D03*
X102932865Y-89422865D03*
%TD*%
D14*
%TO.C,FID2*%
X114000000Y-109000000D03*
%TD*%
D18*
%TO.C,R8*%
X101740000Y-92000000D03*
X102760000Y-92000000D03*
%TD*%
D19*
%TO.C,C23*%
X86250000Y-80020000D03*
X86250000Y-80980000D03*
%TD*%
D16*
%TO.C,C25*%
X107849517Y-107900001D03*
X107849517Y-109450001D03*
%TD*%
D17*
%TO.C,C21*%
X91980000Y-96000000D03*
X91020000Y-96000000D03*
%TD*%
D20*
%TO.C,C20*%
X90770000Y-82000000D03*
X91730000Y-82000000D03*
%TD*%
D21*
%TO.C,U7*%
X84137500Y-104950000D03*
X84137500Y-104000000D03*
X84137500Y-103050000D03*
X81862500Y-103050000D03*
X81862500Y-104950000D03*
%TD*%
D12*
%TO.C,RN1*%
X62000000Y-100200000D03*
D13*
X62000000Y-99400000D03*
X62000000Y-98600000D03*
D12*
X62000000Y-97800000D03*
X60200000Y-97800000D03*
D13*
X60200000Y-98600000D03*
X60200000Y-99400000D03*
D12*
X60200000Y-100200000D03*
%TD*%
D20*
%TO.C,C1*%
X92020000Y-97500000D03*
X92980000Y-97500000D03*
%TD*%
D22*
%TO.C,IC1*%
X1150000Y-1325000D03*
X1150000Y-3625000D03*
X1150000Y-5925000D03*
D23*
X7450000Y-3625000D03*
%TD*%
D24*
%TO.C,U6*%
X115725000Y-103550000D03*
X115725000Y-104500000D03*
X115725000Y-105450000D03*
X118000000Y-105450000D03*
X118000000Y-103550000D03*
%TD*%
D11*
%TO.C,R11*%
X102043332Y-98490000D03*
X102043332Y-99510000D03*
%TD*%
D15*
%TO.C,R2*%
X65520000Y-103500000D03*
X67170000Y-103500000D03*
%TD*%
D19*
%TO.C,C37*%
X61500000Y-104020000D03*
X61500000Y-104980000D03*
%TD*%
D25*
%TO.C,C39*%
X63000000Y-79960000D03*
X63000000Y-79000000D03*
%TD*%
D17*
%TO.C,C38*%
X63980000Y-101918850D03*
X63020000Y-101918850D03*
%TD*%
D26*
%TO.C,JP2*%
X78785140Y-80000000D03*
X78785140Y-78700000D03*
%TD*%
D27*
%TO.C,C9*%
X83950000Y-98500000D03*
X82050000Y-98500000D03*
%TD*%
D16*
%TO.C,C44*%
X76500000Y-102950000D03*
X76500000Y-104500000D03*
%TD*%
D28*
%TO.C,C42*%
X87000000Y-104275000D03*
X87000000Y-102725000D03*
%TD*%
D16*
%TO.C,C41*%
X116862500Y-107725000D03*
X116862500Y-109275000D03*
%TD*%
D11*
%TO.C,R13*%
X96710000Y-98490000D03*
X96710000Y-99510000D03*
%TD*%
%TO.C,R9*%
X107074443Y-98490000D03*
X107074443Y-99510000D03*
%TD*%
D29*
%TO.C,U1*%
X78471500Y-84750000D03*
X78471500Y-85249999D03*
X78471500Y-85750000D03*
X78471500Y-86249999D03*
X78471500Y-86750001D03*
X78471500Y-87250000D03*
X78471500Y-87749999D03*
X78471500Y-88250000D03*
X78471500Y-88750000D03*
X78471500Y-89250001D03*
X78471500Y-89750000D03*
X78471500Y-90249999D03*
X78471500Y-90750001D03*
X78471500Y-91250000D03*
X78471500Y-91750001D03*
X78471500Y-92250000D03*
D30*
X80500000Y-94278500D03*
X80999999Y-94278500D03*
X81500000Y-94278500D03*
X81999999Y-94278500D03*
X82500001Y-94278500D03*
X83000000Y-94278500D03*
X83499999Y-94278500D03*
X84000000Y-94278500D03*
X84500000Y-94278500D03*
X85000001Y-94278500D03*
X85500000Y-94278500D03*
X85999999Y-94278500D03*
X86500001Y-94278500D03*
X87000000Y-94278500D03*
X87500001Y-94278500D03*
X88000000Y-94278500D03*
D29*
X90028500Y-92250000D03*
X90028500Y-91750001D03*
X90028500Y-91250000D03*
X90028500Y-90750001D03*
X90028500Y-90249999D03*
X90028500Y-89750000D03*
X90028500Y-89250001D03*
X90028500Y-88750000D03*
X90028500Y-88250000D03*
X90028500Y-87749999D03*
X90028500Y-87250000D03*
X90028500Y-86750001D03*
X90028500Y-86249999D03*
X90028500Y-85750000D03*
X90028500Y-85249999D03*
X90028500Y-84750000D03*
D30*
X88000000Y-82721500D03*
X87500001Y-82721500D03*
X87000000Y-82721500D03*
X86500001Y-82721500D03*
X85999999Y-82721500D03*
X85500000Y-82721500D03*
X85000001Y-82721500D03*
X84500000Y-82721500D03*
X84000000Y-82721500D03*
X83499999Y-82721500D03*
X83000000Y-82721500D03*
X82500001Y-82721500D03*
X81999999Y-82721500D03*
X81500000Y-82721500D03*
X80999999Y-82721500D03*
X80500000Y-82721500D03*
%TD*%
D20*
%TO.C,C7*%
X85270000Y-77000000D03*
X86230000Y-77000000D03*
%TD*%
D31*
%TO.C,D1*%
X98500000Y-89985000D03*
X98500000Y-89015000D03*
%TD*%
D15*
%TO.C,R20*%
X67175000Y-101500000D03*
X68825000Y-101500000D03*
%TD*%
D32*
%TO.C,R18*%
X75000000Y-79825000D03*
X75000000Y-78175000D03*
%TD*%
D20*
%TO.C,C19*%
X90770000Y-83500000D03*
X91730000Y-83500000D03*
%TD*%
%TO.C,C22*%
X82290000Y-80500000D03*
X83250000Y-80500000D03*
%TD*%
D18*
%TO.C,R3*%
X101740000Y-79250000D03*
X102760000Y-79250000D03*
%TD*%
D33*
%TO.C,R1*%
X100000000Y-89925000D03*
X100000000Y-91575000D03*
%TD*%
D34*
%TO.C,J3*%
X106000000Y-79300000D03*
D35*
X106000000Y-81840000D03*
X106000000Y-84380000D03*
X106000000Y-86920000D03*
X106000000Y-89460000D03*
X106000000Y-92000000D03*
X106000000Y-94540000D03*
%TD*%
D18*
%TO.C,R5*%
X101740000Y-84250000D03*
X102760000Y-84250000D03*
%TD*%
D19*
%TO.C,C30*%
X73305000Y-78000000D03*
X73305000Y-78960000D03*
%TD*%
D36*
%TO.C,H2*%
X113000000Y-86550000D03*
%TD*%
D37*
%TO.C,C3*%
X89475000Y-78000000D03*
X91025000Y-78000000D03*
%TD*%
D36*
%TO.C,H3*%
X66000000Y-108000000D03*
%TD*%
D37*
%TO.C,C46*%
X90225000Y-108087500D03*
X91775000Y-108087500D03*
%TD*%
D20*
%TO.C,C6*%
X85270000Y-78500000D03*
X86230000Y-78500000D03*
%TD*%
D16*
%TO.C,C43*%
X80000000Y-105225000D03*
X80000000Y-106775000D03*
%TD*%
D34*
%TO.C,J2*%
X57340000Y-105260000D03*
D35*
X54800000Y-105260000D03*
X57340000Y-102720000D03*
X54800000Y-102720000D03*
X57340000Y-100180000D03*
X54800000Y-100180000D03*
X57340000Y-97640000D03*
X54800000Y-97640000D03*
X57340000Y-95100000D03*
X54800000Y-95100000D03*
X57340000Y-92560000D03*
X54800000Y-92560000D03*
X57340000Y-90020000D03*
X54800000Y-90020000D03*
X57340000Y-87480000D03*
X54800000Y-87480000D03*
X57340000Y-84940000D03*
X54800000Y-84940000D03*
X57340000Y-82400000D03*
X54800000Y-82400000D03*
X57340000Y-79860000D03*
X54800000Y-79860000D03*
X57340000Y-77320000D03*
X54800000Y-77320000D03*
X57340000Y-74780000D03*
X54800000Y-74780000D03*
%TD*%
D16*
%TO.C,C27*%
X112862500Y-101225000D03*
X112862500Y-102775000D03*
%TD*%
D15*
%TO.C,R17*%
X69175000Y-79000000D03*
X70825000Y-79000000D03*
%TD*%
D20*
%TO.C,C2*%
X88615000Y-80000000D03*
X89575000Y-80000000D03*
%TD*%
D14*
%TO.C,FID3*%
X74000000Y-75000000D03*
%TD*%
D24*
%TO.C,U11*%
X85725000Y-108137500D03*
X85725000Y-109087500D03*
X85725000Y-110037500D03*
X88000000Y-110037500D03*
X88000000Y-109087500D03*
X88000000Y-108137500D03*
%TD*%
D16*
%TO.C,C29*%
X118862500Y-107725000D03*
X118862500Y-109275000D03*
%TD*%
D11*
%TO.C,R12*%
X99376666Y-98490000D03*
X99376666Y-99510000D03*
%TD*%
D20*
%TO.C,C24*%
X83250000Y-79000000D03*
X84210000Y-79000000D03*
%TD*%
D36*
%TO.C,H1*%
X66000000Y-75000000D03*
%TD*%
D12*
%TO.C,RN3*%
X62000000Y-95041145D03*
D13*
X62000000Y-94241145D03*
X62000000Y-93441145D03*
D12*
X62000000Y-92641145D03*
X60200000Y-92641145D03*
D13*
X60200000Y-93441145D03*
X60200000Y-94241145D03*
D12*
X60200000Y-95041145D03*
%TD*%
D38*
%TO.C,C10*%
X83525000Y-96500000D03*
X81975000Y-96500000D03*
%TD*%
D18*
%TO.C,R6*%
X101766826Y-86904542D03*
X102786826Y-86904542D03*
%TD*%
D28*
%TO.C,C40*%
X100000000Y-108050000D03*
X100000000Y-106500000D03*
%TD*%
D14*
%TO.C,FID1*%
X114000000Y-75000000D03*
%TD*%
D16*
%TO.C,C8*%
X86000000Y-97225000D03*
X86000000Y-98775000D03*
%TD*%
D18*
%TO.C,R4*%
X101750000Y-81750000D03*
X102770000Y-81750000D03*
%TD*%
D12*
%TO.C,RN2*%
X62000000Y-89882290D03*
D13*
X62000000Y-89082290D03*
X62000000Y-88282290D03*
D12*
X62000000Y-87482290D03*
X60200000Y-87482290D03*
D13*
X60200000Y-88282290D03*
X60200000Y-89082290D03*
D12*
X60200000Y-89882290D03*
%TD*%
D34*
%TO.C,J1*%
X109620000Y-102500000D03*
D35*
X107080000Y-102500000D03*
X104540000Y-102500000D03*
X102000000Y-102500000D03*
X99460000Y-102500000D03*
X96920000Y-102500000D03*
X94380000Y-102500000D03*
%TD*%
D39*
X52375000Y-72050000D02*
X122375000Y-72050000D01*
X122375000Y-112050000D01*
X52375000Y-112050000D01*
X52375000Y-72050000D01*
M02*
