%TF.GenerationSoftware,KiCad,Pcbnew,9.0.5-1.fc42*%
%TF.CreationDate,2025-11-21T18:00:38+01:00*%
%TF.ProjectId,bioamplifier,62696f61-6d70-46c6-9966-6965722e6b69,rev?*%
%TF.SameCoordinates,Original*%
%TF.FileFunction,Legend,Top*%
%TF.FilePolarity,Positive*%
%FSLAX46Y46*%
G04 Gerber Fmt 4.6, Leading zero omitted, Abs format (unit mm)*
G04 Created by KiCad (PCBNEW 9.0.5-1.fc42) date 2025-11-21 18:00:38*
%MOMM*%
%LPD*%
G01*
G04 APERTURE LIST*
%ADD10C,0.150000*%
%ADD11C,0.125000*%
%ADD12C,0.120000*%
%ADD13C,0.250000*%
%ADD14C,0.100000*%
%ADD15C,0.152400*%
%ADD16C,0.000000*%
%TA.AperFunction,Profile*%
%ADD17C,0.100000*%
%TD*%
G04 APERTURE END LIST*
D10*
X77446666Y-73444819D02*
X77446666Y-74159104D01*
X77446666Y-74159104D02*
X77399047Y-74301961D01*
X77399047Y-74301961D02*
X77303809Y-74397200D01*
X77303809Y-74397200D02*
X77160952Y-74444819D01*
X77160952Y-74444819D02*
X77065714Y-74444819D01*
X78351428Y-73778152D02*
X78351428Y-74444819D01*
X78113333Y-73397200D02*
X77875238Y-74111485D01*
X77875238Y-74111485D02*
X78494285Y-74111485D01*
X67782142Y-77353853D02*
X67448809Y-76877662D01*
X67210714Y-77353853D02*
X67210714Y-76353853D01*
X67210714Y-76353853D02*
X67591666Y-76353853D01*
X67591666Y-76353853D02*
X67686904Y-76401472D01*
X67686904Y-76401472D02*
X67734523Y-76449091D01*
X67734523Y-76449091D02*
X67782142Y-76544329D01*
X67782142Y-76544329D02*
X67782142Y-76687186D01*
X67782142Y-76687186D02*
X67734523Y-76782424D01*
X67734523Y-76782424D02*
X67686904Y-76830043D01*
X67686904Y-76830043D02*
X67591666Y-76877662D01*
X67591666Y-76877662D02*
X67210714Y-76877662D01*
X68163095Y-76449091D02*
X68210714Y-76401472D01*
X68210714Y-76401472D02*
X68305952Y-76353853D01*
X68305952Y-76353853D02*
X68544047Y-76353853D01*
X68544047Y-76353853D02*
X68639285Y-76401472D01*
X68639285Y-76401472D02*
X68686904Y-76449091D01*
X68686904Y-76449091D02*
X68734523Y-76544329D01*
X68734523Y-76544329D02*
X68734523Y-76639567D01*
X68734523Y-76639567D02*
X68686904Y-76782424D01*
X68686904Y-76782424D02*
X68115476Y-77353853D01*
X68115476Y-77353853D02*
X68734523Y-77353853D01*
X69115476Y-76449091D02*
X69163095Y-76401472D01*
X69163095Y-76401472D02*
X69258333Y-76353853D01*
X69258333Y-76353853D02*
X69496428Y-76353853D01*
X69496428Y-76353853D02*
X69591666Y-76401472D01*
X69591666Y-76401472D02*
X69639285Y-76449091D01*
X69639285Y-76449091D02*
X69686904Y-76544329D01*
X69686904Y-76544329D02*
X69686904Y-76639567D01*
X69686904Y-76639567D02*
X69639285Y-76782424D01*
X69639285Y-76782424D02*
X69067857Y-77353853D01*
X69067857Y-77353853D02*
X69686904Y-77353853D01*
X703571Y743990D02*
X370238Y743990D01*
X370238Y220180D02*
X370238Y1220180D01*
X370238Y1220180D02*
X846428Y1220180D01*
X1227381Y220180D02*
X1227381Y1220180D01*
X1703571Y220180D02*
X1703571Y1220180D01*
X1703571Y1220180D02*
X1941666Y1220180D01*
X1941666Y1220180D02*
X2084523Y1172561D01*
X2084523Y1172561D02*
X2179761Y1077323D01*
X2179761Y1077323D02*
X2227380Y982085D01*
X2227380Y982085D02*
X2274999Y791609D01*
X2274999Y791609D02*
X2274999Y648752D01*
X2274999Y648752D02*
X2227380Y458276D01*
X2227380Y458276D02*
X2179761Y363038D01*
X2179761Y363038D02*
X2084523Y267800D01*
X2084523Y267800D02*
X1941666Y220180D01*
X1941666Y220180D02*
X1703571Y220180D01*
X3179761Y1220180D02*
X2703571Y1220180D01*
X2703571Y1220180D02*
X2655952Y743990D01*
X2655952Y743990D02*
X2703571Y791609D01*
X2703571Y791609D02*
X2798809Y839228D01*
X2798809Y839228D02*
X3036904Y839228D01*
X3036904Y839228D02*
X3132142Y791609D01*
X3132142Y791609D02*
X3179761Y743990D01*
X3179761Y743990D02*
X3227380Y648752D01*
X3227380Y648752D02*
X3227380Y410657D01*
X3227380Y410657D02*
X3179761Y315419D01*
X3179761Y315419D02*
X3132142Y267800D01*
X3132142Y267800D02*
X3036904Y220180D01*
X3036904Y220180D02*
X2798809Y220180D01*
X2798809Y220180D02*
X2703571Y267800D01*
X2703571Y267800D02*
X2655952Y315419D01*
X91789580Y-98666666D02*
X91837200Y-98714285D01*
X91837200Y-98714285D02*
X91884819Y-98857142D01*
X91884819Y-98857142D02*
X91884819Y-98952380D01*
X91884819Y-98952380D02*
X91837200Y-99095237D01*
X91837200Y-99095237D02*
X91741961Y-99190475D01*
X91741961Y-99190475D02*
X91646723Y-99238094D01*
X91646723Y-99238094D02*
X91456247Y-99285713D01*
X91456247Y-99285713D02*
X91313390Y-99285713D01*
X91313390Y-99285713D02*
X91122914Y-99238094D01*
X91122914Y-99238094D02*
X91027676Y-99190475D01*
X91027676Y-99190475D02*
X90932438Y-99095237D01*
X90932438Y-99095237D02*
X90884819Y-98952380D01*
X90884819Y-98952380D02*
X90884819Y-98857142D01*
X90884819Y-98857142D02*
X90932438Y-98714285D01*
X90932438Y-98714285D02*
X90980057Y-98666666D01*
X90884819Y-97761904D02*
X90884819Y-98238094D01*
X90884819Y-98238094D02*
X91361009Y-98285713D01*
X91361009Y-98285713D02*
X91313390Y-98238094D01*
X91313390Y-98238094D02*
X91265771Y-98142856D01*
X91265771Y-98142856D02*
X91265771Y-97904761D01*
X91265771Y-97904761D02*
X91313390Y-97809523D01*
X91313390Y-97809523D02*
X91361009Y-97761904D01*
X91361009Y-97761904D02*
X91456247Y-97714285D01*
X91456247Y-97714285D02*
X91694342Y-97714285D01*
X91694342Y-97714285D02*
X91789580Y-97761904D01*
X91789580Y-97761904D02*
X91837200Y-97809523D01*
X91837200Y-97809523D02*
X91884819Y-97904761D01*
X91884819Y-97904761D02*
X91884819Y-98142856D01*
X91884819Y-98142856D02*
X91837200Y-98238094D01*
X91837200Y-98238094D02*
X91789580Y-98285713D01*
X82059580Y-111302857D02*
X82107200Y-111350476D01*
X82107200Y-111350476D02*
X82154819Y-111493333D01*
X82154819Y-111493333D02*
X82154819Y-111588571D01*
X82154819Y-111588571D02*
X82107200Y-111731428D01*
X82107200Y-111731428D02*
X82011961Y-111826666D01*
X82011961Y-111826666D02*
X81916723Y-111874285D01*
X81916723Y-111874285D02*
X81726247Y-111921904D01*
X81726247Y-111921904D02*
X81583390Y-111921904D01*
X81583390Y-111921904D02*
X81392914Y-111874285D01*
X81392914Y-111874285D02*
X81297676Y-111826666D01*
X81297676Y-111826666D02*
X81202438Y-111731428D01*
X81202438Y-111731428D02*
X81154819Y-111588571D01*
X81154819Y-111588571D02*
X81154819Y-111493333D01*
X81154819Y-111493333D02*
X81202438Y-111350476D01*
X81202438Y-111350476D02*
X81250057Y-111302857D01*
X81488152Y-110445714D02*
X82154819Y-110445714D01*
X81107200Y-110683809D02*
X81821485Y-110921904D01*
X81821485Y-110921904D02*
X81821485Y-110302857D01*
X81154819Y-109445714D02*
X81154819Y-109921904D01*
X81154819Y-109921904D02*
X81631009Y-109969523D01*
X81631009Y-109969523D02*
X81583390Y-109921904D01*
X81583390Y-109921904D02*
X81535771Y-109826666D01*
X81535771Y-109826666D02*
X81535771Y-109588571D01*
X81535771Y-109588571D02*
X81583390Y-109493333D01*
X81583390Y-109493333D02*
X81631009Y-109445714D01*
X81631009Y-109445714D02*
X81726247Y-109398095D01*
X81726247Y-109398095D02*
X81964342Y-109398095D01*
X81964342Y-109398095D02*
X82059580Y-109445714D01*
X82059580Y-109445714D02*
X82107200Y-109493333D01*
X82107200Y-109493333D02*
X82154819Y-109588571D01*
X82154819Y-109588571D02*
X82154819Y-109826666D01*
X82154819Y-109826666D02*
X82107200Y-109921904D01*
X82107200Y-109921904D02*
X82059580Y-109969523D01*
X100511905Y-90124819D02*
X100511905Y-89124819D01*
X100511905Y-89124819D02*
X100750000Y-89124819D01*
X100750000Y-89124819D02*
X100892857Y-89172438D01*
X100892857Y-89172438D02*
X100988095Y-89267676D01*
X100988095Y-89267676D02*
X101035714Y-89362914D01*
X101035714Y-89362914D02*
X101083333Y-89553390D01*
X101083333Y-89553390D02*
X101083333Y-89696247D01*
X101083333Y-89696247D02*
X101035714Y-89886723D01*
X101035714Y-89886723D02*
X100988095Y-89981961D01*
X100988095Y-89981961D02*
X100892857Y-90077200D01*
X100892857Y-90077200D02*
X100750000Y-90124819D01*
X100750000Y-90124819D02*
X100511905Y-90124819D01*
X102035714Y-90124819D02*
X101464286Y-90124819D01*
X101750000Y-90124819D02*
X101750000Y-89124819D01*
X101750000Y-89124819D02*
X101654762Y-89267676D01*
X101654762Y-89267676D02*
X101559524Y-89362914D01*
X101559524Y-89362914D02*
X101464286Y-89410533D01*
X109369097Y-109317858D02*
X109416717Y-109365477D01*
X109416717Y-109365477D02*
X109464336Y-109508334D01*
X109464336Y-109508334D02*
X109464336Y-109603572D01*
X109464336Y-109603572D02*
X109416717Y-109746429D01*
X109416717Y-109746429D02*
X109321478Y-109841667D01*
X109321478Y-109841667D02*
X109226240Y-109889286D01*
X109226240Y-109889286D02*
X109035764Y-109936905D01*
X109035764Y-109936905D02*
X108892907Y-109936905D01*
X108892907Y-109936905D02*
X108702431Y-109889286D01*
X108702431Y-109889286D02*
X108607193Y-109841667D01*
X108607193Y-109841667D02*
X108511955Y-109746429D01*
X108511955Y-109746429D02*
X108464336Y-109603572D01*
X108464336Y-109603572D02*
X108464336Y-109508334D01*
X108464336Y-109508334D02*
X108511955Y-109365477D01*
X108511955Y-109365477D02*
X108559574Y-109317858D01*
X108559574Y-108936905D02*
X108511955Y-108889286D01*
X108511955Y-108889286D02*
X108464336Y-108794048D01*
X108464336Y-108794048D02*
X108464336Y-108555953D01*
X108464336Y-108555953D02*
X108511955Y-108460715D01*
X108511955Y-108460715D02*
X108559574Y-108413096D01*
X108559574Y-108413096D02*
X108654812Y-108365477D01*
X108654812Y-108365477D02*
X108750050Y-108365477D01*
X108750050Y-108365477D02*
X108892907Y-108413096D01*
X108892907Y-108413096D02*
X109464336Y-108984524D01*
X109464336Y-108984524D02*
X109464336Y-108365477D01*
X108464336Y-107460715D02*
X108464336Y-107936905D01*
X108464336Y-107936905D02*
X108940526Y-107984524D01*
X108940526Y-107984524D02*
X108892907Y-107936905D01*
X108892907Y-107936905D02*
X108845288Y-107841667D01*
X108845288Y-107841667D02*
X108845288Y-107603572D01*
X108845288Y-107603572D02*
X108892907Y-107508334D01*
X108892907Y-107508334D02*
X108940526Y-107460715D01*
X108940526Y-107460715D02*
X109035764Y-107413096D01*
X109035764Y-107413096D02*
X109273859Y-107413096D01*
X109273859Y-107413096D02*
X109369097Y-107460715D01*
X109369097Y-107460715D02*
X109416717Y-107508334D01*
X109416717Y-107508334D02*
X109464336Y-107603572D01*
X109464336Y-107603572D02*
X109464336Y-107841667D01*
X109464336Y-107841667D02*
X109416717Y-107936905D01*
X109416717Y-107936905D02*
X109369097Y-107984524D01*
X79199580Y-102642857D02*
X79247200Y-102690476D01*
X79247200Y-102690476D02*
X79294819Y-102833333D01*
X79294819Y-102833333D02*
X79294819Y-102928571D01*
X79294819Y-102928571D02*
X79247200Y-103071428D01*
X79247200Y-103071428D02*
X79151961Y-103166666D01*
X79151961Y-103166666D02*
X79056723Y-103214285D01*
X79056723Y-103214285D02*
X78866247Y-103261904D01*
X78866247Y-103261904D02*
X78723390Y-103261904D01*
X78723390Y-103261904D02*
X78532914Y-103214285D01*
X78532914Y-103214285D02*
X78437676Y-103166666D01*
X78437676Y-103166666D02*
X78342438Y-103071428D01*
X78342438Y-103071428D02*
X78294819Y-102928571D01*
X78294819Y-102928571D02*
X78294819Y-102833333D01*
X78294819Y-102833333D02*
X78342438Y-102690476D01*
X78342438Y-102690476D02*
X78390057Y-102642857D01*
X78628152Y-101785714D02*
X79294819Y-101785714D01*
X78247200Y-102023809D02*
X78961485Y-102261904D01*
X78961485Y-102261904D02*
X78961485Y-101642857D01*
X78628152Y-100833333D02*
X79294819Y-100833333D01*
X78247200Y-101071428D02*
X78961485Y-101309523D01*
X78961485Y-101309523D02*
X78961485Y-100690476D01*
X114374819Y-97333333D02*
X115089104Y-97333333D01*
X115089104Y-97333333D02*
X115231961Y-97380952D01*
X115231961Y-97380952D02*
X115327200Y-97476190D01*
X115327200Y-97476190D02*
X115374819Y-97619047D01*
X115374819Y-97619047D02*
X115374819Y-97714285D01*
X114374819Y-96380952D02*
X114374819Y-96857142D01*
X114374819Y-96857142D02*
X114851009Y-96904761D01*
X114851009Y-96904761D02*
X114803390Y-96857142D01*
X114803390Y-96857142D02*
X114755771Y-96761904D01*
X114755771Y-96761904D02*
X114755771Y-96523809D01*
X114755771Y-96523809D02*
X114803390Y-96428571D01*
X114803390Y-96428571D02*
X114851009Y-96380952D01*
X114851009Y-96380952D02*
X114946247Y-96333333D01*
X114946247Y-96333333D02*
X115184342Y-96333333D01*
X115184342Y-96333333D02*
X115279580Y-96380952D01*
X115279580Y-96380952D02*
X115327200Y-96428571D01*
X115327200Y-96428571D02*
X115374819Y-96523809D01*
X115374819Y-96523809D02*
X115374819Y-96761904D01*
X115374819Y-96761904D02*
X115327200Y-96857142D01*
X115327200Y-96857142D02*
X115279580Y-96904761D01*
X109666666Y-74424819D02*
X109666666Y-75139104D01*
X109666666Y-75139104D02*
X109619047Y-75281961D01*
X109619047Y-75281961D02*
X109523809Y-75377200D01*
X109523809Y-75377200D02*
X109380952Y-75424819D01*
X109380952Y-75424819D02*
X109285714Y-75424819D01*
X110047619Y-74424819D02*
X110666666Y-74424819D01*
X110666666Y-74424819D02*
X110333333Y-74805771D01*
X110333333Y-74805771D02*
X110476190Y-74805771D01*
X110476190Y-74805771D02*
X110571428Y-74853390D01*
X110571428Y-74853390D02*
X110619047Y-74901009D01*
X110619047Y-74901009D02*
X110666666Y-74996247D01*
X110666666Y-74996247D02*
X110666666Y-75234342D01*
X110666666Y-75234342D02*
X110619047Y-75329580D01*
X110619047Y-75329580D02*
X110571428Y-75377200D01*
X110571428Y-75377200D02*
X110476190Y-75424819D01*
X110476190Y-75424819D02*
X110190476Y-75424819D01*
X110190476Y-75424819D02*
X110095238Y-75377200D01*
X110095238Y-75377200D02*
X110047619Y-75329580D01*
X114238095Y-84504819D02*
X114238095Y-83504819D01*
X114238095Y-83981009D02*
X114809523Y-83981009D01*
X114809523Y-84504819D02*
X114809523Y-83504819D01*
X115238095Y-83600057D02*
X115285714Y-83552438D01*
X115285714Y-83552438D02*
X115380952Y-83504819D01*
X115380952Y-83504819D02*
X115619047Y-83504819D01*
X115619047Y-83504819D02*
X115714285Y-83552438D01*
X115714285Y-83552438D02*
X115761904Y-83600057D01*
X115761904Y-83600057D02*
X115809523Y-83695295D01*
X115809523Y-83695295D02*
X115809523Y-83790533D01*
X115809523Y-83790533D02*
X115761904Y-83933390D01*
X115761904Y-83933390D02*
X115190476Y-84504819D01*
X115190476Y-84504819D02*
X115809523Y-84504819D01*
X90357142Y-107287080D02*
X90309523Y-107334700D01*
X90309523Y-107334700D02*
X90166666Y-107382319D01*
X90166666Y-107382319D02*
X90071428Y-107382319D01*
X90071428Y-107382319D02*
X89928571Y-107334700D01*
X89928571Y-107334700D02*
X89833333Y-107239461D01*
X89833333Y-107239461D02*
X89785714Y-107144223D01*
X89785714Y-107144223D02*
X89738095Y-106953747D01*
X89738095Y-106953747D02*
X89738095Y-106810890D01*
X89738095Y-106810890D02*
X89785714Y-106620414D01*
X89785714Y-106620414D02*
X89833333Y-106525176D01*
X89833333Y-106525176D02*
X89928571Y-106429938D01*
X89928571Y-106429938D02*
X90071428Y-106382319D01*
X90071428Y-106382319D02*
X90166666Y-106382319D01*
X90166666Y-106382319D02*
X90309523Y-106429938D01*
X90309523Y-106429938D02*
X90357142Y-106477557D01*
X91214285Y-106715652D02*
X91214285Y-107382319D01*
X90976190Y-106334700D02*
X90738095Y-107048985D01*
X90738095Y-107048985D02*
X91357142Y-107048985D01*
X92166666Y-106382319D02*
X91976190Y-106382319D01*
X91976190Y-106382319D02*
X91880952Y-106429938D01*
X91880952Y-106429938D02*
X91833333Y-106477557D01*
X91833333Y-106477557D02*
X91738095Y-106620414D01*
X91738095Y-106620414D02*
X91690476Y-106810890D01*
X91690476Y-106810890D02*
X91690476Y-107191842D01*
X91690476Y-107191842D02*
X91738095Y-107287080D01*
X91738095Y-107287080D02*
X91785714Y-107334700D01*
X91785714Y-107334700D02*
X91880952Y-107382319D01*
X91880952Y-107382319D02*
X92071428Y-107382319D01*
X92071428Y-107382319D02*
X92166666Y-107334700D01*
X92166666Y-107334700D02*
X92214285Y-107287080D01*
X92214285Y-107287080D02*
X92261904Y-107191842D01*
X92261904Y-107191842D02*
X92261904Y-106953747D01*
X92261904Y-106953747D02*
X92214285Y-106858509D01*
X92214285Y-106858509D02*
X92166666Y-106810890D01*
X92166666Y-106810890D02*
X92071428Y-106763271D01*
X92071428Y-106763271D02*
X91880952Y-106763271D01*
X91880952Y-106763271D02*
X91785714Y-106810890D01*
X91785714Y-106810890D02*
X91738095Y-106858509D01*
X91738095Y-106858509D02*
X91690476Y-106953747D01*
D11*
X51518333Y-107254809D02*
X51518333Y-107611952D01*
X51518333Y-107611952D02*
X51494524Y-107683380D01*
X51494524Y-107683380D02*
X51446905Y-107731000D01*
X51446905Y-107731000D02*
X51375476Y-107754809D01*
X51375476Y-107754809D02*
X51327857Y-107754809D01*
X51732619Y-107302428D02*
X51756428Y-107278619D01*
X51756428Y-107278619D02*
X51804047Y-107254809D01*
X51804047Y-107254809D02*
X51923095Y-107254809D01*
X51923095Y-107254809D02*
X51970714Y-107278619D01*
X51970714Y-107278619D02*
X51994523Y-107302428D01*
X51994523Y-107302428D02*
X52018333Y-107350047D01*
X52018333Y-107350047D02*
X52018333Y-107397666D01*
X52018333Y-107397666D02*
X51994523Y-107469095D01*
X51994523Y-107469095D02*
X51708809Y-107754809D01*
X51708809Y-107754809D02*
X52018333Y-107754809D01*
D10*
X69782142Y-75274819D02*
X69448809Y-74798628D01*
X69210714Y-75274819D02*
X69210714Y-74274819D01*
X69210714Y-74274819D02*
X69591666Y-74274819D01*
X69591666Y-74274819D02*
X69686904Y-74322438D01*
X69686904Y-74322438D02*
X69734523Y-74370057D01*
X69734523Y-74370057D02*
X69782142Y-74465295D01*
X69782142Y-74465295D02*
X69782142Y-74608152D01*
X69782142Y-74608152D02*
X69734523Y-74703390D01*
X69734523Y-74703390D02*
X69686904Y-74751009D01*
X69686904Y-74751009D02*
X69591666Y-74798628D01*
X69591666Y-74798628D02*
X69210714Y-74798628D01*
X70734523Y-75274819D02*
X70163095Y-75274819D01*
X70448809Y-75274819D02*
X70448809Y-74274819D01*
X70448809Y-74274819D02*
X70353571Y-74417676D01*
X70353571Y-74417676D02*
X70258333Y-74512914D01*
X70258333Y-74512914D02*
X70163095Y-74560533D01*
X71067857Y-74274819D02*
X71734523Y-74274819D01*
X71734523Y-74274819D02*
X71305952Y-75274819D01*
X112867319Y-108738094D02*
X111867319Y-108738094D01*
X111867319Y-108738094D02*
X111867319Y-108499999D01*
X111867319Y-108499999D02*
X111914938Y-108357142D01*
X111914938Y-108357142D02*
X112010176Y-108261904D01*
X112010176Y-108261904D02*
X112105414Y-108214285D01*
X112105414Y-108214285D02*
X112295890Y-108166666D01*
X112295890Y-108166666D02*
X112438747Y-108166666D01*
X112438747Y-108166666D02*
X112629223Y-108214285D01*
X112629223Y-108214285D02*
X112724461Y-108261904D01*
X112724461Y-108261904D02*
X112819700Y-108357142D01*
X112819700Y-108357142D02*
X112867319Y-108499999D01*
X112867319Y-108499999D02*
X112867319Y-108738094D01*
X111962557Y-107785713D02*
X111914938Y-107738094D01*
X111914938Y-107738094D02*
X111867319Y-107642856D01*
X111867319Y-107642856D02*
X111867319Y-107404761D01*
X111867319Y-107404761D02*
X111914938Y-107309523D01*
X111914938Y-107309523D02*
X111962557Y-107261904D01*
X111962557Y-107261904D02*
X112057795Y-107214285D01*
X112057795Y-107214285D02*
X112153033Y-107214285D01*
X112153033Y-107214285D02*
X112295890Y-107261904D01*
X112295890Y-107261904D02*
X112867319Y-107833332D01*
X112867319Y-107833332D02*
X112867319Y-107214285D01*
X102833333Y-89024819D02*
X102500000Y-88548628D01*
X102261905Y-89024819D02*
X102261905Y-88024819D01*
X102261905Y-88024819D02*
X102642857Y-88024819D01*
X102642857Y-88024819D02*
X102738095Y-88072438D01*
X102738095Y-88072438D02*
X102785714Y-88120057D01*
X102785714Y-88120057D02*
X102833333Y-88215295D01*
X102833333Y-88215295D02*
X102833333Y-88358152D01*
X102833333Y-88358152D02*
X102785714Y-88453390D01*
X102785714Y-88453390D02*
X102738095Y-88501009D01*
X102738095Y-88501009D02*
X102642857Y-88548628D01*
X102642857Y-88548628D02*
X102261905Y-88548628D01*
X103785714Y-89024819D02*
X103214286Y-89024819D01*
X103500000Y-89024819D02*
X103500000Y-88024819D01*
X103500000Y-88024819D02*
X103404762Y-88167676D01*
X103404762Y-88167676D02*
X103309524Y-88262914D01*
X103309524Y-88262914D02*
X103214286Y-88310533D01*
D12*
%TO.C,J4*%
X76400000Y-74990000D02*
X77780000Y-74990000D01*
X76400000Y-76370000D02*
X76400000Y-74990000D01*
X76400000Y-77640000D02*
X76400000Y-80290000D01*
X76400000Y-77640000D02*
X79160000Y-77640000D01*
X76400000Y-80290000D02*
X79160000Y-80290000D01*
X79160000Y-77640000D02*
X79160000Y-80290000D01*
D10*
%TO.C,U8*%
X105900000Y-105800001D02*
X103100000Y-105800001D01*
X105900000Y-109199999D02*
X103100000Y-109199999D01*
D13*
X107528102Y-108474999D02*
G75*
G02*
X107278100Y-108474999I-125001J0D01*
G01*
X107278100Y-108474999D02*
G75*
G02*
X107528102Y-108474999I125001J0D01*
G01*
D12*
%TO.C,R14*%
X94005557Y-98846359D02*
X94005557Y-99153641D01*
X94765557Y-98846359D02*
X94765557Y-99153641D01*
%TO.C,C17*%
X67162164Y-83016709D02*
X67377836Y-83016709D01*
X67162164Y-83736709D02*
X67377836Y-83736709D01*
%TO.C,RN4*%
X60600000Y-81843435D02*
X61600000Y-81843435D01*
X60600000Y-85203435D02*
X61600000Y-85203435D01*
%TO.C,R22*%
X66687742Y-75727500D02*
X67162258Y-75727500D01*
X66687742Y-76772500D02*
X67162258Y-76772500D01*
%TO.C,R10*%
X104097111Y-98846359D02*
X104097111Y-99153641D01*
X104857111Y-98846359D02*
X104857111Y-99153641D01*
%TO.C,C5*%
X89015000Y-98238748D02*
X89015000Y-98761252D01*
X90485000Y-98238748D02*
X90485000Y-98761252D01*
%TO.C,C16*%
X67162164Y-88047532D02*
X67377836Y-88047532D01*
X67162164Y-88767532D02*
X67377836Y-88767532D01*
%TO.C,R15*%
X114062258Y-110477500D02*
X113587742Y-110477500D01*
X114062258Y-111522500D02*
X113587742Y-111522500D01*
%TO.C,C4*%
X89357836Y-95640000D02*
X89142164Y-95640000D01*
X89357836Y-96360000D02*
X89142164Y-96360000D01*
%TO.C,R7*%
X106269224Y-87042865D02*
X106576506Y-87042865D01*
X106269224Y-87802865D02*
X106576506Y-87802865D01*
%TO.C,R8*%
X106096359Y-89620000D02*
X106403641Y-89620000D01*
X106096359Y-90380000D02*
X106403641Y-90380000D01*
%TO.C,C45*%
X82500000Y-110767836D02*
X82500000Y-110552164D01*
X83220000Y-110767836D02*
X83220000Y-110552164D01*
%TO.C,C32*%
X67162164Y-79662827D02*
X67377836Y-79662827D01*
X67162164Y-80382827D02*
X67377836Y-80382827D01*
D14*
%TO.C,D1*%
X102390000Y-88500000D02*
G75*
G02*
X102290000Y-88500000I-50000J0D01*
G01*
X102290000Y-88500000D02*
G75*
G02*
X102390000Y-88500000I50000J0D01*
G01*
D12*
%TO.C,C23*%
X85890000Y-80392164D02*
X85890000Y-80607836D01*
X86610000Y-80392164D02*
X86610000Y-80607836D01*
%TO.C,C25*%
X107489517Y-108567165D02*
X107489517Y-108782837D01*
X108209517Y-108567165D02*
X108209517Y-108782837D01*
%TO.C,C21*%
X91607836Y-95640000D02*
X91392164Y-95640000D01*
X91607836Y-96360000D02*
X91392164Y-96360000D01*
%TO.C,C13*%
X67162164Y-96432236D02*
X67377836Y-96432236D01*
X67162164Y-97152236D02*
X67377836Y-97152236D01*
%TO.C,C20*%
X91142164Y-81640000D02*
X91357836Y-81640000D01*
X91142164Y-82360000D02*
X91357836Y-82360000D01*
%TO.C,U7*%
X83000000Y-102440000D02*
X82200000Y-102440000D01*
X83000000Y-102440000D02*
X83800000Y-102440000D01*
X83000000Y-105560000D02*
X82200000Y-105560000D01*
X83000000Y-105560000D02*
X84800000Y-105560000D01*
%TO.C,RN1*%
X60600000Y-97320000D02*
X61600000Y-97320000D01*
X60600000Y-100680000D02*
X61600000Y-100680000D01*
%TO.C,C1*%
X92392164Y-97140000D02*
X92607836Y-97140000D01*
X92392164Y-97860000D02*
X92607836Y-97860000D01*
%TO.C,U6*%
X116862500Y-102940000D02*
X116062500Y-102940000D01*
X116862500Y-102940000D02*
X117662500Y-102940000D01*
X116862500Y-106060000D02*
X116062500Y-106060000D01*
X116862500Y-106060000D02*
X117662500Y-106060000D01*
X115562500Y-102990000D02*
X115322500Y-102660000D01*
X115802500Y-102660000D01*
X115562500Y-102990000D01*
G36*
X115562500Y-102990000D02*
G01*
X115322500Y-102660000D01*
X115802500Y-102660000D01*
X115562500Y-102990000D01*
G37*
%TO.C,R11*%
X101574223Y-98846359D02*
X101574223Y-99153641D01*
X102334223Y-98846359D02*
X102334223Y-99153641D01*
%TO.C,R2*%
X68432742Y-106977500D02*
X68907258Y-106977500D01*
X68432742Y-108022500D02*
X68907258Y-108022500D01*
%TO.C,C37*%
X64890000Y-107892164D02*
X64890000Y-108107836D01*
X65610000Y-107892164D02*
X65610000Y-108107836D01*
%TO.C,C39*%
X61640000Y-78587836D02*
X61640000Y-78372164D01*
X62360000Y-78587836D02*
X62360000Y-78372164D01*
%TO.C,C38*%
X65932836Y-105058850D02*
X65717164Y-105058850D01*
X65932836Y-105778850D02*
X65717164Y-105778850D01*
%TO.C,C33*%
X67162164Y-77985886D02*
X67377836Y-77985886D01*
X67162164Y-78705886D02*
X67377836Y-78705886D01*
%TO.C,C9*%
X83261252Y-97765000D02*
X82738748Y-97765000D01*
X83261252Y-99235000D02*
X82738748Y-99235000D01*
%TO.C,C44*%
X79640000Y-102107836D02*
X79640000Y-101892164D01*
X80360000Y-102107836D02*
X80360000Y-101892164D01*
%TO.C,C36*%
X67162164Y-98109177D02*
X67377836Y-98109177D01*
X67162164Y-98829177D02*
X67377836Y-98829177D01*
%TO.C,C42*%
X86490000Y-103640580D02*
X86490000Y-103359420D01*
X87510000Y-103640580D02*
X87510000Y-103359420D01*
%TO.C,J5*%
X108620000Y-95620000D02*
X108620000Y-98380000D01*
X111270000Y-95620000D02*
X108620000Y-95620000D01*
X111270000Y-95620000D02*
X111270000Y-98380000D01*
X111270000Y-98380000D02*
X108620000Y-98380000D01*
X112540000Y-95620000D02*
X113920000Y-95620000D01*
X113920000Y-95620000D02*
X113920000Y-97000000D01*
%TO.C,C35*%
X67162164Y-91401413D02*
X67377836Y-91401413D01*
X67162164Y-92121413D02*
X67377836Y-92121413D01*
%TO.C,C41*%
X116352500Y-108359420D02*
X116352500Y-108640580D01*
X117372500Y-108359420D02*
X117372500Y-108640580D01*
%TO.C,C18*%
X67162164Y-81339768D02*
X67377836Y-81339768D01*
X67162164Y-82059768D02*
X67377836Y-82059768D01*
%TO.C,C26*%
X67162164Y-99786118D02*
X67377836Y-99786118D01*
X67162164Y-100506118D02*
X67377836Y-100506118D01*
%TO.C,R13*%
X96528446Y-98846359D02*
X96528446Y-99153641D01*
X97288446Y-98846359D02*
X97288446Y-99153641D01*
%TO.C,C31*%
X67162164Y-84693650D02*
X67377836Y-84693650D01*
X67162164Y-85413650D02*
X67377836Y-85413650D01*
%TO.C,C34*%
X67162164Y-93078354D02*
X67377836Y-93078354D01*
X67162164Y-93798354D02*
X67377836Y-93798354D01*
%TO.C,C14*%
X67162164Y-94755295D02*
X67377836Y-94755295D01*
X67162164Y-95475295D02*
X67377836Y-95475295D01*
%TO.C,R9*%
X106620000Y-98846359D02*
X106620000Y-99153641D01*
X107380000Y-98846359D02*
X107380000Y-99153641D01*
D15*
%TO.C,U1*%
X79017600Y-83267600D02*
X79017600Y-84277560D01*
X79017600Y-92722440D02*
X79017600Y-93732400D01*
X79017600Y-93732400D02*
X80027560Y-93732400D01*
X80027560Y-83267600D02*
X79017600Y-83267600D01*
X88472440Y-93732400D02*
X89482400Y-93732400D01*
X89482400Y-83267600D02*
X88472440Y-83267600D01*
X89482400Y-84277560D02*
X89482400Y-83267600D01*
X89482400Y-93732400D02*
X89482400Y-92722440D01*
D16*
G36*
X77544400Y-89440501D02*
G01*
X77290400Y-89440501D01*
X77290400Y-89059501D01*
X77544400Y-89059501D01*
X77544400Y-89440501D01*
G37*
G36*
X82190499Y-95459600D02*
G01*
X81809499Y-95459600D01*
X81809499Y-95205600D01*
X82190499Y-95205600D01*
X82190499Y-95459600D01*
G37*
G36*
X82690501Y-81794400D02*
G01*
X82309501Y-81794400D01*
X82309501Y-81540400D01*
X82690501Y-81540400D01*
X82690501Y-81794400D01*
G37*
G36*
X87190500Y-95459600D02*
G01*
X86809500Y-95459600D01*
X86809500Y-95205600D01*
X87190500Y-95205600D01*
X87190500Y-95459600D01*
G37*
G36*
X87690501Y-81794400D02*
G01*
X87309501Y-81794400D01*
X87309501Y-81540400D01*
X87690501Y-81540400D01*
X87690501Y-81794400D01*
G37*
G36*
X91209600Y-88940500D02*
G01*
X90955600Y-88940500D01*
X90955600Y-88559499D01*
X91209600Y-88559499D01*
X91209600Y-88940500D01*
G37*
D12*
%TO.C,C7*%
X85642164Y-76640000D02*
X85857836Y-76640000D01*
X85642164Y-77360000D02*
X85857836Y-77360000D01*
%TO.C,C11*%
X67162164Y-103140000D02*
X67377836Y-103140000D01*
X67162164Y-103860000D02*
X67377836Y-103860000D01*
%TO.C,R20*%
X70087742Y-104477500D02*
X70562258Y-104477500D01*
X70087742Y-105522500D02*
X70562258Y-105522500D01*
%TO.C,R18*%
X74477500Y-79237258D02*
X74477500Y-78762742D01*
X75522500Y-79237258D02*
X75522500Y-78762742D01*
%TO.C,C19*%
X91142164Y-83140000D02*
X91357836Y-83140000D01*
X91142164Y-83860000D02*
X91357836Y-83860000D01*
%TO.C,C22*%
X82278126Y-79948321D02*
X82493798Y-79948321D01*
X82278126Y-80668321D02*
X82493798Y-80668321D01*
%TO.C,C28*%
X67162164Y-86370591D02*
X67377836Y-86370591D01*
X67162164Y-87090591D02*
X67377836Y-87090591D01*
%TO.C,R3*%
X106096359Y-76870000D02*
X106403641Y-76870000D01*
X106096359Y-77630000D02*
X106403641Y-77630000D01*
%TO.C,J3*%
X108670000Y-75970000D02*
X110000000Y-75970000D01*
X108670000Y-77300000D02*
X108670000Y-75970000D01*
X108670000Y-78570000D02*
X108670000Y-93870000D01*
X108670000Y-78570000D02*
X111330000Y-78570000D01*
X108670000Y-93870000D02*
X111330000Y-93870000D01*
X111330000Y-78570000D02*
X111330000Y-93870000D01*
%TO.C,R5*%
X106096359Y-81870000D02*
X106403641Y-81870000D01*
X106096359Y-82630000D02*
X106403641Y-82630000D01*
%TO.C,C30*%
X72945000Y-78372164D02*
X72945000Y-78587836D01*
X73665000Y-78372164D02*
X73665000Y-78587836D01*
%TO.C,C3*%
X90109420Y-77490000D02*
X90390580Y-77490000D01*
X90109420Y-78510000D02*
X90390580Y-78510000D01*
%TO.C,C46*%
X90892164Y-107727500D02*
X91107836Y-107727500D01*
X90892164Y-108447500D02*
X91107836Y-108447500D01*
%TO.C,C6*%
X85642164Y-78140000D02*
X85857836Y-78140000D01*
X85642164Y-78860000D02*
X85857836Y-78860000D01*
%TO.C,C43*%
X79490000Y-105859420D02*
X79490000Y-106140580D01*
X80510000Y-105859420D02*
X80510000Y-106140580D01*
%TO.C,J2*%
X44700000Y-74400000D02*
X50700000Y-74400000D01*
X44700000Y-75160000D02*
X44700000Y-74400000D01*
X44700000Y-76940000D02*
X50700000Y-76940000D01*
X44700000Y-77700000D02*
X44700000Y-76940000D01*
X44700000Y-79480000D02*
X50700000Y-79480000D01*
X44700000Y-80240000D02*
X44700000Y-79480000D01*
X44700000Y-82020000D02*
X50700000Y-82020000D01*
X44700000Y-82780000D02*
X44700000Y-82020000D01*
X44700000Y-84560000D02*
X50700000Y-84560000D01*
X44700000Y-85320000D02*
X44700000Y-84560000D01*
X44700000Y-87100000D02*
X50700000Y-87100000D01*
X44700000Y-87860000D02*
X44700000Y-87100000D01*
X44700000Y-89640000D02*
X50700000Y-89640000D01*
X44700000Y-90400000D02*
X44700000Y-89640000D01*
X44700000Y-92180000D02*
X50700000Y-92180000D01*
X44700000Y-92940000D02*
X44700000Y-92180000D01*
X44700000Y-94720000D02*
X50700000Y-94720000D01*
X44700000Y-95480000D02*
X44700000Y-94720000D01*
X44700000Y-97260000D02*
X50700000Y-97260000D01*
X44700000Y-98020000D02*
X44700000Y-97260000D01*
X44700000Y-99800000D02*
X50700000Y-99800000D01*
X44700000Y-100560000D02*
X44700000Y-99800000D01*
X44700000Y-102340000D02*
X50700000Y-102340000D01*
X44700000Y-103100000D02*
X44700000Y-102340000D01*
X44700000Y-104880000D02*
X50700000Y-104880000D01*
X44700000Y-105640000D02*
X44700000Y-104880000D01*
X50700000Y-73450000D02*
X50700000Y-106590000D01*
X50700000Y-75160000D02*
X44700000Y-75160000D01*
X50700000Y-77700000D02*
X44700000Y-77700000D01*
X50700000Y-80240000D02*
X44700000Y-80240000D01*
X50700000Y-82780000D02*
X44700000Y-82780000D01*
X50700000Y-85320000D02*
X44700000Y-85320000D01*
X50700000Y-87860000D02*
X44700000Y-87860000D01*
X50700000Y-90400000D02*
X44700000Y-90400000D01*
X50700000Y-92940000D02*
X44700000Y-92940000D01*
X50700000Y-95480000D02*
X44700000Y-95480000D01*
X50700000Y-98020000D02*
X44700000Y-98020000D01*
X50700000Y-100560000D02*
X44700000Y-100560000D01*
X50700000Y-103100000D02*
X44700000Y-103100000D01*
X50700000Y-104980000D02*
X44700000Y-104980000D01*
X50700000Y-105100000D02*
X44700000Y-105100000D01*
X50700000Y-105220000D02*
X44700000Y-105220000D01*
X50700000Y-105340000D02*
X44700000Y-105340000D01*
X50700000Y-105460000D02*
X44700000Y-105460000D01*
X50700000Y-105580000D02*
X44700000Y-105580000D01*
X50700000Y-105640000D02*
X44700000Y-105640000D01*
X50700000Y-106590000D02*
X53360000Y-106590000D01*
X53360000Y-73450000D02*
X50700000Y-73450000D01*
X53360000Y-76050000D02*
X50700000Y-76050000D01*
X53360000Y-78590000D02*
X50700000Y-78590000D01*
X53360000Y-81130000D02*
X50700000Y-81130000D01*
X53360000Y-83670000D02*
X50700000Y-83670000D01*
X53360000Y-86210000D02*
X50700000Y-86210000D01*
X53360000Y-88750000D02*
X50700000Y-88750000D01*
X53360000Y-91290000D02*
X50700000Y-91290000D01*
X53360000Y-93830000D02*
X50700000Y-93830000D01*
X53360000Y-96370000D02*
X50700000Y-96370000D01*
X53360000Y-98910000D02*
X50700000Y-98910000D01*
X53360000Y-101450000D02*
X50700000Y-101450000D01*
X53360000Y-103990000D02*
X50700000Y-103990000D01*
X53360000Y-106590000D02*
X53360000Y-73450000D01*
X53757071Y-74400000D02*
X53360000Y-74400000D01*
X53757071Y-75160000D02*
X53360000Y-75160000D01*
X53757071Y-76940000D02*
X53360000Y-76940000D01*
X53757071Y-77700000D02*
X53360000Y-77700000D01*
X53757071Y-79480000D02*
X53360000Y-79480000D01*
X53757071Y-80240000D02*
X53360000Y-80240000D01*
X53757071Y-82020000D02*
X53360000Y-82020000D01*
X53757071Y-82780000D02*
X53360000Y-82780000D01*
X53757071Y-84560000D02*
X53360000Y-84560000D01*
X53757071Y-85320000D02*
X53360000Y-85320000D01*
X53757071Y-87100000D02*
X53360000Y-87100000D01*
X53757071Y-87860000D02*
X53360000Y-87860000D01*
X53757071Y-89640000D02*
X53360000Y-89640000D01*
X53757071Y-90400000D02*
X53360000Y-90400000D01*
X53757071Y-92180000D02*
X53360000Y-92180000D01*
X53757071Y-92940000D02*
X53360000Y-92940000D01*
X53757071Y-94720000D02*
X53360000Y-94720000D01*
X53757071Y-95480000D02*
X53360000Y-95480000D01*
X53757071Y-97260000D02*
X53360000Y-97260000D01*
X53757071Y-98020000D02*
X53360000Y-98020000D01*
X53757071Y-99800000D02*
X53360000Y-99800000D01*
X53757071Y-100560000D02*
X53360000Y-100560000D01*
X53757071Y-102340000D02*
X53360000Y-102340000D01*
X53757071Y-103100000D02*
X53360000Y-103100000D01*
X53757071Y-104880000D02*
X53360000Y-104880000D01*
X53757071Y-105640000D02*
X53360000Y-105640000D01*
X56230000Y-104880000D02*
X55842929Y-104880000D01*
X56230000Y-105640000D02*
X55842929Y-105640000D01*
X56297071Y-74400000D02*
X55842929Y-74400000D01*
X56297071Y-75160000D02*
X55842929Y-75160000D01*
X56297071Y-76940000D02*
X55842929Y-76940000D01*
X56297071Y-77700000D02*
X55842929Y-77700000D01*
X56297071Y-79480000D02*
X55842929Y-79480000D01*
X56297071Y-80240000D02*
X55842929Y-80240000D01*
X56297071Y-82020000D02*
X55842929Y-82020000D01*
X56297071Y-82780000D02*
X55842929Y-82780000D01*
X56297071Y-84560000D02*
X55842929Y-84560000D01*
X56297071Y-85320000D02*
X55842929Y-85320000D01*
X56297071Y-87100000D02*
X55842929Y-87100000D01*
X56297071Y-87860000D02*
X55842929Y-87860000D01*
X56297071Y-89640000D02*
X55842929Y-89640000D01*
X56297071Y-90400000D02*
X55842929Y-90400000D01*
X56297071Y-92180000D02*
X55842929Y-92180000D01*
X56297071Y-92940000D02*
X55842929Y-92940000D01*
X56297071Y-94720000D02*
X55842929Y-94720000D01*
X56297071Y-95480000D02*
X55842929Y-95480000D01*
X56297071Y-97260000D02*
X55842929Y-97260000D01*
X56297071Y-98020000D02*
X55842929Y-98020000D01*
X56297071Y-99800000D02*
X55842929Y-99800000D01*
X56297071Y-100560000D02*
X55842929Y-100560000D01*
X56297071Y-102340000D02*
X55842929Y-102340000D01*
X56297071Y-103100000D02*
X55842929Y-103100000D01*
X58610000Y-105260000D02*
X58610000Y-106530000D01*
X58610000Y-106530000D02*
X57340000Y-106530000D01*
%TO.C,C27*%
X112352500Y-101859420D02*
X112352500Y-102140580D01*
X113372500Y-101859420D02*
X113372500Y-102140580D01*
%TO.C,R17*%
X70187742Y-75727500D02*
X70662258Y-75727500D01*
X70187742Y-76772500D02*
X70662258Y-76772500D01*
%TO.C,C2*%
X88987164Y-79640000D02*
X89202836Y-79640000D01*
X88987164Y-80360000D02*
X89202836Y-80360000D01*
%TO.C,U11*%
X86862500Y-107527500D02*
X86062500Y-107527500D01*
X86862500Y-107527500D02*
X87662500Y-107527500D01*
X86862500Y-110647500D02*
X86062500Y-110647500D01*
X86862500Y-110647500D02*
X87662500Y-110647500D01*
X85562500Y-107577500D02*
X85322500Y-107247500D01*
X85802500Y-107247500D01*
X85562500Y-107577500D01*
G36*
X85562500Y-107577500D02*
G01*
X85322500Y-107247500D01*
X85802500Y-107247500D01*
X85562500Y-107577500D01*
G37*
%TO.C,C29*%
X118352500Y-108359420D02*
X118352500Y-108640580D01*
X119372500Y-108359420D02*
X119372500Y-108640580D01*
%TO.C,C12*%
X67162164Y-101463059D02*
X67377836Y-101463059D01*
X67162164Y-102183059D02*
X67377836Y-102183059D01*
%TO.C,C15*%
X67162164Y-89724473D02*
X67377836Y-89724473D01*
X67162164Y-90444473D02*
X67377836Y-90444473D01*
%TO.C,R12*%
X99051334Y-98846359D02*
X99051334Y-99153641D01*
X99811334Y-98846359D02*
X99811334Y-99153641D01*
%TO.C,C24*%
X83857836Y-78640000D02*
X83642164Y-78640000D01*
X83857836Y-79360000D02*
X83642164Y-79360000D01*
%TO.C,D2*%
X113102500Y-107000000D02*
X113102500Y-109685000D01*
X113102500Y-109685000D02*
X115022500Y-109685000D01*
X115022500Y-109685000D02*
X115022500Y-107000000D01*
%TO.C,RN3*%
X60600000Y-92161145D02*
X61600000Y-92161145D01*
X60600000Y-95521145D02*
X61600000Y-95521145D01*
%TO.C,C10*%
X82890580Y-95990000D02*
X82609420Y-95990000D01*
X82890580Y-97010000D02*
X82609420Y-97010000D01*
%TO.C,R1*%
X102762742Y-89477500D02*
X103237258Y-89477500D01*
X102762742Y-90522500D02*
X103237258Y-90522500D01*
%TO.C,R6*%
X106123185Y-84524542D02*
X106430467Y-84524542D01*
X106123185Y-85284542D02*
X106430467Y-85284542D01*
%TO.C,C40*%
X99490000Y-107415580D02*
X99490000Y-107134420D01*
X100510000Y-107415580D02*
X100510000Y-107134420D01*
%TO.C,C8*%
X85490000Y-97859420D02*
X85490000Y-98140580D01*
X86510000Y-97859420D02*
X86510000Y-98140580D01*
%TO.C,R4*%
X106106359Y-79370000D02*
X106413641Y-79370000D01*
X106106359Y-80130000D02*
X106413641Y-80130000D01*
%TO.C,RN2*%
X60600000Y-87002290D02*
X61600000Y-87002290D01*
X60600000Y-90362290D02*
X61600000Y-90362290D01*
%TO.C,J1*%
X93050000Y-101170000D02*
X93050000Y-103830000D01*
X108350000Y-101170000D02*
X93050000Y-101170000D01*
X108350000Y-101170000D02*
X108350000Y-103830000D01*
X108350000Y-103830000D02*
X93050000Y-103830000D01*
X109620000Y-101170000D02*
X110950000Y-101170000D01*
X110950000Y-101170000D02*
X110950000Y-102500000D01*
%TD*%
D17*
X50601596Y-72042903D02*
X122375000Y-72042903D01*
X122375000Y-112556276D01*
X50601596Y-112556276D01*
X50601596Y-72042903D01*
M02*
