%TF.GenerationSoftware,KiCad,Pcbnew,9.0.2-2.fc42*%
%TF.CreationDate,2025-06-23T11:30:09+02:00*%
%TF.ProjectId,bioamplifier,62696f61-6d70-46c6-9966-6965722e6b69,rev?*%
%TF.SameCoordinates,Original*%
%TF.FileFunction,Copper,L4,Bot*%
%TF.FilePolarity,Positive*%
%FSLAX46Y46*%
G04 Gerber Fmt 4.6, Leading zero omitted, Abs format (unit mm)*
G04 Created by KiCad (PCBNEW 9.0.2-2.fc42) date 2025-06-23 11:30:09*
%MOMM*%
%LPD*%
G01*
G04 APERTURE LIST*
G04 Aperture macros list*
%AMRoundRect*
0 Rectangle with rounded corners*
0 $1 Rounding radius*
0 $2 $3 $4 $5 $6 $7 $8 $9 X,Y pos of 4 corners*
0 Add a 4 corners polygon primitive as box body*
4,1,4,$2,$3,$4,$5,$6,$7,$8,$9,$2,$3,0*
0 Add four circle primitives for the rounded corners*
1,1,$1+$1,$2,$3*
1,1,$1+$1,$4,$5*
1,1,$1+$1,$6,$7*
1,1,$1+$1,$8,$9*
0 Add four rect primitives between the rounded corners*
20,1,$1+$1,$2,$3,$4,$5,0*
20,1,$1+$1,$4,$5,$6,$7,0*
20,1,$1+$1,$6,$7,$8,$9,0*
20,1,$1+$1,$8,$9,$2,$3,0*%
G04 Aperture macros list end*
%TA.AperFunction,ComponentPad*%
%ADD10R,1.700000X1.700000*%
%TD*%
%TA.AperFunction,ComponentPad*%
%ADD11O,1.700000X1.700000*%
%TD*%
%TA.AperFunction,SMDPad,CuDef*%
%ADD12RoundRect,0.140000X-0.170000X0.140000X-0.170000X-0.140000X0.170000X-0.140000X0.170000X0.140000X0*%
%TD*%
%TA.AperFunction,SMDPad,CuDef*%
%ADD13RoundRect,0.225000X-0.250000X0.225000X-0.250000X-0.225000X0.250000X-0.225000X0.250000X0.225000X0*%
%TD*%
%TA.AperFunction,SMDPad,CuDef*%
%ADD14R,0.355600X0.850900*%
%TD*%
%TA.AperFunction,ViaPad*%
%ADD15C,0.800000*%
%TD*%
%TA.AperFunction,Conductor*%
%ADD16C,0.500000*%
%TD*%
%TA.AperFunction,Conductor*%
%ADD17C,0.160000*%
%TD*%
%TA.AperFunction,Conductor*%
%ADD18C,0.200000*%
%TD*%
%TA.AperFunction,Conductor*%
%ADD19C,0.250000*%
%TD*%
%TA.AperFunction,Profile*%
%ADD20C,0.100000*%
%TD*%
G04 APERTURE END LIST*
D10*
%TO.P,J3,1,Pin_1*%
%TO.N,Net-(J3-Pin_1)*%
X106000000Y-79300000D03*
D11*
%TO.P,J3,2,Pin_2*%
%TO.N,Net-(J3-Pin_2)*%
X106000000Y-81840000D03*
%TO.P,J3,3,Pin_3*%
%TO.N,Net-(J3-Pin_3)*%
X106000000Y-84380000D03*
%TO.P,J3,4,Pin_4*%
%TO.N,Net-(J3-Pin_4)*%
X106000000Y-86920000D03*
%TO.P,J3,5,Pin_5*%
%TO.N,Net-(J3-Pin_5)*%
X106000000Y-89460000D03*
%TO.P,J3,6,Pin_6*%
%TO.N,Net-(J3-Pin_6)*%
X106000000Y-92000000D03*
%TO.P,J3,7,Pin_7*%
%TO.N,GNDD*%
X106000000Y-94540000D03*
%TD*%
D10*
%TO.P,J2,1,Pin_1*%
%TO.N,GNDA*%
X57340000Y-105260000D03*
D11*
%TO.P,J2,2,Pin_2*%
X54800000Y-105260000D03*
%TO.P,J2,3,Pin_3*%
%TO.N,/Electrodes input/REF1*%
X57340000Y-102720000D03*
%TO.P,J2,4,Pin_4*%
%TO.N,/Electrodes input/REF2*%
X54800000Y-102720000D03*
%TO.P,J2,5,Pin_5*%
%TO.N,/Electrodes input/P1*%
X57340000Y-100180000D03*
%TO.P,J2,6,Pin_6*%
%TO.N,/Electrodes input/N1*%
X54800000Y-100180000D03*
%TO.P,J2,7,Pin_7*%
%TO.N,/Electrodes input/P2*%
X57340000Y-97640000D03*
%TO.P,J2,8,Pin_8*%
%TO.N,/Electrodes input/N2*%
X54800000Y-97640000D03*
%TO.P,J2,9,Pin_9*%
%TO.N,/Electrodes input/P3*%
X57340000Y-95100000D03*
%TO.P,J2,10,Pin_10*%
%TO.N,/Electrodes input/N3*%
X54800000Y-95100000D03*
%TO.P,J2,11,Pin_11*%
%TO.N,/Electrodes input/P4*%
X57340000Y-92560000D03*
%TO.P,J2,12,Pin_12*%
%TO.N,/Electrodes input/N4*%
X54800000Y-92560000D03*
%TO.P,J2,13,Pin_13*%
%TO.N,/Electrodes input/P5*%
X57340000Y-90020000D03*
%TO.P,J2,14,Pin_14*%
%TO.N,/Electrodes input/N5*%
X54800000Y-90020000D03*
%TO.P,J2,15,Pin_15*%
%TO.N,/Electrodes input/P6*%
X57340000Y-87480000D03*
%TO.P,J2,16,Pin_16*%
%TO.N,/Electrodes input/N6*%
X54800000Y-87480000D03*
%TO.P,J2,17,Pin_17*%
%TO.N,/Electrodes input/P7*%
X57340000Y-84940000D03*
%TO.P,J2,18,Pin_18*%
%TO.N,/Electrodes input/N7*%
X54800000Y-84940000D03*
%TO.P,J2,19,Pin_19*%
%TO.N,/Electrodes input/P8*%
X57340000Y-82400000D03*
%TO.P,J2,20,Pin_20*%
%TO.N,/Electrodes input/N8*%
X54800000Y-82400000D03*
%TO.P,J2,21,Pin_21*%
%TO.N,/Electrodes input/BIAS*%
X57340000Y-79860000D03*
%TO.P,J2,22,Pin_22*%
X54800000Y-79860000D03*
%TO.P,J2,23,Pin_23*%
%TO.N,/Electrodes input/AGND*%
X57340000Y-77320000D03*
%TO.P,J2,24,Pin_24*%
X54800000Y-77320000D03*
%TO.P,J2,25,Pin_25*%
%TO.N,/Electrodes input/AVDD_ED*%
X57340000Y-74780000D03*
%TO.P,J2,26,Pin_26*%
X54800000Y-74780000D03*
%TD*%
D10*
%TO.P,J1,1,Pin_1*%
%TO.N,3.3V_UNREG*%
X109620000Y-102500000D03*
D11*
%TO.P,J1,2,Pin_2*%
%TO.N,Net-(J1-Pin_2)*%
X107080000Y-102500000D03*
%TO.P,J1,3,Pin_3*%
%TO.N,Net-(J1-Pin_3)*%
X104540000Y-102500000D03*
%TO.P,J1,4,Pin_4*%
%TO.N,Net-(J1-Pin_4)*%
X102000000Y-102500000D03*
%TO.P,J1,5,Pin_5*%
%TO.N,Net-(J1-Pin_5)*%
X99460000Y-102500000D03*
%TO.P,J1,6,Pin_6*%
%TO.N,Net-(J1-Pin_6)*%
X96920000Y-102500000D03*
%TO.P,J1,7,Pin_7*%
%TO.N,Net-(J1-Pin_7)*%
X94380000Y-102500000D03*
%TD*%
D12*
%TO.P,C17,1*%
%TO.N,GNDA*%
X69000000Y-83770000D03*
%TO.P,C17,2*%
%TO.N,IN7P*%
X69000000Y-84730000D03*
%TD*%
%TO.P,C16,1*%
%TO.N,GNDA*%
X67750000Y-88040000D03*
%TO.P,C16,2*%
%TO.N,IN5N*%
X67750000Y-89000000D03*
%TD*%
D13*
%TO.P,C45,1*%
%TO.N,Net-(U11-CAP+)*%
X86862500Y-108312500D03*
%TO.P,C45,2*%
%TO.N,Net-(U11-CAP-)*%
X86862500Y-109862500D03*
%TD*%
D12*
%TO.P,C32,1*%
%TO.N,GNDA*%
X66500000Y-82040000D03*
%TO.P,C32,2*%
%TO.N,IN8P*%
X66500000Y-83000000D03*
%TD*%
%TO.P,C13,1*%
%TO.N,GNDA*%
X69000000Y-94020000D03*
%TO.P,C13,2*%
%TO.N,IN3P*%
X69000000Y-94980000D03*
%TD*%
D14*
%TO.P,U9,1,IO1*%
%TO.N,/Electrodes input/REF1*%
X62149999Y-104773300D03*
%TO.P,U9,2,IO2*%
%TO.N,/Electrodes input/REF2*%
X61500000Y-104773300D03*
%TO.P,U9,3,GND*%
%TO.N,GNDA*%
X60850001Y-104773300D03*
%TO.P,U9,4,IO3*%
X60850001Y-102500000D03*
%TO.P,U9,5,IO4*%
%TO.N,unconnected-(U9-IO4-Pad5)*%
X61500000Y-102500000D03*
%TO.P,U9,6,NC*%
%TO.N,unconnected-(U9-NC-Pad6)*%
X62149999Y-102500000D03*
%TD*%
D12*
%TO.P,C33,1*%
%TO.N,GNDA*%
X65250000Y-81270000D03*
%TO.P,C33,2*%
%TO.N,IN8N*%
X65250000Y-82230000D03*
%TD*%
%TO.P,C36,1*%
%TO.N,GNDA*%
X65250000Y-96520000D03*
%TO.P,C36,2*%
%TO.N,IN2N*%
X65250000Y-97480000D03*
%TD*%
%TO.P,C35,1*%
%TO.N,GNDA*%
X65250000Y-91520000D03*
%TO.P,C35,2*%
%TO.N,IN4N*%
X65250000Y-92480000D03*
%TD*%
%TO.P,C18,1*%
%TO.N,GNDA*%
X67750000Y-83020000D03*
%TO.P,C18,2*%
%TO.N,IN7N*%
X67750000Y-83980000D03*
%TD*%
%TO.P,C26,1*%
%TO.N,GNDA*%
X66500000Y-97020000D03*
%TO.P,C26,2*%
%TO.N,IN2P*%
X66500000Y-97980000D03*
%TD*%
%TO.P,C31,1*%
%TO.N,GNDA*%
X65250000Y-86540000D03*
%TO.P,C31,2*%
%TO.N,IN6N*%
X65250000Y-87500000D03*
%TD*%
%TO.P,C34,1*%
%TO.N,GNDA*%
X66500000Y-92000000D03*
%TO.P,C34,2*%
%TO.N,IN4P*%
X66500000Y-92960000D03*
%TD*%
%TO.P,C14,1*%
%TO.N,GNDA*%
X67750000Y-93020000D03*
%TO.P,C14,2*%
%TO.N,IN3N*%
X67750000Y-93980000D03*
%TD*%
%TO.P,C11,1*%
%TO.N,GNDA*%
X69000000Y-99020000D03*
%TO.P,C11,2*%
%TO.N,IN1P*%
X69000000Y-99980000D03*
%TD*%
%TO.P,C28,1*%
%TO.N,GNDA*%
X66500000Y-87020000D03*
%TO.P,C28,2*%
%TO.N,IN6P*%
X66500000Y-87980000D03*
%TD*%
D14*
%TO.P,U2,1,IO1*%
%TO.N,/Electrodes input/N7*%
X62149999Y-85000000D03*
%TO.P,U2,2,IO2*%
%TO.N,/Electrodes input/P7*%
X61500000Y-85000000D03*
%TO.P,U2,3,GND*%
%TO.N,GNDA*%
X60850001Y-85000000D03*
%TO.P,U2,4,IO3*%
%TO.N,/Electrodes input/P8*%
X60850001Y-82726700D03*
%TO.P,U2,5,IO4*%
%TO.N,/Electrodes input/N8*%
X61500000Y-82726700D03*
%TO.P,U2,6,NC*%
%TO.N,unconnected-(U2-NC-Pad6)*%
X62149999Y-82726700D03*
%TD*%
%TO.P,U10,1,IO1*%
%TO.N,/Electrodes input/N3*%
X62149999Y-95136650D03*
%TO.P,U10,2,IO2*%
%TO.N,/Electrodes input/P3*%
X61500000Y-95136650D03*
%TO.P,U10,3,GND*%
%TO.N,GNDA*%
X60850001Y-95136650D03*
%TO.P,U10,4,IO3*%
%TO.N,/Electrodes input/P4*%
X60850001Y-92863350D03*
%TO.P,U10,5,IO4*%
%TO.N,/Electrodes input/N4*%
X61500000Y-92863350D03*
%TO.P,U10,6,NC*%
%TO.N,unconnected-(U10-NC-Pad6)*%
X62149999Y-92863350D03*
%TD*%
%TO.P,U4,1,IO1*%
%TO.N,/Electrodes input/N1*%
X62149999Y-100136650D03*
%TO.P,U4,2,IO2*%
%TO.N,/Electrodes input/P1*%
X61500000Y-100136650D03*
%TO.P,U4,3,GND*%
%TO.N,GNDA*%
X60850001Y-100136650D03*
%TO.P,U4,4,IO3*%
%TO.N,/Electrodes input/P2*%
X60850001Y-97863350D03*
%TO.P,U4,5,IO4*%
%TO.N,/Electrodes input/N2*%
X61500000Y-97863350D03*
%TO.P,U4,6,NC*%
%TO.N,unconnected-(U4-NC-Pad6)*%
X62149999Y-97863350D03*
%TD*%
%TO.P,U3,1,IO1*%
%TO.N,/Electrodes input/N5*%
X62149999Y-90136650D03*
%TO.P,U3,2,IO2*%
%TO.N,/Electrodes input/P5*%
X61500000Y-90136650D03*
%TO.P,U3,3,GND*%
%TO.N,GNDA*%
X60850001Y-90136650D03*
%TO.P,U3,4,IO3*%
%TO.N,/Electrodes input/P6*%
X60850001Y-87863350D03*
%TO.P,U3,5,IO4*%
%TO.N,/Electrodes input/N6*%
X61500000Y-87863350D03*
%TO.P,U3,6,NC*%
%TO.N,unconnected-(U3-NC-Pad6)*%
X62149999Y-87863350D03*
%TD*%
D12*
%TO.P,C12,1*%
%TO.N,GNDA*%
X67750000Y-98020000D03*
%TO.P,C12,2*%
%TO.N,IN1N*%
X67750000Y-98980000D03*
%TD*%
%TO.P,C15,1*%
%TO.N,GNDA*%
X69000000Y-89000000D03*
%TO.P,C15,2*%
%TO.N,IN5P*%
X69000000Y-89960000D03*
%TD*%
D14*
%TO.P,U5,1,IO1*%
%TO.N,unconnected-(U5-IO1-Pad1)*%
X60850001Y-74863350D03*
%TO.P,U5,2,IO2*%
%TO.N,/Electrodes input/AVDD_ED*%
X61500000Y-74863350D03*
%TO.P,U5,3,GND*%
%TO.N,GNDA*%
X62149999Y-74863350D03*
%TO.P,U5,4,IO3*%
%TO.N,/Electrodes input/BIAS*%
X62149999Y-77136650D03*
%TO.P,U5,5,IO4*%
%TO.N,/Electrodes input/AGND*%
X61500000Y-77136650D03*
%TO.P,U5,6,NC*%
%TO.N,unconnected-(U5-NC-Pad6)*%
X60850001Y-77136650D03*
%TD*%
D15*
%TO.N,AVDD*%
X83000000Y-91000000D03*
X91250000Y-94500000D03*
%TO.N,GNDD*%
X85750000Y-84500000D03*
X91750000Y-79500000D03*
X88475500Y-90216800D03*
X113362500Y-104500000D03*
X93000000Y-98500000D03*
X117862500Y-111000000D03*
%TO.N,-2.5V_UNREG*%
X88500000Y-105587500D03*
%TO.N,AVSS*%
X78500000Y-104000000D03*
X88250000Y-100000000D03*
X87750000Y-77500000D03*
X82125000Y-77875000D03*
X82000000Y-100500000D03*
%TO.N,Net-(U11-CAP+)*%
X87725000Y-106587500D03*
%TO.N,Net-(U11-CAP-)*%
X84000000Y-110087500D03*
%TO.N,IN1N*%
X65500000Y-99400000D03*
%TO.N,IN1P*%
X66500000Y-100200000D03*
%TO.N,IN2P*%
X64500000Y-98600000D03*
%TO.N,IN2N*%
X63500000Y-97800000D03*
%TO.N,IN3N*%
X65500000Y-94241145D03*
%TO.N,IN3P*%
X66500000Y-95041145D03*
%TO.N,IN4N*%
X63500000Y-92641145D03*
%TO.N,IN4P*%
X64500000Y-93441145D03*
%TO.N,IN5N*%
X65500000Y-89082290D03*
%TO.N,IN5P*%
X66558855Y-89941145D03*
%TO.N,IN6N*%
X63500000Y-87482290D03*
%TO.N,IN6P*%
X64500000Y-88282290D03*
%TO.N,IN7N*%
X65500000Y-83980000D03*
%TO.N,IN7P*%
X66500000Y-84723435D03*
%TO.N,IN8N*%
X63500000Y-82323435D03*
%TO.N,IN8P*%
X64561718Y-83061718D03*
%TO.N,DVDD*%
X112500000Y-99000000D03*
X85500000Y-101500000D03*
X86500000Y-91000000D03*
X90000000Y-110000000D03*
X85000000Y-106500000D03*
%TO.N,GNDA*%
X109500000Y-108000000D03*
X88500000Y-102000000D03*
X87274662Y-96242371D03*
X77500000Y-106500000D03*
X101500000Y-105500000D03*
X92000000Y-109587500D03*
X79000000Y-77000000D03*
X84000000Y-109087500D03*
%TD*%
D16*
%TO.N,AVDD*%
X86500000Y-94500000D02*
X83000000Y-91000000D01*
X91250000Y-94500000D02*
X86500000Y-94500000D01*
D17*
%TO.N,/Electrodes input/N1*%
X62149999Y-99551200D02*
X62149999Y-100136650D01*
X54800000Y-100180000D02*
X55930000Y-99050000D01*
X61648799Y-99050000D02*
X62149999Y-99551200D01*
X55930000Y-99050000D02*
X61648799Y-99050000D01*
%TO.N,/Electrodes input/P1*%
X61500000Y-99551200D02*
X61500000Y-100136650D01*
X57340000Y-100180000D02*
X58088800Y-99431200D01*
X61380000Y-99431200D02*
X61500000Y-99551200D01*
X58088800Y-99431200D02*
X61380000Y-99431200D01*
%TO.N,/Electrodes input/P2*%
X60626651Y-97640000D02*
X60850001Y-97863350D01*
X57340000Y-97640000D02*
X60626651Y-97640000D01*
%TO.N,/Electrodes input/N2*%
X55930000Y-96510000D02*
X60732100Y-96510000D01*
X54800000Y-97640000D02*
X55930000Y-96510000D01*
X61500000Y-97277900D02*
X61500000Y-97863350D01*
X60732100Y-96510000D02*
X61500000Y-97277900D01*
%TO.N,/Electrodes input/N3*%
X54800000Y-95100000D02*
X55930000Y-93970000D01*
X61568799Y-93970000D02*
X62149999Y-94551200D01*
X55930000Y-93970000D02*
X61568799Y-93970000D01*
X62149999Y-94551200D02*
X62149999Y-95136650D01*
%TO.N,/Electrodes input/P3*%
X57340000Y-95100000D02*
X58008800Y-94431200D01*
X58008800Y-94431200D02*
X61380000Y-94431200D01*
X61380000Y-94431200D02*
X61500000Y-94551200D01*
X61500000Y-94551200D02*
X61500000Y-95136650D01*
%TO.N,/Electrodes input/N4*%
X60652100Y-91430000D02*
X61500000Y-92277900D01*
X54800000Y-92560000D02*
X55930000Y-91430000D01*
X61500000Y-92277900D02*
X61500000Y-92863350D01*
X55930000Y-91430000D02*
X60652100Y-91430000D01*
%TO.N,/Electrodes input/P4*%
X57340000Y-92560000D02*
X60546651Y-92560000D01*
X60546651Y-92560000D02*
X60850001Y-92863350D01*
%TO.N,/Electrodes input/N5*%
X61408799Y-88810000D02*
X62149999Y-89551200D01*
X56010000Y-88810000D02*
X61408799Y-88810000D01*
X62149999Y-89551200D02*
X62149999Y-90136650D01*
X54800000Y-90020000D02*
X56010000Y-88810000D01*
%TO.N,/Electrodes input/P5*%
X61500000Y-89551200D02*
X61500000Y-90136650D01*
X58190000Y-89170000D02*
X61118800Y-89170000D01*
X61118800Y-89170000D02*
X61500000Y-89551200D01*
X57340000Y-90020000D02*
X58190000Y-89170000D01*
%TO.N,/Electrodes input/N6*%
X60572100Y-86350000D02*
X61500000Y-87277900D01*
X54800000Y-87480000D02*
X55930000Y-86350000D01*
X55930000Y-86350000D02*
X60572100Y-86350000D01*
X61500000Y-87277900D02*
X61500000Y-87863350D01*
%TO.N,/Electrodes input/P6*%
X60466651Y-87480000D02*
X60850001Y-87863350D01*
X57340000Y-87480000D02*
X60466651Y-87480000D01*
D18*
%TO.N,/Electrodes input/N7*%
X61393250Y-83690000D02*
X62149999Y-84446749D01*
X56050000Y-83690000D02*
X61393250Y-83690000D01*
X62149999Y-84446749D02*
X62149999Y-85000000D01*
X54800000Y-84940000D02*
X56050000Y-83690000D01*
%TO.N,/Electrodes input/P7*%
X57340000Y-84940000D02*
X58190000Y-84090000D01*
X58190000Y-84090000D02*
X61215450Y-84090000D01*
X61500000Y-84374550D02*
X61500000Y-85000000D01*
X61215450Y-84090000D02*
X61500000Y-84374550D01*
D17*
%TO.N,/Electrodes input/N8*%
X54800000Y-82400000D02*
X56210000Y-80990000D01*
X61500000Y-82141250D02*
X61500000Y-82726700D01*
X60348750Y-80990000D02*
X61500000Y-82141250D01*
X56210000Y-80990000D02*
X60348750Y-80990000D01*
D18*
%TO.N,/Electrodes input/P8*%
X60523301Y-82400000D02*
X60850001Y-82726700D01*
X57340000Y-82400000D02*
X60523301Y-82400000D01*
D16*
%TO.N,AVSS*%
X78000000Y-82000000D02*
X82125000Y-77875000D01*
X78000000Y-96500000D02*
X78000000Y-82000000D01*
X78500000Y-104000000D02*
X82000000Y-100500000D01*
X82500000Y-77500000D02*
X87750000Y-77500000D01*
X82125000Y-77875000D02*
X82500000Y-77500000D01*
X88250000Y-100000000D02*
X82500000Y-100000000D01*
X82000000Y-100500000D02*
X78000000Y-96500000D01*
X82500000Y-100000000D02*
X82000000Y-100500000D01*
D19*
%TO.N,Net-(U11-CAP+)*%
X86862500Y-108312500D02*
X86862500Y-107450000D01*
X86862500Y-107450000D02*
X87725000Y-106587500D01*
%TO.N,Net-(U11-CAP-)*%
X84000000Y-110087500D02*
X86637500Y-110087500D01*
X86637500Y-110087500D02*
X86862500Y-109862500D01*
D18*
%TO.N,IN1N*%
X67750000Y-98980000D02*
X67330000Y-99400000D01*
X67330000Y-99400000D02*
X65500000Y-99400000D01*
%TO.N,IN1P*%
X66720000Y-99980000D02*
X69000000Y-99980000D01*
X66500000Y-100200000D02*
X66720000Y-99980000D01*
%TO.N,IN2P*%
X65880000Y-98600000D02*
X66500000Y-97980000D01*
X64500000Y-98600000D02*
X65880000Y-98600000D01*
%TO.N,IN2N*%
X63500000Y-97800000D02*
X64930000Y-97800000D01*
X64930000Y-97800000D02*
X65250000Y-97480000D01*
%TO.N,IN3N*%
X65761145Y-93980000D02*
X65500000Y-94241145D01*
X67750000Y-93980000D02*
X65761145Y-93980000D01*
%TO.N,IN3P*%
X66500000Y-95041145D02*
X66561145Y-94980000D01*
X66561145Y-94980000D02*
X69000000Y-94980000D01*
%TO.N,IN4N*%
X63500000Y-92641145D02*
X65088855Y-92641145D01*
X65088855Y-92641145D02*
X65250000Y-92480000D01*
%TO.N,IN4P*%
X66500000Y-92960000D02*
X66018855Y-93441145D01*
X66018855Y-93441145D02*
X64500000Y-93441145D01*
%TO.N,IN5N*%
X67667710Y-89082290D02*
X67750000Y-89000000D01*
X65500000Y-89082290D02*
X67667710Y-89082290D01*
%TO.N,IN5P*%
X66558855Y-89941145D02*
X66577710Y-89960000D01*
X66577710Y-89960000D02*
X69000000Y-89960000D01*
X66500000Y-89882290D02*
X66558855Y-89941145D01*
%TO.N,IN6N*%
X63500000Y-87482290D02*
X65232290Y-87482290D01*
X65232290Y-87482290D02*
X65250000Y-87500000D01*
%TO.N,IN6P*%
X66197710Y-88282290D02*
X64500000Y-88282290D01*
X66500000Y-87980000D02*
X66197710Y-88282290D01*
%TO.N,IN7N*%
X65500000Y-83980000D02*
X67750000Y-83980000D01*
X65306565Y-83980000D02*
X65500000Y-83980000D01*
X65250000Y-83923435D02*
X65306565Y-83980000D01*
%TO.N,IN7P*%
X66000000Y-84723435D02*
X66006565Y-84730000D01*
X66006565Y-84730000D02*
X69000000Y-84730000D01*
%TO.N,IN8N*%
X63500000Y-82323435D02*
X65156565Y-82323435D01*
X65156565Y-82323435D02*
X65250000Y-82230000D01*
%TO.N,IN8P*%
X64561718Y-83061718D02*
X64561718Y-83061717D01*
X64623435Y-83000000D02*
X66500000Y-83000000D01*
X64500000Y-83123435D02*
X64561717Y-83061718D01*
X64561718Y-83061717D02*
X64623435Y-83000000D01*
X64561717Y-83061718D02*
X64561718Y-83061718D01*
D19*
%TO.N,/Electrodes input/REF2*%
X54800000Y-102720000D02*
X56142850Y-104062850D01*
X61465000Y-104062850D02*
X61500000Y-104097850D01*
X56142850Y-104062850D02*
X61465000Y-104062850D01*
X61500000Y-104097850D02*
X61500000Y-104773300D01*
D16*
%TO.N,DVDD*%
X87500000Y-104000000D02*
X89000000Y-104000000D01*
D19*
X89218738Y-91000000D02*
X94000000Y-95781263D01*
X86500000Y-91000000D02*
X89218738Y-91000000D01*
D16*
X87500000Y-104000000D02*
X85000000Y-106500000D01*
X90000000Y-103000000D02*
X90000000Y-103500000D01*
D19*
X94000000Y-95781263D02*
X94000000Y-99000000D01*
D16*
X112500000Y-99000000D02*
X94000000Y-99000000D01*
X89000000Y-104000000D02*
X90250000Y-102750000D01*
X94000000Y-99000000D02*
X90250000Y-102750000D01*
X90000000Y-103500000D02*
X90000000Y-104000000D01*
X88000000Y-104000000D02*
X89000000Y-104000000D01*
X85500000Y-101500000D02*
X88000000Y-104000000D01*
X90000000Y-104000000D02*
X90000000Y-110000000D01*
X90250000Y-102750000D02*
X90000000Y-103000000D01*
D19*
%TO.N,/Electrodes input/REF1*%
X58190000Y-103570000D02*
X61570000Y-103570000D01*
X62149999Y-104149999D02*
X62149999Y-104773300D01*
X61570000Y-103570000D02*
X62149999Y-104149999D01*
X57340000Y-102720000D02*
X58190000Y-103570000D01*
%TO.N,/Electrodes input/BIAS*%
X60102099Y-79860000D02*
X62149999Y-77812100D01*
X57340000Y-79860000D02*
X60102099Y-79860000D01*
X57340000Y-79860000D02*
X54800000Y-79860000D01*
X62149999Y-77812100D02*
X62149999Y-77136650D01*
%TO.N,/Electrodes input/AVDD_ED*%
X61465000Y-74152900D02*
X61500000Y-74187900D01*
X57340000Y-74780000D02*
X57967100Y-74152900D01*
X57967100Y-74152900D02*
X61465000Y-74152900D01*
X61500000Y-74187900D02*
X61500000Y-74863350D01*
X54800000Y-74780000D02*
X57340000Y-74780000D01*
%TO.N,/Electrodes input/AGND*%
X61212271Y-78170000D02*
X61500000Y-77882271D01*
X58190000Y-78170000D02*
X61212271Y-78170000D01*
X57340000Y-77320000D02*
X58190000Y-78170000D01*
X61500000Y-77882271D02*
X61500000Y-77136650D01*
X54800000Y-77320000D02*
X57340000Y-77320000D01*
%TO.N,GNDA*%
X54800000Y-105260000D02*
X57340000Y-105260000D01*
X60363301Y-105260000D02*
X60850001Y-104773300D01*
X57340000Y-105260000D02*
X60363301Y-105260000D01*
%TD*%
%TA.AperFunction,Conductor*%
%TO.N,GNDA*%
G36*
X122317539Y-72070185D02*
G01*
X122363294Y-72122989D01*
X122374500Y-72174500D01*
X122374500Y-111925500D01*
X122354815Y-111992539D01*
X122302011Y-112038294D01*
X122250500Y-112049500D01*
X52499500Y-112049500D01*
X52432461Y-112029815D01*
X52386706Y-111977011D01*
X52375500Y-111925500D01*
X52375500Y-111064071D01*
X117211999Y-111064071D01*
X117236997Y-111189738D01*
X117236999Y-111189744D01*
X117286033Y-111308124D01*
X117286038Y-111308133D01*
X117357223Y-111414668D01*
X117357226Y-111414672D01*
X117447827Y-111505273D01*
X117447831Y-111505276D01*
X117554366Y-111576461D01*
X117554372Y-111576464D01*
X117554373Y-111576465D01*
X117672756Y-111625501D01*
X117672760Y-111625501D01*
X117672761Y-111625502D01*
X117798428Y-111650500D01*
X117798431Y-111650500D01*
X117926571Y-111650500D01*
X118011115Y-111633682D01*
X118052244Y-111625501D01*
X118170627Y-111576465D01*
X118277169Y-111505276D01*
X118367776Y-111414669D01*
X118438965Y-111308127D01*
X118488001Y-111189744D01*
X118513000Y-111064069D01*
X118513000Y-110935931D01*
X118513000Y-110935928D01*
X118488002Y-110810261D01*
X118488001Y-110810260D01*
X118488001Y-110810256D01*
X118438965Y-110691873D01*
X118438964Y-110691872D01*
X118438961Y-110691866D01*
X118367776Y-110585331D01*
X118367773Y-110585327D01*
X118277172Y-110494726D01*
X118277168Y-110494723D01*
X118170633Y-110423538D01*
X118170624Y-110423533D01*
X118052244Y-110374499D01*
X118052238Y-110374497D01*
X117926571Y-110349500D01*
X117926569Y-110349500D01*
X117798431Y-110349500D01*
X117798429Y-110349500D01*
X117672761Y-110374497D01*
X117672755Y-110374499D01*
X117554375Y-110423533D01*
X117554366Y-110423538D01*
X117447831Y-110494723D01*
X117447827Y-110494726D01*
X117357226Y-110585327D01*
X117357223Y-110585331D01*
X117286038Y-110691866D01*
X117286033Y-110691875D01*
X117236999Y-110810255D01*
X117236997Y-110810261D01*
X117212000Y-110935928D01*
X117212000Y-110935931D01*
X117212000Y-111064069D01*
X117212000Y-111064071D01*
X117211999Y-111064071D01*
X52375500Y-111064071D01*
X52375500Y-110151571D01*
X83349499Y-110151571D01*
X83374497Y-110277238D01*
X83374499Y-110277244D01*
X83423533Y-110395624D01*
X83423538Y-110395633D01*
X83494723Y-110502168D01*
X83494726Y-110502172D01*
X83585327Y-110592773D01*
X83585331Y-110592776D01*
X83691866Y-110663961D01*
X83691872Y-110663964D01*
X83691873Y-110663965D01*
X83810256Y-110713001D01*
X83810260Y-110713001D01*
X83810261Y-110713002D01*
X83935928Y-110738000D01*
X83935931Y-110738000D01*
X84064071Y-110738000D01*
X84148615Y-110721182D01*
X84189744Y-110713001D01*
X84308127Y-110663965D01*
X84414669Y-110592776D01*
X84450533Y-110556912D01*
X84508127Y-110499319D01*
X84569450Y-110465834D01*
X84595808Y-110463000D01*
X86279383Y-110463000D01*
X86346422Y-110482685D01*
X86353687Y-110487728D01*
X86382274Y-110509128D01*
X86510386Y-110556912D01*
X86567015Y-110563000D01*
X87157984Y-110562999D01*
X87214614Y-110556912D01*
X87342726Y-110509128D01*
X87452187Y-110427187D01*
X87534128Y-110317726D01*
X87581912Y-110189614D01*
X87586002Y-110151569D01*
X87587999Y-110133001D01*
X87587999Y-110132994D01*
X87588000Y-110132985D01*
X87587999Y-109592016D01*
X87581912Y-109535386D01*
X87572829Y-109511035D01*
X87564088Y-109487601D01*
X87534128Y-109407274D01*
X87452187Y-109297813D01*
X87386411Y-109248574D01*
X87342728Y-109215873D01*
X87342726Y-109215872D01*
X87310038Y-109203679D01*
X87254108Y-109161810D01*
X87229691Y-109096346D01*
X87244543Y-109028073D01*
X87293948Y-108978668D01*
X87310028Y-108971323D01*
X87342726Y-108959128D01*
X87452187Y-108877187D01*
X87534128Y-108767726D01*
X87581912Y-108639614D01*
X87584187Y-108618444D01*
X87587999Y-108583001D01*
X87587999Y-108582990D01*
X87588000Y-108582985D01*
X87587999Y-108042016D01*
X87581912Y-107985386D01*
X87534128Y-107857274D01*
X87452187Y-107747813D01*
X87362887Y-107680964D01*
X87321017Y-107625031D01*
X87316033Y-107555340D01*
X87349515Y-107494020D01*
X87569217Y-107274318D01*
X87630540Y-107240834D01*
X87656898Y-107238000D01*
X87789071Y-107238000D01*
X87882394Y-107219436D01*
X87914744Y-107213001D01*
X88033127Y-107163965D01*
X88139669Y-107092776D01*
X88230276Y-107002169D01*
X88301465Y-106895627D01*
X88350501Y-106777244D01*
X88365966Y-106699500D01*
X88375500Y-106651571D01*
X88375500Y-106523428D01*
X88349313Y-106391782D01*
X88350517Y-106391542D01*
X88349948Y-106328134D01*
X88387194Y-106269019D01*
X88450486Y-106239425D01*
X88469234Y-106238000D01*
X88564071Y-106238000D01*
X88648615Y-106221182D01*
X88689744Y-106213001D01*
X88808127Y-106163965D01*
X88914669Y-106092776D01*
X89005276Y-106002169D01*
X89076465Y-105895627D01*
X89125501Y-105777244D01*
X89150500Y-105651569D01*
X89150500Y-105523431D01*
X89150500Y-105523428D01*
X89125502Y-105397761D01*
X89125501Y-105397760D01*
X89125501Y-105397756D01*
X89076465Y-105279373D01*
X89076464Y-105279372D01*
X89076461Y-105279366D01*
X89005276Y-105172831D01*
X89005273Y-105172827D01*
X88914672Y-105082226D01*
X88914668Y-105082223D01*
X88808133Y-105011038D01*
X88808124Y-105011033D01*
X88689744Y-104961999D01*
X88689738Y-104961997D01*
X88564071Y-104937000D01*
X88564069Y-104937000D01*
X88435931Y-104937000D01*
X88435929Y-104937000D01*
X88310261Y-104961997D01*
X88310255Y-104961999D01*
X88191875Y-105011033D01*
X88191866Y-105011038D01*
X88085331Y-105082223D01*
X88085327Y-105082226D01*
X87994726Y-105172827D01*
X87994723Y-105172831D01*
X87923538Y-105279366D01*
X87923533Y-105279375D01*
X87874499Y-105397755D01*
X87874497Y-105397761D01*
X87849500Y-105523428D01*
X87849500Y-105523431D01*
X87849500Y-105651569D01*
X87849500Y-105651571D01*
X87849499Y-105651571D01*
X87875687Y-105783218D01*
X87874482Y-105783457D01*
X87875052Y-105846866D01*
X87837806Y-105905981D01*
X87774514Y-105935575D01*
X87755766Y-105937000D01*
X87660929Y-105937000D01*
X87535261Y-105961997D01*
X87535255Y-105961999D01*
X87416875Y-106011033D01*
X87416866Y-106011038D01*
X87310331Y-106082223D01*
X87310327Y-106082226D01*
X87219726Y-106172827D01*
X87219723Y-106172831D01*
X87148538Y-106279366D01*
X87148533Y-106279375D01*
X87099499Y-106397755D01*
X87099497Y-106397761D01*
X87074500Y-106523428D01*
X87074500Y-106655600D01*
X87054815Y-106722639D01*
X87038181Y-106743281D01*
X86631938Y-107149525D01*
X86562026Y-107219436D01*
X86512591Y-107305059D01*
X86512591Y-107305060D01*
X86512590Y-107305062D01*
X86487000Y-107400565D01*
X86487000Y-107400567D01*
X86487000Y-107540716D01*
X86467315Y-107607755D01*
X86414511Y-107653510D01*
X86406335Y-107656897D01*
X86382276Y-107665870D01*
X86382273Y-107665872D01*
X86272813Y-107747813D01*
X86190873Y-107857271D01*
X86143087Y-107985389D01*
X86137000Y-108041998D01*
X86137000Y-108582981D01*
X86137001Y-108582990D01*
X86143087Y-108639614D01*
X86190872Y-108767726D01*
X86272813Y-108877187D01*
X86382274Y-108959128D01*
X86414958Y-108971318D01*
X86470890Y-109013187D01*
X86495308Y-109078651D01*
X86480457Y-109146924D01*
X86431052Y-109196330D01*
X86414961Y-109203679D01*
X86382274Y-109215871D01*
X86272813Y-109297813D01*
X86190873Y-109407271D01*
X86190872Y-109407274D01*
X86152170Y-109511038D01*
X86143087Y-109535389D01*
X86137001Y-109591997D01*
X86136860Y-109594631D01*
X86136655Y-109595210D01*
X86136644Y-109595318D01*
X86136618Y-109595315D01*
X86113618Y-109660522D01*
X86058443Y-109703388D01*
X86013037Y-109712000D01*
X84595808Y-109712000D01*
X84528769Y-109692315D01*
X84508127Y-109675681D01*
X84414672Y-109582226D01*
X84414668Y-109582223D01*
X84308133Y-109511038D01*
X84308124Y-109511033D01*
X84189744Y-109461999D01*
X84189738Y-109461997D01*
X84064071Y-109437000D01*
X84064069Y-109437000D01*
X83935931Y-109437000D01*
X83935929Y-109437000D01*
X83810261Y-109461997D01*
X83810255Y-109461999D01*
X83691875Y-109511033D01*
X83691866Y-109511038D01*
X83585331Y-109582223D01*
X83585327Y-109582226D01*
X83494726Y-109672827D01*
X83494723Y-109672831D01*
X83423538Y-109779366D01*
X83423533Y-109779375D01*
X83374499Y-109897755D01*
X83374497Y-109897761D01*
X83349500Y-110023428D01*
X83349500Y-110023431D01*
X83349500Y-110151569D01*
X83349500Y-110151571D01*
X83349499Y-110151571D01*
X52375500Y-110151571D01*
X52375500Y-107897648D01*
X64699500Y-107897648D01*
X64699500Y-108102351D01*
X64731522Y-108304534D01*
X64794781Y-108499223D01*
X64887715Y-108681613D01*
X65008028Y-108847213D01*
X65152786Y-108991971D01*
X65296449Y-109096346D01*
X65318390Y-109112287D01*
X65434607Y-109171503D01*
X65500776Y-109205218D01*
X65500778Y-109205218D01*
X65500781Y-109205220D01*
X65533568Y-109215873D01*
X65695465Y-109268477D01*
X65796557Y-109284488D01*
X65897648Y-109300500D01*
X65897649Y-109300500D01*
X66102351Y-109300500D01*
X66102352Y-109300500D01*
X66304534Y-109268477D01*
X66499219Y-109205220D01*
X66502238Y-109203682D01*
X66503827Y-109202872D01*
X66681610Y-109112287D01*
X66818268Y-109013000D01*
X66847213Y-108991971D01*
X66847215Y-108991968D01*
X66847219Y-108991966D01*
X66991966Y-108847219D01*
X66991968Y-108847215D01*
X66991971Y-108847213D01*
X67049721Y-108767726D01*
X67112287Y-108681610D01*
X67205220Y-108499219D01*
X67268477Y-108304534D01*
X67300500Y-108102352D01*
X67300500Y-107897648D01*
X67268477Y-107695466D01*
X67263765Y-107680965D01*
X67222947Y-107555340D01*
X67205220Y-107500781D01*
X67205218Y-107500778D01*
X67205218Y-107500776D01*
X67154157Y-107400565D01*
X67112287Y-107318390D01*
X67053881Y-107238000D01*
X66991971Y-107152786D01*
X66847213Y-107008028D01*
X66681613Y-106887715D01*
X66681612Y-106887714D01*
X66681610Y-106887713D01*
X66624653Y-106858691D01*
X66499223Y-106794781D01*
X66304534Y-106731522D01*
X66129995Y-106703878D01*
X66102352Y-106699500D01*
X65897648Y-106699500D01*
X65873329Y-106703351D01*
X65695465Y-106731522D01*
X65500776Y-106794781D01*
X65318386Y-106887715D01*
X65152786Y-107008028D01*
X65008028Y-107152786D01*
X64887715Y-107318386D01*
X64794781Y-107500776D01*
X64731522Y-107695465D01*
X64699500Y-107897648D01*
X52375500Y-107897648D01*
X52375500Y-102633389D01*
X53699500Y-102633389D01*
X53699500Y-102806610D01*
X53726597Y-102977697D01*
X53726597Y-102977699D01*
X53726598Y-102977701D01*
X53768301Y-103106050D01*
X53780128Y-103142447D01*
X53801790Y-103184962D01*
X53858768Y-103296788D01*
X53960586Y-103436928D01*
X54083072Y-103559414D01*
X54223212Y-103661232D01*
X54377555Y-103739873D01*
X54542299Y-103793402D01*
X54713389Y-103820500D01*
X54713390Y-103820500D01*
X54886610Y-103820500D01*
X54886611Y-103820500D01*
X55057701Y-103793402D01*
X55200289Y-103747071D01*
X55270126Y-103745077D01*
X55326284Y-103777321D01*
X55912287Y-104363325D01*
X55997913Y-104412761D01*
X56093414Y-104438350D01*
X56093415Y-104438350D01*
X60947700Y-104438350D01*
X61014739Y-104458035D01*
X61060494Y-104510839D01*
X61071700Y-104562350D01*
X61071700Y-105223428D01*
X61086232Y-105296485D01*
X61086233Y-105296489D01*
X61086234Y-105296490D01*
X61141599Y-105379351D01*
X61220895Y-105432334D01*
X61224460Y-105434716D01*
X61224464Y-105434717D01*
X61297521Y-105449249D01*
X61297524Y-105449250D01*
X61297526Y-105449250D01*
X61702476Y-105449250D01*
X61702477Y-105449249D01*
X61775540Y-105434716D01*
X61775545Y-105434712D01*
X61777535Y-105433889D01*
X61782255Y-105433381D01*
X61787519Y-105432334D01*
X61787612Y-105432804D01*
X61847004Y-105426413D01*
X61872460Y-105433887D01*
X61874455Y-105434713D01*
X61874459Y-105434716D01*
X61874463Y-105434716D01*
X61874466Y-105434718D01*
X61947520Y-105449249D01*
X61947523Y-105449250D01*
X61947525Y-105449250D01*
X62352475Y-105449250D01*
X62352476Y-105449249D01*
X62425539Y-105434716D01*
X62508400Y-105379351D01*
X62563765Y-105296490D01*
X62578299Y-105223424D01*
X62578299Y-104323176D01*
X62578299Y-104323173D01*
X62563765Y-104250109D01*
X62546396Y-104224114D01*
X62541363Y-104209666D01*
X62533751Y-104199704D01*
X62529029Y-104174254D01*
X62525908Y-104165293D01*
X62525499Y-104160272D01*
X62525499Y-104100564D01*
X62521417Y-104085331D01*
X62499909Y-104005062D01*
X62499909Y-104005061D01*
X62450474Y-103919437D01*
X62380561Y-103849524D01*
X61918668Y-103387631D01*
X61885183Y-103326308D01*
X61890167Y-103256616D01*
X61932039Y-103200683D01*
X61997503Y-103176266D01*
X62006349Y-103175950D01*
X62352475Y-103175950D01*
X62352476Y-103175949D01*
X62425539Y-103161416D01*
X62508400Y-103106051D01*
X62563765Y-103023190D01*
X62578299Y-102950124D01*
X62578299Y-102049876D01*
X62578299Y-102049873D01*
X62578298Y-102049871D01*
X62563766Y-101976814D01*
X62563765Y-101976810D01*
X62508400Y-101893949D01*
X62429104Y-101840966D01*
X62425538Y-101838583D01*
X62425534Y-101838582D01*
X62352476Y-101824050D01*
X62352473Y-101824050D01*
X61947525Y-101824050D01*
X61947523Y-101824050D01*
X61874457Y-101838583D01*
X61872446Y-101839417D01*
X61867711Y-101839925D01*
X61862482Y-101840966D01*
X61862388Y-101840497D01*
X61802976Y-101846882D01*
X61777554Y-101839417D01*
X61775541Y-101838583D01*
X61702477Y-101824050D01*
X61702474Y-101824050D01*
X61297526Y-101824050D01*
X61297523Y-101824050D01*
X61224464Y-101838582D01*
X61224460Y-101838583D01*
X61141599Y-101893949D01*
X61086233Y-101976810D01*
X61086232Y-101976814D01*
X61071700Y-102049871D01*
X61071700Y-102950128D01*
X61088616Y-103035169D01*
X61087501Y-103035390D01*
X61093642Y-103092520D01*
X61062366Y-103154998D01*
X61002276Y-103190649D01*
X60971613Y-103194500D01*
X58513631Y-103194500D01*
X58446592Y-103174815D01*
X58400837Y-103122011D01*
X58390893Y-103052853D01*
X58395700Y-103032182D01*
X58398623Y-103023185D01*
X58413402Y-102977701D01*
X58440500Y-102806611D01*
X58440500Y-102633389D01*
X58413402Y-102462299D01*
X58359873Y-102297555D01*
X58281232Y-102143212D01*
X58179414Y-102003072D01*
X58056928Y-101880586D01*
X57916788Y-101778768D01*
X57762445Y-101700127D01*
X57597701Y-101646598D01*
X57597699Y-101646597D01*
X57597698Y-101646597D01*
X57463363Y-101625321D01*
X57426611Y-101619500D01*
X57253389Y-101619500D01*
X57216637Y-101625321D01*
X57082302Y-101646597D01*
X56917552Y-101700128D01*
X56763211Y-101778768D01*
X56700887Y-101824050D01*
X56623072Y-101880586D01*
X56623070Y-101880588D01*
X56623069Y-101880588D01*
X56500588Y-102003069D01*
X56500588Y-102003070D01*
X56500586Y-102003072D01*
X56466583Y-102049873D01*
X56398768Y-102143211D01*
X56320128Y-102297552D01*
X56266597Y-102462302D01*
X56239500Y-102633389D01*
X56239500Y-102806610D01*
X56266597Y-102977697D01*
X56266597Y-102977699D01*
X56266598Y-102977701D01*
X56308301Y-103106050D01*
X56320128Y-103142447D01*
X56341790Y-103184962D01*
X56398768Y-103296788D01*
X56500586Y-103436928D01*
X56500588Y-103436930D01*
X56539327Y-103475669D01*
X56549939Y-103495105D01*
X56564440Y-103511839D01*
X56566356Y-103525170D01*
X56572812Y-103536992D01*
X56571232Y-103559078D01*
X56574384Y-103580997D01*
X56568788Y-103593248D01*
X56567828Y-103606684D01*
X56554557Y-103624410D01*
X56545359Y-103644553D01*
X56534027Y-103651835D01*
X56525956Y-103662617D01*
X56505210Y-103670354D01*
X56486581Y-103682327D01*
X56464662Y-103685478D01*
X56460492Y-103687034D01*
X56451646Y-103687350D01*
X56349750Y-103687350D01*
X56282711Y-103667665D01*
X56262069Y-103651031D01*
X56074219Y-103463181D01*
X55857321Y-103246284D01*
X55823837Y-103184962D01*
X55827071Y-103120289D01*
X55873402Y-102977701D01*
X55900500Y-102806611D01*
X55900500Y-102633389D01*
X55873402Y-102462299D01*
X55819873Y-102297555D01*
X55741232Y-102143212D01*
X55639414Y-102003072D01*
X55516928Y-101880586D01*
X55376788Y-101778768D01*
X55222445Y-101700127D01*
X55057701Y-101646598D01*
X55057699Y-101646597D01*
X55057698Y-101646597D01*
X54923363Y-101625321D01*
X54886611Y-101619500D01*
X54713389Y-101619500D01*
X54676637Y-101625321D01*
X54542302Y-101646597D01*
X54377552Y-101700128D01*
X54223211Y-101778768D01*
X54160887Y-101824050D01*
X54083072Y-101880586D01*
X54083070Y-101880588D01*
X54083069Y-101880588D01*
X53960588Y-102003069D01*
X53960588Y-102003070D01*
X53960586Y-102003072D01*
X53926583Y-102049873D01*
X53858768Y-102143211D01*
X53780128Y-102297552D01*
X53726597Y-102462302D01*
X53699500Y-102633389D01*
X52375500Y-102633389D01*
X52375500Y-77233389D01*
X53699500Y-77233389D01*
X53699500Y-77406610D01*
X53726597Y-77577697D01*
X53726597Y-77577699D01*
X53726598Y-77577701D01*
X53780127Y-77742445D01*
X53858768Y-77896788D01*
X53960586Y-78036928D01*
X54083072Y-78159414D01*
X54223212Y-78261232D01*
X54377555Y-78339873D01*
X54542299Y-78393402D01*
X54713389Y-78420500D01*
X54713390Y-78420500D01*
X54886610Y-78420500D01*
X54886611Y-78420500D01*
X55057701Y-78393402D01*
X55222445Y-78339873D01*
X55376788Y-78261232D01*
X55516928Y-78159414D01*
X55639414Y-78036928D01*
X55741232Y-77896788D01*
X55767129Y-77845961D01*
X55809295Y-77763206D01*
X55857269Y-77712409D01*
X55919780Y-77695500D01*
X56220220Y-77695500D01*
X56287259Y-77715185D01*
X56330705Y-77763206D01*
X56398766Y-77896786D01*
X56429357Y-77938890D01*
X56500586Y-78036928D01*
X56623072Y-78159414D01*
X56763212Y-78261232D01*
X56917555Y-78339873D01*
X57082299Y-78393402D01*
X57253389Y-78420500D01*
X57253390Y-78420500D01*
X57426610Y-78420500D01*
X57426611Y-78420500D01*
X57597701Y-78393402D01*
X57740289Y-78347071D01*
X57810126Y-78345077D01*
X57866285Y-78377322D01*
X57959438Y-78470475D01*
X58045063Y-78519911D01*
X58140564Y-78545500D01*
X58140565Y-78545500D01*
X60586200Y-78545500D01*
X60653239Y-78565185D01*
X60698994Y-78617989D01*
X60708938Y-78687147D01*
X60679913Y-78750703D01*
X60673881Y-78757181D01*
X59982881Y-79448181D01*
X59921558Y-79481666D01*
X59895200Y-79484500D01*
X58459780Y-79484500D01*
X58392741Y-79464815D01*
X58349295Y-79416794D01*
X58281233Y-79283213D01*
X58265937Y-79262160D01*
X58179414Y-79143072D01*
X58056928Y-79020586D01*
X57916788Y-78918768D01*
X57762445Y-78840127D01*
X57597701Y-78786598D01*
X57597699Y-78786597D01*
X57597698Y-78786597D01*
X57466271Y-78765781D01*
X57426611Y-78759500D01*
X57253389Y-78759500D01*
X57213728Y-78765781D01*
X57082302Y-78786597D01*
X56917552Y-78840128D01*
X56763211Y-78918768D01*
X56683256Y-78976859D01*
X56623072Y-79020586D01*
X56623070Y-79020588D01*
X56623069Y-79020588D01*
X56500588Y-79143069D01*
X56500588Y-79143070D01*
X56500586Y-79143072D01*
X56469996Y-79185174D01*
X56398766Y-79283213D01*
X56330705Y-79416794D01*
X56282731Y-79467591D01*
X56220220Y-79484500D01*
X55919780Y-79484500D01*
X55852741Y-79464815D01*
X55809295Y-79416794D01*
X55741233Y-79283213D01*
X55725937Y-79262160D01*
X55639414Y-79143072D01*
X55516928Y-79020586D01*
X55376788Y-78918768D01*
X55222445Y-78840127D01*
X55057701Y-78786598D01*
X55057699Y-78786597D01*
X55057698Y-78786597D01*
X54926271Y-78765781D01*
X54886611Y-78759500D01*
X54713389Y-78759500D01*
X54673728Y-78765781D01*
X54542302Y-78786597D01*
X54377552Y-78840128D01*
X54223211Y-78918768D01*
X54143256Y-78976859D01*
X54083072Y-79020586D01*
X54083070Y-79020588D01*
X54083069Y-79020588D01*
X53960588Y-79143069D01*
X53960588Y-79143070D01*
X53960586Y-79143072D01*
X53916859Y-79203256D01*
X53858768Y-79283211D01*
X53780128Y-79437552D01*
X53726597Y-79602302D01*
X53699500Y-79773389D01*
X53699500Y-79946610D01*
X53722299Y-80090562D01*
X53726598Y-80117701D01*
X53778163Y-80276402D01*
X53780128Y-80282447D01*
X53858767Y-80436786D01*
X53858768Y-80436788D01*
X53960586Y-80576928D01*
X54083072Y-80699414D01*
X54223212Y-80801232D01*
X54377555Y-80879873D01*
X54542299Y-80933402D01*
X54713389Y-80960500D01*
X54713390Y-80960500D01*
X54886610Y-80960500D01*
X54886611Y-80960500D01*
X55057701Y-80933402D01*
X55222445Y-80879873D01*
X55376788Y-80801232D01*
X55516928Y-80699414D01*
X55639414Y-80576928D01*
X55741232Y-80436788D01*
X55748255Y-80423004D01*
X55809295Y-80303206D01*
X55857269Y-80252409D01*
X55919780Y-80235500D01*
X56220220Y-80235500D01*
X56232913Y-80239227D01*
X56246107Y-80238232D01*
X56265791Y-80248881D01*
X56287259Y-80255185D01*
X56297300Y-80265928D01*
X56307559Y-80271478D01*
X56325589Y-80296193D01*
X56328820Y-80299650D01*
X56329791Y-80301413D01*
X56398768Y-80436788D01*
X56422079Y-80468872D01*
X56425814Y-80475650D01*
X56431766Y-80502507D01*
X56441012Y-80528420D01*
X56439218Y-80536133D01*
X56440932Y-80543865D01*
X56431417Y-80569678D01*
X56425187Y-80596474D01*
X56419507Y-80601993D01*
X56416769Y-80609424D01*
X56394808Y-80625996D01*
X56375081Y-80645169D01*
X56366631Y-80647261D01*
X56360999Y-80651512D01*
X56344417Y-80652762D01*
X56317214Y-80659500D01*
X56166489Y-80659500D01*
X56082429Y-80682023D01*
X56007068Y-80725534D01*
X56007065Y-80725536D01*
X55372288Y-81360312D01*
X55310965Y-81393797D01*
X55241273Y-81388813D01*
X55228314Y-81383117D01*
X55222448Y-81380128D01*
X55161461Y-81360312D01*
X55057701Y-81326598D01*
X55057699Y-81326597D01*
X55057698Y-81326597D01*
X54926271Y-81305781D01*
X54886611Y-81299500D01*
X54713389Y-81299500D01*
X54673728Y-81305781D01*
X54542302Y-81326597D01*
X54377552Y-81380128D01*
X54223211Y-81458768D01*
X54180928Y-81489489D01*
X54083072Y-81560586D01*
X54083070Y-81560588D01*
X54083069Y-81560588D01*
X53960588Y-81683069D01*
X53960588Y-81683070D01*
X53960586Y-81683072D01*
X53948650Y-81699501D01*
X53858768Y-81823211D01*
X53780128Y-81977552D01*
X53726597Y-82142302D01*
X53699500Y-82313389D01*
X53699500Y-82486610D01*
X53724644Y-82645368D01*
X53726598Y-82657701D01*
X53778749Y-82818205D01*
X53780128Y-82822447D01*
X53844576Y-82948935D01*
X53858768Y-82976788D01*
X53960586Y-83116928D01*
X54083072Y-83239414D01*
X54223212Y-83341232D01*
X54377555Y-83419873D01*
X54542299Y-83473402D01*
X54713389Y-83500500D01*
X54713390Y-83500500D01*
X54886610Y-83500500D01*
X54886611Y-83500500D01*
X55057701Y-83473402D01*
X55222445Y-83419873D01*
X55376788Y-83341232D01*
X55516928Y-83239414D01*
X55639414Y-83116928D01*
X55741232Y-82976788D01*
X55819873Y-82822445D01*
X55873402Y-82657701D01*
X55900500Y-82486611D01*
X55900500Y-82313389D01*
X55873402Y-82142299D01*
X55819873Y-81977555D01*
X55816880Y-81971682D01*
X55803986Y-81903014D01*
X55830264Y-81838274D01*
X55839676Y-81827720D01*
X56310579Y-81356819D01*
X56371902Y-81323334D01*
X56398260Y-81320500D01*
X56571890Y-81320500D01*
X56638929Y-81340185D01*
X56684684Y-81392989D01*
X56694628Y-81462147D01*
X56665603Y-81525703D01*
X56644775Y-81544818D01*
X56623075Y-81560583D01*
X56623069Y-81560588D01*
X56500588Y-81683069D01*
X56500588Y-81683070D01*
X56500586Y-81683072D01*
X56488650Y-81699501D01*
X56398768Y-81823211D01*
X56320128Y-81977552D01*
X56266597Y-82142302D01*
X56239500Y-82313389D01*
X56239500Y-82486610D01*
X56264644Y-82645368D01*
X56266598Y-82657701D01*
X56318749Y-82818205D01*
X56320128Y-82822447D01*
X56384576Y-82948935D01*
X56398768Y-82976788D01*
X56500586Y-83116928D01*
X56500588Y-83116930D01*
X56511477Y-83127819D01*
X56544962Y-83189142D01*
X56539978Y-83258834D01*
X56498106Y-83314767D01*
X56432642Y-83339184D01*
X56423796Y-83339500D01*
X56003856Y-83339500D01*
X55926877Y-83360125D01*
X55926878Y-83360126D01*
X55914713Y-83363385D01*
X55914709Y-83363387D01*
X55834791Y-83409527D01*
X55834786Y-83409531D01*
X55352969Y-83891347D01*
X55291646Y-83924832D01*
X55226970Y-83921597D01*
X55057698Y-83866597D01*
X54926271Y-83845781D01*
X54886611Y-83839500D01*
X54713389Y-83839500D01*
X54673728Y-83845781D01*
X54542302Y-83866597D01*
X54377552Y-83920128D01*
X54223211Y-83998768D01*
X54165773Y-84040500D01*
X54083072Y-84100586D01*
X54083070Y-84100588D01*
X54083069Y-84100588D01*
X53960588Y-84223069D01*
X53960588Y-84223070D01*
X53960586Y-84223072D01*
X53949847Y-84237853D01*
X53858768Y-84363211D01*
X53780128Y-84517552D01*
X53726597Y-84682302D01*
X53699500Y-84853389D01*
X53699500Y-85026610D01*
X53725355Y-85189857D01*
X53726598Y-85197701D01*
X53775737Y-85348935D01*
X53780128Y-85362447D01*
X53858768Y-85516788D01*
X53960586Y-85656928D01*
X54083072Y-85779414D01*
X54223212Y-85881232D01*
X54377555Y-85959873D01*
X54542299Y-86013402D01*
X54713389Y-86040500D01*
X54713390Y-86040500D01*
X54886610Y-86040500D01*
X54886611Y-86040500D01*
X55057701Y-86013402D01*
X55222445Y-85959873D01*
X55376788Y-85881232D01*
X55516928Y-85779414D01*
X55639414Y-85656928D01*
X55741232Y-85516788D01*
X55819873Y-85362445D01*
X55873402Y-85197701D01*
X55900500Y-85026611D01*
X55900500Y-84853389D01*
X55873402Y-84682299D01*
X55819873Y-84517555D01*
X55819869Y-84517547D01*
X55818401Y-84513029D01*
X55816406Y-84443188D01*
X55848648Y-84387033D01*
X56158865Y-84076816D01*
X56185796Y-84062111D01*
X56211609Y-84045523D01*
X56217809Y-84044631D01*
X56220186Y-84043334D01*
X56246544Y-84040500D01*
X56389869Y-84040500D01*
X56456908Y-84060185D01*
X56502663Y-84112989D01*
X56512607Y-84182147D01*
X56490187Y-84237383D01*
X56453323Y-84288124D01*
X56398768Y-84363211D01*
X56320128Y-84517552D01*
X56266597Y-84682302D01*
X56239500Y-84853389D01*
X56239500Y-85026610D01*
X56265355Y-85189857D01*
X56266598Y-85197701D01*
X56315737Y-85348935D01*
X56320128Y-85362447D01*
X56398768Y-85516788D01*
X56500586Y-85656928D01*
X56623072Y-85779414D01*
X56623075Y-85779416D01*
X56644775Y-85795182D01*
X56687441Y-85850511D01*
X56693420Y-85920125D01*
X56660815Y-85981920D01*
X56599976Y-86016277D01*
X56571890Y-86019500D01*
X55886489Y-86019500D01*
X55802431Y-86042023D01*
X55802428Y-86042024D01*
X55774846Y-86057948D01*
X55774846Y-86057949D01*
X55735638Y-86080586D01*
X55727068Y-86085534D01*
X55727065Y-86085536D01*
X55665532Y-86147070D01*
X55372289Y-86440312D01*
X55310966Y-86473797D01*
X55241274Y-86468813D01*
X55228320Y-86463119D01*
X55222452Y-86460129D01*
X55143694Y-86434539D01*
X55057701Y-86406598D01*
X55057699Y-86406597D01*
X55057698Y-86406597D01*
X54926271Y-86385781D01*
X54886611Y-86379500D01*
X54713389Y-86379500D01*
X54673728Y-86385781D01*
X54542302Y-86406597D01*
X54377552Y-86460128D01*
X54223211Y-86538768D01*
X54143256Y-86596859D01*
X54083072Y-86640586D01*
X54083070Y-86640588D01*
X54083069Y-86640588D01*
X53960588Y-86763069D01*
X53960588Y-86763070D01*
X53960586Y-86763072D01*
X53925343Y-86811580D01*
X53858768Y-86903211D01*
X53780128Y-87057552D01*
X53726597Y-87222302D01*
X53707930Y-87340164D01*
X53699500Y-87393389D01*
X53699500Y-87566611D01*
X53705993Y-87607607D01*
X53723450Y-87717829D01*
X53726598Y-87737701D01*
X53778345Y-87896962D01*
X53780128Y-87902447D01*
X53858768Y-88056788D01*
X53960586Y-88196928D01*
X54083072Y-88319414D01*
X54223212Y-88421232D01*
X54377555Y-88499873D01*
X54542299Y-88553402D01*
X54713389Y-88580500D01*
X54713390Y-88580500D01*
X54886610Y-88580500D01*
X54886611Y-88580500D01*
X55057701Y-88553402D01*
X55222445Y-88499873D01*
X55376788Y-88421232D01*
X55516928Y-88319414D01*
X55639414Y-88196928D01*
X55741232Y-88056788D01*
X55819873Y-87902445D01*
X55873402Y-87737701D01*
X55900500Y-87566611D01*
X55900500Y-87393389D01*
X55873402Y-87222299D01*
X55819873Y-87057555D01*
X55816882Y-87051686D01*
X55803986Y-86983018D01*
X55830261Y-86918277D01*
X55839667Y-86907728D01*
X56030579Y-86716816D01*
X56057508Y-86702113D01*
X56083324Y-86685523D01*
X56089526Y-86684631D01*
X56091902Y-86683334D01*
X56118259Y-86680500D01*
X56317214Y-86680500D01*
X56384253Y-86700185D01*
X56430008Y-86752989D01*
X56439952Y-86822147D01*
X56417532Y-86877386D01*
X56398768Y-86903211D01*
X56320128Y-87057552D01*
X56266597Y-87222302D01*
X56247930Y-87340164D01*
X56239500Y-87393389D01*
X56239500Y-87566611D01*
X56245993Y-87607607D01*
X56263450Y-87717829D01*
X56266598Y-87737701D01*
X56318345Y-87896962D01*
X56320128Y-87902447D01*
X56398768Y-88056788D01*
X56500586Y-88196928D01*
X56500588Y-88196930D01*
X56571477Y-88267819D01*
X56604962Y-88329142D01*
X56599978Y-88398834D01*
X56558106Y-88454767D01*
X56492642Y-88479184D01*
X56483796Y-88479500D01*
X55966489Y-88479500D01*
X55882429Y-88502023D01*
X55875424Y-88506068D01*
X55875420Y-88506070D01*
X55867751Y-88510499D01*
X55807068Y-88545534D01*
X55745534Y-88607068D01*
X55745532Y-88607070D01*
X55740307Y-88612294D01*
X55740298Y-88612302D01*
X55372289Y-88980312D01*
X55310966Y-89013797D01*
X55241274Y-89008813D01*
X55228320Y-89003119D01*
X55222452Y-89000129D01*
X55143694Y-88974539D01*
X55057701Y-88946598D01*
X55057699Y-88946597D01*
X55057698Y-88946597D01*
X54926271Y-88925781D01*
X54886611Y-88919500D01*
X54713389Y-88919500D01*
X54673728Y-88925781D01*
X54542302Y-88946597D01*
X54377552Y-89000128D01*
X54223211Y-89078768D01*
X54143256Y-89136859D01*
X54083072Y-89180586D01*
X54083070Y-89180588D01*
X54083069Y-89180588D01*
X53960588Y-89303069D01*
X53960588Y-89303070D01*
X53960586Y-89303072D01*
X53927751Y-89348266D01*
X53858768Y-89443211D01*
X53780128Y-89597552D01*
X53780128Y-89597553D01*
X53780127Y-89597555D01*
X53768604Y-89633018D01*
X53726597Y-89762302D01*
X53699500Y-89933389D01*
X53699500Y-90106610D01*
X53717803Y-90222175D01*
X53726598Y-90277701D01*
X53772788Y-90419859D01*
X53780128Y-90442447D01*
X53843410Y-90566645D01*
X53858768Y-90596788D01*
X53960586Y-90736928D01*
X54083072Y-90859414D01*
X54223212Y-90961232D01*
X54377555Y-91039873D01*
X54542299Y-91093402D01*
X54713389Y-91120500D01*
X54713390Y-91120500D01*
X54886610Y-91120500D01*
X54886611Y-91120500D01*
X55057701Y-91093402D01*
X55222445Y-91039873D01*
X55376788Y-90961232D01*
X55516928Y-90859414D01*
X55639414Y-90736928D01*
X55741232Y-90596788D01*
X55819873Y-90442445D01*
X55873402Y-90277701D01*
X55900500Y-90106611D01*
X55900500Y-89933389D01*
X55873402Y-89762299D01*
X55819873Y-89597555D01*
X55816882Y-89591686D01*
X55803986Y-89523018D01*
X55830261Y-89458277D01*
X55839668Y-89447728D01*
X56110579Y-89176816D01*
X56137511Y-89162111D01*
X56163324Y-89145523D01*
X56169524Y-89144631D01*
X56171901Y-89143334D01*
X56198259Y-89140500D01*
X56375338Y-89140500D01*
X56442377Y-89160185D01*
X56488132Y-89212989D01*
X56498076Y-89282147D01*
X56475656Y-89337383D01*
X56450223Y-89372391D01*
X56398768Y-89443211D01*
X56320128Y-89597552D01*
X56320128Y-89597553D01*
X56320127Y-89597555D01*
X56308604Y-89633018D01*
X56266597Y-89762302D01*
X56239500Y-89933389D01*
X56239500Y-90106610D01*
X56257803Y-90222175D01*
X56266598Y-90277701D01*
X56312788Y-90419859D01*
X56320128Y-90442447D01*
X56383410Y-90566645D01*
X56398768Y-90596788D01*
X56500586Y-90736928D01*
X56623072Y-90859414D01*
X56623075Y-90859416D01*
X56644775Y-90875182D01*
X56687441Y-90930511D01*
X56693420Y-91000125D01*
X56660815Y-91061920D01*
X56599976Y-91096277D01*
X56571890Y-91099500D01*
X55886489Y-91099500D01*
X55802431Y-91122023D01*
X55802428Y-91122024D01*
X55774846Y-91137948D01*
X55774846Y-91137949D01*
X55735638Y-91160586D01*
X55727068Y-91165534D01*
X55727065Y-91165536D01*
X55665532Y-91227070D01*
X55372289Y-91520312D01*
X55310966Y-91553797D01*
X55241274Y-91548813D01*
X55228320Y-91543119D01*
X55222452Y-91540129D01*
X55143694Y-91514539D01*
X55057701Y-91486598D01*
X55057699Y-91486597D01*
X55057698Y-91486597D01*
X54926271Y-91465781D01*
X54886611Y-91459500D01*
X54713389Y-91459500D01*
X54673728Y-91465781D01*
X54542302Y-91486597D01*
X54377552Y-91540128D01*
X54223211Y-91618768D01*
X54143256Y-91676859D01*
X54083072Y-91720586D01*
X54083070Y-91720588D01*
X54083069Y-91720588D01*
X53960588Y-91843069D01*
X53960588Y-91843070D01*
X53960586Y-91843072D01*
X53925343Y-91891580D01*
X53858768Y-91983211D01*
X53780128Y-92137552D01*
X53780128Y-92137553D01*
X53780127Y-92137555D01*
X53778091Y-92143822D01*
X53726597Y-92302302D01*
X53702982Y-92451406D01*
X53699500Y-92473389D01*
X53699500Y-92646611D01*
X53726598Y-92817701D01*
X53773805Y-92962989D01*
X53780128Y-92982447D01*
X53855684Y-93130735D01*
X53858768Y-93136788D01*
X53960586Y-93276928D01*
X54083072Y-93399414D01*
X54223212Y-93501232D01*
X54377555Y-93579873D01*
X54542299Y-93633402D01*
X54713389Y-93660500D01*
X54713390Y-93660500D01*
X54886610Y-93660500D01*
X54886611Y-93660500D01*
X55057701Y-93633402D01*
X55222445Y-93579873D01*
X55376788Y-93501232D01*
X55516928Y-93399414D01*
X55639414Y-93276928D01*
X55741232Y-93136788D01*
X55819873Y-92982445D01*
X55873402Y-92817701D01*
X55900500Y-92646611D01*
X55900500Y-92473389D01*
X55873402Y-92302299D01*
X55819873Y-92137555D01*
X55816882Y-92131686D01*
X55803986Y-92063018D01*
X55830261Y-91998277D01*
X55839667Y-91987728D01*
X56030579Y-91796816D01*
X56057508Y-91782113D01*
X56083324Y-91765523D01*
X56089526Y-91764631D01*
X56091902Y-91763334D01*
X56118259Y-91760500D01*
X56317214Y-91760500D01*
X56384253Y-91780185D01*
X56430008Y-91832989D01*
X56439952Y-91902147D01*
X56417532Y-91957386D01*
X56398768Y-91983211D01*
X56320128Y-92137552D01*
X56320128Y-92137553D01*
X56320127Y-92137555D01*
X56318091Y-92143822D01*
X56266597Y-92302302D01*
X56242982Y-92451406D01*
X56239500Y-92473389D01*
X56239500Y-92646611D01*
X56266598Y-92817701D01*
X56313805Y-92962989D01*
X56320128Y-92982447D01*
X56395684Y-93130735D01*
X56398768Y-93136788D01*
X56500586Y-93276928D01*
X56623072Y-93399414D01*
X56623075Y-93399416D01*
X56644775Y-93415182D01*
X56687441Y-93470511D01*
X56693420Y-93540125D01*
X56660815Y-93601920D01*
X56599976Y-93636277D01*
X56571890Y-93639500D01*
X55886489Y-93639500D01*
X55802431Y-93662023D01*
X55802428Y-93662024D01*
X55774846Y-93677948D01*
X55774846Y-93677949D01*
X55738139Y-93699142D01*
X55727068Y-93705534D01*
X55727065Y-93705536D01*
X55665532Y-93767070D01*
X55372289Y-94060312D01*
X55310966Y-94093797D01*
X55241274Y-94088813D01*
X55228320Y-94083119D01*
X55222452Y-94080129D01*
X55134036Y-94051401D01*
X55057701Y-94026598D01*
X55057699Y-94026597D01*
X55057698Y-94026597D01*
X54926271Y-94005781D01*
X54886611Y-93999500D01*
X54713389Y-93999500D01*
X54673728Y-94005781D01*
X54542302Y-94026597D01*
X54377552Y-94080128D01*
X54223211Y-94158768D01*
X54198013Y-94177076D01*
X54083072Y-94260586D01*
X54083070Y-94260588D01*
X54083069Y-94260588D01*
X53960588Y-94383069D01*
X53960588Y-94383070D01*
X53960586Y-94383072D01*
X53931117Y-94423633D01*
X53858768Y-94523211D01*
X53780128Y-94677552D01*
X53726597Y-94842302D01*
X53699500Y-95013389D01*
X53699500Y-95186610D01*
X53725757Y-95352396D01*
X53726598Y-95357701D01*
X53776245Y-95510499D01*
X53780128Y-95522447D01*
X53850130Y-95659835D01*
X53858768Y-95676788D01*
X53960586Y-95816928D01*
X54083072Y-95939414D01*
X54223212Y-96041232D01*
X54377555Y-96119873D01*
X54542299Y-96173402D01*
X54713389Y-96200500D01*
X54713390Y-96200500D01*
X54886610Y-96200500D01*
X54886611Y-96200500D01*
X55057701Y-96173402D01*
X55222445Y-96119873D01*
X55376788Y-96041232D01*
X55516928Y-95939414D01*
X55639414Y-95816928D01*
X55741232Y-95676788D01*
X55819873Y-95522445D01*
X55873402Y-95357701D01*
X55900500Y-95186611D01*
X55900500Y-95013389D01*
X55873402Y-94842299D01*
X55819873Y-94677555D01*
X55816882Y-94671686D01*
X55803986Y-94603018D01*
X55830261Y-94538277D01*
X55839667Y-94527728D01*
X56030579Y-94336816D01*
X56057508Y-94322113D01*
X56083324Y-94305523D01*
X56089526Y-94304631D01*
X56091902Y-94303334D01*
X56118259Y-94300500D01*
X56317214Y-94300500D01*
X56384253Y-94320185D01*
X56430008Y-94372989D01*
X56439952Y-94442147D01*
X56417532Y-94497386D01*
X56398768Y-94523211D01*
X56320128Y-94677552D01*
X56266597Y-94842302D01*
X56239500Y-95013389D01*
X56239500Y-95186610D01*
X56265757Y-95352396D01*
X56266598Y-95357701D01*
X56316245Y-95510499D01*
X56320128Y-95522447D01*
X56390130Y-95659835D01*
X56398768Y-95676788D01*
X56500586Y-95816928D01*
X56623072Y-95939414D01*
X56623075Y-95939416D01*
X56644775Y-95955182D01*
X56687441Y-96010511D01*
X56693420Y-96080125D01*
X56660815Y-96141920D01*
X56599976Y-96176277D01*
X56571890Y-96179500D01*
X55886489Y-96179500D01*
X55802431Y-96202023D01*
X55802428Y-96202024D01*
X55774846Y-96217948D01*
X55774846Y-96217949D01*
X55734360Y-96241324D01*
X55727068Y-96245534D01*
X55727065Y-96245536D01*
X55665532Y-96307070D01*
X55372289Y-96600312D01*
X55310966Y-96633797D01*
X55241274Y-96628813D01*
X55228320Y-96623119D01*
X55222452Y-96620129D01*
X55143694Y-96594539D01*
X55057701Y-96566598D01*
X55057699Y-96566597D01*
X55057698Y-96566597D01*
X54926271Y-96545781D01*
X54886611Y-96539500D01*
X54713389Y-96539500D01*
X54673728Y-96545781D01*
X54542302Y-96566597D01*
X54377552Y-96620128D01*
X54223211Y-96698768D01*
X54143256Y-96756859D01*
X54083072Y-96800586D01*
X54083070Y-96800588D01*
X54083069Y-96800588D01*
X53960588Y-96923069D01*
X53960588Y-96923070D01*
X53960586Y-96923072D01*
X53941385Y-96949500D01*
X53858768Y-97063211D01*
X53780128Y-97217552D01*
X53726597Y-97382302D01*
X53699500Y-97553389D01*
X53699500Y-97726610D01*
X53721328Y-97864432D01*
X53726598Y-97897701D01*
X53780127Y-98062445D01*
X53858768Y-98216788D01*
X53960586Y-98356928D01*
X54083072Y-98479414D01*
X54223212Y-98581232D01*
X54377555Y-98659873D01*
X54542299Y-98713402D01*
X54713389Y-98740500D01*
X54713390Y-98740500D01*
X54886610Y-98740500D01*
X54886611Y-98740500D01*
X55057701Y-98713402D01*
X55222445Y-98659873D01*
X55376788Y-98581232D01*
X55516928Y-98479414D01*
X55639414Y-98356928D01*
X55741232Y-98216788D01*
X55819873Y-98062445D01*
X55873402Y-97897701D01*
X55900500Y-97726611D01*
X55900500Y-97553389D01*
X55873402Y-97382299D01*
X55819873Y-97217555D01*
X55816882Y-97211686D01*
X55803986Y-97143018D01*
X55830261Y-97078277D01*
X55839667Y-97067728D01*
X56030579Y-96876816D01*
X56057508Y-96862113D01*
X56083324Y-96845523D01*
X56089526Y-96844631D01*
X56091902Y-96843334D01*
X56118259Y-96840500D01*
X56317214Y-96840500D01*
X56384253Y-96860185D01*
X56430008Y-96912989D01*
X56439952Y-96982147D01*
X56417532Y-97037386D01*
X56398768Y-97063211D01*
X56320128Y-97217552D01*
X56266597Y-97382302D01*
X56239500Y-97553389D01*
X56239500Y-97726610D01*
X56261328Y-97864432D01*
X56266598Y-97897701D01*
X56320127Y-98062445D01*
X56398768Y-98216788D01*
X56500586Y-98356928D01*
X56623072Y-98479414D01*
X56644144Y-98494724D01*
X56644775Y-98495182D01*
X56687441Y-98550511D01*
X56693420Y-98620125D01*
X56660815Y-98681920D01*
X56599976Y-98716277D01*
X56571890Y-98719500D01*
X55886489Y-98719500D01*
X55802430Y-98742023D01*
X55797073Y-98745116D01*
X55797070Y-98745118D01*
X55789481Y-98749500D01*
X55727068Y-98785534D01*
X55665534Y-98847068D01*
X55665532Y-98847070D01*
X55660239Y-98852362D01*
X55660235Y-98852366D01*
X55372289Y-99140312D01*
X55310966Y-99173797D01*
X55241274Y-99168813D01*
X55228320Y-99163119D01*
X55222452Y-99160129D01*
X55143694Y-99134539D01*
X55057701Y-99106598D01*
X55057699Y-99106597D01*
X55057698Y-99106597D01*
X54926271Y-99085781D01*
X54886611Y-99079500D01*
X54713389Y-99079500D01*
X54673728Y-99085781D01*
X54542302Y-99106597D01*
X54377552Y-99160128D01*
X54223211Y-99238768D01*
X54157193Y-99286734D01*
X54083072Y-99340586D01*
X54083070Y-99340588D01*
X54083069Y-99340588D01*
X53960588Y-99463069D01*
X53960588Y-99463070D01*
X53960586Y-99463072D01*
X53933393Y-99500500D01*
X53858768Y-99603211D01*
X53780128Y-99757552D01*
X53726597Y-99922302D01*
X53699500Y-100093389D01*
X53699500Y-100266611D01*
X53706076Y-100308133D01*
X53722950Y-100414672D01*
X53726598Y-100437701D01*
X53780127Y-100602445D01*
X53858768Y-100756788D01*
X53960586Y-100896928D01*
X54083072Y-101019414D01*
X54223212Y-101121232D01*
X54377555Y-101199873D01*
X54542299Y-101253402D01*
X54713389Y-101280500D01*
X54713390Y-101280500D01*
X54886610Y-101280500D01*
X54886611Y-101280500D01*
X55057701Y-101253402D01*
X55222445Y-101199873D01*
X55376788Y-101121232D01*
X55516928Y-101019414D01*
X55639414Y-100896928D01*
X55741232Y-100756788D01*
X55819873Y-100602445D01*
X55873402Y-100437701D01*
X55900500Y-100266611D01*
X55900500Y-100093389D01*
X55873402Y-99922299D01*
X55819873Y-99757555D01*
X55816882Y-99751686D01*
X55803986Y-99683018D01*
X55830261Y-99618277D01*
X55839667Y-99607728D01*
X56030579Y-99416816D01*
X56057508Y-99402113D01*
X56083324Y-99385523D01*
X56089526Y-99384631D01*
X56091902Y-99383334D01*
X56118259Y-99380500D01*
X56317214Y-99380500D01*
X56384253Y-99400185D01*
X56430008Y-99452989D01*
X56439952Y-99522147D01*
X56417532Y-99577386D01*
X56398768Y-99603211D01*
X56320128Y-99757552D01*
X56266597Y-99922302D01*
X56239500Y-100093389D01*
X56239500Y-100266611D01*
X56246076Y-100308133D01*
X56262950Y-100414672D01*
X56266598Y-100437701D01*
X56320127Y-100602445D01*
X56398768Y-100756788D01*
X56500586Y-100896928D01*
X56623072Y-101019414D01*
X56763212Y-101121232D01*
X56917555Y-101199873D01*
X57082299Y-101253402D01*
X57253389Y-101280500D01*
X57253390Y-101280500D01*
X57426610Y-101280500D01*
X57426611Y-101280500D01*
X57597701Y-101253402D01*
X57762445Y-101199873D01*
X57916788Y-101121232D01*
X58056928Y-101019414D01*
X58179414Y-100896928D01*
X58281232Y-100756788D01*
X58359873Y-100602445D01*
X58413402Y-100437701D01*
X58440500Y-100266611D01*
X58440500Y-100093389D01*
X58413402Y-99922299D01*
X58413400Y-99922292D01*
X58412263Y-99917552D01*
X58413767Y-99917190D01*
X58411964Y-99854184D01*
X58448041Y-99794349D01*
X58510740Y-99763517D01*
X58531892Y-99761700D01*
X60947700Y-99761700D01*
X61014739Y-99781385D01*
X61060494Y-99834189D01*
X61071700Y-99885700D01*
X61071700Y-100586778D01*
X61086232Y-100659835D01*
X61086233Y-100659839D01*
X61086234Y-100659840D01*
X61141599Y-100742701D01*
X61220895Y-100795684D01*
X61224460Y-100798066D01*
X61224464Y-100798067D01*
X61297521Y-100812599D01*
X61297524Y-100812600D01*
X61297526Y-100812600D01*
X61702476Y-100812600D01*
X61702477Y-100812599D01*
X61775540Y-100798066D01*
X61775545Y-100798062D01*
X61777535Y-100797239D01*
X61782255Y-100796731D01*
X61787519Y-100795684D01*
X61787612Y-100796154D01*
X61847004Y-100789763D01*
X61872460Y-100797237D01*
X61874455Y-100798063D01*
X61874459Y-100798066D01*
X61874463Y-100798066D01*
X61874466Y-100798068D01*
X61947520Y-100812599D01*
X61947523Y-100812600D01*
X61947525Y-100812600D01*
X62352475Y-100812600D01*
X62352476Y-100812599D01*
X62425539Y-100798066D01*
X62508400Y-100742701D01*
X62563765Y-100659840D01*
X62578299Y-100586774D01*
X62578299Y-99686526D01*
X62578299Y-99686523D01*
X62578298Y-99686521D01*
X62563766Y-99613464D01*
X62563765Y-99613463D01*
X62563765Y-99613460D01*
X62508400Y-99530599D01*
X62508398Y-99530596D01*
X62502165Y-99524363D01*
X62470072Y-99468776D01*
X62457976Y-99423632D01*
X62414465Y-99348268D01*
X62352931Y-99286734D01*
X61851731Y-98785534D01*
X61801155Y-98756334D01*
X61752940Y-98705768D01*
X61739716Y-98637161D01*
X61765684Y-98572296D01*
X61822598Y-98531767D01*
X61887347Y-98527330D01*
X61947522Y-98539300D01*
X61947525Y-98539300D01*
X62352475Y-98539300D01*
X62352476Y-98539299D01*
X62425539Y-98524766D01*
X62508400Y-98469401D01*
X62563765Y-98386540D01*
X62578299Y-98313474D01*
X62578299Y-97864071D01*
X62849499Y-97864071D01*
X62874497Y-97989738D01*
X62874499Y-97989744D01*
X62923533Y-98108124D01*
X62923538Y-98108133D01*
X62994723Y-98214668D01*
X62994726Y-98214672D01*
X63085327Y-98305273D01*
X63085331Y-98305276D01*
X63191866Y-98376461D01*
X63191872Y-98376464D01*
X63191873Y-98376465D01*
X63310256Y-98425501D01*
X63310260Y-98425501D01*
X63310261Y-98425502D01*
X63435928Y-98450500D01*
X63435931Y-98450500D01*
X63564071Y-98450500D01*
X63695718Y-98424313D01*
X63695957Y-98425517D01*
X63759366Y-98424948D01*
X63818481Y-98462194D01*
X63848075Y-98525486D01*
X63849500Y-98544234D01*
X63849500Y-98664069D01*
X63849500Y-98664071D01*
X63849499Y-98664071D01*
X63874497Y-98789738D01*
X63874499Y-98789744D01*
X63923533Y-98908124D01*
X63923538Y-98908133D01*
X63994723Y-99014668D01*
X63994726Y-99014672D01*
X64085327Y-99105273D01*
X64085331Y-99105276D01*
X64191866Y-99176461D01*
X64191872Y-99176464D01*
X64191873Y-99176465D01*
X64310256Y-99225501D01*
X64310260Y-99225501D01*
X64310261Y-99225502D01*
X64435928Y-99250500D01*
X64435931Y-99250500D01*
X64564071Y-99250500D01*
X64695718Y-99224313D01*
X64695957Y-99225517D01*
X64759366Y-99224948D01*
X64818481Y-99262194D01*
X64848075Y-99325486D01*
X64849500Y-99344234D01*
X64849500Y-99464069D01*
X64849500Y-99464071D01*
X64849499Y-99464071D01*
X64874497Y-99589738D01*
X64874499Y-99589744D01*
X64923533Y-99708124D01*
X64923538Y-99708133D01*
X64994723Y-99814668D01*
X64994726Y-99814672D01*
X65085327Y-99905273D01*
X65085331Y-99905276D01*
X65191866Y-99976461D01*
X65191872Y-99976464D01*
X65191873Y-99976465D01*
X65310256Y-100025501D01*
X65310260Y-100025501D01*
X65310261Y-100025502D01*
X65435928Y-100050500D01*
X65435931Y-100050500D01*
X65564071Y-100050500D01*
X65695718Y-100024313D01*
X65695957Y-100025517D01*
X65759366Y-100024948D01*
X65818481Y-100062194D01*
X65848075Y-100125486D01*
X65849500Y-100144234D01*
X65849500Y-100264069D01*
X65849500Y-100264071D01*
X65849499Y-100264071D01*
X65874497Y-100389738D01*
X65874499Y-100389744D01*
X65923533Y-100508124D01*
X65923538Y-100508133D01*
X65994723Y-100614668D01*
X65994726Y-100614672D01*
X66085327Y-100705273D01*
X66085331Y-100705276D01*
X66191866Y-100776461D01*
X66191872Y-100776464D01*
X66191873Y-100776465D01*
X66310256Y-100825501D01*
X66310260Y-100825501D01*
X66310261Y-100825502D01*
X66435928Y-100850500D01*
X66435931Y-100850500D01*
X66564071Y-100850500D01*
X66648615Y-100833682D01*
X66689744Y-100825501D01*
X66808127Y-100776465D01*
X66914669Y-100705276D01*
X67005276Y-100614669D01*
X67076465Y-100508127D01*
X67110131Y-100426849D01*
X67118334Y-100407047D01*
X67162175Y-100352644D01*
X67228469Y-100330579D01*
X67232895Y-100330500D01*
X68436887Y-100330500D01*
X68503926Y-100350185D01*
X68524568Y-100366819D01*
X68597603Y-100439854D01*
X68597605Y-100439855D01*
X68597609Y-100439859D01*
X68707825Y-100496017D01*
X68707826Y-100496017D01*
X68707828Y-100496018D01*
X68742947Y-100501579D01*
X68799265Y-100510500D01*
X69200734Y-100510499D01*
X69200739Y-100510499D01*
X69200739Y-100510498D01*
X69263869Y-100500500D01*
X69292170Y-100496018D01*
X69292171Y-100496018D01*
X69292172Y-100496017D01*
X69292175Y-100496017D01*
X69402391Y-100439859D01*
X69489859Y-100352391D01*
X69546017Y-100242175D01*
X69546017Y-100242173D01*
X69546018Y-100242172D01*
X69546018Y-100242171D01*
X69554322Y-100189738D01*
X69560500Y-100150735D01*
X69560499Y-99809266D01*
X69560499Y-99809260D01*
X69546018Y-99717829D01*
X69546018Y-99717828D01*
X69546017Y-99717826D01*
X69546017Y-99717825D01*
X69489859Y-99607609D01*
X69489857Y-99607607D01*
X69489854Y-99607603D01*
X69402396Y-99520145D01*
X69402393Y-99520143D01*
X69402391Y-99520141D01*
X69292175Y-99463983D01*
X69292174Y-99463982D01*
X69292171Y-99463981D01*
X69200735Y-99449500D01*
X68799260Y-99449500D01*
X68799260Y-99449501D01*
X68707829Y-99463981D01*
X68707828Y-99463981D01*
X68597607Y-99520142D01*
X68597603Y-99520145D01*
X68524568Y-99593181D01*
X68497640Y-99607884D01*
X68471822Y-99624477D01*
X68465621Y-99625368D01*
X68463245Y-99626666D01*
X68436887Y-99629500D01*
X68262113Y-99629500D01*
X68195074Y-99609815D01*
X68149319Y-99557011D01*
X68139375Y-99487853D01*
X68168400Y-99424297D01*
X68174432Y-99417819D01*
X68239854Y-99352396D01*
X68239859Y-99352391D01*
X68296017Y-99242175D01*
X68296017Y-99242173D01*
X68296018Y-99242172D01*
X68296018Y-99242171D01*
X68299901Y-99217650D01*
X68310500Y-99150735D01*
X68310499Y-98809266D01*
X68310499Y-98809264D01*
X68310499Y-98809260D01*
X68296018Y-98717829D01*
X68296018Y-98717828D01*
X68296017Y-98717826D01*
X68296017Y-98717825D01*
X68239859Y-98607609D01*
X68239857Y-98607607D01*
X68239854Y-98607603D01*
X68152396Y-98520145D01*
X68152393Y-98520143D01*
X68152391Y-98520141D01*
X68042175Y-98463983D01*
X68042174Y-98463982D01*
X68042171Y-98463981D01*
X67950735Y-98449500D01*
X67549260Y-98449500D01*
X67549260Y-98449501D01*
X67457829Y-98463981D01*
X67457828Y-98463981D01*
X67347607Y-98520142D01*
X67347603Y-98520145D01*
X67260145Y-98607603D01*
X67260143Y-98607607D01*
X67260141Y-98607609D01*
X67241421Y-98644347D01*
X67203981Y-98717827D01*
X67203981Y-98717828D01*
X67189500Y-98809264D01*
X67189500Y-98925500D01*
X67169815Y-98992539D01*
X67117011Y-99038294D01*
X67065500Y-99049500D01*
X66225544Y-99049500D01*
X66158505Y-99029815D01*
X66112750Y-98977011D01*
X66102806Y-98907853D01*
X66131831Y-98844297D01*
X66137851Y-98837830D01*
X66428863Y-98546816D01*
X66490184Y-98513333D01*
X66516543Y-98510499D01*
X66700739Y-98510499D01*
X66700739Y-98510498D01*
X66746454Y-98503258D01*
X66792170Y-98496018D01*
X66792171Y-98496018D01*
X66792172Y-98496017D01*
X66792175Y-98496017D01*
X66902391Y-98439859D01*
X66989859Y-98352391D01*
X67046017Y-98242175D01*
X67046017Y-98242173D01*
X67046018Y-98242172D01*
X67046018Y-98242171D01*
X67056338Y-98177011D01*
X67060500Y-98150735D01*
X67060499Y-97809266D01*
X67060499Y-97809265D01*
X67060499Y-97809260D01*
X67046018Y-97717829D01*
X67046018Y-97717828D01*
X67046017Y-97717826D01*
X67046017Y-97717825D01*
X66989859Y-97607609D01*
X66989857Y-97607607D01*
X66989854Y-97607603D01*
X66902396Y-97520145D01*
X66902393Y-97520143D01*
X66902391Y-97520141D01*
X66792175Y-97463983D01*
X66792174Y-97463982D01*
X66792171Y-97463981D01*
X66700735Y-97449500D01*
X66299260Y-97449500D01*
X66299260Y-97449501D01*
X66207829Y-97463981D01*
X66207828Y-97463981D01*
X66097607Y-97520142D01*
X66022180Y-97595569D01*
X65960856Y-97629053D01*
X65891165Y-97624069D01*
X65835231Y-97582197D01*
X65810815Y-97516732D01*
X65810499Y-97507903D01*
X65810499Y-97309266D01*
X65810499Y-97309264D01*
X65810499Y-97309260D01*
X65796018Y-97217829D01*
X65796018Y-97217828D01*
X65796017Y-97217826D01*
X65796017Y-97217825D01*
X65739859Y-97107609D01*
X65739857Y-97107607D01*
X65739854Y-97107603D01*
X65652396Y-97020145D01*
X65652393Y-97020143D01*
X65652391Y-97020141D01*
X65542175Y-96963983D01*
X65542174Y-96963982D01*
X65542171Y-96963981D01*
X65450735Y-96949500D01*
X65049260Y-96949500D01*
X65049260Y-96949501D01*
X64957829Y-96963981D01*
X64957828Y-96963981D01*
X64847607Y-97020142D01*
X64847603Y-97020145D01*
X64760145Y-97107603D01*
X64760142Y-97107608D01*
X64703981Y-97217827D01*
X64703981Y-97217828D01*
X64689500Y-97309264D01*
X64689500Y-97325500D01*
X64669815Y-97392539D01*
X64617011Y-97438294D01*
X64565500Y-97449500D01*
X64114432Y-97449500D01*
X64047393Y-97429815D01*
X64011330Y-97394391D01*
X64005276Y-97385330D01*
X63914672Y-97294726D01*
X63914668Y-97294723D01*
X63808133Y-97223538D01*
X63808124Y-97223533D01*
X63689744Y-97174499D01*
X63689738Y-97174497D01*
X63564071Y-97149500D01*
X63564069Y-97149500D01*
X63435931Y-97149500D01*
X63435929Y-97149500D01*
X63310261Y-97174497D01*
X63310255Y-97174499D01*
X63191875Y-97223533D01*
X63191866Y-97223538D01*
X63085331Y-97294723D01*
X63085327Y-97294726D01*
X62994726Y-97385327D01*
X62994723Y-97385331D01*
X62923538Y-97491866D01*
X62923533Y-97491875D01*
X62874499Y-97610255D01*
X62874497Y-97610261D01*
X62849500Y-97735928D01*
X62849500Y-97735931D01*
X62849500Y-97864069D01*
X62849500Y-97864071D01*
X62849499Y-97864071D01*
X62578299Y-97864071D01*
X62578299Y-97413226D01*
X62578299Y-97413223D01*
X62578298Y-97413221D01*
X62563766Y-97340164D01*
X62563765Y-97340160D01*
X62508400Y-97257299D01*
X62449328Y-97217829D01*
X62425538Y-97201933D01*
X62425534Y-97201932D01*
X62352476Y-97187400D01*
X62352473Y-97187400D01*
X61947525Y-97187400D01*
X61928697Y-97191145D01*
X61859106Y-97184916D01*
X61803929Y-97142053D01*
X61797119Y-97131526D01*
X61797054Y-97131414D01*
X61764466Y-97074968D01*
X60935032Y-96245534D01*
X60859668Y-96202023D01*
X60775611Y-96179500D01*
X60775610Y-96179500D01*
X58108110Y-96179500D01*
X58041071Y-96159815D01*
X57995316Y-96107011D01*
X57985372Y-96037853D01*
X58014397Y-95974297D01*
X58035225Y-95955182D01*
X58056928Y-95939414D01*
X58179414Y-95816928D01*
X58281232Y-95676788D01*
X58359873Y-95522445D01*
X58413402Y-95357701D01*
X58440500Y-95186611D01*
X58440500Y-95013389D01*
X58423348Y-94905096D01*
X58432302Y-94835805D01*
X58477299Y-94782353D01*
X58544050Y-94761713D01*
X58545821Y-94761700D01*
X60947700Y-94761700D01*
X61014739Y-94781385D01*
X61060494Y-94834189D01*
X61071700Y-94885700D01*
X61071700Y-95586778D01*
X61086232Y-95659835D01*
X61086233Y-95659839D01*
X61090782Y-95666647D01*
X61141599Y-95742701D01*
X61220895Y-95795684D01*
X61224460Y-95798066D01*
X61224464Y-95798067D01*
X61297521Y-95812599D01*
X61297524Y-95812600D01*
X61297526Y-95812600D01*
X61702476Y-95812600D01*
X61702477Y-95812599D01*
X61775540Y-95798066D01*
X61775545Y-95798062D01*
X61777535Y-95797239D01*
X61782255Y-95796731D01*
X61787519Y-95795684D01*
X61787612Y-95796154D01*
X61847004Y-95789763D01*
X61872460Y-95797237D01*
X61874455Y-95798063D01*
X61874459Y-95798066D01*
X61874463Y-95798066D01*
X61874466Y-95798068D01*
X61947520Y-95812599D01*
X61947523Y-95812600D01*
X61947525Y-95812600D01*
X62352475Y-95812600D01*
X62352476Y-95812599D01*
X62425539Y-95798066D01*
X62508400Y-95742701D01*
X62563765Y-95659840D01*
X62578299Y-95586774D01*
X62578299Y-94686526D01*
X62578299Y-94686523D01*
X62578298Y-94686521D01*
X62563766Y-94613464D01*
X62563765Y-94613463D01*
X62563765Y-94613460D01*
X62508400Y-94530599D01*
X62508398Y-94530596D01*
X62502165Y-94524363D01*
X62470072Y-94468776D01*
X62457976Y-94423632D01*
X62414465Y-94348268D01*
X62352931Y-94286734D01*
X61809616Y-93743419D01*
X61776131Y-93682096D01*
X61781115Y-93612404D01*
X61822987Y-93556471D01*
X61888451Y-93532054D01*
X61921488Y-93534120D01*
X61935182Y-93536844D01*
X61947524Y-93539300D01*
X61947525Y-93539300D01*
X62352475Y-93539300D01*
X62352476Y-93539299D01*
X62425539Y-93524766D01*
X62508400Y-93469401D01*
X62563765Y-93386540D01*
X62578299Y-93313474D01*
X62578299Y-92705216D01*
X62849499Y-92705216D01*
X62874497Y-92830883D01*
X62874499Y-92830889D01*
X62923533Y-92949269D01*
X62923538Y-92949278D01*
X62994723Y-93055813D01*
X62994726Y-93055817D01*
X63085327Y-93146418D01*
X63085331Y-93146421D01*
X63191866Y-93217606D01*
X63191875Y-93217611D01*
X63202894Y-93222175D01*
X63310256Y-93266646D01*
X63310260Y-93266646D01*
X63310261Y-93266647D01*
X63435928Y-93291645D01*
X63435931Y-93291645D01*
X63564071Y-93291645D01*
X63695718Y-93265458D01*
X63695957Y-93266662D01*
X63759366Y-93266093D01*
X63818481Y-93303339D01*
X63848075Y-93366631D01*
X63849500Y-93385379D01*
X63849500Y-93505214D01*
X63849500Y-93505216D01*
X63849499Y-93505216D01*
X63874497Y-93630883D01*
X63874499Y-93630889D01*
X63923533Y-93749269D01*
X63923538Y-93749278D01*
X63994723Y-93855813D01*
X63994726Y-93855817D01*
X64085327Y-93946418D01*
X64085331Y-93946421D01*
X64191866Y-94017606D01*
X64191872Y-94017609D01*
X64191873Y-94017610D01*
X64310256Y-94066646D01*
X64310260Y-94066646D01*
X64310261Y-94066647D01*
X64435928Y-94091645D01*
X64435931Y-94091645D01*
X64564071Y-94091645D01*
X64695718Y-94065458D01*
X64695957Y-94066662D01*
X64759366Y-94066093D01*
X64818481Y-94103339D01*
X64848075Y-94166631D01*
X64849500Y-94185379D01*
X64849500Y-94305214D01*
X64849500Y-94305216D01*
X64849499Y-94305216D01*
X64874497Y-94430883D01*
X64874499Y-94430889D01*
X64923533Y-94549269D01*
X64923538Y-94549278D01*
X64994723Y-94655813D01*
X64994726Y-94655817D01*
X65085327Y-94746418D01*
X65085331Y-94746421D01*
X65191866Y-94817606D01*
X65191872Y-94817609D01*
X65191873Y-94817610D01*
X65310256Y-94866646D01*
X65310260Y-94866646D01*
X65310261Y-94866647D01*
X65435928Y-94891645D01*
X65435931Y-94891645D01*
X65564071Y-94891645D01*
X65695718Y-94865458D01*
X65695957Y-94866662D01*
X65759366Y-94866093D01*
X65818481Y-94903339D01*
X65848075Y-94966631D01*
X65849500Y-94985379D01*
X65849500Y-95105214D01*
X65849500Y-95105216D01*
X65849499Y-95105216D01*
X65874497Y-95230883D01*
X65874499Y-95230889D01*
X65923533Y-95349269D01*
X65923538Y-95349278D01*
X65994723Y-95455813D01*
X65994726Y-95455817D01*
X66085327Y-95546418D01*
X66085331Y-95546421D01*
X66191866Y-95617606D01*
X66191872Y-95617609D01*
X66191873Y-95617610D01*
X66310256Y-95666646D01*
X66310260Y-95666646D01*
X66310261Y-95666647D01*
X66435928Y-95691645D01*
X66435931Y-95691645D01*
X66564071Y-95691645D01*
X66648615Y-95674827D01*
X66689744Y-95666646D01*
X66808127Y-95617610D01*
X66914669Y-95546421D01*
X67005276Y-95455814D01*
X67052185Y-95385608D01*
X67105796Y-95340805D01*
X67155287Y-95330500D01*
X68436887Y-95330500D01*
X68503926Y-95350185D01*
X68524568Y-95366819D01*
X68597603Y-95439854D01*
X68597605Y-95439855D01*
X68597609Y-95439859D01*
X68707825Y-95496017D01*
X68707826Y-95496017D01*
X68707828Y-95496018D01*
X68742947Y-95501579D01*
X68799265Y-95510500D01*
X69200734Y-95510499D01*
X69200739Y-95510499D01*
X69200739Y-95510498D01*
X69246454Y-95503258D01*
X69292170Y-95496018D01*
X69292171Y-95496018D01*
X69292172Y-95496017D01*
X69292175Y-95496017D01*
X69402391Y-95439859D01*
X69489859Y-95352391D01*
X69546017Y-95242175D01*
X69546017Y-95242173D01*
X69546018Y-95242172D01*
X69546018Y-95242171D01*
X69549901Y-95217650D01*
X69560500Y-95150735D01*
X69560499Y-94809266D01*
X69560499Y-94809260D01*
X69546018Y-94717829D01*
X69546018Y-94717828D01*
X69546017Y-94717826D01*
X69546017Y-94717825D01*
X69489859Y-94607609D01*
X69489857Y-94607607D01*
X69489854Y-94607603D01*
X69402396Y-94520145D01*
X69402393Y-94520143D01*
X69402391Y-94520141D01*
X69292175Y-94463983D01*
X69292174Y-94463982D01*
X69292171Y-94463981D01*
X69200735Y-94449500D01*
X68799260Y-94449500D01*
X68799260Y-94449501D01*
X68707829Y-94463981D01*
X68707828Y-94463981D01*
X68597607Y-94520142D01*
X68597603Y-94520145D01*
X68524568Y-94593181D01*
X68497640Y-94607884D01*
X68471822Y-94624477D01*
X68465621Y-94625368D01*
X68463245Y-94626666D01*
X68436887Y-94629500D01*
X68262113Y-94629500D01*
X68195074Y-94609815D01*
X68149319Y-94557011D01*
X68139375Y-94487853D01*
X68168400Y-94424297D01*
X68174432Y-94417819D01*
X68239854Y-94352396D01*
X68239859Y-94352391D01*
X68296017Y-94242175D01*
X68296017Y-94242173D01*
X68296018Y-94242172D01*
X68296018Y-94242171D01*
X68303984Y-94191873D01*
X68310500Y-94150735D01*
X68310499Y-93809266D01*
X68310499Y-93809260D01*
X68296018Y-93717829D01*
X68296018Y-93717828D01*
X68296017Y-93717826D01*
X68296017Y-93717825D01*
X68239859Y-93607609D01*
X68239857Y-93607607D01*
X68239854Y-93607603D01*
X68152396Y-93520145D01*
X68152393Y-93520143D01*
X68152391Y-93520141D01*
X68042175Y-93463983D01*
X68042174Y-93463982D01*
X68042171Y-93463981D01*
X67950735Y-93449500D01*
X67549260Y-93449500D01*
X67549260Y-93449501D01*
X67457829Y-93463981D01*
X67457828Y-93463981D01*
X67347607Y-93520142D01*
X67347603Y-93520145D01*
X67274568Y-93593181D01*
X67247640Y-93607884D01*
X67221822Y-93624477D01*
X67215621Y-93625368D01*
X67213245Y-93626666D01*
X67186887Y-93629500D01*
X66992113Y-93629500D01*
X66925074Y-93609815D01*
X66879319Y-93557011D01*
X66869375Y-93487853D01*
X66898400Y-93424297D01*
X66904432Y-93417819D01*
X66989854Y-93332396D01*
X66989859Y-93332391D01*
X67046017Y-93222175D01*
X67046017Y-93222173D01*
X67046018Y-93222172D01*
X67046018Y-93222171D01*
X67049901Y-93197650D01*
X67060500Y-93130735D01*
X67060499Y-92789266D01*
X67060499Y-92789265D01*
X67060499Y-92789260D01*
X67046018Y-92697829D01*
X67046018Y-92697828D01*
X67046017Y-92697826D01*
X67046017Y-92697825D01*
X66989859Y-92587609D01*
X66989857Y-92587607D01*
X66989854Y-92587603D01*
X66902396Y-92500145D01*
X66902393Y-92500143D01*
X66902391Y-92500141D01*
X66792175Y-92443983D01*
X66792174Y-92443982D01*
X66792171Y-92443981D01*
X66700735Y-92429500D01*
X66299260Y-92429500D01*
X66299260Y-92429501D01*
X66207829Y-92443981D01*
X66207828Y-92443981D01*
X66097607Y-92500142D01*
X66022180Y-92575569D01*
X65960856Y-92609053D01*
X65891165Y-92604069D01*
X65835231Y-92562197D01*
X65810815Y-92496732D01*
X65810499Y-92487901D01*
X65810499Y-92309266D01*
X65810499Y-92309260D01*
X65796018Y-92217829D01*
X65796018Y-92217828D01*
X65796017Y-92217826D01*
X65796017Y-92217825D01*
X65739859Y-92107609D01*
X65739857Y-92107607D01*
X65739854Y-92107603D01*
X65652396Y-92020145D01*
X65652393Y-92020143D01*
X65652391Y-92020141D01*
X65542175Y-91963983D01*
X65542174Y-91963982D01*
X65542171Y-91963981D01*
X65450735Y-91949500D01*
X65049260Y-91949500D01*
X65049260Y-91949501D01*
X64957829Y-91963981D01*
X64957828Y-91963981D01*
X64847607Y-92020142D01*
X64847603Y-92020145D01*
X64760145Y-92107603D01*
X64760143Y-92107607D01*
X64760141Y-92107609D01*
X64703983Y-92217825D01*
X64701377Y-92222940D01*
X64653402Y-92273736D01*
X64590892Y-92290645D01*
X64114432Y-92290645D01*
X64047393Y-92270960D01*
X64011330Y-92235536D01*
X64005276Y-92226475D01*
X63914672Y-92135871D01*
X63914668Y-92135868D01*
X63808133Y-92064683D01*
X63808124Y-92064678D01*
X63689744Y-92015644D01*
X63689738Y-92015642D01*
X63564071Y-91990645D01*
X63564069Y-91990645D01*
X63435931Y-91990645D01*
X63435929Y-91990645D01*
X63310261Y-92015642D01*
X63310255Y-92015644D01*
X63191875Y-92064678D01*
X63191866Y-92064683D01*
X63085331Y-92135868D01*
X63085327Y-92135871D01*
X62994726Y-92226472D01*
X62994723Y-92226476D01*
X62923538Y-92333011D01*
X62923533Y-92333020D01*
X62874499Y-92451400D01*
X62874497Y-92451406D01*
X62849500Y-92577073D01*
X62849500Y-92577076D01*
X62849500Y-92705214D01*
X62849500Y-92705216D01*
X62849499Y-92705216D01*
X62578299Y-92705216D01*
X62578299Y-92413226D01*
X62578299Y-92413223D01*
X62578298Y-92413221D01*
X62563766Y-92340164D01*
X62563765Y-92340160D01*
X62558988Y-92333011D01*
X62508400Y-92257299D01*
X62449328Y-92217829D01*
X62425538Y-92201933D01*
X62425534Y-92201932D01*
X62352476Y-92187400D01*
X62352473Y-92187400D01*
X61947525Y-92187400D01*
X61928697Y-92191145D01*
X61859106Y-92184916D01*
X61803929Y-92142053D01*
X61797119Y-92131526D01*
X61785120Y-92110743D01*
X61764466Y-92074968D01*
X60855032Y-91165534D01*
X60779668Y-91122023D01*
X60695611Y-91099500D01*
X60695610Y-91099500D01*
X58108110Y-91099500D01*
X58041071Y-91079815D01*
X57995316Y-91027011D01*
X57985372Y-90957853D01*
X58014397Y-90894297D01*
X58035225Y-90875182D01*
X58056928Y-90859414D01*
X58179414Y-90736928D01*
X58281232Y-90596788D01*
X58359873Y-90442445D01*
X58413402Y-90277701D01*
X58440500Y-90106611D01*
X58440500Y-89933389D01*
X58413402Y-89762299D01*
X58381077Y-89662816D01*
X58379083Y-89592977D01*
X58415163Y-89533144D01*
X58477864Y-89502316D01*
X58499009Y-89500500D01*
X60930540Y-89500500D01*
X60959980Y-89509144D01*
X60989967Y-89515668D01*
X60994982Y-89519422D01*
X60997579Y-89520185D01*
X61018221Y-89536819D01*
X61040798Y-89559396D01*
X61074283Y-89620719D01*
X61074735Y-89671267D01*
X61071700Y-89686526D01*
X61071700Y-90586778D01*
X61086232Y-90659835D01*
X61086233Y-90659839D01*
X61086234Y-90659840D01*
X61141599Y-90742701D01*
X61220895Y-90795684D01*
X61224460Y-90798066D01*
X61224464Y-90798067D01*
X61297521Y-90812599D01*
X61297524Y-90812600D01*
X61297526Y-90812600D01*
X61702476Y-90812600D01*
X61702477Y-90812599D01*
X61775540Y-90798066D01*
X61775545Y-90798062D01*
X61777535Y-90797239D01*
X61782255Y-90796731D01*
X61787519Y-90795684D01*
X61787612Y-90796154D01*
X61847004Y-90789763D01*
X61872460Y-90797237D01*
X61874455Y-90798063D01*
X61874459Y-90798066D01*
X61874463Y-90798066D01*
X61874466Y-90798068D01*
X61947520Y-90812599D01*
X61947523Y-90812600D01*
X61947525Y-90812600D01*
X62352475Y-90812600D01*
X62352476Y-90812599D01*
X62425539Y-90798066D01*
X62508400Y-90742701D01*
X62563765Y-90659840D01*
X62578299Y-90586774D01*
X62578299Y-89686526D01*
X62578299Y-89686523D01*
X62578298Y-89686521D01*
X62563766Y-89613464D01*
X62563765Y-89613463D01*
X62563765Y-89613460D01*
X62508400Y-89530599D01*
X62508398Y-89530596D01*
X62502165Y-89524363D01*
X62470072Y-89468776D01*
X62457976Y-89423632D01*
X62414465Y-89348268D01*
X62352931Y-89286734D01*
X62084418Y-89018221D01*
X61809617Y-88743419D01*
X61776132Y-88682096D01*
X61781116Y-88612404D01*
X61822988Y-88556471D01*
X61888452Y-88532054D01*
X61921487Y-88534120D01*
X61947525Y-88539300D01*
X62352475Y-88539300D01*
X62352476Y-88539299D01*
X62425539Y-88524766D01*
X62508400Y-88469401D01*
X62563765Y-88386540D01*
X62578299Y-88313474D01*
X62578299Y-87546361D01*
X62849499Y-87546361D01*
X62874497Y-87672028D01*
X62874499Y-87672034D01*
X62923533Y-87790414D01*
X62923538Y-87790423D01*
X62994723Y-87896958D01*
X62994726Y-87896962D01*
X63085327Y-87987563D01*
X63085331Y-87987566D01*
X63191866Y-88058751D01*
X63191872Y-88058754D01*
X63191873Y-88058755D01*
X63310256Y-88107791D01*
X63310260Y-88107791D01*
X63310261Y-88107792D01*
X63435928Y-88132790D01*
X63435931Y-88132790D01*
X63564071Y-88132790D01*
X63695718Y-88106603D01*
X63695957Y-88107807D01*
X63759366Y-88107238D01*
X63818481Y-88144484D01*
X63848075Y-88207776D01*
X63849500Y-88226524D01*
X63849500Y-88346359D01*
X63849500Y-88346361D01*
X63849499Y-88346361D01*
X63874497Y-88472028D01*
X63874499Y-88472034D01*
X63923533Y-88590414D01*
X63923538Y-88590423D01*
X63994723Y-88696958D01*
X63994726Y-88696962D01*
X64085327Y-88787563D01*
X64085331Y-88787566D01*
X64191866Y-88858751D01*
X64191872Y-88858754D01*
X64191873Y-88858755D01*
X64310256Y-88907791D01*
X64310260Y-88907791D01*
X64310261Y-88907792D01*
X64435928Y-88932790D01*
X64435931Y-88932790D01*
X64564071Y-88932790D01*
X64695718Y-88906603D01*
X64695957Y-88907807D01*
X64759366Y-88907238D01*
X64818481Y-88944484D01*
X64848075Y-89007776D01*
X64849500Y-89026524D01*
X64849500Y-89146359D01*
X64849500Y-89146361D01*
X64849499Y-89146361D01*
X64874497Y-89272028D01*
X64874499Y-89272034D01*
X64923533Y-89390414D01*
X64923538Y-89390423D01*
X64994723Y-89496958D01*
X64994726Y-89496962D01*
X65085327Y-89587563D01*
X65085331Y-89587566D01*
X65191866Y-89658751D01*
X65191872Y-89658754D01*
X65191873Y-89658755D01*
X65310256Y-89707791D01*
X65310260Y-89707791D01*
X65310261Y-89707792D01*
X65435928Y-89732790D01*
X65435931Y-89732790D01*
X65564071Y-89732790D01*
X65670982Y-89711523D01*
X65689744Y-89707791D01*
X65750353Y-89682685D01*
X65819820Y-89675217D01*
X65882299Y-89706491D01*
X65917952Y-89766580D01*
X65919422Y-89821437D01*
X65908355Y-89877076D01*
X65908355Y-90005214D01*
X65908355Y-90005216D01*
X65908354Y-90005216D01*
X65933352Y-90130883D01*
X65933354Y-90130889D01*
X65982388Y-90249269D01*
X65982393Y-90249278D01*
X66053578Y-90355813D01*
X66053581Y-90355817D01*
X66144182Y-90446418D01*
X66144186Y-90446421D01*
X66250721Y-90517606D01*
X66250730Y-90517611D01*
X66268393Y-90524927D01*
X66369111Y-90566646D01*
X66369115Y-90566646D01*
X66369116Y-90566647D01*
X66494783Y-90591645D01*
X66494786Y-90591645D01*
X66622926Y-90591645D01*
X66707470Y-90574827D01*
X66748599Y-90566646D01*
X66866982Y-90517610D01*
X66973524Y-90446421D01*
X67018714Y-90401231D01*
X67068439Y-90351507D01*
X67069261Y-90352329D01*
X67121854Y-90316502D01*
X67159967Y-90310500D01*
X68436887Y-90310500D01*
X68503926Y-90330185D01*
X68524568Y-90346819D01*
X68597603Y-90419854D01*
X68597605Y-90419855D01*
X68597609Y-90419859D01*
X68707825Y-90476017D01*
X68707826Y-90476017D01*
X68707828Y-90476018D01*
X68742947Y-90481579D01*
X68799265Y-90490500D01*
X69200734Y-90490499D01*
X69200739Y-90490499D01*
X69200739Y-90490498D01*
X69267828Y-90479873D01*
X69292170Y-90476018D01*
X69292171Y-90476018D01*
X69292172Y-90476017D01*
X69292175Y-90476017D01*
X69402391Y-90419859D01*
X69489859Y-90332391D01*
X69546017Y-90222175D01*
X69546017Y-90222173D01*
X69546018Y-90222172D01*
X69546018Y-90222171D01*
X69553183Y-90176929D01*
X69560500Y-90130735D01*
X69560499Y-89789266D01*
X69560499Y-89789260D01*
X69546018Y-89697829D01*
X69546018Y-89697828D01*
X69546017Y-89697826D01*
X69546017Y-89697825D01*
X69489859Y-89587609D01*
X69489857Y-89587607D01*
X69489854Y-89587603D01*
X69402396Y-89500145D01*
X69402393Y-89500143D01*
X69402391Y-89500141D01*
X69292175Y-89443983D01*
X69292174Y-89443982D01*
X69292171Y-89443981D01*
X69200735Y-89429500D01*
X68799260Y-89429500D01*
X68799260Y-89429501D01*
X68707829Y-89443981D01*
X68707828Y-89443981D01*
X68597607Y-89500142D01*
X68597603Y-89500145D01*
X68524568Y-89573181D01*
X68497640Y-89587884D01*
X68471822Y-89604477D01*
X68465621Y-89605368D01*
X68463245Y-89606666D01*
X68436887Y-89609500D01*
X68302113Y-89609500D01*
X68235074Y-89589815D01*
X68189319Y-89537011D01*
X68179375Y-89467853D01*
X68208400Y-89404297D01*
X68214432Y-89397819D01*
X68239854Y-89372396D01*
X68239859Y-89372391D01*
X68296017Y-89262175D01*
X68296017Y-89262173D01*
X68296018Y-89262172D01*
X68296018Y-89262171D01*
X68305500Y-89202302D01*
X68310500Y-89170735D01*
X68310499Y-88829266D01*
X68310499Y-88829260D01*
X68296018Y-88737829D01*
X68296018Y-88737828D01*
X68296017Y-88737826D01*
X68296017Y-88737825D01*
X68239859Y-88627609D01*
X68239857Y-88627607D01*
X68239854Y-88627603D01*
X68152396Y-88540145D01*
X68152393Y-88540143D01*
X68152391Y-88540141D01*
X68042175Y-88483983D01*
X68042174Y-88483982D01*
X68042171Y-88483981D01*
X67950735Y-88469500D01*
X67549260Y-88469500D01*
X67549260Y-88469501D01*
X67457829Y-88483981D01*
X67457828Y-88483981D01*
X67347607Y-88540142D01*
X67347603Y-88540145D01*
X67260145Y-88627603D01*
X67260143Y-88627607D01*
X67260141Y-88627609D01*
X67243994Y-88659301D01*
X67241556Y-88664085D01*
X67193581Y-88714881D01*
X67131071Y-88731790D01*
X66845941Y-88731790D01*
X66778902Y-88712105D01*
X66733147Y-88659301D01*
X66723203Y-88590143D01*
X66752228Y-88526587D01*
X66789646Y-88497305D01*
X66792173Y-88496017D01*
X66792175Y-88496017D01*
X66902391Y-88439859D01*
X66989859Y-88352391D01*
X67046017Y-88242175D01*
X67046017Y-88242173D01*
X67046018Y-88242172D01*
X67046018Y-88242171D01*
X67053183Y-88196929D01*
X67060500Y-88150735D01*
X67060499Y-87809266D01*
X67060499Y-87809265D01*
X67060499Y-87809260D01*
X67046018Y-87717829D01*
X67046018Y-87717828D01*
X67046017Y-87717826D01*
X67046017Y-87717825D01*
X66989859Y-87607609D01*
X66989857Y-87607607D01*
X66989854Y-87607603D01*
X66902396Y-87520145D01*
X66902393Y-87520143D01*
X66902391Y-87520141D01*
X66792175Y-87463983D01*
X66792174Y-87463982D01*
X66792171Y-87463981D01*
X66700735Y-87449500D01*
X66299260Y-87449500D01*
X66299260Y-87449501D01*
X66207829Y-87463981D01*
X66207828Y-87463981D01*
X66097607Y-87520142D01*
X66022180Y-87595569D01*
X65960856Y-87629053D01*
X65891165Y-87624069D01*
X65835231Y-87582197D01*
X65810815Y-87516732D01*
X65810499Y-87507901D01*
X65810499Y-87329266D01*
X65810499Y-87329260D01*
X65796018Y-87237829D01*
X65796018Y-87237828D01*
X65796017Y-87237826D01*
X65796017Y-87237825D01*
X65739859Y-87127609D01*
X65739857Y-87127607D01*
X65739854Y-87127603D01*
X65652396Y-87040145D01*
X65652393Y-87040143D01*
X65652391Y-87040141D01*
X65542175Y-86983983D01*
X65542174Y-86983982D01*
X65542171Y-86983981D01*
X65450735Y-86969500D01*
X65049260Y-86969500D01*
X65049260Y-86969501D01*
X64957829Y-86983981D01*
X64957828Y-86983981D01*
X64847607Y-87040142D01*
X64830199Y-87057551D01*
X64792277Y-87095472D01*
X64730957Y-87128956D01*
X64704598Y-87131790D01*
X64114432Y-87131790D01*
X64047393Y-87112105D01*
X64011330Y-87076681D01*
X64005276Y-87067620D01*
X63914672Y-86977016D01*
X63914668Y-86977013D01*
X63808133Y-86905828D01*
X63808124Y-86905823D01*
X63689744Y-86856789D01*
X63689738Y-86856787D01*
X63564071Y-86831790D01*
X63564069Y-86831790D01*
X63435931Y-86831790D01*
X63435929Y-86831790D01*
X63310261Y-86856787D01*
X63310255Y-86856789D01*
X63191875Y-86905823D01*
X63191866Y-86905828D01*
X63085331Y-86977013D01*
X63085327Y-86977016D01*
X62994726Y-87067617D01*
X62994723Y-87067621D01*
X62923538Y-87174156D01*
X62923533Y-87174165D01*
X62874499Y-87292545D01*
X62874497Y-87292551D01*
X62849500Y-87418218D01*
X62849500Y-87418221D01*
X62849500Y-87546359D01*
X62849500Y-87546361D01*
X62849499Y-87546361D01*
X62578299Y-87546361D01*
X62578299Y-87413226D01*
X62578299Y-87413223D01*
X62578298Y-87413221D01*
X62563766Y-87340164D01*
X62563765Y-87340160D01*
X62531954Y-87292551D01*
X62508400Y-87257299D01*
X62425539Y-87201934D01*
X62425538Y-87201933D01*
X62425534Y-87201932D01*
X62352476Y-87187400D01*
X62352473Y-87187400D01*
X61947525Y-87187400D01*
X61928697Y-87191145D01*
X61859106Y-87184916D01*
X61803929Y-87142053D01*
X61797119Y-87131526D01*
X61796131Y-87129815D01*
X61764466Y-87074968D01*
X61702932Y-87013434D01*
X60775032Y-86085534D01*
X60699668Y-86042023D01*
X60615611Y-86019500D01*
X60615610Y-86019500D01*
X58108110Y-86019500D01*
X58041071Y-85999815D01*
X57995316Y-85947011D01*
X57985372Y-85877853D01*
X58014397Y-85814297D01*
X58035225Y-85795182D01*
X58056928Y-85779414D01*
X58179414Y-85656928D01*
X58281232Y-85516788D01*
X58359873Y-85362445D01*
X58413402Y-85197701D01*
X58440500Y-85026611D01*
X58440500Y-84853389D01*
X58413402Y-84682299D01*
X58387577Y-84602818D01*
X58385582Y-84532977D01*
X58421663Y-84473144D01*
X58484364Y-84442316D01*
X58505508Y-84440500D01*
X60947700Y-84440500D01*
X61014739Y-84460185D01*
X61060494Y-84512989D01*
X61071700Y-84564500D01*
X61071700Y-85450128D01*
X61086232Y-85523185D01*
X61086233Y-85523189D01*
X61086234Y-85523190D01*
X61141599Y-85606051D01*
X61217743Y-85656928D01*
X61224460Y-85661416D01*
X61224464Y-85661417D01*
X61297521Y-85675949D01*
X61297524Y-85675950D01*
X61297526Y-85675950D01*
X61702476Y-85675950D01*
X61702477Y-85675949D01*
X61775540Y-85661416D01*
X61775545Y-85661412D01*
X61777535Y-85660589D01*
X61782255Y-85660081D01*
X61787519Y-85659034D01*
X61787612Y-85659504D01*
X61847004Y-85653113D01*
X61872460Y-85660587D01*
X61874455Y-85661413D01*
X61874459Y-85661416D01*
X61874463Y-85661416D01*
X61874466Y-85661418D01*
X61947520Y-85675949D01*
X61947523Y-85675950D01*
X61947525Y-85675950D01*
X62352475Y-85675950D01*
X62352476Y-85675949D01*
X62425539Y-85661416D01*
X62508400Y-85606051D01*
X62563765Y-85523190D01*
X62578299Y-85450124D01*
X62578299Y-84549876D01*
X62578299Y-84549873D01*
X62578298Y-84549871D01*
X62563766Y-84476814D01*
X62563765Y-84476810D01*
X62503604Y-84386771D01*
X62489757Y-84359097D01*
X62488170Y-84354595D01*
X62476613Y-84311461D01*
X62473005Y-84305212D01*
X62466179Y-84293389D01*
X62430473Y-84231543D01*
X62430467Y-84231535D01*
X61804730Y-83605797D01*
X61771245Y-83544474D01*
X61776229Y-83474782D01*
X61818101Y-83418849D01*
X61883565Y-83394432D01*
X61916601Y-83396498D01*
X61947525Y-83402650D01*
X62352475Y-83402650D01*
X62352476Y-83402649D01*
X62425539Y-83388116D01*
X62508400Y-83332751D01*
X62563765Y-83249890D01*
X62578299Y-83176824D01*
X62578299Y-82387506D01*
X62849499Y-82387506D01*
X62874497Y-82513173D01*
X62874499Y-82513179D01*
X62923533Y-82631559D01*
X62923538Y-82631568D01*
X62994723Y-82738103D01*
X62994726Y-82738107D01*
X63085327Y-82828708D01*
X63085331Y-82828711D01*
X63191866Y-82899896D01*
X63191872Y-82899899D01*
X63191873Y-82899900D01*
X63310256Y-82948936D01*
X63310260Y-82948936D01*
X63310261Y-82948937D01*
X63435928Y-82973935D01*
X63435931Y-82973935D01*
X63564071Y-82973935D01*
X63648615Y-82957117D01*
X63689744Y-82948936D01*
X63739767Y-82928215D01*
X63809234Y-82920747D01*
X63871713Y-82952022D01*
X63907366Y-83012110D01*
X63911218Y-83042777D01*
X63911218Y-83125787D01*
X63911218Y-83125789D01*
X63911217Y-83125789D01*
X63936215Y-83251456D01*
X63936217Y-83251462D01*
X63985251Y-83369842D01*
X63985256Y-83369851D01*
X64056441Y-83476386D01*
X64056444Y-83476390D01*
X64147045Y-83566991D01*
X64147049Y-83566994D01*
X64253584Y-83638179D01*
X64253590Y-83638182D01*
X64253591Y-83638183D01*
X64371974Y-83687219D01*
X64371978Y-83687219D01*
X64371979Y-83687220D01*
X64497646Y-83712218D01*
X64497649Y-83712218D01*
X64625788Y-83712218D01*
X64641864Y-83709019D01*
X64718894Y-83693697D01*
X64788482Y-83699923D01*
X64843660Y-83742786D01*
X64866906Y-83808675D01*
X64864701Y-83839505D01*
X64849500Y-83915926D01*
X64849500Y-83915931D01*
X64849500Y-84044069D01*
X64849500Y-84044071D01*
X64849499Y-84044071D01*
X64874497Y-84169738D01*
X64874499Y-84169744D01*
X64923533Y-84288124D01*
X64923538Y-84288133D01*
X64994723Y-84394668D01*
X64994726Y-84394672D01*
X65085327Y-84485273D01*
X65085331Y-84485276D01*
X65191866Y-84556461D01*
X65191875Y-84556466D01*
X65210235Y-84564071D01*
X65310256Y-84605501D01*
X65310260Y-84605501D01*
X65310261Y-84605502D01*
X65435928Y-84630500D01*
X65525501Y-84630500D01*
X65592540Y-84650185D01*
X65638295Y-84702989D01*
X65649501Y-84754500D01*
X65649501Y-84769584D01*
X65673384Y-84858720D01*
X65673385Y-84858721D01*
X65697641Y-84900735D01*
X65719530Y-84938647D01*
X65767028Y-84986144D01*
X65791353Y-85010469D01*
X65871277Y-85056614D01*
X65925601Y-85071169D01*
X65939424Y-85079027D01*
X65953097Y-85093175D01*
X65969900Y-85103417D01*
X65981250Y-85117939D01*
X65994722Y-85138102D01*
X65994726Y-85138107D01*
X66085327Y-85228708D01*
X66085331Y-85228711D01*
X66191866Y-85299896D01*
X66191872Y-85299899D01*
X66191873Y-85299900D01*
X66310256Y-85348936D01*
X66310260Y-85348936D01*
X66310261Y-85348937D01*
X66435928Y-85373935D01*
X66435931Y-85373935D01*
X66564071Y-85373935D01*
X66648615Y-85357117D01*
X66689744Y-85348936D01*
X66808127Y-85299900D01*
X66914669Y-85228711D01*
X67005276Y-85138104D01*
X67006941Y-85135612D01*
X67008151Y-85134600D01*
X67009140Y-85133396D01*
X67009368Y-85133583D01*
X67060551Y-85090806D01*
X67110045Y-85080500D01*
X68436887Y-85080500D01*
X68503926Y-85100185D01*
X68524568Y-85116819D01*
X68597603Y-85189854D01*
X68597605Y-85189855D01*
X68597609Y-85189859D01*
X68707825Y-85246017D01*
X68707826Y-85246017D01*
X68707828Y-85246018D01*
X68742947Y-85251579D01*
X68799265Y-85260500D01*
X69200734Y-85260499D01*
X69200739Y-85260499D01*
X69200739Y-85260498D01*
X69246454Y-85253258D01*
X69292170Y-85246018D01*
X69292171Y-85246018D01*
X69292172Y-85246017D01*
X69292175Y-85246017D01*
X69402391Y-85189859D01*
X69489859Y-85102391D01*
X69546017Y-84992175D01*
X69546017Y-84992173D01*
X69546018Y-84992172D01*
X69546018Y-84992171D01*
X69554495Y-84938646D01*
X69560500Y-84900735D01*
X69560499Y-84559266D01*
X69560499Y-84559260D01*
X69546018Y-84467829D01*
X69546018Y-84467828D01*
X69546017Y-84467826D01*
X69546017Y-84467825D01*
X69489859Y-84357609D01*
X69489857Y-84357607D01*
X69489854Y-84357603D01*
X69402396Y-84270145D01*
X69402393Y-84270143D01*
X69402391Y-84270141D01*
X69292175Y-84213983D01*
X69292174Y-84213982D01*
X69292171Y-84213981D01*
X69200735Y-84199500D01*
X68799260Y-84199500D01*
X68799260Y-84199501D01*
X68707829Y-84213981D01*
X68707828Y-84213981D01*
X68597607Y-84270142D01*
X68597603Y-84270145D01*
X68524568Y-84343181D01*
X68497640Y-84357884D01*
X68471822Y-84374477D01*
X68465621Y-84375368D01*
X68463245Y-84376666D01*
X68436887Y-84379500D01*
X68419452Y-84379500D01*
X68352413Y-84359815D01*
X68306658Y-84307011D01*
X68296714Y-84237853D01*
X68296979Y-84236102D01*
X68300482Y-84213983D01*
X68310500Y-84150735D01*
X68310499Y-83809266D01*
X68310499Y-83809260D01*
X68296018Y-83717829D01*
X68296018Y-83717828D01*
X68296017Y-83717826D01*
X68296017Y-83717825D01*
X68239859Y-83607609D01*
X68239857Y-83607607D01*
X68239854Y-83607603D01*
X68152396Y-83520145D01*
X68152393Y-83520143D01*
X68152391Y-83520141D01*
X68042175Y-83463983D01*
X68042174Y-83463982D01*
X68042171Y-83463981D01*
X67950735Y-83449500D01*
X67549260Y-83449500D01*
X67549260Y-83449501D01*
X67457829Y-83463981D01*
X67457828Y-83463981D01*
X67347607Y-83520142D01*
X67347603Y-83520145D01*
X67274568Y-83593181D01*
X67247640Y-83607884D01*
X67221822Y-83624477D01*
X67215621Y-83625368D01*
X67213245Y-83626666D01*
X67186887Y-83629500D01*
X67032113Y-83629500D01*
X66965074Y-83609815D01*
X66919319Y-83557011D01*
X66909375Y-83487853D01*
X66938400Y-83424297D01*
X66944432Y-83417819D01*
X66989854Y-83372396D01*
X66989859Y-83372391D01*
X67046017Y-83262175D01*
X67046017Y-83262173D01*
X67046018Y-83262172D01*
X67046018Y-83262171D01*
X67051391Y-83228245D01*
X67060500Y-83170735D01*
X67060499Y-82829266D01*
X67060499Y-82829260D01*
X67046018Y-82737829D01*
X67046018Y-82737828D01*
X67046017Y-82737826D01*
X67046017Y-82737825D01*
X66989859Y-82627609D01*
X66989857Y-82627607D01*
X66989854Y-82627603D01*
X66902396Y-82540145D01*
X66902393Y-82540143D01*
X66902391Y-82540141D01*
X66792175Y-82483983D01*
X66792174Y-82483982D01*
X66792171Y-82483981D01*
X66700735Y-82469500D01*
X66299260Y-82469500D01*
X66299260Y-82469501D01*
X66207829Y-82483981D01*
X66207828Y-82483981D01*
X66097607Y-82540142D01*
X66097603Y-82540145D01*
X66024568Y-82613181D01*
X65997640Y-82627884D01*
X65971822Y-82644477D01*
X65965621Y-82645368D01*
X65963245Y-82646666D01*
X65936887Y-82649500D01*
X65915571Y-82649500D01*
X65848532Y-82629815D01*
X65802777Y-82577011D01*
X65792833Y-82507853D01*
X65795033Y-82498388D01*
X65796898Y-82486610D01*
X65810500Y-82400735D01*
X65810499Y-82059266D01*
X65810499Y-82059260D01*
X65796018Y-81967831D01*
X65796017Y-81967826D01*
X65796017Y-81967825D01*
X65778837Y-81934108D01*
X77499500Y-81934108D01*
X77499500Y-96565891D01*
X77533608Y-96693187D01*
X77566554Y-96750250D01*
X77599500Y-96807314D01*
X79439197Y-98647011D01*
X81204505Y-100412318D01*
X81237990Y-100473641D01*
X81233006Y-100543333D01*
X81204505Y-100587680D01*
X78470961Y-103321224D01*
X78409638Y-103354709D01*
X78407473Y-103355160D01*
X78310260Y-103374497D01*
X78310255Y-103374499D01*
X78191875Y-103423533D01*
X78191866Y-103423538D01*
X78085331Y-103494723D01*
X78085327Y-103494726D01*
X77994726Y-103585327D01*
X77994723Y-103585331D01*
X77923538Y-103691866D01*
X77923533Y-103691875D01*
X77874499Y-103810255D01*
X77874497Y-103810261D01*
X77849500Y-103935928D01*
X77849500Y-103935931D01*
X77849500Y-104064069D01*
X77849500Y-104064071D01*
X77849499Y-104064071D01*
X77874497Y-104189738D01*
X77874499Y-104189744D01*
X77923533Y-104308124D01*
X77923538Y-104308133D01*
X77994723Y-104414668D01*
X77994726Y-104414672D01*
X78085327Y-104505273D01*
X78085331Y-104505276D01*
X78191866Y-104576461D01*
X78191872Y-104576464D01*
X78191873Y-104576465D01*
X78310256Y-104625501D01*
X78310260Y-104625501D01*
X78310261Y-104625502D01*
X78435928Y-104650500D01*
X78435931Y-104650500D01*
X78564071Y-104650500D01*
X78648615Y-104633682D01*
X78689744Y-104625501D01*
X78808127Y-104576465D01*
X78914669Y-104505276D01*
X79005276Y-104414669D01*
X79076465Y-104308127D01*
X79125501Y-104189744D01*
X79144839Y-104092528D01*
X79177224Y-104030617D01*
X79178719Y-104029094D01*
X82029040Y-101178773D01*
X82090361Y-101145290D01*
X82092528Y-101144839D01*
X82093004Y-101144744D01*
X82189744Y-101125501D01*
X82308127Y-101076465D01*
X82414669Y-101005276D01*
X82505276Y-100914669D01*
X82576465Y-100808127D01*
X82625501Y-100689744D01*
X82629931Y-100667472D01*
X82643292Y-100600308D01*
X82675677Y-100538397D01*
X82736393Y-100503823D01*
X82764909Y-100500500D01*
X87790568Y-100500500D01*
X87857607Y-100520185D01*
X87859459Y-100521398D01*
X87941866Y-100576461D01*
X87941872Y-100576464D01*
X87941873Y-100576465D01*
X88060256Y-100625501D01*
X88060260Y-100625501D01*
X88060261Y-100625502D01*
X88185928Y-100650500D01*
X88185931Y-100650500D01*
X88314071Y-100650500D01*
X88398615Y-100633682D01*
X88439744Y-100625501D01*
X88558127Y-100576465D01*
X88664669Y-100505276D01*
X88755276Y-100414669D01*
X88826465Y-100308127D01*
X88875501Y-100189744D01*
X88900500Y-100064069D01*
X88900500Y-99935931D01*
X88900500Y-99935928D01*
X88875502Y-99810261D01*
X88875501Y-99810260D01*
X88875501Y-99810256D01*
X88826465Y-99691873D01*
X88826464Y-99691872D01*
X88826461Y-99691866D01*
X88755276Y-99585331D01*
X88755273Y-99585327D01*
X88664672Y-99494726D01*
X88664668Y-99494723D01*
X88558133Y-99423538D01*
X88558124Y-99423533D01*
X88439744Y-99374499D01*
X88439738Y-99374497D01*
X88314071Y-99349500D01*
X88314069Y-99349500D01*
X88185931Y-99349500D01*
X88185929Y-99349500D01*
X88060261Y-99374497D01*
X88060255Y-99374499D01*
X87941875Y-99423533D01*
X87941866Y-99423538D01*
X87859459Y-99478602D01*
X87792782Y-99499480D01*
X87790568Y-99499500D01*
X82434108Y-99499500D01*
X82306812Y-99533608D01*
X82230988Y-99577386D01*
X82192686Y-99599500D01*
X82087678Y-99704506D01*
X82026357Y-99737990D01*
X81956665Y-99733006D01*
X81912318Y-99704505D01*
X80235743Y-98027930D01*
X78536819Y-96329005D01*
X78503334Y-96267682D01*
X78500500Y-96241324D01*
X78500500Y-91064071D01*
X82349499Y-91064071D01*
X82374497Y-91189738D01*
X82374499Y-91189744D01*
X82423533Y-91308124D01*
X82423538Y-91308133D01*
X82494723Y-91414668D01*
X82494726Y-91414672D01*
X82585327Y-91505273D01*
X82585331Y-91505276D01*
X82691866Y-91576461D01*
X82691872Y-91576464D01*
X82691873Y-91576465D01*
X82810256Y-91625501D01*
X82874455Y-91638271D01*
X82907471Y-91644839D01*
X82969382Y-91677224D01*
X82970961Y-91678775D01*
X86099500Y-94807314D01*
X86192686Y-94900500D01*
X86299975Y-94962443D01*
X86299977Y-94962445D01*
X86306812Y-94966391D01*
X86306814Y-94966392D01*
X86434107Y-95000500D01*
X86434108Y-95000500D01*
X90790568Y-95000500D01*
X90857607Y-95020185D01*
X90859459Y-95021398D01*
X90941866Y-95076461D01*
X90941872Y-95076464D01*
X90941873Y-95076465D01*
X91060256Y-95125501D01*
X91060260Y-95125501D01*
X91060261Y-95125502D01*
X91185928Y-95150500D01*
X91185931Y-95150500D01*
X91314071Y-95150500D01*
X91398615Y-95133682D01*
X91439744Y-95125501D01*
X91558127Y-95076465D01*
X91664669Y-95005276D01*
X91755276Y-94914669D01*
X91826465Y-94808127D01*
X91875501Y-94689744D01*
X91888059Y-94626611D01*
X91900500Y-94564071D01*
X91900500Y-94512161D01*
X91920185Y-94445122D01*
X91972989Y-94399367D01*
X92042147Y-94389423D01*
X92105703Y-94418448D01*
X92112181Y-94424480D01*
X93588181Y-95900480D01*
X93621666Y-95961803D01*
X93624500Y-95988161D01*
X93624500Y-97905192D01*
X93604815Y-97972231D01*
X93552011Y-98017986D01*
X93482853Y-98027930D01*
X93419297Y-97998905D01*
X93415827Y-97995674D01*
X93414668Y-97994723D01*
X93308133Y-97923538D01*
X93308124Y-97923533D01*
X93189744Y-97874499D01*
X93189738Y-97874497D01*
X93064071Y-97849500D01*
X93064069Y-97849500D01*
X92935931Y-97849500D01*
X92935929Y-97849500D01*
X92810261Y-97874497D01*
X92810255Y-97874499D01*
X92691875Y-97923533D01*
X92691866Y-97923538D01*
X92585331Y-97994723D01*
X92585327Y-97994726D01*
X92494726Y-98085327D01*
X92494723Y-98085331D01*
X92423538Y-98191866D01*
X92423533Y-98191875D01*
X92374499Y-98310255D01*
X92374497Y-98310261D01*
X92349500Y-98435928D01*
X92349500Y-98435931D01*
X92349500Y-98564069D01*
X92349500Y-98564071D01*
X92349499Y-98564071D01*
X92374497Y-98689738D01*
X92374499Y-98689744D01*
X92423533Y-98808124D01*
X92423538Y-98808133D01*
X92494723Y-98914668D01*
X92494726Y-98914672D01*
X92585327Y-99005273D01*
X92585331Y-99005276D01*
X92691866Y-99076461D01*
X92691872Y-99076464D01*
X92691873Y-99076465D01*
X92810256Y-99125501D01*
X92866608Y-99136710D01*
X92880018Y-99139378D01*
X92941929Y-99171763D01*
X92976503Y-99232478D01*
X92972764Y-99302248D01*
X92943508Y-99348676D01*
X89942686Y-102349500D01*
X88829005Y-103463181D01*
X88767682Y-103496666D01*
X88741324Y-103499500D01*
X88258676Y-103499500D01*
X88191637Y-103479815D01*
X88170995Y-103463181D01*
X86178775Y-101470961D01*
X86145290Y-101409638D01*
X86144839Y-101407471D01*
X86125502Y-101310263D01*
X86125502Y-101310261D01*
X86125501Y-101310256D01*
X86076465Y-101191873D01*
X86076464Y-101191872D01*
X86076461Y-101191866D01*
X86005276Y-101085331D01*
X86005273Y-101085327D01*
X85914672Y-100994726D01*
X85914668Y-100994723D01*
X85808133Y-100923538D01*
X85808124Y-100923533D01*
X85689744Y-100874499D01*
X85689738Y-100874497D01*
X85564071Y-100849500D01*
X85564069Y-100849500D01*
X85435931Y-100849500D01*
X85435929Y-100849500D01*
X85310261Y-100874497D01*
X85310255Y-100874499D01*
X85191875Y-100923533D01*
X85191866Y-100923538D01*
X85085331Y-100994723D01*
X85085327Y-100994726D01*
X84994726Y-101085327D01*
X84994723Y-101085331D01*
X84923538Y-101191866D01*
X84923533Y-101191875D01*
X84874499Y-101310255D01*
X84874497Y-101310261D01*
X84849500Y-101435928D01*
X84849500Y-101435931D01*
X84849500Y-101564069D01*
X84849500Y-101564071D01*
X84849499Y-101564071D01*
X84874497Y-101689738D01*
X84874499Y-101689744D01*
X84923533Y-101808124D01*
X84923538Y-101808133D01*
X84994723Y-101914668D01*
X84994726Y-101914672D01*
X85085327Y-102005273D01*
X85085331Y-102005276D01*
X85191866Y-102076461D01*
X85191872Y-102076464D01*
X85191873Y-102076465D01*
X85310256Y-102125501D01*
X85374455Y-102138271D01*
X85407471Y-102144839D01*
X85469382Y-102177224D01*
X85470961Y-102178775D01*
X86954505Y-103662319D01*
X86987990Y-103723642D01*
X86983006Y-103793334D01*
X86954505Y-103837681D01*
X84970961Y-105821224D01*
X84909638Y-105854709D01*
X84907473Y-105855160D01*
X84810260Y-105874497D01*
X84810255Y-105874499D01*
X84691875Y-105923533D01*
X84691866Y-105923538D01*
X84585331Y-105994723D01*
X84585327Y-105994726D01*
X84494726Y-106085327D01*
X84494723Y-106085331D01*
X84423538Y-106191866D01*
X84423533Y-106191875D01*
X84374499Y-106310255D01*
X84374497Y-106310261D01*
X84349500Y-106435928D01*
X84349500Y-106435931D01*
X84349500Y-106564069D01*
X84349500Y-106564071D01*
X84349499Y-106564071D01*
X84374497Y-106689738D01*
X84374499Y-106689744D01*
X84423533Y-106808124D01*
X84423538Y-106808133D01*
X84494723Y-106914668D01*
X84494726Y-106914672D01*
X84585327Y-107005273D01*
X84585331Y-107005276D01*
X84691866Y-107076461D01*
X84691872Y-107076464D01*
X84691873Y-107076465D01*
X84810256Y-107125501D01*
X84810260Y-107125501D01*
X84810261Y-107125502D01*
X84935928Y-107150500D01*
X84935931Y-107150500D01*
X85064071Y-107150500D01*
X85148615Y-107133682D01*
X85189744Y-107125501D01*
X85308127Y-107076465D01*
X85414669Y-107005276D01*
X85505276Y-106914669D01*
X85576465Y-106808127D01*
X85625501Y-106689744D01*
X85644839Y-106592528D01*
X85677224Y-106530617D01*
X85678719Y-106529094D01*
X87670995Y-104536819D01*
X87732318Y-104503334D01*
X87758676Y-104500500D01*
X89065890Y-104500500D01*
X89065892Y-104500500D01*
X89193186Y-104466392D01*
X89307314Y-104400500D01*
X89307316Y-104400497D01*
X89313499Y-104396928D01*
X89381399Y-104380455D01*
X89447426Y-104403307D01*
X89490617Y-104458228D01*
X89499500Y-104504315D01*
X89499500Y-109540567D01*
X89479815Y-109607606D01*
X89478602Y-109609457D01*
X89423541Y-109691861D01*
X89423533Y-109691875D01*
X89374499Y-109810255D01*
X89374497Y-109810261D01*
X89349500Y-109935928D01*
X89349500Y-109935931D01*
X89349500Y-110064069D01*
X89349500Y-110064071D01*
X89349499Y-110064071D01*
X89374497Y-110189738D01*
X89374499Y-110189744D01*
X89423533Y-110308124D01*
X89423538Y-110308133D01*
X89494723Y-110414668D01*
X89494726Y-110414672D01*
X89585327Y-110505273D01*
X89585331Y-110505276D01*
X89691866Y-110576461D01*
X89691872Y-110576464D01*
X89691873Y-110576465D01*
X89810256Y-110625501D01*
X89810260Y-110625501D01*
X89810261Y-110625502D01*
X89935928Y-110650500D01*
X89935931Y-110650500D01*
X90064071Y-110650500D01*
X90148615Y-110633682D01*
X90189744Y-110625501D01*
X90308127Y-110576465D01*
X90414669Y-110505276D01*
X90505276Y-110414669D01*
X90576465Y-110308127D01*
X90625501Y-110189744D01*
X90650500Y-110064069D01*
X90650500Y-109935931D01*
X90650500Y-109935928D01*
X90625502Y-109810261D01*
X90625501Y-109810260D01*
X90625501Y-109810256D01*
X90576465Y-109691873D01*
X90576464Y-109691871D01*
X90576458Y-109691861D01*
X90521398Y-109609457D01*
X90500520Y-109542780D01*
X90500500Y-109540567D01*
X90500500Y-104564071D01*
X112711999Y-104564071D01*
X112736997Y-104689738D01*
X112736999Y-104689744D01*
X112786033Y-104808124D01*
X112786038Y-104808133D01*
X112857223Y-104914668D01*
X112857226Y-104914672D01*
X112947827Y-105005273D01*
X112947831Y-105005276D01*
X113054366Y-105076461D01*
X113054372Y-105076464D01*
X113054373Y-105076465D01*
X113172756Y-105125501D01*
X113172760Y-105125501D01*
X113172761Y-105125502D01*
X113298428Y-105150500D01*
X113298431Y-105150500D01*
X113426571Y-105150500D01*
X113511115Y-105133682D01*
X113552244Y-105125501D01*
X113670627Y-105076465D01*
X113777169Y-105005276D01*
X113867776Y-104914669D01*
X113938965Y-104808127D01*
X113988001Y-104689744D01*
X114010534Y-104576466D01*
X114013000Y-104564071D01*
X114013000Y-104435928D01*
X113988002Y-104310261D01*
X113988001Y-104310260D01*
X113988001Y-104310256D01*
X113938965Y-104191873D01*
X113938964Y-104191872D01*
X113938961Y-104191866D01*
X113867774Y-104085328D01*
X113777172Y-103994726D01*
X113777168Y-103994723D01*
X113670633Y-103923538D01*
X113670624Y-103923533D01*
X113552244Y-103874499D01*
X113552238Y-103874497D01*
X113426571Y-103849500D01*
X113426569Y-103849500D01*
X113298431Y-103849500D01*
X113298429Y-103849500D01*
X113172761Y-103874497D01*
X113172755Y-103874499D01*
X113054375Y-103923533D01*
X113054366Y-103923538D01*
X112947831Y-103994723D01*
X112947827Y-103994726D01*
X112857226Y-104085327D01*
X112857226Y-104085328D01*
X112786038Y-104191866D01*
X112786033Y-104191875D01*
X112736999Y-104310255D01*
X112736997Y-104310261D01*
X112712000Y-104435928D01*
X112712000Y-104435931D01*
X112712000Y-104564069D01*
X112712000Y-104564071D01*
X112711999Y-104564071D01*
X90500500Y-104564071D01*
X90500500Y-103258676D01*
X90520185Y-103191637D01*
X90536819Y-103170995D01*
X91294425Y-102413389D01*
X93279500Y-102413389D01*
X93279500Y-102586611D01*
X93306598Y-102757701D01*
X93360127Y-102922445D01*
X93438768Y-103076788D01*
X93540586Y-103216928D01*
X93663072Y-103339414D01*
X93803212Y-103441232D01*
X93957555Y-103519873D01*
X94122299Y-103573402D01*
X94293389Y-103600500D01*
X94293390Y-103600500D01*
X94466610Y-103600500D01*
X94466611Y-103600500D01*
X94637701Y-103573402D01*
X94802445Y-103519873D01*
X94956788Y-103441232D01*
X95096928Y-103339414D01*
X95219414Y-103216928D01*
X95321232Y-103076788D01*
X95399873Y-102922445D01*
X95453402Y-102757701D01*
X95480500Y-102586611D01*
X95480500Y-102413389D01*
X95819500Y-102413389D01*
X95819500Y-102586611D01*
X95846598Y-102757701D01*
X95900127Y-102922445D01*
X95978768Y-103076788D01*
X96080586Y-103216928D01*
X96203072Y-103339414D01*
X96343212Y-103441232D01*
X96497555Y-103519873D01*
X96662299Y-103573402D01*
X96833389Y-103600500D01*
X96833390Y-103600500D01*
X97006610Y-103600500D01*
X97006611Y-103600500D01*
X97177701Y-103573402D01*
X97342445Y-103519873D01*
X97496788Y-103441232D01*
X97636928Y-103339414D01*
X97759414Y-103216928D01*
X97861232Y-103076788D01*
X97939873Y-102922445D01*
X97993402Y-102757701D01*
X98020500Y-102586611D01*
X98020500Y-102413389D01*
X98359500Y-102413389D01*
X98359500Y-102586611D01*
X98386598Y-102757701D01*
X98440127Y-102922445D01*
X98518768Y-103076788D01*
X98620586Y-103216928D01*
X98743072Y-103339414D01*
X98883212Y-103441232D01*
X99037555Y-103519873D01*
X99202299Y-103573402D01*
X99373389Y-103600500D01*
X99373390Y-103600500D01*
X99546610Y-103600500D01*
X99546611Y-103600500D01*
X99717701Y-103573402D01*
X99882445Y-103519873D01*
X100036788Y-103441232D01*
X100176928Y-103339414D01*
X100299414Y-103216928D01*
X100401232Y-103076788D01*
X100479873Y-102922445D01*
X100533402Y-102757701D01*
X100560500Y-102586611D01*
X100560500Y-102413389D01*
X100899500Y-102413389D01*
X100899500Y-102586611D01*
X100926598Y-102757701D01*
X100980127Y-102922445D01*
X101058768Y-103076788D01*
X101160586Y-103216928D01*
X101283072Y-103339414D01*
X101423212Y-103441232D01*
X101577555Y-103519873D01*
X101742299Y-103573402D01*
X101913389Y-103600500D01*
X101913390Y-103600500D01*
X102086610Y-103600500D01*
X102086611Y-103600500D01*
X102257701Y-103573402D01*
X102422445Y-103519873D01*
X102576788Y-103441232D01*
X102716928Y-103339414D01*
X102839414Y-103216928D01*
X102941232Y-103076788D01*
X103019873Y-102922445D01*
X103073402Y-102757701D01*
X103100500Y-102586611D01*
X103100500Y-102413389D01*
X103439500Y-102413389D01*
X103439500Y-102586611D01*
X103466598Y-102757701D01*
X103520127Y-102922445D01*
X103598768Y-103076788D01*
X103700586Y-103216928D01*
X103823072Y-103339414D01*
X103963212Y-103441232D01*
X104117555Y-103519873D01*
X104282299Y-103573402D01*
X104453389Y-103600500D01*
X104453390Y-103600500D01*
X104626610Y-103600500D01*
X104626611Y-103600500D01*
X104797701Y-103573402D01*
X104962445Y-103519873D01*
X105116788Y-103441232D01*
X105256928Y-103339414D01*
X105379414Y-103216928D01*
X105481232Y-103076788D01*
X105559873Y-102922445D01*
X105613402Y-102757701D01*
X105640500Y-102586611D01*
X105640500Y-102413389D01*
X105979500Y-102413389D01*
X105979500Y-102586611D01*
X106006598Y-102757701D01*
X106060127Y-102922445D01*
X106138768Y-103076788D01*
X106240586Y-103216928D01*
X106363072Y-103339414D01*
X106503212Y-103441232D01*
X106657555Y-103519873D01*
X106822299Y-103573402D01*
X106993389Y-103600500D01*
X106993390Y-103600500D01*
X107166610Y-103600500D01*
X107166611Y-103600500D01*
X107337701Y-103573402D01*
X107502445Y-103519873D01*
X107656788Y-103441232D01*
X107796928Y-103339414D01*
X107919414Y-103216928D01*
X108021232Y-103076788D01*
X108099873Y-102922445D01*
X108153402Y-102757701D01*
X108180500Y-102586611D01*
X108180500Y-102413389D01*
X108153402Y-102242299D01*
X108099873Y-102077555D01*
X108021232Y-101923212D01*
X107919414Y-101783072D01*
X107796928Y-101660586D01*
X107748390Y-101625321D01*
X108519500Y-101625321D01*
X108519500Y-103374678D01*
X108534032Y-103447735D01*
X108534033Y-103447739D01*
X108534034Y-103447740D01*
X108589399Y-103530601D01*
X108664823Y-103580997D01*
X108672260Y-103585966D01*
X108672264Y-103585967D01*
X108745321Y-103600499D01*
X108745324Y-103600500D01*
X108745326Y-103600500D01*
X110494676Y-103600500D01*
X110494677Y-103600499D01*
X110567740Y-103585966D01*
X110650601Y-103530601D01*
X110705966Y-103447740D01*
X110720500Y-103374674D01*
X110720500Y-101625326D01*
X110720500Y-101625323D01*
X110720499Y-101625321D01*
X110705967Y-101552264D01*
X110705966Y-101552260D01*
X110650601Y-101469399D01*
X110567740Y-101414034D01*
X110567739Y-101414033D01*
X110567735Y-101414032D01*
X110494677Y-101399500D01*
X110494674Y-101399500D01*
X108745326Y-101399500D01*
X108745323Y-101399500D01*
X108672264Y-101414032D01*
X108672260Y-101414033D01*
X108589399Y-101469399D01*
X108534033Y-101552260D01*
X108534032Y-101552264D01*
X108519500Y-101625321D01*
X107748390Y-101625321D01*
X107656788Y-101558768D01*
X107502445Y-101480127D01*
X107337701Y-101426598D01*
X107337699Y-101426597D01*
X107337698Y-101426597D01*
X107206271Y-101405781D01*
X107166611Y-101399500D01*
X106993389Y-101399500D01*
X106953728Y-101405781D01*
X106822302Y-101426597D01*
X106657552Y-101480128D01*
X106503211Y-101558768D01*
X106423256Y-101616859D01*
X106363072Y-101660586D01*
X106363070Y-101660588D01*
X106363069Y-101660588D01*
X106240588Y-101783069D01*
X106240588Y-101783070D01*
X106240586Y-101783072D01*
X106200255Y-101838583D01*
X106138768Y-101923211D01*
X106060128Y-102077552D01*
X106006597Y-102242302D01*
X105997846Y-102297555D01*
X105979500Y-102413389D01*
X105640500Y-102413389D01*
X105613402Y-102242299D01*
X105559873Y-102077555D01*
X105481232Y-101923212D01*
X105379414Y-101783072D01*
X105256928Y-101660586D01*
X105116788Y-101558768D01*
X104962445Y-101480127D01*
X104797701Y-101426598D01*
X104797699Y-101426597D01*
X104797698Y-101426597D01*
X104666271Y-101405781D01*
X104626611Y-101399500D01*
X104453389Y-101399500D01*
X104413728Y-101405781D01*
X104282302Y-101426597D01*
X104117552Y-101480128D01*
X103963211Y-101558768D01*
X103883256Y-101616859D01*
X103823072Y-101660586D01*
X103823070Y-101660588D01*
X103823069Y-101660588D01*
X103700588Y-101783069D01*
X103700588Y-101783070D01*
X103700586Y-101783072D01*
X103660255Y-101838583D01*
X103598768Y-101923211D01*
X103520128Y-102077552D01*
X103466597Y-102242302D01*
X103457846Y-102297555D01*
X103439500Y-102413389D01*
X103100500Y-102413389D01*
X103073402Y-102242299D01*
X103019873Y-102077555D01*
X102941232Y-101923212D01*
X102839414Y-101783072D01*
X102716928Y-101660586D01*
X102576788Y-101558768D01*
X102422445Y-101480127D01*
X102257701Y-101426598D01*
X102257699Y-101426597D01*
X102257698Y-101426597D01*
X102126271Y-101405781D01*
X102086611Y-101399500D01*
X101913389Y-101399500D01*
X101873728Y-101405781D01*
X101742302Y-101426597D01*
X101577552Y-101480128D01*
X101423211Y-101558768D01*
X101343256Y-101616859D01*
X101283072Y-101660586D01*
X101283070Y-101660588D01*
X101283069Y-101660588D01*
X101160588Y-101783069D01*
X101160588Y-101783070D01*
X101160586Y-101783072D01*
X101120255Y-101838583D01*
X101058768Y-101923211D01*
X100980128Y-102077552D01*
X100926597Y-102242302D01*
X100917846Y-102297555D01*
X100899500Y-102413389D01*
X100560500Y-102413389D01*
X100533402Y-102242299D01*
X100479873Y-102077555D01*
X100401232Y-101923212D01*
X100299414Y-101783072D01*
X100176928Y-101660586D01*
X100036788Y-101558768D01*
X99882445Y-101480127D01*
X99717701Y-101426598D01*
X99717699Y-101426597D01*
X99717698Y-101426597D01*
X99586271Y-101405781D01*
X99546611Y-101399500D01*
X99373389Y-101399500D01*
X99333728Y-101405781D01*
X99202302Y-101426597D01*
X99037552Y-101480128D01*
X98883211Y-101558768D01*
X98803256Y-101616859D01*
X98743072Y-101660586D01*
X98743070Y-101660588D01*
X98743069Y-101660588D01*
X98620588Y-101783069D01*
X98620588Y-101783070D01*
X98620586Y-101783072D01*
X98580255Y-101838583D01*
X98518768Y-101923211D01*
X98440128Y-102077552D01*
X98386597Y-102242302D01*
X98377846Y-102297555D01*
X98359500Y-102413389D01*
X98020500Y-102413389D01*
X97993402Y-102242299D01*
X97939873Y-102077555D01*
X97861232Y-101923212D01*
X97759414Y-101783072D01*
X97636928Y-101660586D01*
X97496788Y-101558768D01*
X97342445Y-101480127D01*
X97177701Y-101426598D01*
X97177699Y-101426597D01*
X97177698Y-101426597D01*
X97046271Y-101405781D01*
X97006611Y-101399500D01*
X96833389Y-101399500D01*
X96793728Y-101405781D01*
X96662302Y-101426597D01*
X96497552Y-101480128D01*
X96343211Y-101558768D01*
X96263256Y-101616859D01*
X96203072Y-101660586D01*
X96203070Y-101660588D01*
X96203069Y-101660588D01*
X96080588Y-101783069D01*
X96080588Y-101783070D01*
X96080586Y-101783072D01*
X96040255Y-101838583D01*
X95978768Y-101923211D01*
X95900128Y-102077552D01*
X95846597Y-102242302D01*
X95837846Y-102297555D01*
X95819500Y-102413389D01*
X95480500Y-102413389D01*
X95453402Y-102242299D01*
X95399873Y-102077555D01*
X95321232Y-101923212D01*
X95219414Y-101783072D01*
X95096928Y-101660586D01*
X94956788Y-101558768D01*
X94802445Y-101480127D01*
X94637701Y-101426598D01*
X94637699Y-101426597D01*
X94637698Y-101426597D01*
X94506271Y-101405781D01*
X94466611Y-101399500D01*
X94293389Y-101399500D01*
X94253728Y-101405781D01*
X94122302Y-101426597D01*
X93957552Y-101480128D01*
X93803211Y-101558768D01*
X93723256Y-101616859D01*
X93663072Y-101660586D01*
X93663070Y-101660588D01*
X93663069Y-101660588D01*
X93540588Y-101783069D01*
X93540588Y-101783070D01*
X93540586Y-101783072D01*
X93500255Y-101838583D01*
X93438768Y-101923211D01*
X93360128Y-102077552D01*
X93306597Y-102242302D01*
X93297846Y-102297555D01*
X93279500Y-102413389D01*
X91294425Y-102413389D01*
X94170995Y-99536819D01*
X94232318Y-99503334D01*
X94258676Y-99500500D01*
X112040568Y-99500500D01*
X112107607Y-99520185D01*
X112109459Y-99521398D01*
X112191866Y-99576461D01*
X112191872Y-99576464D01*
X112191873Y-99576465D01*
X112310256Y-99625501D01*
X112310260Y-99625501D01*
X112310261Y-99625502D01*
X112435928Y-99650500D01*
X112435931Y-99650500D01*
X112564071Y-99650500D01*
X112669640Y-99629500D01*
X112689744Y-99625501D01*
X112808127Y-99576465D01*
X112914669Y-99505276D01*
X113005276Y-99414669D01*
X113076465Y-99308127D01*
X113125501Y-99189744D01*
X113142040Y-99106598D01*
X113150500Y-99064071D01*
X113150500Y-98935928D01*
X113125502Y-98810261D01*
X113125501Y-98810260D01*
X113125501Y-98810256D01*
X113087215Y-98717825D01*
X113076466Y-98691875D01*
X113076461Y-98691866D01*
X113005276Y-98585331D01*
X113005273Y-98585327D01*
X112914672Y-98494726D01*
X112914668Y-98494723D01*
X112808133Y-98423538D01*
X112808124Y-98423533D01*
X112689744Y-98374499D01*
X112689738Y-98374497D01*
X112564071Y-98349500D01*
X112564069Y-98349500D01*
X112435931Y-98349500D01*
X112435929Y-98349500D01*
X112310261Y-98374497D01*
X112310255Y-98374499D01*
X112191875Y-98423533D01*
X112191866Y-98423538D01*
X112109459Y-98478602D01*
X112042782Y-98499480D01*
X112040568Y-98499500D01*
X94499500Y-98499500D01*
X94432461Y-98479815D01*
X94386706Y-98427011D01*
X94375500Y-98375500D01*
X94375500Y-95731830D01*
X94375500Y-95731828D01*
X94349910Y-95636325D01*
X94300475Y-95550701D01*
X94230562Y-95480788D01*
X93203163Y-94453389D01*
X104899500Y-94453389D01*
X104899500Y-94626610D01*
X104924013Y-94781385D01*
X104926598Y-94797701D01*
X104980127Y-94962445D01*
X105058768Y-95116788D01*
X105160586Y-95256928D01*
X105283072Y-95379414D01*
X105423212Y-95481232D01*
X105577555Y-95559873D01*
X105742299Y-95613402D01*
X105913389Y-95640500D01*
X105913390Y-95640500D01*
X106086610Y-95640500D01*
X106086611Y-95640500D01*
X106257701Y-95613402D01*
X106422445Y-95559873D01*
X106576788Y-95481232D01*
X106716928Y-95379414D01*
X106839414Y-95256928D01*
X106941232Y-95116788D01*
X107019873Y-94962445D01*
X107073402Y-94797701D01*
X107100500Y-94626611D01*
X107100500Y-94453389D01*
X107073402Y-94282299D01*
X107019873Y-94117555D01*
X106941232Y-93963212D01*
X106839414Y-93823072D01*
X106716928Y-93700586D01*
X106576788Y-93598768D01*
X106460074Y-93539300D01*
X106422447Y-93520128D01*
X106422446Y-93520127D01*
X106422445Y-93520127D01*
X106257701Y-93466598D01*
X106257699Y-93466597D01*
X106257698Y-93466597D01*
X106126271Y-93445781D01*
X106086611Y-93439500D01*
X105913389Y-93439500D01*
X105873728Y-93445781D01*
X105742302Y-93466597D01*
X105577552Y-93520128D01*
X105423211Y-93598768D01*
X105283069Y-93700588D01*
X105160588Y-93823069D01*
X105160588Y-93823070D01*
X105160586Y-93823072D01*
X105123222Y-93874499D01*
X105058768Y-93963211D01*
X104980128Y-94117552D01*
X104926597Y-94282302D01*
X104899500Y-94453389D01*
X93203163Y-94453389D01*
X92016419Y-93266645D01*
X90745973Y-91996198D01*
X90663164Y-91913389D01*
X104899500Y-91913389D01*
X104899500Y-92086611D01*
X104902826Y-92107608D01*
X104920282Y-92217828D01*
X104926598Y-92257701D01*
X104980127Y-92422445D01*
X105058768Y-92576788D01*
X105160586Y-92716928D01*
X105283072Y-92839414D01*
X105423212Y-92941232D01*
X105577555Y-93019873D01*
X105742299Y-93073402D01*
X105913389Y-93100500D01*
X105913390Y-93100500D01*
X106086610Y-93100500D01*
X106086611Y-93100500D01*
X106257701Y-93073402D01*
X106422445Y-93019873D01*
X106576788Y-92941232D01*
X106716928Y-92839414D01*
X106839414Y-92716928D01*
X106941232Y-92576788D01*
X107019873Y-92422445D01*
X107073402Y-92257701D01*
X107100500Y-92086611D01*
X107100500Y-91913389D01*
X107073402Y-91742299D01*
X107019873Y-91577555D01*
X106941232Y-91423212D01*
X106839414Y-91283072D01*
X106716928Y-91160586D01*
X106576788Y-91058768D01*
X106422445Y-90980127D01*
X106257701Y-90926598D01*
X106257699Y-90926597D01*
X106257698Y-90926597D01*
X106126271Y-90905781D01*
X106086611Y-90899500D01*
X105913389Y-90899500D01*
X105873728Y-90905781D01*
X105742302Y-90926597D01*
X105577552Y-90980128D01*
X105423211Y-91058768D01*
X105283069Y-91160588D01*
X105160588Y-91283069D01*
X105160588Y-91283070D01*
X105160586Y-91283072D01*
X105142378Y-91308133D01*
X105058768Y-91423211D01*
X104980128Y-91577552D01*
X104926597Y-91742302D01*
X104910637Y-91843070D01*
X104899500Y-91913389D01*
X90663164Y-91913389D01*
X89449301Y-90699526D01*
X89449300Y-90699525D01*
X89363676Y-90650090D01*
X89294182Y-90631469D01*
X89294181Y-90631468D01*
X89268174Y-90624500D01*
X89268173Y-90624500D01*
X89196300Y-90624500D01*
X89129261Y-90604815D01*
X89083506Y-90552011D01*
X89073562Y-90482853D01*
X89081739Y-90453048D01*
X89095486Y-90419859D01*
X89101001Y-90406544D01*
X89112881Y-90346819D01*
X89126000Y-90280871D01*
X89126000Y-90152728D01*
X89101002Y-90027061D01*
X89101001Y-90027060D01*
X89101001Y-90027056D01*
X89051965Y-89908673D01*
X89051964Y-89908672D01*
X89051961Y-89908666D01*
X88980776Y-89802131D01*
X88980773Y-89802127D01*
X88890172Y-89711526D01*
X88890168Y-89711523D01*
X88783633Y-89640338D01*
X88783624Y-89640333D01*
X88665244Y-89591299D01*
X88665238Y-89591297D01*
X88539571Y-89566300D01*
X88539569Y-89566300D01*
X88411431Y-89566300D01*
X88411429Y-89566300D01*
X88285761Y-89591297D01*
X88285755Y-89591299D01*
X88167375Y-89640333D01*
X88167366Y-89640338D01*
X88060831Y-89711523D01*
X88060827Y-89711526D01*
X87970226Y-89802127D01*
X87970223Y-89802131D01*
X87899038Y-89908666D01*
X87899033Y-89908675D01*
X87849999Y-90027055D01*
X87849997Y-90027061D01*
X87825000Y-90152728D01*
X87825000Y-90152731D01*
X87825000Y-90280869D01*
X87825000Y-90280871D01*
X87824999Y-90280871D01*
X87849997Y-90406538D01*
X87850000Y-90406548D01*
X87869261Y-90453048D01*
X87876730Y-90522517D01*
X87845454Y-90584996D01*
X87785365Y-90620648D01*
X87754700Y-90624500D01*
X87095808Y-90624500D01*
X87028769Y-90604815D01*
X87008127Y-90588181D01*
X86914672Y-90494726D01*
X86914668Y-90494723D01*
X86808133Y-90423538D01*
X86808124Y-90423533D01*
X86689744Y-90374499D01*
X86689738Y-90374497D01*
X86564071Y-90349500D01*
X86564069Y-90349500D01*
X86435931Y-90349500D01*
X86435929Y-90349500D01*
X86310261Y-90374497D01*
X86310255Y-90374499D01*
X86191875Y-90423533D01*
X86191866Y-90423538D01*
X86085331Y-90494723D01*
X86085327Y-90494726D01*
X85994726Y-90585327D01*
X85994723Y-90585331D01*
X85923538Y-90691866D01*
X85923533Y-90691875D01*
X85874499Y-90810255D01*
X85874497Y-90810261D01*
X85849500Y-90935928D01*
X85849500Y-90935931D01*
X85849500Y-91064069D01*
X85849500Y-91064071D01*
X85849499Y-91064071D01*
X85874497Y-91189738D01*
X85874499Y-91189744D01*
X85923533Y-91308124D01*
X85923538Y-91308133D01*
X85994723Y-91414668D01*
X85994726Y-91414672D01*
X86085327Y-91505273D01*
X86085331Y-91505276D01*
X86191866Y-91576461D01*
X86191872Y-91576464D01*
X86191873Y-91576465D01*
X86310256Y-91625501D01*
X86310260Y-91625501D01*
X86310261Y-91625502D01*
X86435928Y-91650500D01*
X86435931Y-91650500D01*
X86564071Y-91650500D01*
X86648615Y-91633682D01*
X86689744Y-91625501D01*
X86808127Y-91576465D01*
X86914669Y-91505276D01*
X86960445Y-91459500D01*
X87008127Y-91411819D01*
X87069450Y-91378334D01*
X87095808Y-91375500D01*
X89011839Y-91375500D01*
X89078878Y-91395185D01*
X89099520Y-91411819D01*
X91325520Y-93637819D01*
X91359005Y-93699142D01*
X91354021Y-93768834D01*
X91312149Y-93824767D01*
X91246685Y-93849184D01*
X91237839Y-93849500D01*
X91185929Y-93849500D01*
X91060261Y-93874497D01*
X91060255Y-93874499D01*
X90941875Y-93923533D01*
X90941866Y-93923538D01*
X90859459Y-93978602D01*
X90792782Y-93999480D01*
X90790568Y-93999500D01*
X86758676Y-93999500D01*
X86691637Y-93979815D01*
X86670995Y-93963181D01*
X83678775Y-90970961D01*
X83645290Y-90909638D01*
X83644839Y-90907471D01*
X83625502Y-90810263D01*
X83625502Y-90810261D01*
X83625501Y-90810256D01*
X83576465Y-90691873D01*
X83576464Y-90691872D01*
X83576461Y-90691866D01*
X83505276Y-90585331D01*
X83505273Y-90585327D01*
X83414672Y-90494726D01*
X83414668Y-90494723D01*
X83308133Y-90423538D01*
X83308124Y-90423533D01*
X83189744Y-90374499D01*
X83189738Y-90374497D01*
X83064071Y-90349500D01*
X83064069Y-90349500D01*
X82935931Y-90349500D01*
X82935929Y-90349500D01*
X82810261Y-90374497D01*
X82810255Y-90374499D01*
X82691875Y-90423533D01*
X82691866Y-90423538D01*
X82585331Y-90494723D01*
X82585327Y-90494726D01*
X82494726Y-90585327D01*
X82494723Y-90585331D01*
X82423538Y-90691866D01*
X82423533Y-90691875D01*
X82374499Y-90810255D01*
X82374497Y-90810261D01*
X82349500Y-90935928D01*
X82349500Y-90935931D01*
X82349500Y-91064069D01*
X82349500Y-91064071D01*
X82349499Y-91064071D01*
X78500500Y-91064071D01*
X78500500Y-89373389D01*
X104899500Y-89373389D01*
X104899500Y-89546611D01*
X104905993Y-89587607D01*
X104925619Y-89711524D01*
X104926598Y-89717701D01*
X104980127Y-89882445D01*
X105058768Y-90036788D01*
X105160586Y-90176928D01*
X105283072Y-90299414D01*
X105423212Y-90401232D01*
X105577555Y-90479873D01*
X105742299Y-90533402D01*
X105913389Y-90560500D01*
X105913390Y-90560500D01*
X106086610Y-90560500D01*
X106086611Y-90560500D01*
X106257701Y-90533402D01*
X106422445Y-90479873D01*
X106576788Y-90401232D01*
X106716928Y-90299414D01*
X106839414Y-90176928D01*
X106941232Y-90036788D01*
X107019873Y-89882445D01*
X107073402Y-89717701D01*
X107100500Y-89546611D01*
X107100500Y-89373389D01*
X107073402Y-89202299D01*
X107019873Y-89037555D01*
X106941232Y-88883212D01*
X106839414Y-88743072D01*
X106716928Y-88620586D01*
X106576788Y-88518768D01*
X106422445Y-88440127D01*
X106257701Y-88386598D01*
X106257699Y-88386597D01*
X106257698Y-88386597D01*
X106126271Y-88365781D01*
X106086611Y-88359500D01*
X105913389Y-88359500D01*
X105873728Y-88365781D01*
X105742302Y-88386597D01*
X105577552Y-88440128D01*
X105423211Y-88518768D01*
X105371318Y-88556471D01*
X105283072Y-88620586D01*
X105283070Y-88620588D01*
X105283069Y-88620588D01*
X105160588Y-88743069D01*
X105160588Y-88743070D01*
X105160586Y-88743072D01*
X105160334Y-88743419D01*
X105058768Y-88883211D01*
X104980128Y-89037552D01*
X104926597Y-89202302D01*
X104910637Y-89303070D01*
X104899500Y-89373389D01*
X78500500Y-89373389D01*
X78500500Y-86833389D01*
X104899500Y-86833389D01*
X104899500Y-87006610D01*
X104926037Y-87174163D01*
X104926598Y-87177701D01*
X104963915Y-87292551D01*
X104980128Y-87342447D01*
X105016189Y-87413221D01*
X105058768Y-87496788D01*
X105160586Y-87636928D01*
X105283072Y-87759414D01*
X105423212Y-87861232D01*
X105577555Y-87939873D01*
X105742299Y-87993402D01*
X105913389Y-88020500D01*
X105913390Y-88020500D01*
X106086610Y-88020500D01*
X106086611Y-88020500D01*
X106257701Y-87993402D01*
X106422445Y-87939873D01*
X106576788Y-87861232D01*
X106716928Y-87759414D01*
X106839414Y-87636928D01*
X106941232Y-87496788D01*
X107019873Y-87342445D01*
X107073402Y-87177701D01*
X107100500Y-87006611D01*
X107100500Y-86833389D01*
X107073402Y-86662299D01*
X107019873Y-86497555D01*
X107019871Y-86497552D01*
X107019871Y-86497550D01*
X106994445Y-86447648D01*
X111699500Y-86447648D01*
X111699500Y-86652352D01*
X111701076Y-86662302D01*
X111731522Y-86854534D01*
X111794781Y-87049223D01*
X111836852Y-87131790D01*
X111882970Y-87222302D01*
X111887715Y-87231613D01*
X112008028Y-87397213D01*
X112152786Y-87541971D01*
X112272647Y-87629053D01*
X112318390Y-87662287D01*
X112427389Y-87717825D01*
X112500776Y-87755218D01*
X112500778Y-87755218D01*
X112500781Y-87755220D01*
X112605137Y-87789127D01*
X112695465Y-87818477D01*
X112769386Y-87830185D01*
X112897648Y-87850500D01*
X112897649Y-87850500D01*
X113102351Y-87850500D01*
X113102352Y-87850500D01*
X113304534Y-87818477D01*
X113499219Y-87755220D01*
X113681610Y-87662287D01*
X113774590Y-87594732D01*
X113847213Y-87541971D01*
X113847215Y-87541968D01*
X113847219Y-87541966D01*
X113991966Y-87397219D01*
X113991968Y-87397215D01*
X113991971Y-87397213D01*
X114068011Y-87292551D01*
X114112287Y-87231610D01*
X114202872Y-87053827D01*
X114205218Y-87049223D01*
X114205218Y-87049222D01*
X114205220Y-87049219D01*
X114268477Y-86854534D01*
X114300500Y-86652352D01*
X114300500Y-86447648D01*
X114268477Y-86245466D01*
X114254702Y-86203072D01*
X114236506Y-86147068D01*
X114205220Y-86050781D01*
X114205218Y-86050778D01*
X114205218Y-86050776D01*
X114171503Y-85984607D01*
X114112287Y-85868390D01*
X114076767Y-85819500D01*
X113991971Y-85702786D01*
X113847213Y-85558028D01*
X113681613Y-85437715D01*
X113681612Y-85437714D01*
X113681610Y-85437713D01*
X113607341Y-85399871D01*
X113499223Y-85344781D01*
X113304534Y-85281522D01*
X113129995Y-85253878D01*
X113102352Y-85249500D01*
X112897648Y-85249500D01*
X112873329Y-85253351D01*
X112695465Y-85281522D01*
X112500776Y-85344781D01*
X112318386Y-85437715D01*
X112152786Y-85558028D01*
X112008028Y-85702786D01*
X111887715Y-85868386D01*
X111794781Y-86050776D01*
X111731522Y-86245465D01*
X111706002Y-86406597D01*
X111699500Y-86447648D01*
X106994445Y-86447648D01*
X106941231Y-86343211D01*
X106839414Y-86203072D01*
X106716928Y-86080586D01*
X106576788Y-85978768D01*
X106422445Y-85900127D01*
X106257701Y-85846598D01*
X106257699Y-85846597D01*
X106257698Y-85846597D01*
X106126271Y-85825781D01*
X106086611Y-85819500D01*
X105913389Y-85819500D01*
X105873728Y-85825781D01*
X105742302Y-85846597D01*
X105577552Y-85900128D01*
X105423211Y-85978768D01*
X105283069Y-86080588D01*
X105160588Y-86203069D01*
X105160588Y-86203070D01*
X105160586Y-86203072D01*
X105129786Y-86245465D01*
X105058768Y-86343211D01*
X104980128Y-86497552D01*
X104926597Y-86662302D01*
X104899500Y-86833389D01*
X78500500Y-86833389D01*
X78500500Y-84564071D01*
X85099499Y-84564071D01*
X85124497Y-84689738D01*
X85124499Y-84689744D01*
X85173533Y-84808124D01*
X85173538Y-84808133D01*
X85244723Y-84914668D01*
X85244726Y-84914672D01*
X85335327Y-85005273D01*
X85335331Y-85005276D01*
X85441866Y-85076461D01*
X85441872Y-85076464D01*
X85441873Y-85076465D01*
X85560256Y-85125501D01*
X85560260Y-85125501D01*
X85560261Y-85125502D01*
X85685928Y-85150500D01*
X85685931Y-85150500D01*
X85814071Y-85150500D01*
X85900054Y-85133396D01*
X85939744Y-85125501D01*
X86058127Y-85076465D01*
X86164669Y-85005276D01*
X86255276Y-84914669D01*
X86326465Y-84808127D01*
X86375501Y-84689744D01*
X86387286Y-84630500D01*
X86400500Y-84564071D01*
X86400500Y-84435928D01*
X86375989Y-84312709D01*
X86375989Y-84312708D01*
X86375988Y-84312705D01*
X86375501Y-84310257D01*
X86375501Y-84310256D01*
X86368514Y-84293389D01*
X104899500Y-84293389D01*
X104899500Y-84466611D01*
X104926598Y-84637701D01*
X104980127Y-84802445D01*
X105058768Y-84956788D01*
X105160586Y-85096928D01*
X105283072Y-85219414D01*
X105423212Y-85321232D01*
X105577555Y-85399873D01*
X105742299Y-85453402D01*
X105913389Y-85480500D01*
X105913390Y-85480500D01*
X106086610Y-85480500D01*
X106086611Y-85480500D01*
X106257701Y-85453402D01*
X106422445Y-85399873D01*
X106576788Y-85321232D01*
X106716928Y-85219414D01*
X106839414Y-85096928D01*
X106941232Y-84956788D01*
X107019873Y-84802445D01*
X107073402Y-84637701D01*
X107100500Y-84466611D01*
X107100500Y-84293389D01*
X107073402Y-84122299D01*
X107019873Y-83957555D01*
X106941232Y-83803212D01*
X106839414Y-83663072D01*
X106716928Y-83540586D01*
X106576788Y-83438768D01*
X106477377Y-83388116D01*
X106422447Y-83360128D01*
X106422446Y-83360127D01*
X106422445Y-83360127D01*
X106257701Y-83306598D01*
X106257699Y-83306597D01*
X106257698Y-83306597D01*
X106126271Y-83285781D01*
X106086611Y-83279500D01*
X105913389Y-83279500D01*
X105873728Y-83285781D01*
X105742302Y-83306597D01*
X105577552Y-83360128D01*
X105423211Y-83438768D01*
X105343256Y-83496859D01*
X105283072Y-83540586D01*
X105283070Y-83540588D01*
X105283069Y-83540588D01*
X105160588Y-83663069D01*
X105160588Y-83663070D01*
X105160586Y-83663072D01*
X105120803Y-83717828D01*
X105058768Y-83803211D01*
X104980128Y-83957552D01*
X104926597Y-84122302D01*
X104903182Y-84270141D01*
X104899500Y-84293389D01*
X86368514Y-84293389D01*
X86326465Y-84191873D01*
X86326464Y-84191872D01*
X86326461Y-84191866D01*
X86255276Y-84085331D01*
X86255273Y-84085327D01*
X86164672Y-83994726D01*
X86164668Y-83994723D01*
X86058133Y-83923538D01*
X86058124Y-83923533D01*
X85939744Y-83874499D01*
X85939738Y-83874497D01*
X85814071Y-83849500D01*
X85814069Y-83849500D01*
X85685931Y-83849500D01*
X85685929Y-83849500D01*
X85560261Y-83874497D01*
X85560255Y-83874499D01*
X85441875Y-83923533D01*
X85441866Y-83923538D01*
X85335331Y-83994723D01*
X85335327Y-83994726D01*
X85244726Y-84085327D01*
X85244723Y-84085331D01*
X85173538Y-84191866D01*
X85173533Y-84191875D01*
X85124499Y-84310255D01*
X85124497Y-84310261D01*
X85099500Y-84435928D01*
X85099500Y-84435931D01*
X85099500Y-84564069D01*
X85099500Y-84564071D01*
X85099499Y-84564071D01*
X78500500Y-84564071D01*
X78500500Y-82258676D01*
X78520185Y-82191637D01*
X78536819Y-82170995D01*
X78954425Y-81753389D01*
X104899500Y-81753389D01*
X104899500Y-81926611D01*
X104901354Y-81938318D01*
X104926189Y-82095124D01*
X104926598Y-82097701D01*
X104978902Y-82258676D01*
X104980128Y-82262447D01*
X104987327Y-82276576D01*
X105058768Y-82416788D01*
X105160586Y-82556928D01*
X105283072Y-82679414D01*
X105423212Y-82781232D01*
X105577555Y-82859873D01*
X105742299Y-82913402D01*
X105913389Y-82940500D01*
X105913390Y-82940500D01*
X106086610Y-82940500D01*
X106086611Y-82940500D01*
X106257701Y-82913402D01*
X106422445Y-82859873D01*
X106576788Y-82781232D01*
X106716928Y-82679414D01*
X106839414Y-82556928D01*
X106941232Y-82416788D01*
X107019873Y-82262445D01*
X107073402Y-82097701D01*
X107100500Y-81926611D01*
X107100500Y-81753389D01*
X107073402Y-81582299D01*
X107019873Y-81417555D01*
X106941232Y-81263212D01*
X106839414Y-81123072D01*
X106716928Y-81000586D01*
X106576788Y-80898768D01*
X106422445Y-80820127D01*
X106257701Y-80766598D01*
X106257699Y-80766597D01*
X106257698Y-80766597D01*
X106126271Y-80745781D01*
X106086611Y-80739500D01*
X105913389Y-80739500D01*
X105873728Y-80745781D01*
X105742302Y-80766597D01*
X105577552Y-80820128D01*
X105423211Y-80898768D01*
X105343256Y-80956859D01*
X105283072Y-81000586D01*
X105283070Y-81000588D01*
X105283069Y-81000588D01*
X105160588Y-81123069D01*
X105160588Y-81123070D01*
X105160586Y-81123072D01*
X105116859Y-81183256D01*
X105058768Y-81263211D01*
X104980128Y-81417552D01*
X104926597Y-81582302D01*
X104905741Y-81713983D01*
X104899500Y-81753389D01*
X78954425Y-81753389D01*
X79046978Y-81660836D01*
X80205307Y-80502507D01*
X81143743Y-79564071D01*
X91099499Y-79564071D01*
X91124497Y-79689738D01*
X91124499Y-79689744D01*
X91173533Y-79808124D01*
X91173538Y-79808133D01*
X91244723Y-79914668D01*
X91244726Y-79914672D01*
X91335327Y-80005273D01*
X91335331Y-80005276D01*
X91441866Y-80076461D01*
X91441872Y-80076464D01*
X91441873Y-80076465D01*
X91560256Y-80125501D01*
X91560260Y-80125501D01*
X91560261Y-80125502D01*
X91685928Y-80150500D01*
X91685931Y-80150500D01*
X91814071Y-80150500D01*
X91898615Y-80133682D01*
X91939744Y-80125501D01*
X92058127Y-80076465D01*
X92164669Y-80005276D01*
X92255276Y-79914669D01*
X92326465Y-79808127D01*
X92375501Y-79689744D01*
X92392895Y-79602302D01*
X92400500Y-79564071D01*
X92400500Y-79435928D01*
X92375502Y-79310261D01*
X92375501Y-79310260D01*
X92375501Y-79310256D01*
X92326465Y-79191873D01*
X92326464Y-79191872D01*
X92326461Y-79191866D01*
X92255276Y-79085331D01*
X92255273Y-79085327D01*
X92164672Y-78994726D01*
X92164668Y-78994723D01*
X92058133Y-78923538D01*
X92058124Y-78923533D01*
X91939744Y-78874499D01*
X91939738Y-78874497D01*
X91814071Y-78849500D01*
X91814069Y-78849500D01*
X91685931Y-78849500D01*
X91685929Y-78849500D01*
X91560261Y-78874497D01*
X91560255Y-78874499D01*
X91441875Y-78923533D01*
X91441866Y-78923538D01*
X91335331Y-78994723D01*
X91335327Y-78994726D01*
X91244726Y-79085327D01*
X91244723Y-79085331D01*
X91173538Y-79191866D01*
X91173533Y-79191875D01*
X91124499Y-79310255D01*
X91124497Y-79310261D01*
X91099500Y-79435928D01*
X91099500Y-79435931D01*
X91099500Y-79564069D01*
X91099500Y-79564071D01*
X91099499Y-79564071D01*
X81143743Y-79564071D01*
X82154040Y-78553773D01*
X82215361Y-78520290D01*
X82217528Y-78519839D01*
X82218004Y-78519744D01*
X82314744Y-78500501D01*
X82433127Y-78451465D01*
X82472254Y-78425321D01*
X104899500Y-78425321D01*
X104899500Y-80174678D01*
X104914032Y-80247735D01*
X104914033Y-80247739D01*
X104926187Y-80265928D01*
X104969399Y-80330601D01*
X105052260Y-80385966D01*
X105052264Y-80385967D01*
X105125321Y-80400499D01*
X105125324Y-80400500D01*
X105125326Y-80400500D01*
X106874676Y-80400500D01*
X106874677Y-80400499D01*
X106947740Y-80385966D01*
X107030601Y-80330601D01*
X107085966Y-80247740D01*
X107100500Y-80174674D01*
X107100500Y-78425326D01*
X107100500Y-78425323D01*
X107100499Y-78425321D01*
X107085967Y-78352264D01*
X107085966Y-78352260D01*
X107030601Y-78269399D01*
X106947740Y-78214034D01*
X106947739Y-78214033D01*
X106947735Y-78214032D01*
X106874677Y-78199500D01*
X106874674Y-78199500D01*
X105125326Y-78199500D01*
X105125323Y-78199500D01*
X105052264Y-78214032D01*
X105052260Y-78214033D01*
X104969399Y-78269399D01*
X104914033Y-78352260D01*
X104914032Y-78352264D01*
X104899500Y-78425321D01*
X82472254Y-78425321D01*
X82539669Y-78380276D01*
X82542623Y-78377322D01*
X82588393Y-78331553D01*
X82630273Y-78289672D01*
X82630276Y-78289669D01*
X82701465Y-78183127D01*
X82745405Y-78077047D01*
X82789246Y-78022644D01*
X82855540Y-78000579D01*
X82859966Y-78000500D01*
X87290568Y-78000500D01*
X87357607Y-78020185D01*
X87359459Y-78021398D01*
X87441866Y-78076461D01*
X87441872Y-78076464D01*
X87441873Y-78076465D01*
X87560256Y-78125501D01*
X87560260Y-78125501D01*
X87560261Y-78125502D01*
X87685928Y-78150500D01*
X87685931Y-78150500D01*
X87814071Y-78150500D01*
X87898615Y-78133682D01*
X87939744Y-78125501D01*
X88058127Y-78076465D01*
X88164669Y-78005276D01*
X88255276Y-77914669D01*
X88326465Y-77808127D01*
X88375501Y-77689744D01*
X88395984Y-77586774D01*
X88400500Y-77564071D01*
X88400500Y-77435928D01*
X88375502Y-77310261D01*
X88375501Y-77310260D01*
X88375501Y-77310256D01*
X88326465Y-77191873D01*
X88326464Y-77191872D01*
X88326461Y-77191866D01*
X88255276Y-77085331D01*
X88255273Y-77085327D01*
X88164672Y-76994726D01*
X88164668Y-76994723D01*
X88058133Y-76923538D01*
X88058124Y-76923533D01*
X87939744Y-76874499D01*
X87939738Y-76874497D01*
X87814071Y-76849500D01*
X87814069Y-76849500D01*
X87685931Y-76849500D01*
X87685929Y-76849500D01*
X87560261Y-76874497D01*
X87560255Y-76874499D01*
X87441875Y-76923533D01*
X87441866Y-76923538D01*
X87359459Y-76978602D01*
X87292782Y-76999480D01*
X87290568Y-76999500D01*
X82434107Y-76999500D01*
X82306812Y-77033608D01*
X82192686Y-77099500D01*
X82095961Y-77196225D01*
X82034638Y-77229709D01*
X82032473Y-77230160D01*
X81935260Y-77249497D01*
X81935255Y-77249499D01*
X81816875Y-77298533D01*
X81816866Y-77298538D01*
X81710331Y-77369723D01*
X81710327Y-77369726D01*
X81619726Y-77460327D01*
X81619723Y-77460331D01*
X81548538Y-77566866D01*
X81548533Y-77566875D01*
X81499499Y-77685255D01*
X81499497Y-77685260D01*
X81480160Y-77782473D01*
X81447774Y-77844383D01*
X81446224Y-77845961D01*
X77692686Y-81599500D01*
X77599502Y-81692683D01*
X77599500Y-81692686D01*
X77533608Y-81806812D01*
X77499500Y-81934108D01*
X65778837Y-81934108D01*
X65739859Y-81857609D01*
X65739857Y-81857607D01*
X65739854Y-81857603D01*
X65652396Y-81770145D01*
X65652393Y-81770143D01*
X65652391Y-81770141D01*
X65542175Y-81713983D01*
X65542174Y-81713982D01*
X65542171Y-81713981D01*
X65450735Y-81699500D01*
X65049260Y-81699500D01*
X65049260Y-81699501D01*
X64957829Y-81713981D01*
X64957828Y-81713981D01*
X64847607Y-81770142D01*
X64847603Y-81770145D01*
X64760145Y-81857603D01*
X64760140Y-81857610D01*
X64735876Y-81905231D01*
X64687902Y-81956026D01*
X64625392Y-81972935D01*
X64114432Y-81972935D01*
X64047393Y-81953250D01*
X64011330Y-81917826D01*
X64005276Y-81908765D01*
X63914672Y-81818161D01*
X63914668Y-81818158D01*
X63808133Y-81746973D01*
X63808124Y-81746968D01*
X63689744Y-81697934D01*
X63689738Y-81697932D01*
X63564071Y-81672935D01*
X63564069Y-81672935D01*
X63435931Y-81672935D01*
X63435929Y-81672935D01*
X63310261Y-81697932D01*
X63310255Y-81697934D01*
X63191875Y-81746968D01*
X63191866Y-81746973D01*
X63085331Y-81818158D01*
X63085327Y-81818161D01*
X62994726Y-81908762D01*
X62994723Y-81908766D01*
X62923538Y-82015301D01*
X62923533Y-82015310D01*
X62874499Y-82133690D01*
X62874497Y-82133696D01*
X62849500Y-82259363D01*
X62849500Y-82259366D01*
X62849500Y-82387504D01*
X62849500Y-82387506D01*
X62849499Y-82387506D01*
X62578299Y-82387506D01*
X62578299Y-82276576D01*
X62578299Y-82276573D01*
X62578298Y-82276568D01*
X62563766Y-82203513D01*
X62563765Y-82203510D01*
X62555832Y-82191637D01*
X62508400Y-82120649D01*
X62425539Y-82065284D01*
X62425538Y-82065283D01*
X62425534Y-82065282D01*
X62352476Y-82050750D01*
X62352473Y-82050750D01*
X61947525Y-82050750D01*
X61947520Y-82050750D01*
X61928699Y-82054494D01*
X61904866Y-82052361D01*
X61881046Y-82054637D01*
X61870700Y-82049304D01*
X61859107Y-82048267D01*
X61840209Y-82033586D01*
X61818942Y-82022624D01*
X61807706Y-82008337D01*
X61803930Y-82005404D01*
X61797123Y-81994881D01*
X61788736Y-81980355D01*
X61784452Y-81972935D01*
X61784452Y-81972934D01*
X61784450Y-81972932D01*
X61783729Y-81971684D01*
X61764466Y-81938318D01*
X61702932Y-81876784D01*
X61702931Y-81876783D01*
X61698601Y-81872453D01*
X61698590Y-81872443D01*
X61125647Y-81299500D01*
X60551682Y-80725534D01*
X60476318Y-80682023D01*
X60392261Y-80659500D01*
X60392260Y-80659500D01*
X58362786Y-80659500D01*
X58358167Y-80658143D01*
X58353459Y-80659149D01*
X58324962Y-80648393D01*
X58295747Y-80639815D01*
X58292594Y-80636177D01*
X58288090Y-80634477D01*
X58269932Y-80610023D01*
X58249992Y-80587011D01*
X58249306Y-80582245D01*
X58246437Y-80578381D01*
X58244382Y-80547997D01*
X58240048Y-80517853D01*
X58241958Y-80512150D01*
X58241723Y-80508671D01*
X58247190Y-80496533D01*
X58254186Y-80475650D01*
X58257920Y-80468872D01*
X58281232Y-80436788D01*
X58350208Y-80301413D01*
X58351180Y-80299650D01*
X58374609Y-80276402D01*
X58397269Y-80252409D01*
X58399359Y-80251843D01*
X58400777Y-80250437D01*
X58418715Y-80246607D01*
X58459780Y-80235500D01*
X60151534Y-80235500D01*
X60151535Y-80235500D01*
X60199285Y-80222705D01*
X60247037Y-80209910D01*
X60332661Y-80160475D01*
X60402574Y-80090562D01*
X62450473Y-78042663D01*
X62450474Y-78042662D01*
X62499909Y-77957038D01*
X62525499Y-77861535D01*
X62525499Y-77754725D01*
X62545184Y-77687686D01*
X62546397Y-77685834D01*
X62552559Y-77676610D01*
X62563765Y-77659840D01*
X62578299Y-77586774D01*
X62578299Y-76686526D01*
X62578299Y-76686523D01*
X62578298Y-76686521D01*
X62563766Y-76613464D01*
X62563765Y-76613460D01*
X62556822Y-76603069D01*
X62508400Y-76530599D01*
X62429104Y-76477616D01*
X62425538Y-76475233D01*
X62425534Y-76475232D01*
X62352476Y-76460700D01*
X62352473Y-76460700D01*
X61947525Y-76460700D01*
X61947523Y-76460700D01*
X61874457Y-76475233D01*
X61872446Y-76476067D01*
X61867711Y-76476575D01*
X61862482Y-76477616D01*
X61862388Y-76477147D01*
X61802976Y-76483532D01*
X61777554Y-76476067D01*
X61775541Y-76475233D01*
X61702477Y-76460700D01*
X61702474Y-76460700D01*
X61297526Y-76460700D01*
X61297524Y-76460700D01*
X61224458Y-76475233D01*
X61222447Y-76476067D01*
X61217712Y-76476575D01*
X61212483Y-76477616D01*
X61212389Y-76477147D01*
X61152977Y-76483532D01*
X61127555Y-76476067D01*
X61125542Y-76475233D01*
X61052478Y-76460700D01*
X61052475Y-76460700D01*
X60647527Y-76460700D01*
X60647524Y-76460700D01*
X60574465Y-76475232D01*
X60574461Y-76475233D01*
X60491600Y-76530599D01*
X60436234Y-76613460D01*
X60436233Y-76613464D01*
X60421701Y-76686521D01*
X60421701Y-76686526D01*
X60421701Y-77586774D01*
X60421701Y-77586776D01*
X60421700Y-77586776D01*
X60433543Y-77646308D01*
X60427316Y-77715900D01*
X60384453Y-77771077D01*
X60318564Y-77794322D01*
X60311926Y-77794500D01*
X58513631Y-77794500D01*
X58446592Y-77774815D01*
X58400837Y-77722011D01*
X58390893Y-77652853D01*
X58395700Y-77632182D01*
X58397227Y-77627481D01*
X58413402Y-77577701D01*
X58440500Y-77406611D01*
X58440500Y-77233389D01*
X58413402Y-77062299D01*
X58359873Y-76897555D01*
X58281232Y-76743212D01*
X58179414Y-76603072D01*
X58056928Y-76480586D01*
X57916788Y-76378768D01*
X57762445Y-76300127D01*
X57597701Y-76246598D01*
X57597699Y-76246597D01*
X57597698Y-76246597D01*
X57466271Y-76225781D01*
X57426611Y-76219500D01*
X57253389Y-76219500D01*
X57213728Y-76225781D01*
X57082302Y-76246597D01*
X56917552Y-76300128D01*
X56763211Y-76378768D01*
X56683256Y-76436859D01*
X56623072Y-76480586D01*
X56623070Y-76480588D01*
X56623069Y-76480588D01*
X56500588Y-76603069D01*
X56500588Y-76603070D01*
X56500586Y-76603072D01*
X56493039Y-76613460D01*
X56398766Y-76743213D01*
X56330705Y-76876794D01*
X56282731Y-76927591D01*
X56220220Y-76944500D01*
X55919780Y-76944500D01*
X55852741Y-76924815D01*
X55809295Y-76876794D01*
X55741233Y-76743213D01*
X55700047Y-76686526D01*
X55639414Y-76603072D01*
X55516928Y-76480586D01*
X55376788Y-76378768D01*
X55222445Y-76300127D01*
X55057701Y-76246598D01*
X55057699Y-76246597D01*
X55057698Y-76246597D01*
X54926271Y-76225781D01*
X54886611Y-76219500D01*
X54713389Y-76219500D01*
X54673728Y-76225781D01*
X54542302Y-76246597D01*
X54377552Y-76300128D01*
X54223211Y-76378768D01*
X54143256Y-76436859D01*
X54083072Y-76480586D01*
X54083070Y-76480588D01*
X54083069Y-76480588D01*
X53960588Y-76603069D01*
X53960588Y-76603070D01*
X53960586Y-76603072D01*
X53953039Y-76613460D01*
X53858768Y-76743211D01*
X53780128Y-76897552D01*
X53726597Y-77062302D01*
X53699500Y-77233389D01*
X52375500Y-77233389D01*
X52375500Y-74693389D01*
X53699500Y-74693389D01*
X53699500Y-74866611D01*
X53726598Y-75037701D01*
X53780127Y-75202445D01*
X53858768Y-75356788D01*
X53960586Y-75496928D01*
X54083072Y-75619414D01*
X54223212Y-75721232D01*
X54377555Y-75799873D01*
X54542299Y-75853402D01*
X54713389Y-75880500D01*
X54713390Y-75880500D01*
X54886610Y-75880500D01*
X54886611Y-75880500D01*
X55057701Y-75853402D01*
X55222445Y-75799873D01*
X55376788Y-75721232D01*
X55516928Y-75619414D01*
X55639414Y-75496928D01*
X55741232Y-75356788D01*
X55809295Y-75223206D01*
X55857269Y-75172409D01*
X55919780Y-75155500D01*
X56220220Y-75155500D01*
X56287259Y-75175185D01*
X56330705Y-75223206D01*
X56398766Y-75356786D01*
X56420383Y-75386539D01*
X56500586Y-75496928D01*
X56623072Y-75619414D01*
X56763212Y-75721232D01*
X56917555Y-75799873D01*
X57082299Y-75853402D01*
X57253389Y-75880500D01*
X57253390Y-75880500D01*
X57426610Y-75880500D01*
X57426611Y-75880500D01*
X57597701Y-75853402D01*
X57762445Y-75799873D01*
X57916788Y-75721232D01*
X58056928Y-75619414D01*
X58179414Y-75496928D01*
X58281232Y-75356788D01*
X58359873Y-75202445D01*
X58413402Y-75037701D01*
X58440500Y-74866611D01*
X58440500Y-74693389D01*
X58437080Y-74671797D01*
X58446034Y-74602505D01*
X58491030Y-74549053D01*
X58557782Y-74528413D01*
X58559553Y-74528400D01*
X60297701Y-74528400D01*
X60364740Y-74548085D01*
X60410495Y-74600889D01*
X60421701Y-74652400D01*
X60421701Y-75313478D01*
X60436233Y-75386535D01*
X60436234Y-75386539D01*
X60436235Y-75386540D01*
X60491600Y-75469401D01*
X60570896Y-75522384D01*
X60574461Y-75524766D01*
X60574465Y-75524767D01*
X60647522Y-75539299D01*
X60647525Y-75539300D01*
X60647527Y-75539300D01*
X61052477Y-75539300D01*
X61052478Y-75539299D01*
X61125541Y-75524766D01*
X61125546Y-75524762D01*
X61127536Y-75523939D01*
X61132256Y-75523431D01*
X61137520Y-75522384D01*
X61137613Y-75522854D01*
X61197005Y-75516463D01*
X61222461Y-75523937D01*
X61224456Y-75524763D01*
X61224460Y-75524766D01*
X61224464Y-75524766D01*
X61224467Y-75524768D01*
X61297521Y-75539299D01*
X61297524Y-75539300D01*
X61297526Y-75539300D01*
X61702476Y-75539300D01*
X61702477Y-75539299D01*
X61775540Y-75524766D01*
X61858401Y-75469401D01*
X61913766Y-75386540D01*
X61928300Y-75313474D01*
X61928300Y-74897648D01*
X64699500Y-74897648D01*
X64699500Y-75102351D01*
X64731522Y-75304534D01*
X64794781Y-75499223D01*
X64887715Y-75681613D01*
X65008028Y-75847213D01*
X65152786Y-75991971D01*
X65307749Y-76104556D01*
X65318390Y-76112287D01*
X65434607Y-76171503D01*
X65500776Y-76205218D01*
X65500778Y-76205218D01*
X65500781Y-76205220D01*
X65605137Y-76239127D01*
X65695465Y-76268477D01*
X65796557Y-76284488D01*
X65897648Y-76300500D01*
X65897649Y-76300500D01*
X66102351Y-76300500D01*
X66102352Y-76300500D01*
X66304534Y-76268477D01*
X66499219Y-76205220D01*
X66681610Y-76112287D01*
X66774590Y-76044732D01*
X66847213Y-75991971D01*
X66847215Y-75991968D01*
X66847219Y-75991966D01*
X66991966Y-75847219D01*
X66991968Y-75847215D01*
X66991971Y-75847213D01*
X67083500Y-75721232D01*
X67112287Y-75681610D01*
X67205220Y-75499219D01*
X67268477Y-75304534D01*
X67300500Y-75102352D01*
X67300500Y-74897648D01*
X67268477Y-74695466D01*
X67205220Y-74500781D01*
X67205218Y-74500778D01*
X67205218Y-74500776D01*
X67156162Y-74404500D01*
X67112287Y-74318390D01*
X67098609Y-74299564D01*
X66991971Y-74152786D01*
X66847213Y-74008028D01*
X66681613Y-73887715D01*
X66681612Y-73887714D01*
X66681610Y-73887713D01*
X66624653Y-73858691D01*
X66499223Y-73794781D01*
X66304534Y-73731522D01*
X66129995Y-73703878D01*
X66102352Y-73699500D01*
X65897648Y-73699500D01*
X65873329Y-73703351D01*
X65695465Y-73731522D01*
X65500776Y-73794781D01*
X65318386Y-73887715D01*
X65152786Y-74008028D01*
X65008028Y-74152786D01*
X64887715Y-74318386D01*
X64794781Y-74500776D01*
X64731522Y-74695465D01*
X64699500Y-74897648D01*
X61928300Y-74897648D01*
X61928300Y-74413226D01*
X61928300Y-74413223D01*
X61913766Y-74340159D01*
X61896397Y-74314164D01*
X61891338Y-74299564D01*
X61883610Y-74289383D01*
X61878861Y-74263555D01*
X61875878Y-74254946D01*
X61875500Y-74250114D01*
X61875500Y-74138465D01*
X61866121Y-74103464D01*
X61849910Y-74042963D01*
X61849910Y-74042962D01*
X61800475Y-73957338D01*
X61730562Y-73887425D01*
X61695563Y-73852426D01*
X61695562Y-73852425D01*
X61609938Y-73802990D01*
X61562186Y-73790195D01*
X61562184Y-73790194D01*
X61562182Y-73790193D01*
X61514436Y-73777400D01*
X61514435Y-73777400D01*
X58016536Y-73777400D01*
X57917664Y-73777400D01*
X57892118Y-73784245D01*
X57884131Y-73786385D01*
X57814281Y-73784720D01*
X57795745Y-73777094D01*
X57762447Y-73760128D01*
X57762446Y-73760127D01*
X57762445Y-73760127D01*
X57597701Y-73706598D01*
X57597699Y-73706597D01*
X57597698Y-73706597D01*
X57466271Y-73685781D01*
X57426611Y-73679500D01*
X57253389Y-73679500D01*
X57213728Y-73685781D01*
X57082302Y-73706597D01*
X56917552Y-73760128D01*
X56763211Y-73838768D01*
X56695845Y-73887713D01*
X56623072Y-73940586D01*
X56623070Y-73940588D01*
X56623069Y-73940588D01*
X56500588Y-74063069D01*
X56500588Y-74063070D01*
X56500586Y-74063072D01*
X56479258Y-74092428D01*
X56398766Y-74203213D01*
X56330705Y-74336794D01*
X56282731Y-74387591D01*
X56220220Y-74404500D01*
X55919780Y-74404500D01*
X55852741Y-74384815D01*
X55809295Y-74336794D01*
X55741233Y-74203213D01*
X55704595Y-74152786D01*
X55639414Y-74063072D01*
X55516928Y-73940586D01*
X55376788Y-73838768D01*
X55222445Y-73760127D01*
X55057701Y-73706598D01*
X55057699Y-73706597D01*
X55057698Y-73706597D01*
X54926271Y-73685781D01*
X54886611Y-73679500D01*
X54713389Y-73679500D01*
X54673728Y-73685781D01*
X54542302Y-73706597D01*
X54377552Y-73760128D01*
X54223211Y-73838768D01*
X54155845Y-73887713D01*
X54083072Y-73940586D01*
X54083070Y-73940588D01*
X54083069Y-73940588D01*
X53960588Y-74063069D01*
X53960588Y-74063070D01*
X53960586Y-74063072D01*
X53916859Y-74123256D01*
X53858768Y-74203211D01*
X53780128Y-74357552D01*
X53726597Y-74522302D01*
X53699500Y-74693389D01*
X52375500Y-74693389D01*
X52375500Y-72174500D01*
X52395185Y-72107461D01*
X52447989Y-72061706D01*
X52499500Y-72050500D01*
X122250500Y-72050500D01*
X122317539Y-72070185D01*
G37*
%TD.AperFunction*%
%TD*%
D20*
X52375000Y-72050000D02*
X122375000Y-72050000D01*
X122375000Y-112050000D01*
X52375000Y-112050000D01*
X52375000Y-72050000D01*
M02*
