%TF.GenerationSoftware,KiCad,Pcbnew,9.0.5-1.fc42*%
%TF.CreationDate,2025-11-21T18:00:38+01:00*%
%TF.ProjectId,bioamplifier,62696f61-6d70-46c6-9966-6965722e6b69,rev?*%
%TF.SameCoordinates,Original*%
%TF.FileFunction,Paste,Bot*%
%TF.FilePolarity,Positive*%
%FSLAX46Y46*%
G04 Gerber Fmt 4.6, Leading zero omitted, Abs format (unit mm)*
G04 Created by KiCad (PCBNEW 9.0.5-1.fc42) date 2025-11-21 18:00:38*
%MOMM*%
%LPD*%
G01*
G04 APERTURE LIST*
%ADD10R,0.355600X0.850900*%
%TA.AperFunction,Profile*%
%ADD11C,0.100000*%
%TD*%
G04 APERTURE END LIST*
D10*
%TO.C,U9*%
X62149999Y-104773300D03*
X61500000Y-104773300D03*
X60850001Y-104773300D03*
X60850001Y-102500000D03*
X61500000Y-102500000D03*
X62149999Y-102500000D03*
%TD*%
%TO.C,U2*%
X62149999Y-85000000D03*
X61500000Y-85000000D03*
X60850001Y-85000000D03*
X60850001Y-82726700D03*
X61500000Y-82726700D03*
X62149999Y-82726700D03*
%TD*%
%TO.C,U10*%
X62149999Y-95136650D03*
X61500000Y-95136650D03*
X60850001Y-95136650D03*
X60850001Y-92863350D03*
X61500000Y-92863350D03*
X62149999Y-92863350D03*
%TD*%
%TO.C,U4*%
X62149999Y-100136650D03*
X61500000Y-100136650D03*
X60850001Y-100136650D03*
X60850001Y-97863350D03*
X61500000Y-97863350D03*
X62149999Y-97863350D03*
%TD*%
%TO.C,U3*%
X62149999Y-90136650D03*
X61500000Y-90136650D03*
X60850001Y-90136650D03*
X60850001Y-87863350D03*
X61500000Y-87863350D03*
X62149999Y-87863350D03*
%TD*%
%TO.C,U5*%
X60850001Y-74863350D03*
X61500000Y-74863350D03*
X62149999Y-74863350D03*
X62149999Y-77136650D03*
X61500000Y-77136650D03*
X60850001Y-77136650D03*
%TD*%
D11*
X50601596Y-72042903D02*
X122375000Y-72042903D01*
X122375000Y-112556276D01*
X50601596Y-112556276D01*
X50601596Y-72042903D01*
M02*
