%TF.GenerationSoftware,KiCad,Pcbnew,9.0.5-1.fc42*%
%TF.CreationDate,2025-11-21T18:00:38+01:00*%
%TF.ProjectId,bioamplifier,62696f61-6d70-46c6-9966-6965722e6b69,rev?*%
%TF.SameCoordinates,Original*%
%TF.FileFunction,AssemblyDrawing,Bot*%
%FSLAX46Y46*%
G04 Gerber Fmt 4.6, Leading zero omitted, Abs format (unit mm)*
G04 Created by KiCad (PCBNEW 9.0.5-1.fc42) date 2025-11-21 18:00:38*
%MOMM*%
%LPD*%
G01*
G04 APERTURE LIST*
%ADD10C,0.150000*%
%ADD11C,0.110000*%
%ADD12C,0.025400*%
%ADD13C,0.100000*%
%TA.AperFunction,Profile*%
%ADD14C,0.100000*%
%TD*%
G04 APERTURE END LIST*
D10*
X62045180Y-109779506D02*
X62045180Y-109208078D01*
X61045180Y-109493792D02*
X62045180Y-109493792D01*
X61045180Y-108874744D02*
X62045180Y-108874744D01*
X62045180Y-108874744D02*
X62045180Y-108493792D01*
X62045180Y-108493792D02*
X61997561Y-108398554D01*
X61997561Y-108398554D02*
X61949942Y-108350935D01*
X61949942Y-108350935D02*
X61854704Y-108303316D01*
X61854704Y-108303316D02*
X61711847Y-108303316D01*
X61711847Y-108303316D02*
X61616609Y-108350935D01*
X61616609Y-108350935D02*
X61568990Y-108398554D01*
X61568990Y-108398554D02*
X61521371Y-108493792D01*
X61521371Y-108493792D02*
X61521371Y-108874744D01*
X61045180Y-107874744D02*
X62045180Y-107874744D01*
X62045180Y-107874744D02*
X62045180Y-107636649D01*
X62045180Y-107636649D02*
X61997561Y-107493792D01*
X61997561Y-107493792D02*
X61902323Y-107398554D01*
X61902323Y-107398554D02*
X61807085Y-107350935D01*
X61807085Y-107350935D02*
X61616609Y-107303316D01*
X61616609Y-107303316D02*
X61473752Y-107303316D01*
X61473752Y-107303316D02*
X61283276Y-107350935D01*
X61283276Y-107350935D02*
X61188038Y-107398554D01*
X61188038Y-107398554D02*
X61092800Y-107493792D01*
X61092800Y-107493792D02*
X61045180Y-107636649D01*
X61045180Y-107636649D02*
X61045180Y-107874744D01*
X61711847Y-106446173D02*
X61045180Y-106446173D01*
X62092800Y-106684268D02*
X61378514Y-106922363D01*
X61378514Y-106922363D02*
X61378514Y-106303316D01*
X61568990Y-105922363D02*
X61568990Y-105589030D01*
X61045180Y-105446173D02*
X61045180Y-105922363D01*
X61045180Y-105922363D02*
X62045180Y-105922363D01*
X62045180Y-105922363D02*
X62045180Y-105446173D01*
X61045180Y-104493792D02*
X61045180Y-105065220D01*
X61045180Y-104779506D02*
X62045180Y-104779506D01*
X62045180Y-104779506D02*
X61902323Y-104874744D01*
X61902323Y-104874744D02*
X61807085Y-104969982D01*
X61807085Y-104969982D02*
X61759466Y-105065220D01*
X61568990Y-103731887D02*
X61521371Y-103589030D01*
X61521371Y-103589030D02*
X61473752Y-103541411D01*
X61473752Y-103541411D02*
X61378514Y-103493792D01*
X61378514Y-103493792D02*
X61235657Y-103493792D01*
X61235657Y-103493792D02*
X61140419Y-103541411D01*
X61140419Y-103541411D02*
X61092800Y-103589030D01*
X61092800Y-103589030D02*
X61045180Y-103684268D01*
X61045180Y-103684268D02*
X61045180Y-104065220D01*
X61045180Y-104065220D02*
X62045180Y-104065220D01*
X62045180Y-104065220D02*
X62045180Y-103731887D01*
X62045180Y-103731887D02*
X61997561Y-103636649D01*
X61997561Y-103636649D02*
X61949942Y-103589030D01*
X61949942Y-103589030D02*
X61854704Y-103541411D01*
X61854704Y-103541411D02*
X61759466Y-103541411D01*
X61759466Y-103541411D02*
X61664228Y-103589030D01*
X61664228Y-103589030D02*
X61616609Y-103636649D01*
X61616609Y-103636649D02*
X61568990Y-103731887D01*
X61568990Y-103731887D02*
X61568990Y-104065220D01*
X62045180Y-102874744D02*
X62045180Y-102779506D01*
X62045180Y-102779506D02*
X61997561Y-102684268D01*
X61997561Y-102684268D02*
X61949942Y-102636649D01*
X61949942Y-102636649D02*
X61854704Y-102589030D01*
X61854704Y-102589030D02*
X61664228Y-102541411D01*
X61664228Y-102541411D02*
X61426133Y-102541411D01*
X61426133Y-102541411D02*
X61235657Y-102589030D01*
X61235657Y-102589030D02*
X61140419Y-102636649D01*
X61140419Y-102636649D02*
X61092800Y-102684268D01*
X61092800Y-102684268D02*
X61045180Y-102779506D01*
X61045180Y-102779506D02*
X61045180Y-102874744D01*
X61045180Y-102874744D02*
X61092800Y-102969982D01*
X61092800Y-102969982D02*
X61140419Y-103017601D01*
X61140419Y-103017601D02*
X61235657Y-103065220D01*
X61235657Y-103065220D02*
X61426133Y-103112839D01*
X61426133Y-103112839D02*
X61664228Y-103112839D01*
X61664228Y-103112839D02*
X61854704Y-103065220D01*
X61854704Y-103065220D02*
X61949942Y-103017601D01*
X61949942Y-103017601D02*
X61997561Y-102969982D01*
X61997561Y-102969982D02*
X62045180Y-102874744D01*
X62045180Y-101684268D02*
X62045180Y-101874744D01*
X62045180Y-101874744D02*
X61997561Y-101969982D01*
X61997561Y-101969982D02*
X61949942Y-102017601D01*
X61949942Y-102017601D02*
X61807085Y-102112839D01*
X61807085Y-102112839D02*
X61616609Y-102160458D01*
X61616609Y-102160458D02*
X61235657Y-102160458D01*
X61235657Y-102160458D02*
X61140419Y-102112839D01*
X61140419Y-102112839D02*
X61092800Y-102065220D01*
X61092800Y-102065220D02*
X61045180Y-101969982D01*
X61045180Y-101969982D02*
X61045180Y-101779506D01*
X61045180Y-101779506D02*
X61092800Y-101684268D01*
X61092800Y-101684268D02*
X61140419Y-101636649D01*
X61140419Y-101636649D02*
X61235657Y-101589030D01*
X61235657Y-101589030D02*
X61473752Y-101589030D01*
X61473752Y-101589030D02*
X61568990Y-101636649D01*
X61568990Y-101636649D02*
X61616609Y-101684268D01*
X61616609Y-101684268D02*
X61664228Y-101779506D01*
X61664228Y-101779506D02*
X61664228Y-101969982D01*
X61664228Y-101969982D02*
X61616609Y-102065220D01*
X61616609Y-102065220D02*
X61568990Y-102112839D01*
X61568990Y-102112839D02*
X61473752Y-102160458D01*
X61045180Y-101160458D02*
X62045180Y-101160458D01*
X62045180Y-101160458D02*
X62045180Y-100922363D01*
X62045180Y-100922363D02*
X61997561Y-100779506D01*
X61997561Y-100779506D02*
X61902323Y-100684268D01*
X61902323Y-100684268D02*
X61807085Y-100636649D01*
X61807085Y-100636649D02*
X61616609Y-100589030D01*
X61616609Y-100589030D02*
X61473752Y-100589030D01*
X61473752Y-100589030D02*
X61283276Y-100636649D01*
X61283276Y-100636649D02*
X61188038Y-100684268D01*
X61188038Y-100684268D02*
X61092800Y-100779506D01*
X61092800Y-100779506D02*
X61045180Y-100922363D01*
X61045180Y-100922363D02*
X61045180Y-101160458D01*
X61140419Y-99589030D02*
X61092800Y-99636649D01*
X61092800Y-99636649D02*
X61045180Y-99779506D01*
X61045180Y-99779506D02*
X61045180Y-99874744D01*
X61045180Y-99874744D02*
X61092800Y-100017601D01*
X61092800Y-100017601D02*
X61188038Y-100112839D01*
X61188038Y-100112839D02*
X61283276Y-100160458D01*
X61283276Y-100160458D02*
X61473752Y-100208077D01*
X61473752Y-100208077D02*
X61616609Y-100208077D01*
X61616609Y-100208077D02*
X61807085Y-100160458D01*
X61807085Y-100160458D02*
X61902323Y-100112839D01*
X61902323Y-100112839D02*
X61997561Y-100017601D01*
X61997561Y-100017601D02*
X62045180Y-99874744D01*
X62045180Y-99874744D02*
X62045180Y-99779506D01*
X62045180Y-99779506D02*
X61997561Y-99636649D01*
X61997561Y-99636649D02*
X61949942Y-99589030D01*
X61045180Y-99160458D02*
X62045180Y-99160458D01*
X61045180Y-98589030D02*
X61616609Y-99017601D01*
X62045180Y-98589030D02*
X61473752Y-99160458D01*
X61045180Y-97589030D02*
X61521371Y-97922363D01*
X61045180Y-98160458D02*
X62045180Y-98160458D01*
X62045180Y-98160458D02*
X62045180Y-97779506D01*
X62045180Y-97779506D02*
X61997561Y-97684268D01*
X61997561Y-97684268D02*
X61949942Y-97636649D01*
X61949942Y-97636649D02*
X61854704Y-97589030D01*
X61854704Y-97589030D02*
X61711847Y-97589030D01*
X61711847Y-97589030D02*
X61616609Y-97636649D01*
X61616609Y-97636649D02*
X61568990Y-97684268D01*
X61568990Y-97684268D02*
X61521371Y-97779506D01*
X61521371Y-97779506D02*
X61521371Y-98160458D01*
X62220180Y-106148554D02*
X61410657Y-106148554D01*
X61410657Y-106148554D02*
X61315419Y-106100935D01*
X61315419Y-106100935D02*
X61267800Y-106053316D01*
X61267800Y-106053316D02*
X61220180Y-105958078D01*
X61220180Y-105958078D02*
X61220180Y-105767602D01*
X61220180Y-105767602D02*
X61267800Y-105672364D01*
X61267800Y-105672364D02*
X61315419Y-105624745D01*
X61315419Y-105624745D02*
X61410657Y-105577126D01*
X61410657Y-105577126D02*
X62220180Y-105577126D01*
X61220180Y-105053316D02*
X61220180Y-104862840D01*
X61220180Y-104862840D02*
X61267800Y-104767602D01*
X61267800Y-104767602D02*
X61315419Y-104719983D01*
X61315419Y-104719983D02*
X61458276Y-104624745D01*
X61458276Y-104624745D02*
X61648752Y-104577126D01*
X61648752Y-104577126D02*
X62029704Y-104577126D01*
X62029704Y-104577126D02*
X62124942Y-104624745D01*
X62124942Y-104624745D02*
X62172561Y-104672364D01*
X62172561Y-104672364D02*
X62220180Y-104767602D01*
X62220180Y-104767602D02*
X62220180Y-104958078D01*
X62220180Y-104958078D02*
X62172561Y-105053316D01*
X62172561Y-105053316D02*
X62124942Y-105100935D01*
X62124942Y-105100935D02*
X62029704Y-105148554D01*
X62029704Y-105148554D02*
X61791609Y-105148554D01*
X61791609Y-105148554D02*
X61696371Y-105100935D01*
X61696371Y-105100935D02*
X61648752Y-105053316D01*
X61648752Y-105053316D02*
X61601133Y-104958078D01*
X61601133Y-104958078D02*
X61601133Y-104767602D01*
X61601133Y-104767602D02*
X61648752Y-104672364D01*
X61648752Y-104672364D02*
X61696371Y-104624745D01*
X61696371Y-104624745D02*
X61791609Y-104577126D01*
X62045180Y-90006206D02*
X62045180Y-89434778D01*
X61045180Y-89720492D02*
X62045180Y-89720492D01*
X61045180Y-89101444D02*
X62045180Y-89101444D01*
X62045180Y-89101444D02*
X62045180Y-88720492D01*
X62045180Y-88720492D02*
X61997561Y-88625254D01*
X61997561Y-88625254D02*
X61949942Y-88577635D01*
X61949942Y-88577635D02*
X61854704Y-88530016D01*
X61854704Y-88530016D02*
X61711847Y-88530016D01*
X61711847Y-88530016D02*
X61616609Y-88577635D01*
X61616609Y-88577635D02*
X61568990Y-88625254D01*
X61568990Y-88625254D02*
X61521371Y-88720492D01*
X61521371Y-88720492D02*
X61521371Y-89101444D01*
X61045180Y-88101444D02*
X62045180Y-88101444D01*
X62045180Y-88101444D02*
X62045180Y-87863349D01*
X62045180Y-87863349D02*
X61997561Y-87720492D01*
X61997561Y-87720492D02*
X61902323Y-87625254D01*
X61902323Y-87625254D02*
X61807085Y-87577635D01*
X61807085Y-87577635D02*
X61616609Y-87530016D01*
X61616609Y-87530016D02*
X61473752Y-87530016D01*
X61473752Y-87530016D02*
X61283276Y-87577635D01*
X61283276Y-87577635D02*
X61188038Y-87625254D01*
X61188038Y-87625254D02*
X61092800Y-87720492D01*
X61092800Y-87720492D02*
X61045180Y-87863349D01*
X61045180Y-87863349D02*
X61045180Y-88101444D01*
X61711847Y-86672873D02*
X61045180Y-86672873D01*
X62092800Y-86910968D02*
X61378514Y-87149063D01*
X61378514Y-87149063D02*
X61378514Y-86530016D01*
X61568990Y-86149063D02*
X61568990Y-85815730D01*
X61045180Y-85672873D02*
X61045180Y-86149063D01*
X61045180Y-86149063D02*
X62045180Y-86149063D01*
X62045180Y-86149063D02*
X62045180Y-85672873D01*
X61045180Y-84720492D02*
X61045180Y-85291920D01*
X61045180Y-85006206D02*
X62045180Y-85006206D01*
X62045180Y-85006206D02*
X61902323Y-85101444D01*
X61902323Y-85101444D02*
X61807085Y-85196682D01*
X61807085Y-85196682D02*
X61759466Y-85291920D01*
X61568990Y-83958587D02*
X61521371Y-83815730D01*
X61521371Y-83815730D02*
X61473752Y-83768111D01*
X61473752Y-83768111D02*
X61378514Y-83720492D01*
X61378514Y-83720492D02*
X61235657Y-83720492D01*
X61235657Y-83720492D02*
X61140419Y-83768111D01*
X61140419Y-83768111D02*
X61092800Y-83815730D01*
X61092800Y-83815730D02*
X61045180Y-83910968D01*
X61045180Y-83910968D02*
X61045180Y-84291920D01*
X61045180Y-84291920D02*
X62045180Y-84291920D01*
X62045180Y-84291920D02*
X62045180Y-83958587D01*
X62045180Y-83958587D02*
X61997561Y-83863349D01*
X61997561Y-83863349D02*
X61949942Y-83815730D01*
X61949942Y-83815730D02*
X61854704Y-83768111D01*
X61854704Y-83768111D02*
X61759466Y-83768111D01*
X61759466Y-83768111D02*
X61664228Y-83815730D01*
X61664228Y-83815730D02*
X61616609Y-83863349D01*
X61616609Y-83863349D02*
X61568990Y-83958587D01*
X61568990Y-83958587D02*
X61568990Y-84291920D01*
X62045180Y-83101444D02*
X62045180Y-83006206D01*
X62045180Y-83006206D02*
X61997561Y-82910968D01*
X61997561Y-82910968D02*
X61949942Y-82863349D01*
X61949942Y-82863349D02*
X61854704Y-82815730D01*
X61854704Y-82815730D02*
X61664228Y-82768111D01*
X61664228Y-82768111D02*
X61426133Y-82768111D01*
X61426133Y-82768111D02*
X61235657Y-82815730D01*
X61235657Y-82815730D02*
X61140419Y-82863349D01*
X61140419Y-82863349D02*
X61092800Y-82910968D01*
X61092800Y-82910968D02*
X61045180Y-83006206D01*
X61045180Y-83006206D02*
X61045180Y-83101444D01*
X61045180Y-83101444D02*
X61092800Y-83196682D01*
X61092800Y-83196682D02*
X61140419Y-83244301D01*
X61140419Y-83244301D02*
X61235657Y-83291920D01*
X61235657Y-83291920D02*
X61426133Y-83339539D01*
X61426133Y-83339539D02*
X61664228Y-83339539D01*
X61664228Y-83339539D02*
X61854704Y-83291920D01*
X61854704Y-83291920D02*
X61949942Y-83244301D01*
X61949942Y-83244301D02*
X61997561Y-83196682D01*
X61997561Y-83196682D02*
X62045180Y-83101444D01*
X62045180Y-81910968D02*
X62045180Y-82101444D01*
X62045180Y-82101444D02*
X61997561Y-82196682D01*
X61997561Y-82196682D02*
X61949942Y-82244301D01*
X61949942Y-82244301D02*
X61807085Y-82339539D01*
X61807085Y-82339539D02*
X61616609Y-82387158D01*
X61616609Y-82387158D02*
X61235657Y-82387158D01*
X61235657Y-82387158D02*
X61140419Y-82339539D01*
X61140419Y-82339539D02*
X61092800Y-82291920D01*
X61092800Y-82291920D02*
X61045180Y-82196682D01*
X61045180Y-82196682D02*
X61045180Y-82006206D01*
X61045180Y-82006206D02*
X61092800Y-81910968D01*
X61092800Y-81910968D02*
X61140419Y-81863349D01*
X61140419Y-81863349D02*
X61235657Y-81815730D01*
X61235657Y-81815730D02*
X61473752Y-81815730D01*
X61473752Y-81815730D02*
X61568990Y-81863349D01*
X61568990Y-81863349D02*
X61616609Y-81910968D01*
X61616609Y-81910968D02*
X61664228Y-82006206D01*
X61664228Y-82006206D02*
X61664228Y-82196682D01*
X61664228Y-82196682D02*
X61616609Y-82291920D01*
X61616609Y-82291920D02*
X61568990Y-82339539D01*
X61568990Y-82339539D02*
X61473752Y-82387158D01*
X61045180Y-81387158D02*
X62045180Y-81387158D01*
X62045180Y-81387158D02*
X62045180Y-81149063D01*
X62045180Y-81149063D02*
X61997561Y-81006206D01*
X61997561Y-81006206D02*
X61902323Y-80910968D01*
X61902323Y-80910968D02*
X61807085Y-80863349D01*
X61807085Y-80863349D02*
X61616609Y-80815730D01*
X61616609Y-80815730D02*
X61473752Y-80815730D01*
X61473752Y-80815730D02*
X61283276Y-80863349D01*
X61283276Y-80863349D02*
X61188038Y-80910968D01*
X61188038Y-80910968D02*
X61092800Y-81006206D01*
X61092800Y-81006206D02*
X61045180Y-81149063D01*
X61045180Y-81149063D02*
X61045180Y-81387158D01*
X61140419Y-79815730D02*
X61092800Y-79863349D01*
X61092800Y-79863349D02*
X61045180Y-80006206D01*
X61045180Y-80006206D02*
X61045180Y-80101444D01*
X61045180Y-80101444D02*
X61092800Y-80244301D01*
X61092800Y-80244301D02*
X61188038Y-80339539D01*
X61188038Y-80339539D02*
X61283276Y-80387158D01*
X61283276Y-80387158D02*
X61473752Y-80434777D01*
X61473752Y-80434777D02*
X61616609Y-80434777D01*
X61616609Y-80434777D02*
X61807085Y-80387158D01*
X61807085Y-80387158D02*
X61902323Y-80339539D01*
X61902323Y-80339539D02*
X61997561Y-80244301D01*
X61997561Y-80244301D02*
X62045180Y-80101444D01*
X62045180Y-80101444D02*
X62045180Y-80006206D01*
X62045180Y-80006206D02*
X61997561Y-79863349D01*
X61997561Y-79863349D02*
X61949942Y-79815730D01*
X61045180Y-79387158D02*
X62045180Y-79387158D01*
X61045180Y-78815730D02*
X61616609Y-79244301D01*
X62045180Y-78815730D02*
X61473752Y-79387158D01*
X61045180Y-77815730D02*
X61521371Y-78149063D01*
X61045180Y-78387158D02*
X62045180Y-78387158D01*
X62045180Y-78387158D02*
X62045180Y-78006206D01*
X62045180Y-78006206D02*
X61997561Y-77910968D01*
X61997561Y-77910968D02*
X61949942Y-77863349D01*
X61949942Y-77863349D02*
X61854704Y-77815730D01*
X61854704Y-77815730D02*
X61711847Y-77815730D01*
X61711847Y-77815730D02*
X61616609Y-77863349D01*
X61616609Y-77863349D02*
X61568990Y-77910968D01*
X61568990Y-77910968D02*
X61521371Y-78006206D01*
X61521371Y-78006206D02*
X61521371Y-78387158D01*
X61958119Y-84193550D02*
X62196214Y-84193550D01*
X62100976Y-83955455D02*
X62196214Y-84193550D01*
X62196214Y-84193550D02*
X62100976Y-84431645D01*
X62386690Y-84050693D02*
X62196214Y-84193550D01*
X62196214Y-84193550D02*
X62386690Y-84336407D01*
X62045180Y-84625254D02*
X61235657Y-84625254D01*
X61235657Y-84625254D02*
X61140419Y-84577635D01*
X61140419Y-84577635D02*
X61092800Y-84530016D01*
X61092800Y-84530016D02*
X61045180Y-84434778D01*
X61045180Y-84434778D02*
X61045180Y-84244302D01*
X61045180Y-84244302D02*
X61092800Y-84149064D01*
X61092800Y-84149064D02*
X61140419Y-84101445D01*
X61140419Y-84101445D02*
X61235657Y-84053826D01*
X61235657Y-84053826D02*
X62045180Y-84053826D01*
X61949942Y-83625254D02*
X61997561Y-83577635D01*
X61997561Y-83577635D02*
X62045180Y-83482397D01*
X62045180Y-83482397D02*
X62045180Y-83244302D01*
X62045180Y-83244302D02*
X61997561Y-83149064D01*
X61997561Y-83149064D02*
X61949942Y-83101445D01*
X61949942Y-83101445D02*
X61854704Y-83053826D01*
X61854704Y-83053826D02*
X61759466Y-83053826D01*
X61759466Y-83053826D02*
X61616609Y-83101445D01*
X61616609Y-83101445D02*
X61045180Y-83672873D01*
X61045180Y-83672873D02*
X61045180Y-83053826D01*
X63048480Y-84193549D02*
X62810385Y-84193549D01*
X62905623Y-84431644D02*
X62810385Y-84193549D01*
X62810385Y-84193549D02*
X62905623Y-83955454D01*
X62619909Y-84336406D02*
X62810385Y-84193549D01*
X62810385Y-84193549D02*
X62619909Y-84050692D01*
X62045180Y-100142856D02*
X62045180Y-99571428D01*
X61045180Y-99857142D02*
X62045180Y-99857142D01*
X61045180Y-99238094D02*
X62045180Y-99238094D01*
X62045180Y-99238094D02*
X62045180Y-98857142D01*
X62045180Y-98857142D02*
X61997561Y-98761904D01*
X61997561Y-98761904D02*
X61949942Y-98714285D01*
X61949942Y-98714285D02*
X61854704Y-98666666D01*
X61854704Y-98666666D02*
X61711847Y-98666666D01*
X61711847Y-98666666D02*
X61616609Y-98714285D01*
X61616609Y-98714285D02*
X61568990Y-98761904D01*
X61568990Y-98761904D02*
X61521371Y-98857142D01*
X61521371Y-98857142D02*
X61521371Y-99238094D01*
X61045180Y-98238094D02*
X62045180Y-98238094D01*
X62045180Y-98238094D02*
X62045180Y-97999999D01*
X62045180Y-97999999D02*
X61997561Y-97857142D01*
X61997561Y-97857142D02*
X61902323Y-97761904D01*
X61902323Y-97761904D02*
X61807085Y-97714285D01*
X61807085Y-97714285D02*
X61616609Y-97666666D01*
X61616609Y-97666666D02*
X61473752Y-97666666D01*
X61473752Y-97666666D02*
X61283276Y-97714285D01*
X61283276Y-97714285D02*
X61188038Y-97761904D01*
X61188038Y-97761904D02*
X61092800Y-97857142D01*
X61092800Y-97857142D02*
X61045180Y-97999999D01*
X61045180Y-97999999D02*
X61045180Y-98238094D01*
X61711847Y-96809523D02*
X61045180Y-96809523D01*
X62092800Y-97047618D02*
X61378514Y-97285713D01*
X61378514Y-97285713D02*
X61378514Y-96666666D01*
X61568990Y-96285713D02*
X61568990Y-95952380D01*
X61045180Y-95809523D02*
X61045180Y-96285713D01*
X61045180Y-96285713D02*
X62045180Y-96285713D01*
X62045180Y-96285713D02*
X62045180Y-95809523D01*
X61045180Y-94857142D02*
X61045180Y-95428570D01*
X61045180Y-95142856D02*
X62045180Y-95142856D01*
X62045180Y-95142856D02*
X61902323Y-95238094D01*
X61902323Y-95238094D02*
X61807085Y-95333332D01*
X61807085Y-95333332D02*
X61759466Y-95428570D01*
X61568990Y-94095237D02*
X61521371Y-93952380D01*
X61521371Y-93952380D02*
X61473752Y-93904761D01*
X61473752Y-93904761D02*
X61378514Y-93857142D01*
X61378514Y-93857142D02*
X61235657Y-93857142D01*
X61235657Y-93857142D02*
X61140419Y-93904761D01*
X61140419Y-93904761D02*
X61092800Y-93952380D01*
X61092800Y-93952380D02*
X61045180Y-94047618D01*
X61045180Y-94047618D02*
X61045180Y-94428570D01*
X61045180Y-94428570D02*
X62045180Y-94428570D01*
X62045180Y-94428570D02*
X62045180Y-94095237D01*
X62045180Y-94095237D02*
X61997561Y-93999999D01*
X61997561Y-93999999D02*
X61949942Y-93952380D01*
X61949942Y-93952380D02*
X61854704Y-93904761D01*
X61854704Y-93904761D02*
X61759466Y-93904761D01*
X61759466Y-93904761D02*
X61664228Y-93952380D01*
X61664228Y-93952380D02*
X61616609Y-93999999D01*
X61616609Y-93999999D02*
X61568990Y-94095237D01*
X61568990Y-94095237D02*
X61568990Y-94428570D01*
X62045180Y-93238094D02*
X62045180Y-93142856D01*
X62045180Y-93142856D02*
X61997561Y-93047618D01*
X61997561Y-93047618D02*
X61949942Y-92999999D01*
X61949942Y-92999999D02*
X61854704Y-92952380D01*
X61854704Y-92952380D02*
X61664228Y-92904761D01*
X61664228Y-92904761D02*
X61426133Y-92904761D01*
X61426133Y-92904761D02*
X61235657Y-92952380D01*
X61235657Y-92952380D02*
X61140419Y-92999999D01*
X61140419Y-92999999D02*
X61092800Y-93047618D01*
X61092800Y-93047618D02*
X61045180Y-93142856D01*
X61045180Y-93142856D02*
X61045180Y-93238094D01*
X61045180Y-93238094D02*
X61092800Y-93333332D01*
X61092800Y-93333332D02*
X61140419Y-93380951D01*
X61140419Y-93380951D02*
X61235657Y-93428570D01*
X61235657Y-93428570D02*
X61426133Y-93476189D01*
X61426133Y-93476189D02*
X61664228Y-93476189D01*
X61664228Y-93476189D02*
X61854704Y-93428570D01*
X61854704Y-93428570D02*
X61949942Y-93380951D01*
X61949942Y-93380951D02*
X61997561Y-93333332D01*
X61997561Y-93333332D02*
X62045180Y-93238094D01*
X62045180Y-92047618D02*
X62045180Y-92238094D01*
X62045180Y-92238094D02*
X61997561Y-92333332D01*
X61997561Y-92333332D02*
X61949942Y-92380951D01*
X61949942Y-92380951D02*
X61807085Y-92476189D01*
X61807085Y-92476189D02*
X61616609Y-92523808D01*
X61616609Y-92523808D02*
X61235657Y-92523808D01*
X61235657Y-92523808D02*
X61140419Y-92476189D01*
X61140419Y-92476189D02*
X61092800Y-92428570D01*
X61092800Y-92428570D02*
X61045180Y-92333332D01*
X61045180Y-92333332D02*
X61045180Y-92142856D01*
X61045180Y-92142856D02*
X61092800Y-92047618D01*
X61092800Y-92047618D02*
X61140419Y-91999999D01*
X61140419Y-91999999D02*
X61235657Y-91952380D01*
X61235657Y-91952380D02*
X61473752Y-91952380D01*
X61473752Y-91952380D02*
X61568990Y-91999999D01*
X61568990Y-91999999D02*
X61616609Y-92047618D01*
X61616609Y-92047618D02*
X61664228Y-92142856D01*
X61664228Y-92142856D02*
X61664228Y-92333332D01*
X61664228Y-92333332D02*
X61616609Y-92428570D01*
X61616609Y-92428570D02*
X61568990Y-92476189D01*
X61568990Y-92476189D02*
X61473752Y-92523808D01*
X61045180Y-91523808D02*
X62045180Y-91523808D01*
X62045180Y-91523808D02*
X62045180Y-91285713D01*
X62045180Y-91285713D02*
X61997561Y-91142856D01*
X61997561Y-91142856D02*
X61902323Y-91047618D01*
X61902323Y-91047618D02*
X61807085Y-90999999D01*
X61807085Y-90999999D02*
X61616609Y-90952380D01*
X61616609Y-90952380D02*
X61473752Y-90952380D01*
X61473752Y-90952380D02*
X61283276Y-90999999D01*
X61283276Y-90999999D02*
X61188038Y-91047618D01*
X61188038Y-91047618D02*
X61092800Y-91142856D01*
X61092800Y-91142856D02*
X61045180Y-91285713D01*
X61045180Y-91285713D02*
X61045180Y-91523808D01*
X61140419Y-89952380D02*
X61092800Y-89999999D01*
X61092800Y-89999999D02*
X61045180Y-90142856D01*
X61045180Y-90142856D02*
X61045180Y-90238094D01*
X61045180Y-90238094D02*
X61092800Y-90380951D01*
X61092800Y-90380951D02*
X61188038Y-90476189D01*
X61188038Y-90476189D02*
X61283276Y-90523808D01*
X61283276Y-90523808D02*
X61473752Y-90571427D01*
X61473752Y-90571427D02*
X61616609Y-90571427D01*
X61616609Y-90571427D02*
X61807085Y-90523808D01*
X61807085Y-90523808D02*
X61902323Y-90476189D01*
X61902323Y-90476189D02*
X61997561Y-90380951D01*
X61997561Y-90380951D02*
X62045180Y-90238094D01*
X62045180Y-90238094D02*
X62045180Y-90142856D01*
X62045180Y-90142856D02*
X61997561Y-89999999D01*
X61997561Y-89999999D02*
X61949942Y-89952380D01*
X61045180Y-89523808D02*
X62045180Y-89523808D01*
X61045180Y-88952380D02*
X61616609Y-89380951D01*
X62045180Y-88952380D02*
X61473752Y-89523808D01*
X61045180Y-87952380D02*
X61521371Y-88285713D01*
X61045180Y-88523808D02*
X62045180Y-88523808D01*
X62045180Y-88523808D02*
X62045180Y-88142856D01*
X62045180Y-88142856D02*
X61997561Y-88047618D01*
X61997561Y-88047618D02*
X61949942Y-87999999D01*
X61949942Y-87999999D02*
X61854704Y-87952380D01*
X61854704Y-87952380D02*
X61711847Y-87952380D01*
X61711847Y-87952380D02*
X61616609Y-87999999D01*
X61616609Y-87999999D02*
X61568990Y-88047618D01*
X61568990Y-88047618D02*
X61521371Y-88142856D01*
X61521371Y-88142856D02*
X61521371Y-88523808D01*
X61958119Y-94330200D02*
X62196214Y-94330200D01*
X62100976Y-94092105D02*
X62196214Y-94330200D01*
X62196214Y-94330200D02*
X62100976Y-94568295D01*
X62386690Y-94187343D02*
X62196214Y-94330200D01*
X62196214Y-94330200D02*
X62386690Y-94473057D01*
X63048480Y-94330199D02*
X62810385Y-94330199D01*
X62905623Y-94568294D02*
X62810385Y-94330199D01*
X62810385Y-94330199D02*
X62905623Y-94092104D01*
X62619909Y-94473056D02*
X62810385Y-94330199D01*
X62810385Y-94330199D02*
X62619909Y-94187342D01*
X62045180Y-95238094D02*
X61235657Y-95238094D01*
X61235657Y-95238094D02*
X61140419Y-95190475D01*
X61140419Y-95190475D02*
X61092800Y-95142856D01*
X61092800Y-95142856D02*
X61045180Y-95047618D01*
X61045180Y-95047618D02*
X61045180Y-94857142D01*
X61045180Y-94857142D02*
X61092800Y-94761904D01*
X61092800Y-94761904D02*
X61140419Y-94714285D01*
X61140419Y-94714285D02*
X61235657Y-94666666D01*
X61235657Y-94666666D02*
X62045180Y-94666666D01*
X61045180Y-93666666D02*
X61045180Y-94238094D01*
X61045180Y-93952380D02*
X62045180Y-93952380D01*
X62045180Y-93952380D02*
X61902323Y-94047618D01*
X61902323Y-94047618D02*
X61807085Y-94142856D01*
X61807085Y-94142856D02*
X61759466Y-94238094D01*
X62045180Y-93047618D02*
X62045180Y-92952380D01*
X62045180Y-92952380D02*
X61997561Y-92857142D01*
X61997561Y-92857142D02*
X61949942Y-92809523D01*
X61949942Y-92809523D02*
X61854704Y-92761904D01*
X61854704Y-92761904D02*
X61664228Y-92714285D01*
X61664228Y-92714285D02*
X61426133Y-92714285D01*
X61426133Y-92714285D02*
X61235657Y-92761904D01*
X61235657Y-92761904D02*
X61140419Y-92809523D01*
X61140419Y-92809523D02*
X61092800Y-92857142D01*
X61092800Y-92857142D02*
X61045180Y-92952380D01*
X61045180Y-92952380D02*
X61045180Y-93047618D01*
X61045180Y-93047618D02*
X61092800Y-93142856D01*
X61092800Y-93142856D02*
X61140419Y-93190475D01*
X61140419Y-93190475D02*
X61235657Y-93238094D01*
X61235657Y-93238094D02*
X61426133Y-93285713D01*
X61426133Y-93285713D02*
X61664228Y-93285713D01*
X61664228Y-93285713D02*
X61854704Y-93238094D01*
X61854704Y-93238094D02*
X61949942Y-93190475D01*
X61949942Y-93190475D02*
X61997561Y-93142856D01*
X61997561Y-93142856D02*
X62045180Y-93047618D01*
X62045180Y-105142856D02*
X62045180Y-104571428D01*
X61045180Y-104857142D02*
X62045180Y-104857142D01*
X61045180Y-104238094D02*
X62045180Y-104238094D01*
X62045180Y-104238094D02*
X62045180Y-103857142D01*
X62045180Y-103857142D02*
X61997561Y-103761904D01*
X61997561Y-103761904D02*
X61949942Y-103714285D01*
X61949942Y-103714285D02*
X61854704Y-103666666D01*
X61854704Y-103666666D02*
X61711847Y-103666666D01*
X61711847Y-103666666D02*
X61616609Y-103714285D01*
X61616609Y-103714285D02*
X61568990Y-103761904D01*
X61568990Y-103761904D02*
X61521371Y-103857142D01*
X61521371Y-103857142D02*
X61521371Y-104238094D01*
X61045180Y-103238094D02*
X62045180Y-103238094D01*
X62045180Y-103238094D02*
X62045180Y-102999999D01*
X62045180Y-102999999D02*
X61997561Y-102857142D01*
X61997561Y-102857142D02*
X61902323Y-102761904D01*
X61902323Y-102761904D02*
X61807085Y-102714285D01*
X61807085Y-102714285D02*
X61616609Y-102666666D01*
X61616609Y-102666666D02*
X61473752Y-102666666D01*
X61473752Y-102666666D02*
X61283276Y-102714285D01*
X61283276Y-102714285D02*
X61188038Y-102761904D01*
X61188038Y-102761904D02*
X61092800Y-102857142D01*
X61092800Y-102857142D02*
X61045180Y-102999999D01*
X61045180Y-102999999D02*
X61045180Y-103238094D01*
X61711847Y-101809523D02*
X61045180Y-101809523D01*
X62092800Y-102047618D02*
X61378514Y-102285713D01*
X61378514Y-102285713D02*
X61378514Y-101666666D01*
X61568990Y-101285713D02*
X61568990Y-100952380D01*
X61045180Y-100809523D02*
X61045180Y-101285713D01*
X61045180Y-101285713D02*
X62045180Y-101285713D01*
X62045180Y-101285713D02*
X62045180Y-100809523D01*
X61045180Y-99857142D02*
X61045180Y-100428570D01*
X61045180Y-100142856D02*
X62045180Y-100142856D01*
X62045180Y-100142856D02*
X61902323Y-100238094D01*
X61902323Y-100238094D02*
X61807085Y-100333332D01*
X61807085Y-100333332D02*
X61759466Y-100428570D01*
X61568990Y-99095237D02*
X61521371Y-98952380D01*
X61521371Y-98952380D02*
X61473752Y-98904761D01*
X61473752Y-98904761D02*
X61378514Y-98857142D01*
X61378514Y-98857142D02*
X61235657Y-98857142D01*
X61235657Y-98857142D02*
X61140419Y-98904761D01*
X61140419Y-98904761D02*
X61092800Y-98952380D01*
X61092800Y-98952380D02*
X61045180Y-99047618D01*
X61045180Y-99047618D02*
X61045180Y-99428570D01*
X61045180Y-99428570D02*
X62045180Y-99428570D01*
X62045180Y-99428570D02*
X62045180Y-99095237D01*
X62045180Y-99095237D02*
X61997561Y-98999999D01*
X61997561Y-98999999D02*
X61949942Y-98952380D01*
X61949942Y-98952380D02*
X61854704Y-98904761D01*
X61854704Y-98904761D02*
X61759466Y-98904761D01*
X61759466Y-98904761D02*
X61664228Y-98952380D01*
X61664228Y-98952380D02*
X61616609Y-98999999D01*
X61616609Y-98999999D02*
X61568990Y-99095237D01*
X61568990Y-99095237D02*
X61568990Y-99428570D01*
X62045180Y-98238094D02*
X62045180Y-98142856D01*
X62045180Y-98142856D02*
X61997561Y-98047618D01*
X61997561Y-98047618D02*
X61949942Y-97999999D01*
X61949942Y-97999999D02*
X61854704Y-97952380D01*
X61854704Y-97952380D02*
X61664228Y-97904761D01*
X61664228Y-97904761D02*
X61426133Y-97904761D01*
X61426133Y-97904761D02*
X61235657Y-97952380D01*
X61235657Y-97952380D02*
X61140419Y-97999999D01*
X61140419Y-97999999D02*
X61092800Y-98047618D01*
X61092800Y-98047618D02*
X61045180Y-98142856D01*
X61045180Y-98142856D02*
X61045180Y-98238094D01*
X61045180Y-98238094D02*
X61092800Y-98333332D01*
X61092800Y-98333332D02*
X61140419Y-98380951D01*
X61140419Y-98380951D02*
X61235657Y-98428570D01*
X61235657Y-98428570D02*
X61426133Y-98476189D01*
X61426133Y-98476189D02*
X61664228Y-98476189D01*
X61664228Y-98476189D02*
X61854704Y-98428570D01*
X61854704Y-98428570D02*
X61949942Y-98380951D01*
X61949942Y-98380951D02*
X61997561Y-98333332D01*
X61997561Y-98333332D02*
X62045180Y-98238094D01*
X62045180Y-97047618D02*
X62045180Y-97238094D01*
X62045180Y-97238094D02*
X61997561Y-97333332D01*
X61997561Y-97333332D02*
X61949942Y-97380951D01*
X61949942Y-97380951D02*
X61807085Y-97476189D01*
X61807085Y-97476189D02*
X61616609Y-97523808D01*
X61616609Y-97523808D02*
X61235657Y-97523808D01*
X61235657Y-97523808D02*
X61140419Y-97476189D01*
X61140419Y-97476189D02*
X61092800Y-97428570D01*
X61092800Y-97428570D02*
X61045180Y-97333332D01*
X61045180Y-97333332D02*
X61045180Y-97142856D01*
X61045180Y-97142856D02*
X61092800Y-97047618D01*
X61092800Y-97047618D02*
X61140419Y-96999999D01*
X61140419Y-96999999D02*
X61235657Y-96952380D01*
X61235657Y-96952380D02*
X61473752Y-96952380D01*
X61473752Y-96952380D02*
X61568990Y-96999999D01*
X61568990Y-96999999D02*
X61616609Y-97047618D01*
X61616609Y-97047618D02*
X61664228Y-97142856D01*
X61664228Y-97142856D02*
X61664228Y-97333332D01*
X61664228Y-97333332D02*
X61616609Y-97428570D01*
X61616609Y-97428570D02*
X61568990Y-97476189D01*
X61568990Y-97476189D02*
X61473752Y-97523808D01*
X61045180Y-96523808D02*
X62045180Y-96523808D01*
X62045180Y-96523808D02*
X62045180Y-96285713D01*
X62045180Y-96285713D02*
X61997561Y-96142856D01*
X61997561Y-96142856D02*
X61902323Y-96047618D01*
X61902323Y-96047618D02*
X61807085Y-95999999D01*
X61807085Y-95999999D02*
X61616609Y-95952380D01*
X61616609Y-95952380D02*
X61473752Y-95952380D01*
X61473752Y-95952380D02*
X61283276Y-95999999D01*
X61283276Y-95999999D02*
X61188038Y-96047618D01*
X61188038Y-96047618D02*
X61092800Y-96142856D01*
X61092800Y-96142856D02*
X61045180Y-96285713D01*
X61045180Y-96285713D02*
X61045180Y-96523808D01*
X61140419Y-94952380D02*
X61092800Y-94999999D01*
X61092800Y-94999999D02*
X61045180Y-95142856D01*
X61045180Y-95142856D02*
X61045180Y-95238094D01*
X61045180Y-95238094D02*
X61092800Y-95380951D01*
X61092800Y-95380951D02*
X61188038Y-95476189D01*
X61188038Y-95476189D02*
X61283276Y-95523808D01*
X61283276Y-95523808D02*
X61473752Y-95571427D01*
X61473752Y-95571427D02*
X61616609Y-95571427D01*
X61616609Y-95571427D02*
X61807085Y-95523808D01*
X61807085Y-95523808D02*
X61902323Y-95476189D01*
X61902323Y-95476189D02*
X61997561Y-95380951D01*
X61997561Y-95380951D02*
X62045180Y-95238094D01*
X62045180Y-95238094D02*
X62045180Y-95142856D01*
X62045180Y-95142856D02*
X61997561Y-94999999D01*
X61997561Y-94999999D02*
X61949942Y-94952380D01*
X61045180Y-94523808D02*
X62045180Y-94523808D01*
X61045180Y-93952380D02*
X61616609Y-94380951D01*
X62045180Y-93952380D02*
X61473752Y-94523808D01*
X61045180Y-92952380D02*
X61521371Y-93285713D01*
X61045180Y-93523808D02*
X62045180Y-93523808D01*
X62045180Y-93523808D02*
X62045180Y-93142856D01*
X62045180Y-93142856D02*
X61997561Y-93047618D01*
X61997561Y-93047618D02*
X61949942Y-92999999D01*
X61949942Y-92999999D02*
X61854704Y-92952380D01*
X61854704Y-92952380D02*
X61711847Y-92952380D01*
X61711847Y-92952380D02*
X61616609Y-92999999D01*
X61616609Y-92999999D02*
X61568990Y-93047618D01*
X61568990Y-93047618D02*
X61521371Y-93142856D01*
X61521371Y-93142856D02*
X61521371Y-93523808D01*
X62045180Y-99761904D02*
X61235657Y-99761904D01*
X61235657Y-99761904D02*
X61140419Y-99714285D01*
X61140419Y-99714285D02*
X61092800Y-99666666D01*
X61092800Y-99666666D02*
X61045180Y-99571428D01*
X61045180Y-99571428D02*
X61045180Y-99380952D01*
X61045180Y-99380952D02*
X61092800Y-99285714D01*
X61092800Y-99285714D02*
X61140419Y-99238095D01*
X61140419Y-99238095D02*
X61235657Y-99190476D01*
X61235657Y-99190476D02*
X62045180Y-99190476D01*
X61711847Y-98285714D02*
X61045180Y-98285714D01*
X62092800Y-98523809D02*
X61378514Y-98761904D01*
X61378514Y-98761904D02*
X61378514Y-98142857D01*
X61958119Y-99330200D02*
X62196214Y-99330200D01*
X62100976Y-99092105D02*
X62196214Y-99330200D01*
X62196214Y-99330200D02*
X62100976Y-99568295D01*
X62386690Y-99187343D02*
X62196214Y-99330200D01*
X62196214Y-99330200D02*
X62386690Y-99473057D01*
X63048480Y-99330199D02*
X62810385Y-99330199D01*
X62905623Y-99568294D02*
X62810385Y-99330199D01*
X62810385Y-99330199D02*
X62905623Y-99092104D01*
X62619909Y-99473056D02*
X62810385Y-99330199D01*
X62810385Y-99330199D02*
X62619909Y-99187342D01*
X62045180Y-95142856D02*
X62045180Y-94571428D01*
X61045180Y-94857142D02*
X62045180Y-94857142D01*
X61045180Y-94238094D02*
X62045180Y-94238094D01*
X62045180Y-94238094D02*
X62045180Y-93857142D01*
X62045180Y-93857142D02*
X61997561Y-93761904D01*
X61997561Y-93761904D02*
X61949942Y-93714285D01*
X61949942Y-93714285D02*
X61854704Y-93666666D01*
X61854704Y-93666666D02*
X61711847Y-93666666D01*
X61711847Y-93666666D02*
X61616609Y-93714285D01*
X61616609Y-93714285D02*
X61568990Y-93761904D01*
X61568990Y-93761904D02*
X61521371Y-93857142D01*
X61521371Y-93857142D02*
X61521371Y-94238094D01*
X61045180Y-93238094D02*
X62045180Y-93238094D01*
X62045180Y-93238094D02*
X62045180Y-92999999D01*
X62045180Y-92999999D02*
X61997561Y-92857142D01*
X61997561Y-92857142D02*
X61902323Y-92761904D01*
X61902323Y-92761904D02*
X61807085Y-92714285D01*
X61807085Y-92714285D02*
X61616609Y-92666666D01*
X61616609Y-92666666D02*
X61473752Y-92666666D01*
X61473752Y-92666666D02*
X61283276Y-92714285D01*
X61283276Y-92714285D02*
X61188038Y-92761904D01*
X61188038Y-92761904D02*
X61092800Y-92857142D01*
X61092800Y-92857142D02*
X61045180Y-92999999D01*
X61045180Y-92999999D02*
X61045180Y-93238094D01*
X61711847Y-91809523D02*
X61045180Y-91809523D01*
X62092800Y-92047618D02*
X61378514Y-92285713D01*
X61378514Y-92285713D02*
X61378514Y-91666666D01*
X61568990Y-91285713D02*
X61568990Y-90952380D01*
X61045180Y-90809523D02*
X61045180Y-91285713D01*
X61045180Y-91285713D02*
X62045180Y-91285713D01*
X62045180Y-91285713D02*
X62045180Y-90809523D01*
X61045180Y-89857142D02*
X61045180Y-90428570D01*
X61045180Y-90142856D02*
X62045180Y-90142856D01*
X62045180Y-90142856D02*
X61902323Y-90238094D01*
X61902323Y-90238094D02*
X61807085Y-90333332D01*
X61807085Y-90333332D02*
X61759466Y-90428570D01*
X61568990Y-89095237D02*
X61521371Y-88952380D01*
X61521371Y-88952380D02*
X61473752Y-88904761D01*
X61473752Y-88904761D02*
X61378514Y-88857142D01*
X61378514Y-88857142D02*
X61235657Y-88857142D01*
X61235657Y-88857142D02*
X61140419Y-88904761D01*
X61140419Y-88904761D02*
X61092800Y-88952380D01*
X61092800Y-88952380D02*
X61045180Y-89047618D01*
X61045180Y-89047618D02*
X61045180Y-89428570D01*
X61045180Y-89428570D02*
X62045180Y-89428570D01*
X62045180Y-89428570D02*
X62045180Y-89095237D01*
X62045180Y-89095237D02*
X61997561Y-88999999D01*
X61997561Y-88999999D02*
X61949942Y-88952380D01*
X61949942Y-88952380D02*
X61854704Y-88904761D01*
X61854704Y-88904761D02*
X61759466Y-88904761D01*
X61759466Y-88904761D02*
X61664228Y-88952380D01*
X61664228Y-88952380D02*
X61616609Y-88999999D01*
X61616609Y-88999999D02*
X61568990Y-89095237D01*
X61568990Y-89095237D02*
X61568990Y-89428570D01*
X62045180Y-88238094D02*
X62045180Y-88142856D01*
X62045180Y-88142856D02*
X61997561Y-88047618D01*
X61997561Y-88047618D02*
X61949942Y-87999999D01*
X61949942Y-87999999D02*
X61854704Y-87952380D01*
X61854704Y-87952380D02*
X61664228Y-87904761D01*
X61664228Y-87904761D02*
X61426133Y-87904761D01*
X61426133Y-87904761D02*
X61235657Y-87952380D01*
X61235657Y-87952380D02*
X61140419Y-87999999D01*
X61140419Y-87999999D02*
X61092800Y-88047618D01*
X61092800Y-88047618D02*
X61045180Y-88142856D01*
X61045180Y-88142856D02*
X61045180Y-88238094D01*
X61045180Y-88238094D02*
X61092800Y-88333332D01*
X61092800Y-88333332D02*
X61140419Y-88380951D01*
X61140419Y-88380951D02*
X61235657Y-88428570D01*
X61235657Y-88428570D02*
X61426133Y-88476189D01*
X61426133Y-88476189D02*
X61664228Y-88476189D01*
X61664228Y-88476189D02*
X61854704Y-88428570D01*
X61854704Y-88428570D02*
X61949942Y-88380951D01*
X61949942Y-88380951D02*
X61997561Y-88333332D01*
X61997561Y-88333332D02*
X62045180Y-88238094D01*
X62045180Y-87047618D02*
X62045180Y-87238094D01*
X62045180Y-87238094D02*
X61997561Y-87333332D01*
X61997561Y-87333332D02*
X61949942Y-87380951D01*
X61949942Y-87380951D02*
X61807085Y-87476189D01*
X61807085Y-87476189D02*
X61616609Y-87523808D01*
X61616609Y-87523808D02*
X61235657Y-87523808D01*
X61235657Y-87523808D02*
X61140419Y-87476189D01*
X61140419Y-87476189D02*
X61092800Y-87428570D01*
X61092800Y-87428570D02*
X61045180Y-87333332D01*
X61045180Y-87333332D02*
X61045180Y-87142856D01*
X61045180Y-87142856D02*
X61092800Y-87047618D01*
X61092800Y-87047618D02*
X61140419Y-86999999D01*
X61140419Y-86999999D02*
X61235657Y-86952380D01*
X61235657Y-86952380D02*
X61473752Y-86952380D01*
X61473752Y-86952380D02*
X61568990Y-86999999D01*
X61568990Y-86999999D02*
X61616609Y-87047618D01*
X61616609Y-87047618D02*
X61664228Y-87142856D01*
X61664228Y-87142856D02*
X61664228Y-87333332D01*
X61664228Y-87333332D02*
X61616609Y-87428570D01*
X61616609Y-87428570D02*
X61568990Y-87476189D01*
X61568990Y-87476189D02*
X61473752Y-87523808D01*
X61045180Y-86523808D02*
X62045180Y-86523808D01*
X62045180Y-86523808D02*
X62045180Y-86285713D01*
X62045180Y-86285713D02*
X61997561Y-86142856D01*
X61997561Y-86142856D02*
X61902323Y-86047618D01*
X61902323Y-86047618D02*
X61807085Y-85999999D01*
X61807085Y-85999999D02*
X61616609Y-85952380D01*
X61616609Y-85952380D02*
X61473752Y-85952380D01*
X61473752Y-85952380D02*
X61283276Y-85999999D01*
X61283276Y-85999999D02*
X61188038Y-86047618D01*
X61188038Y-86047618D02*
X61092800Y-86142856D01*
X61092800Y-86142856D02*
X61045180Y-86285713D01*
X61045180Y-86285713D02*
X61045180Y-86523808D01*
X61140419Y-84952380D02*
X61092800Y-84999999D01*
X61092800Y-84999999D02*
X61045180Y-85142856D01*
X61045180Y-85142856D02*
X61045180Y-85238094D01*
X61045180Y-85238094D02*
X61092800Y-85380951D01*
X61092800Y-85380951D02*
X61188038Y-85476189D01*
X61188038Y-85476189D02*
X61283276Y-85523808D01*
X61283276Y-85523808D02*
X61473752Y-85571427D01*
X61473752Y-85571427D02*
X61616609Y-85571427D01*
X61616609Y-85571427D02*
X61807085Y-85523808D01*
X61807085Y-85523808D02*
X61902323Y-85476189D01*
X61902323Y-85476189D02*
X61997561Y-85380951D01*
X61997561Y-85380951D02*
X62045180Y-85238094D01*
X62045180Y-85238094D02*
X62045180Y-85142856D01*
X62045180Y-85142856D02*
X61997561Y-84999999D01*
X61997561Y-84999999D02*
X61949942Y-84952380D01*
X61045180Y-84523808D02*
X62045180Y-84523808D01*
X61045180Y-83952380D02*
X61616609Y-84380951D01*
X62045180Y-83952380D02*
X61473752Y-84523808D01*
X61045180Y-82952380D02*
X61521371Y-83285713D01*
X61045180Y-83523808D02*
X62045180Y-83523808D01*
X62045180Y-83523808D02*
X62045180Y-83142856D01*
X62045180Y-83142856D02*
X61997561Y-83047618D01*
X61997561Y-83047618D02*
X61949942Y-82999999D01*
X61949942Y-82999999D02*
X61854704Y-82952380D01*
X61854704Y-82952380D02*
X61711847Y-82952380D01*
X61711847Y-82952380D02*
X61616609Y-82999999D01*
X61616609Y-82999999D02*
X61568990Y-83047618D01*
X61568990Y-83047618D02*
X61521371Y-83142856D01*
X61521371Y-83142856D02*
X61521371Y-83523808D01*
X62045180Y-89761904D02*
X61235657Y-89761904D01*
X61235657Y-89761904D02*
X61140419Y-89714285D01*
X61140419Y-89714285D02*
X61092800Y-89666666D01*
X61092800Y-89666666D02*
X61045180Y-89571428D01*
X61045180Y-89571428D02*
X61045180Y-89380952D01*
X61045180Y-89380952D02*
X61092800Y-89285714D01*
X61092800Y-89285714D02*
X61140419Y-89238095D01*
X61140419Y-89238095D02*
X61235657Y-89190476D01*
X61235657Y-89190476D02*
X62045180Y-89190476D01*
X62045180Y-88809523D02*
X62045180Y-88190476D01*
X62045180Y-88190476D02*
X61664228Y-88523809D01*
X61664228Y-88523809D02*
X61664228Y-88380952D01*
X61664228Y-88380952D02*
X61616609Y-88285714D01*
X61616609Y-88285714D02*
X61568990Y-88238095D01*
X61568990Y-88238095D02*
X61473752Y-88190476D01*
X61473752Y-88190476D02*
X61235657Y-88190476D01*
X61235657Y-88190476D02*
X61140419Y-88238095D01*
X61140419Y-88238095D02*
X61092800Y-88285714D01*
X61092800Y-88285714D02*
X61045180Y-88380952D01*
X61045180Y-88380952D02*
X61045180Y-88666666D01*
X61045180Y-88666666D02*
X61092800Y-88761904D01*
X61092800Y-88761904D02*
X61140419Y-88809523D01*
X61958119Y-89330200D02*
X62196214Y-89330200D01*
X62100976Y-89092105D02*
X62196214Y-89330200D01*
X62196214Y-89330200D02*
X62100976Y-89568295D01*
X62386690Y-89187343D02*
X62196214Y-89330200D01*
X62196214Y-89330200D02*
X62386690Y-89473057D01*
X63048480Y-89330199D02*
X62810385Y-89330199D01*
X62905623Y-89568294D02*
X62810385Y-89330199D01*
X62810385Y-89330199D02*
X62905623Y-89092104D01*
X62619909Y-89473056D02*
X62810385Y-89330199D01*
X62810385Y-89330199D02*
X62619909Y-89187342D01*
X99130952Y-85481009D02*
X99464285Y-85481009D01*
X99464285Y-86004819D02*
X99464285Y-85004819D01*
X99464285Y-85004819D02*
X98988095Y-85004819D01*
X98607142Y-86004819D02*
X98607142Y-85338152D01*
X98607142Y-85004819D02*
X98654761Y-85052438D01*
X98654761Y-85052438D02*
X98607142Y-85100057D01*
X98607142Y-85100057D02*
X98559523Y-85052438D01*
X98559523Y-85052438D02*
X98607142Y-85004819D01*
X98607142Y-85004819D02*
X98607142Y-85100057D01*
X97702381Y-86004819D02*
X97702381Y-85004819D01*
X97702381Y-85957200D02*
X97797619Y-86004819D01*
X97797619Y-86004819D02*
X97988095Y-86004819D01*
X97988095Y-86004819D02*
X98083333Y-85957200D01*
X98083333Y-85957200D02*
X98130952Y-85909580D01*
X98130952Y-85909580D02*
X98178571Y-85814342D01*
X98178571Y-85814342D02*
X98178571Y-85528628D01*
X98178571Y-85528628D02*
X98130952Y-85433390D01*
X98130952Y-85433390D02*
X98083333Y-85385771D01*
X98083333Y-85385771D02*
X97988095Y-85338152D01*
X97988095Y-85338152D02*
X97797619Y-85338152D01*
X97797619Y-85338152D02*
X97702381Y-85385771D01*
X96797619Y-85338152D02*
X96797619Y-86004819D01*
X97226190Y-85338152D02*
X97226190Y-85861961D01*
X97226190Y-85861961D02*
X97178571Y-85957200D01*
X97178571Y-85957200D02*
X97083333Y-86004819D01*
X97083333Y-86004819D02*
X96940476Y-86004819D01*
X96940476Y-86004819D02*
X96845238Y-85957200D01*
X96845238Y-85957200D02*
X96797619Y-85909580D01*
X95892857Y-85957200D02*
X95988095Y-86004819D01*
X95988095Y-86004819D02*
X96178571Y-86004819D01*
X96178571Y-86004819D02*
X96273809Y-85957200D01*
X96273809Y-85957200D02*
X96321428Y-85909580D01*
X96321428Y-85909580D02*
X96369047Y-85814342D01*
X96369047Y-85814342D02*
X96369047Y-85528628D01*
X96369047Y-85528628D02*
X96321428Y-85433390D01*
X96321428Y-85433390D02*
X96273809Y-85385771D01*
X96273809Y-85385771D02*
X96178571Y-85338152D01*
X96178571Y-85338152D02*
X95988095Y-85338152D01*
X95988095Y-85338152D02*
X95892857Y-85385771D01*
X95464285Y-86004819D02*
X95464285Y-85338152D01*
X95464285Y-85004819D02*
X95511904Y-85052438D01*
X95511904Y-85052438D02*
X95464285Y-85100057D01*
X95464285Y-85100057D02*
X95416666Y-85052438D01*
X95416666Y-85052438D02*
X95464285Y-85004819D01*
X95464285Y-85004819D02*
X95464285Y-85100057D01*
X94559524Y-86004819D02*
X94559524Y-85481009D01*
X94559524Y-85481009D02*
X94607143Y-85385771D01*
X94607143Y-85385771D02*
X94702381Y-85338152D01*
X94702381Y-85338152D02*
X94892857Y-85338152D01*
X94892857Y-85338152D02*
X94988095Y-85385771D01*
X94559524Y-85957200D02*
X94654762Y-86004819D01*
X94654762Y-86004819D02*
X94892857Y-86004819D01*
X94892857Y-86004819D02*
X94988095Y-85957200D01*
X94988095Y-85957200D02*
X95035714Y-85861961D01*
X95035714Y-85861961D02*
X95035714Y-85766723D01*
X95035714Y-85766723D02*
X94988095Y-85671485D01*
X94988095Y-85671485D02*
X94892857Y-85623866D01*
X94892857Y-85623866D02*
X94654762Y-85623866D01*
X94654762Y-85623866D02*
X94559524Y-85576247D01*
X93940476Y-86004819D02*
X94035714Y-85957200D01*
X94035714Y-85957200D02*
X94083333Y-85861961D01*
X94083333Y-85861961D02*
X94083333Y-85004819D01*
D11*
X97553571Y-87948387D02*
X97803571Y-87948387D01*
X97803571Y-88341244D02*
X97803571Y-87591244D01*
X97803571Y-87591244D02*
X97446428Y-87591244D01*
X97160714Y-88341244D02*
X97160714Y-87591244D01*
X96803571Y-88341244D02*
X96803571Y-87591244D01*
X96803571Y-87591244D02*
X96625000Y-87591244D01*
X96625000Y-87591244D02*
X96517857Y-87626958D01*
X96517857Y-87626958D02*
X96446428Y-87698387D01*
X96446428Y-87698387D02*
X96410714Y-87769815D01*
X96410714Y-87769815D02*
X96375000Y-87912672D01*
X96375000Y-87912672D02*
X96375000Y-88019815D01*
X96375000Y-88019815D02*
X96410714Y-88162672D01*
X96410714Y-88162672D02*
X96446428Y-88234101D01*
X96446428Y-88234101D02*
X96517857Y-88305530D01*
X96517857Y-88305530D02*
X96625000Y-88341244D01*
X96625000Y-88341244D02*
X96803571Y-88341244D01*
X95660714Y-88341244D02*
X96089285Y-88341244D01*
X95875000Y-88341244D02*
X95875000Y-87591244D01*
X95875000Y-87591244D02*
X95946428Y-87698387D01*
X95946428Y-87698387D02*
X96017857Y-87769815D01*
X96017857Y-87769815D02*
X96089285Y-87805530D01*
D10*
X60954819Y-69857143D02*
X60954819Y-70428571D01*
X61954819Y-70142857D02*
X60954819Y-70142857D01*
X61954819Y-70761905D02*
X60954819Y-70761905D01*
X60954819Y-70761905D02*
X60954819Y-71142857D01*
X60954819Y-71142857D02*
X61002438Y-71238095D01*
X61002438Y-71238095D02*
X61050057Y-71285714D01*
X61050057Y-71285714D02*
X61145295Y-71333333D01*
X61145295Y-71333333D02*
X61288152Y-71333333D01*
X61288152Y-71333333D02*
X61383390Y-71285714D01*
X61383390Y-71285714D02*
X61431009Y-71238095D01*
X61431009Y-71238095D02*
X61478628Y-71142857D01*
X61478628Y-71142857D02*
X61478628Y-70761905D01*
X61954819Y-71761905D02*
X60954819Y-71761905D01*
X60954819Y-71761905D02*
X60954819Y-72000000D01*
X60954819Y-72000000D02*
X61002438Y-72142857D01*
X61002438Y-72142857D02*
X61097676Y-72238095D01*
X61097676Y-72238095D02*
X61192914Y-72285714D01*
X61192914Y-72285714D02*
X61383390Y-72333333D01*
X61383390Y-72333333D02*
X61526247Y-72333333D01*
X61526247Y-72333333D02*
X61716723Y-72285714D01*
X61716723Y-72285714D02*
X61811961Y-72238095D01*
X61811961Y-72238095D02*
X61907200Y-72142857D01*
X61907200Y-72142857D02*
X61954819Y-72000000D01*
X61954819Y-72000000D02*
X61954819Y-71761905D01*
X61288152Y-73190476D02*
X61954819Y-73190476D01*
X60907200Y-72952381D02*
X61621485Y-72714286D01*
X61621485Y-72714286D02*
X61621485Y-73333333D01*
X61431009Y-73714286D02*
X61431009Y-74047619D01*
X61954819Y-74190476D02*
X61954819Y-73714286D01*
X61954819Y-73714286D02*
X60954819Y-73714286D01*
X60954819Y-73714286D02*
X60954819Y-74190476D01*
X61954819Y-75142857D02*
X61954819Y-74571429D01*
X61954819Y-74857143D02*
X60954819Y-74857143D01*
X60954819Y-74857143D02*
X61097676Y-74761905D01*
X61097676Y-74761905D02*
X61192914Y-74666667D01*
X61192914Y-74666667D02*
X61240533Y-74571429D01*
X61431009Y-75904762D02*
X61478628Y-76047619D01*
X61478628Y-76047619D02*
X61526247Y-76095238D01*
X61526247Y-76095238D02*
X61621485Y-76142857D01*
X61621485Y-76142857D02*
X61764342Y-76142857D01*
X61764342Y-76142857D02*
X61859580Y-76095238D01*
X61859580Y-76095238D02*
X61907200Y-76047619D01*
X61907200Y-76047619D02*
X61954819Y-75952381D01*
X61954819Y-75952381D02*
X61954819Y-75571429D01*
X61954819Y-75571429D02*
X60954819Y-75571429D01*
X60954819Y-75571429D02*
X60954819Y-75904762D01*
X60954819Y-75904762D02*
X61002438Y-76000000D01*
X61002438Y-76000000D02*
X61050057Y-76047619D01*
X61050057Y-76047619D02*
X61145295Y-76095238D01*
X61145295Y-76095238D02*
X61240533Y-76095238D01*
X61240533Y-76095238D02*
X61335771Y-76047619D01*
X61335771Y-76047619D02*
X61383390Y-76000000D01*
X61383390Y-76000000D02*
X61431009Y-75904762D01*
X61431009Y-75904762D02*
X61431009Y-75571429D01*
X60954819Y-76761905D02*
X60954819Y-76857143D01*
X60954819Y-76857143D02*
X61002438Y-76952381D01*
X61002438Y-76952381D02*
X61050057Y-77000000D01*
X61050057Y-77000000D02*
X61145295Y-77047619D01*
X61145295Y-77047619D02*
X61335771Y-77095238D01*
X61335771Y-77095238D02*
X61573866Y-77095238D01*
X61573866Y-77095238D02*
X61764342Y-77047619D01*
X61764342Y-77047619D02*
X61859580Y-77000000D01*
X61859580Y-77000000D02*
X61907200Y-76952381D01*
X61907200Y-76952381D02*
X61954819Y-76857143D01*
X61954819Y-76857143D02*
X61954819Y-76761905D01*
X61954819Y-76761905D02*
X61907200Y-76666667D01*
X61907200Y-76666667D02*
X61859580Y-76619048D01*
X61859580Y-76619048D02*
X61764342Y-76571429D01*
X61764342Y-76571429D02*
X61573866Y-76523810D01*
X61573866Y-76523810D02*
X61335771Y-76523810D01*
X61335771Y-76523810D02*
X61145295Y-76571429D01*
X61145295Y-76571429D02*
X61050057Y-76619048D01*
X61050057Y-76619048D02*
X61002438Y-76666667D01*
X61002438Y-76666667D02*
X60954819Y-76761905D01*
X60954819Y-77952381D02*
X60954819Y-77761905D01*
X60954819Y-77761905D02*
X61002438Y-77666667D01*
X61002438Y-77666667D02*
X61050057Y-77619048D01*
X61050057Y-77619048D02*
X61192914Y-77523810D01*
X61192914Y-77523810D02*
X61383390Y-77476191D01*
X61383390Y-77476191D02*
X61764342Y-77476191D01*
X61764342Y-77476191D02*
X61859580Y-77523810D01*
X61859580Y-77523810D02*
X61907200Y-77571429D01*
X61907200Y-77571429D02*
X61954819Y-77666667D01*
X61954819Y-77666667D02*
X61954819Y-77857143D01*
X61954819Y-77857143D02*
X61907200Y-77952381D01*
X61907200Y-77952381D02*
X61859580Y-78000000D01*
X61859580Y-78000000D02*
X61764342Y-78047619D01*
X61764342Y-78047619D02*
X61526247Y-78047619D01*
X61526247Y-78047619D02*
X61431009Y-78000000D01*
X61431009Y-78000000D02*
X61383390Y-77952381D01*
X61383390Y-77952381D02*
X61335771Y-77857143D01*
X61335771Y-77857143D02*
X61335771Y-77666667D01*
X61335771Y-77666667D02*
X61383390Y-77571429D01*
X61383390Y-77571429D02*
X61431009Y-77523810D01*
X61431009Y-77523810D02*
X61526247Y-77476191D01*
X61954819Y-78476191D02*
X60954819Y-78476191D01*
X60954819Y-78476191D02*
X60954819Y-78714286D01*
X60954819Y-78714286D02*
X61002438Y-78857143D01*
X61002438Y-78857143D02*
X61097676Y-78952381D01*
X61097676Y-78952381D02*
X61192914Y-79000000D01*
X61192914Y-79000000D02*
X61383390Y-79047619D01*
X61383390Y-79047619D02*
X61526247Y-79047619D01*
X61526247Y-79047619D02*
X61716723Y-79000000D01*
X61716723Y-79000000D02*
X61811961Y-78952381D01*
X61811961Y-78952381D02*
X61907200Y-78857143D01*
X61907200Y-78857143D02*
X61954819Y-78714286D01*
X61954819Y-78714286D02*
X61954819Y-78476191D01*
X61859580Y-80047619D02*
X61907200Y-80000000D01*
X61907200Y-80000000D02*
X61954819Y-79857143D01*
X61954819Y-79857143D02*
X61954819Y-79761905D01*
X61954819Y-79761905D02*
X61907200Y-79619048D01*
X61907200Y-79619048D02*
X61811961Y-79523810D01*
X61811961Y-79523810D02*
X61716723Y-79476191D01*
X61716723Y-79476191D02*
X61526247Y-79428572D01*
X61526247Y-79428572D02*
X61383390Y-79428572D01*
X61383390Y-79428572D02*
X61192914Y-79476191D01*
X61192914Y-79476191D02*
X61097676Y-79523810D01*
X61097676Y-79523810D02*
X61002438Y-79619048D01*
X61002438Y-79619048D02*
X60954819Y-79761905D01*
X60954819Y-79761905D02*
X60954819Y-79857143D01*
X60954819Y-79857143D02*
X61002438Y-80000000D01*
X61002438Y-80000000D02*
X61050057Y-80047619D01*
X61954819Y-80476191D02*
X60954819Y-80476191D01*
X61954819Y-81047619D02*
X61383390Y-80619048D01*
X60954819Y-81047619D02*
X61526247Y-80476191D01*
X61954819Y-82047619D02*
X61478628Y-81714286D01*
X61954819Y-81476191D02*
X60954819Y-81476191D01*
X60954819Y-81476191D02*
X60954819Y-81857143D01*
X60954819Y-81857143D02*
X61002438Y-81952381D01*
X61002438Y-81952381D02*
X61050057Y-82000000D01*
X61050057Y-82000000D02*
X61145295Y-82047619D01*
X61145295Y-82047619D02*
X61288152Y-82047619D01*
X61288152Y-82047619D02*
X61383390Y-82000000D01*
X61383390Y-82000000D02*
X61431009Y-81952381D01*
X61431009Y-81952381D02*
X61478628Y-81857143D01*
X61478628Y-81857143D02*
X61478628Y-81476191D01*
X59951519Y-75669800D02*
X60189614Y-75669800D01*
X60094376Y-75431705D02*
X60189614Y-75669800D01*
X60189614Y-75669800D02*
X60094376Y-75907895D01*
X60380090Y-75526943D02*
X60189614Y-75669800D01*
X60189614Y-75669800D02*
X60380090Y-75812657D01*
X60954819Y-75238095D02*
X61764342Y-75238095D01*
X61764342Y-75238095D02*
X61859580Y-75285714D01*
X61859580Y-75285714D02*
X61907200Y-75333333D01*
X61907200Y-75333333D02*
X61954819Y-75428571D01*
X61954819Y-75428571D02*
X61954819Y-75619047D01*
X61954819Y-75619047D02*
X61907200Y-75714285D01*
X61907200Y-75714285D02*
X61859580Y-75761904D01*
X61859580Y-75761904D02*
X61764342Y-75809523D01*
X61764342Y-75809523D02*
X60954819Y-75809523D01*
X60954819Y-76761904D02*
X60954819Y-76285714D01*
X60954819Y-76285714D02*
X61431009Y-76238095D01*
X61431009Y-76238095D02*
X61383390Y-76285714D01*
X61383390Y-76285714D02*
X61335771Y-76380952D01*
X61335771Y-76380952D02*
X61335771Y-76619047D01*
X61335771Y-76619047D02*
X61383390Y-76714285D01*
X61383390Y-76714285D02*
X61431009Y-76761904D01*
X61431009Y-76761904D02*
X61526247Y-76809523D01*
X61526247Y-76809523D02*
X61764342Y-76809523D01*
X61764342Y-76809523D02*
X61859580Y-76761904D01*
X61859580Y-76761904D02*
X61907200Y-76714285D01*
X61907200Y-76714285D02*
X61954819Y-76619047D01*
X61954819Y-76619047D02*
X61954819Y-76380952D01*
X61954819Y-76380952D02*
X61907200Y-76285714D01*
X61907200Y-76285714D02*
X61859580Y-76238095D01*
X59951519Y-75669800D02*
X60189614Y-75669800D01*
X60094376Y-75431705D02*
X60189614Y-75669800D01*
X60189614Y-75669800D02*
X60094376Y-75907895D01*
X60380090Y-75526943D02*
X60189614Y-75669800D01*
X60189614Y-75669800D02*
X60380090Y-75812657D01*
D12*
%TO.C,U9*%
X60420500Y-102925450D02*
X60420500Y-104347850D01*
X60420500Y-104347850D02*
X62579500Y-104347850D01*
X60697600Y-102430150D02*
X60697600Y-102925450D01*
X60697600Y-102925450D02*
X61002400Y-102925450D01*
X60697600Y-104347850D02*
X60697600Y-104843150D01*
X60697600Y-104843150D02*
X61002400Y-104843150D01*
X61002400Y-102430150D02*
X60697600Y-102430150D01*
X61002400Y-102925450D02*
X61002400Y-102430150D01*
X61002400Y-104347850D02*
X60697600Y-104347850D01*
X61002400Y-104843150D02*
X61002400Y-104347850D01*
X61347600Y-102430150D02*
X61347600Y-102925450D01*
X61347600Y-102925450D02*
X61652400Y-102925450D01*
X61347600Y-104347850D02*
X61347600Y-104843150D01*
X61347600Y-104843150D02*
X61652400Y-104843150D01*
X61652400Y-102430150D02*
X61347600Y-102430150D01*
X61652400Y-102925450D02*
X61652400Y-102430150D01*
X61652400Y-104347850D02*
X61347600Y-104347850D01*
X61652400Y-104843150D02*
X61652400Y-104347850D01*
X61997600Y-102430150D02*
X61997600Y-102925450D01*
X61997600Y-102925450D02*
X62302400Y-102925450D01*
X61997600Y-104347850D02*
X61997600Y-104843150D01*
X61997600Y-104843150D02*
X62302400Y-104843150D01*
X62302400Y-102430150D02*
X61997600Y-102430150D01*
X62302400Y-102925450D02*
X62302400Y-102430150D01*
X62302400Y-104347850D02*
X61997600Y-104347850D01*
X62302400Y-104843150D02*
X62302400Y-104347850D01*
X62579500Y-102925450D02*
X60420500Y-102925450D01*
X62579500Y-104347850D02*
X62579500Y-102925450D01*
X62579500Y-103941450D02*
G75*
G02*
X62579500Y-103331850I0J304800D01*
G01*
%TO.C,U2*%
X60420500Y-83152150D02*
X60420500Y-84574550D01*
X60420500Y-84574550D02*
X62579500Y-84574550D01*
X60697600Y-82656850D02*
X60697600Y-83152150D01*
X60697600Y-83152150D02*
X61002400Y-83152150D01*
X60697600Y-84574550D02*
X60697600Y-85069850D01*
X60697600Y-85069850D02*
X61002400Y-85069850D01*
X61002400Y-82656850D02*
X60697600Y-82656850D01*
X61002400Y-83152150D02*
X61002400Y-82656850D01*
X61002400Y-84574550D02*
X60697600Y-84574550D01*
X61002400Y-85069850D02*
X61002400Y-84574550D01*
X61347600Y-82656850D02*
X61347600Y-83152150D01*
X61347600Y-83152150D02*
X61652400Y-83152150D01*
X61347600Y-84574550D02*
X61347600Y-85069850D01*
X61347600Y-85069850D02*
X61652400Y-85069850D01*
X61652400Y-82656850D02*
X61347600Y-82656850D01*
X61652400Y-83152150D02*
X61652400Y-82656850D01*
X61652400Y-84574550D02*
X61347600Y-84574550D01*
X61652400Y-85069850D02*
X61652400Y-84574550D01*
X61997600Y-82656850D02*
X61997600Y-83152150D01*
X61997600Y-83152150D02*
X62302400Y-83152150D01*
X61997600Y-84574550D02*
X61997600Y-85069850D01*
X61997600Y-85069850D02*
X62302400Y-85069850D01*
X62302400Y-82656850D02*
X61997600Y-82656850D01*
X62302400Y-83152150D02*
X62302400Y-82656850D01*
X62302400Y-84574550D02*
X61997600Y-84574550D01*
X62302400Y-85069850D02*
X62302400Y-84574550D01*
X62579500Y-83152150D02*
X60420500Y-83152150D01*
X62579500Y-84574550D02*
X62579500Y-83152150D01*
X62579500Y-84168150D02*
G75*
G02*
X62579500Y-83558550I0J304800D01*
G01*
%TO.C,U10*%
X60420500Y-93288800D02*
X60420500Y-94711200D01*
X60420500Y-94711200D02*
X62579500Y-94711200D01*
X60697600Y-92793500D02*
X60697600Y-93288800D01*
X60697600Y-93288800D02*
X61002400Y-93288800D01*
X60697600Y-94711200D02*
X60697600Y-95206500D01*
X60697600Y-95206500D02*
X61002400Y-95206500D01*
X61002400Y-92793500D02*
X60697600Y-92793500D01*
X61002400Y-93288800D02*
X61002400Y-92793500D01*
X61002400Y-94711200D02*
X60697600Y-94711200D01*
X61002400Y-95206500D02*
X61002400Y-94711200D01*
X61347600Y-92793500D02*
X61347600Y-93288800D01*
X61347600Y-93288800D02*
X61652400Y-93288800D01*
X61347600Y-94711200D02*
X61347600Y-95206500D01*
X61347600Y-95206500D02*
X61652400Y-95206500D01*
X61652400Y-92793500D02*
X61347600Y-92793500D01*
X61652400Y-93288800D02*
X61652400Y-92793500D01*
X61652400Y-94711200D02*
X61347600Y-94711200D01*
X61652400Y-95206500D02*
X61652400Y-94711200D01*
X61997600Y-92793500D02*
X61997600Y-93288800D01*
X61997600Y-93288800D02*
X62302400Y-93288800D01*
X61997600Y-94711200D02*
X61997600Y-95206500D01*
X61997600Y-95206500D02*
X62302400Y-95206500D01*
X62302400Y-92793500D02*
X61997600Y-92793500D01*
X62302400Y-93288800D02*
X62302400Y-92793500D01*
X62302400Y-94711200D02*
X61997600Y-94711200D01*
X62302400Y-95206500D02*
X62302400Y-94711200D01*
X62579500Y-93288800D02*
X60420500Y-93288800D01*
X62579500Y-94711200D02*
X62579500Y-93288800D01*
X62579500Y-94304800D02*
G75*
G02*
X62579500Y-93695200I0J304800D01*
G01*
%TO.C,U4*%
X60420500Y-98288800D02*
X60420500Y-99711200D01*
X60420500Y-99711200D02*
X62579500Y-99711200D01*
X60697600Y-97793500D02*
X60697600Y-98288800D01*
X60697600Y-98288800D02*
X61002400Y-98288800D01*
X60697600Y-99711200D02*
X60697600Y-100206500D01*
X60697600Y-100206500D02*
X61002400Y-100206500D01*
X61002400Y-97793500D02*
X60697600Y-97793500D01*
X61002400Y-98288800D02*
X61002400Y-97793500D01*
X61002400Y-99711200D02*
X60697600Y-99711200D01*
X61002400Y-100206500D02*
X61002400Y-99711200D01*
X61347600Y-97793500D02*
X61347600Y-98288800D01*
X61347600Y-98288800D02*
X61652400Y-98288800D01*
X61347600Y-99711200D02*
X61347600Y-100206500D01*
X61347600Y-100206500D02*
X61652400Y-100206500D01*
X61652400Y-97793500D02*
X61347600Y-97793500D01*
X61652400Y-98288800D02*
X61652400Y-97793500D01*
X61652400Y-99711200D02*
X61347600Y-99711200D01*
X61652400Y-100206500D02*
X61652400Y-99711200D01*
X61997600Y-97793500D02*
X61997600Y-98288800D01*
X61997600Y-98288800D02*
X62302400Y-98288800D01*
X61997600Y-99711200D02*
X61997600Y-100206500D01*
X61997600Y-100206500D02*
X62302400Y-100206500D01*
X62302400Y-97793500D02*
X61997600Y-97793500D01*
X62302400Y-98288800D02*
X62302400Y-97793500D01*
X62302400Y-99711200D02*
X61997600Y-99711200D01*
X62302400Y-100206500D02*
X62302400Y-99711200D01*
X62579500Y-98288800D02*
X60420500Y-98288800D01*
X62579500Y-99711200D02*
X62579500Y-98288800D01*
X62579500Y-99304800D02*
G75*
G02*
X62579500Y-98695200I0J304800D01*
G01*
%TO.C,U3*%
X60420500Y-88288800D02*
X60420500Y-89711200D01*
X60420500Y-89711200D02*
X62579500Y-89711200D01*
X60697600Y-87793500D02*
X60697600Y-88288800D01*
X60697600Y-88288800D02*
X61002400Y-88288800D01*
X60697600Y-89711200D02*
X60697600Y-90206500D01*
X60697600Y-90206500D02*
X61002400Y-90206500D01*
X61002400Y-87793500D02*
X60697600Y-87793500D01*
X61002400Y-88288800D02*
X61002400Y-87793500D01*
X61002400Y-89711200D02*
X60697600Y-89711200D01*
X61002400Y-90206500D02*
X61002400Y-89711200D01*
X61347600Y-87793500D02*
X61347600Y-88288800D01*
X61347600Y-88288800D02*
X61652400Y-88288800D01*
X61347600Y-89711200D02*
X61347600Y-90206500D01*
X61347600Y-90206500D02*
X61652400Y-90206500D01*
X61652400Y-87793500D02*
X61347600Y-87793500D01*
X61652400Y-88288800D02*
X61652400Y-87793500D01*
X61652400Y-89711200D02*
X61347600Y-89711200D01*
X61652400Y-90206500D02*
X61652400Y-89711200D01*
X61997600Y-87793500D02*
X61997600Y-88288800D01*
X61997600Y-88288800D02*
X62302400Y-88288800D01*
X61997600Y-89711200D02*
X61997600Y-90206500D01*
X61997600Y-90206500D02*
X62302400Y-90206500D01*
X62302400Y-87793500D02*
X61997600Y-87793500D01*
X62302400Y-88288800D02*
X62302400Y-87793500D01*
X62302400Y-89711200D02*
X61997600Y-89711200D01*
X62302400Y-90206500D02*
X62302400Y-89711200D01*
X62579500Y-88288800D02*
X60420500Y-88288800D01*
X62579500Y-89711200D02*
X62579500Y-88288800D01*
X62579500Y-89304800D02*
G75*
G02*
X62579500Y-88695200I0J304800D01*
G01*
D13*
%TO.C,FID1*%
X98250000Y-88000000D02*
G75*
G02*
X95250000Y-88000000I-1500000J0D01*
G01*
X95250000Y-88000000D02*
G75*
G02*
X98250000Y-88000000I1500000J0D01*
G01*
D12*
%TO.C,U5*%
X60420500Y-75288800D02*
X60420500Y-76711200D01*
X60420500Y-76711200D02*
X62579500Y-76711200D01*
X60697600Y-74793500D02*
X60697600Y-75288800D01*
X60697600Y-75288800D02*
X61002400Y-75288800D01*
X60697600Y-76711200D02*
X60697600Y-77206500D01*
X60697600Y-77206500D02*
X61002400Y-77206500D01*
X61002400Y-74793500D02*
X60697600Y-74793500D01*
X61002400Y-75288800D02*
X61002400Y-74793500D01*
X61002400Y-76711200D02*
X60697600Y-76711200D01*
X61002400Y-77206500D02*
X61002400Y-76711200D01*
X61347600Y-74793500D02*
X61347600Y-75288800D01*
X61347600Y-75288800D02*
X61652400Y-75288800D01*
X61347600Y-76711200D02*
X61347600Y-77206500D01*
X61347600Y-77206500D02*
X61652400Y-77206500D01*
X61652400Y-74793500D02*
X61347600Y-74793500D01*
X61652400Y-75288800D02*
X61652400Y-74793500D01*
X61652400Y-76711200D02*
X61347600Y-76711200D01*
X61652400Y-77206500D02*
X61652400Y-76711200D01*
X61997600Y-74793500D02*
X61997600Y-75288800D01*
X61997600Y-75288800D02*
X62302400Y-75288800D01*
X61997600Y-76711200D02*
X61997600Y-77206500D01*
X61997600Y-77206500D02*
X62302400Y-77206500D01*
X62302400Y-74793500D02*
X61997600Y-74793500D01*
X62302400Y-75288800D02*
X62302400Y-74793500D01*
X62302400Y-76711200D02*
X61997600Y-76711200D01*
X62302400Y-77206500D02*
X62302400Y-76711200D01*
X62579500Y-75288800D02*
X60420500Y-75288800D01*
X62579500Y-76711200D02*
X62579500Y-75288800D01*
X60420500Y-75695200D02*
G75*
G02*
X60420500Y-76304800I0J-304800D01*
G01*
%TD*%
D14*
X50601596Y-72042903D02*
X122375000Y-72042903D01*
X122375000Y-112556276D01*
X50601596Y-112556276D01*
X50601596Y-72042903D01*
M02*
