%TF.GenerationSoftware,KiCad,Pcbnew,9.0.5-1.fc42*%
%TF.CreationDate,2025-11-21T18:00:37+01:00*%
%TF.ProjectId,bioamplifier,62696f61-6d70-46c6-9966-6965722e6b69,rev?*%
%TF.SameCoordinates,Original*%
%TF.FileFunction,Copper,L2,Inr*%
%TF.FilePolarity,Positive*%
%FSLAX46Y46*%
G04 Gerber Fmt 4.6, Leading zero omitted, Abs format (unit mm)*
G04 Created by KiCad (PCBNEW 9.0.5-1.fc42) date 2025-11-21 18:00:37*
%MOMM*%
%LPD*%
G01*
G04 APERTURE LIST*
%TA.AperFunction,ComponentPad*%
%ADD10R,1.700000X1.700000*%
%TD*%
%TA.AperFunction,ComponentPad*%
%ADD11C,1.700000*%
%TD*%
%TA.AperFunction,ComponentPad*%
%ADD12O,1.700000X1.700000*%
%TD*%
%TA.AperFunction,ViaPad*%
%ADD13C,0.800000*%
%TD*%
%TA.AperFunction,Profile*%
%ADD14C,0.100000*%
%TD*%
G04 APERTURE END LIST*
D10*
%TO.N,GNDA*%
%TO.C,J4*%
X77780000Y-76370000D03*
D11*
%TO.N,BIASINV*%
X77780000Y-78910000D03*
%TD*%
D10*
%TO.N,GNDD*%
%TO.C,J5*%
X112540000Y-97000000D03*
D11*
%TO.N,/DAISY-IN*%
X110000000Y-97000000D03*
%TD*%
D10*
%TO.N,Net-(J3-Pin_1)*%
%TO.C,J3*%
X110000000Y-77300000D03*
D12*
%TO.N,Net-(J3-Pin_2)*%
X110000000Y-79840000D03*
%TO.N,Net-(J3-Pin_3)*%
X110000000Y-82380000D03*
%TO.N,Net-(J3-Pin_4)*%
X110000000Y-84920000D03*
%TO.N,Net-(J3-Pin_5)*%
X110000000Y-87460000D03*
%TO.N,Net-(J3-Pin_6)*%
X110000000Y-90000000D03*
%TO.N,GNDD*%
X110000000Y-92540000D03*
%TD*%
D10*
%TO.N,AVSS*%
%TO.C,J2*%
X57340000Y-105260000D03*
D12*
X54800000Y-105260000D03*
%TO.N,/Electrodes input/REF1*%
X57340000Y-102720000D03*
%TO.N,/Electrodes input/REF2*%
X54800000Y-102720000D03*
%TO.N,/Electrodes input/P1*%
X57340000Y-100180000D03*
%TO.N,/Electrodes input/N1*%
X54800000Y-100180000D03*
%TO.N,/Electrodes input/P2*%
X57340000Y-97640000D03*
%TO.N,/Electrodes input/N2*%
X54800000Y-97640000D03*
%TO.N,/Electrodes input/P3*%
X57340000Y-95100000D03*
%TO.N,/Electrodes input/N3*%
X54800000Y-95100000D03*
%TO.N,/Electrodes input/P4*%
X57340000Y-92560000D03*
%TO.N,/Electrodes input/N4*%
X54800000Y-92560000D03*
%TO.N,/Electrodes input/P5*%
X57340000Y-90020000D03*
%TO.N,/Electrodes input/N5*%
X54800000Y-90020000D03*
%TO.N,/Electrodes input/P6*%
X57340000Y-87480000D03*
%TO.N,/Electrodes input/N6*%
X54800000Y-87480000D03*
%TO.N,/Electrodes input/P7*%
X57340000Y-84940000D03*
%TO.N,/Electrodes input/N7*%
X54800000Y-84940000D03*
%TO.N,/Electrodes input/P8*%
X57340000Y-82400000D03*
%TO.N,/Electrodes input/N8*%
X54800000Y-82400000D03*
%TO.N,/Electrodes input/BIAS*%
X57340000Y-79860000D03*
X54800000Y-79860000D03*
%TO.N,GNDA*%
X57340000Y-77320000D03*
X54800000Y-77320000D03*
%TO.N,AVDD*%
X57340000Y-74780000D03*
X54800000Y-74780000D03*
%TD*%
D10*
%TO.N,3.3V_UNREG*%
%TO.C,J1*%
X109620000Y-102500000D03*
D12*
%TO.N,Net-(J1-Pin_2)*%
X107080000Y-102500000D03*
%TO.N,Net-(J1-Pin_3)*%
X104540000Y-102500000D03*
%TO.N,Net-(J1-Pin_4)*%
X102000000Y-102500000D03*
%TO.N,Net-(J1-Pin_5)*%
X99460000Y-102500000D03*
%TO.N,Net-(J1-Pin_6)*%
X96920000Y-102500000D03*
%TO.N,Net-(J1-Pin_7)*%
X94380000Y-102500000D03*
%TD*%
D13*
%TO.N,AVDD*%
X83000000Y-91000000D03*
X91250000Y-94500000D03*
%TO.N,GNDD*%
X85750000Y-84500000D03*
X91750000Y-79500000D03*
X116000000Y-97000000D03*
X88475500Y-90216800D03*
X113362500Y-104500000D03*
X93000000Y-98500000D03*
X117862500Y-111000000D03*
%TO.N,GNDA*%
X73250000Y-75000000D03*
X69250000Y-95000000D03*
X69250000Y-91500000D03*
X69270000Y-86446852D03*
X69250000Y-101750000D03*
X69249825Y-98499825D03*
X69270000Y-84946852D03*
X111000000Y-111000000D03*
X69250000Y-93500000D03*
X69270000Y-79946852D03*
X69270000Y-81696852D03*
X81750000Y-84500000D03*
X87274662Y-96242371D03*
X81750000Y-107250000D03*
X69250000Y-103500000D03*
X69270000Y-78446852D03*
X82250000Y-108500000D03*
X69250000Y-96750000D03*
X74500000Y-75000000D03*
X109500000Y-111000000D03*
X101500000Y-105500000D03*
X92000000Y-109587500D03*
X111500000Y-110000000D03*
X69270000Y-83196852D03*
X69250000Y-100250000D03*
X66439122Y-108943294D03*
X63800000Y-74800000D03*
X63250000Y-79000000D03*
X81000000Y-108500000D03*
X69270000Y-89696852D03*
X74000000Y-76000000D03*
X66500000Y-106500000D03*
X69270000Y-88196852D03*
%TO.N,-2.5V_UNREG*%
X88500000Y-105587500D03*
%TO.N,AVSS*%
X78500000Y-104000000D03*
X88250000Y-100000000D03*
X87750000Y-77500000D03*
X82500000Y-77500000D03*
X77500000Y-106500000D03*
X82000000Y-100500000D03*
%TO.N,Net-(U11-CAP+)*%
X86670000Y-111930000D03*
X87725000Y-106587500D03*
%TO.N,DVDD*%
X114725000Y-100275000D03*
X85500000Y-101500000D03*
X86500000Y-91000000D03*
X90000000Y-110000000D03*
X85000000Y-106500000D03*
%TD*%
D14*
X50601596Y-72042903D02*
X122375000Y-72042903D01*
X122375000Y-112556276D01*
X50601596Y-112556276D01*
X50601596Y-72042903D01*
M02*
