M48
; DRILL file {KiCad 9.0.2-2.fc42} date 2025-06-23T11:30:24+0200
; FORMAT={-:-/ absolute / inch / decimal}
; #@! TF.CreationDate,2025-06-23T11:30:24+02:00
; #@! TF.GenerationSoftware,Kicad,Pcbnew,9.0.2-2.fc42
; #@! TF.FileFunction,Plated,1,4,PTH
FMAT,2
INCH
; #@! TA.AperFunction,Plated,PTH,ViaDrill
T1C0.0157
; #@! TA.AperFunction,Plated,PTH,ComponentDrill
T2C0.0394
%
G90
G05
T1
X2.5Y-3.2411
X2.5Y-3.4442
X2.5Y-3.6473
X2.5Y-3.8504
X2.5394Y-3.4757
X2.5394Y-3.6788
X2.5394Y-3.8819
X2.5418Y-3.2701
X2.5787Y-3.3063
X2.5787Y-3.5072
X2.5787Y-3.7103
X2.5787Y-3.9134
X2.6181Y-3.3356
X2.6181Y-3.7418
X2.6181Y-3.9449
X2.6204Y-3.541
X3.0512Y-4.1929
X3.0906Y-4.0945
X3.1102Y-3.0315
X3.2283Y-3.9567
X3.2333Y-3.0659
X3.2677Y-3.5827
X3.3071Y-4.2948
X3.3071Y-4.3342
X3.3465Y-4.1929
X3.3661Y-3.9961
X3.376Y-3.3268
X3.4055Y-3.5827
X3.436Y-3.7891
X3.4537Y-4.1964
X3.4547Y-3.0512
X3.4744Y-3.937
X3.4833Y-3.5518
X3.4843Y-4.0157
X3.4843Y-4.157
X3.5433Y-4.3307
X3.5925Y-3.7205
X3.6122Y-3.1299
X3.622Y-4.3145
X3.6614Y-3.878
X3.9961Y-4.1535
X4.311Y-4.252
X4.4291Y-3.8976
X4.4631Y-4.1142
X4.6403Y-4.3701
T2
X2.1575Y-2.9441
X2.1575Y-3.0441
X2.1575Y-3.1441
X2.1575Y-3.2441
X2.1575Y-3.3441
X2.1575Y-3.4441
X2.1575Y-3.5441
X2.1575Y-3.6441
X2.1575Y-3.7441
X2.1575Y-3.8441
X2.1575Y-3.9441
X2.1575Y-4.0441
X2.1575Y-4.1441
X2.2575Y-2.9441
X2.2575Y-3.0441
X2.2575Y-3.1441
X2.2575Y-3.2441
X2.2575Y-3.3441
X2.2575Y-3.4441
X2.2575Y-3.5441
X2.2575Y-3.6441
X2.2575Y-3.7441
X2.2575Y-3.8441
X2.2575Y-3.9441
X2.2575Y-4.0441
X2.2575Y-4.1441
X3.7157Y-4.0354
X3.8157Y-4.0354
X3.9157Y-4.0354
X4.0157Y-4.0354
X4.1157Y-4.0354
X4.1732Y-3.122
X4.1732Y-3.222
X4.1732Y-3.322
X4.1732Y-3.422
X4.1732Y-3.522
X4.1732Y-3.622
X4.1732Y-3.722
X4.2157Y-4.0354
X4.3157Y-4.0354
M30
