%TF.GenerationSoftware,KiCad,Pcbnew,9.0.2-2.fc42*%
%TF.CreationDate,2025-06-23T11:30:09+02:00*%
%TF.ProjectId,bioamplifier,62696f61-6d70-46c6-9966-6965722e6b69,rev?*%
%TF.SameCoordinates,Original*%
%TF.FileFunction,Paste,Bot*%
%TF.FilePolarity,Positive*%
%FSLAX46Y46*%
G04 Gerber Fmt 4.6, Leading zero omitted, Abs format (unit mm)*
G04 Created by KiCad (PCBNEW 9.0.2-2.fc42) date 2025-06-23 11:30:09*
%MOMM*%
%LPD*%
G01*
G04 APERTURE LIST*
G04 Aperture macros list*
%AMRoundRect*
0 Rectangle with rounded corners*
0 $1 Rounding radius*
0 $2 $3 $4 $5 $6 $7 $8 $9 X,Y pos of 4 corners*
0 Add a 4 corners polygon primitive as box body*
4,1,4,$2,$3,$4,$5,$6,$7,$8,$9,$2,$3,0*
0 Add four circle primitives for the rounded corners*
1,1,$1+$1,$2,$3*
1,1,$1+$1,$4,$5*
1,1,$1+$1,$6,$7*
1,1,$1+$1,$8,$9*
0 Add four rect primitives between the rounded corners*
20,1,$1+$1,$2,$3,$4,$5,0*
20,1,$1+$1,$4,$5,$6,$7,0*
20,1,$1+$1,$6,$7,$8,$9,0*
20,1,$1+$1,$8,$9,$2,$3,0*%
G04 Aperture macros list end*
%ADD10RoundRect,0.140000X-0.170000X0.140000X-0.170000X-0.140000X0.170000X-0.140000X0.170000X0.140000X0*%
%ADD11RoundRect,0.225000X-0.250000X0.225000X-0.250000X-0.225000X0.250000X-0.225000X0.250000X0.225000X0*%
%ADD12R,0.355600X0.850900*%
%TA.AperFunction,Profile*%
%ADD13C,0.100000*%
%TD*%
G04 APERTURE END LIST*
D10*
%TO.C,C17*%
X69000000Y-83770000D03*
X69000000Y-84730000D03*
%TD*%
%TO.C,C16*%
X67750000Y-88040000D03*
X67750000Y-89000000D03*
%TD*%
D11*
%TO.C,C45*%
X86862500Y-108312500D03*
X86862500Y-109862500D03*
%TD*%
D10*
%TO.C,C32*%
X66500000Y-82040000D03*
X66500000Y-83000000D03*
%TD*%
%TO.C,C13*%
X69000000Y-94020000D03*
X69000000Y-94980000D03*
%TD*%
D12*
%TO.C,U9*%
X62149999Y-104773300D03*
X61500000Y-104773300D03*
X60850001Y-104773300D03*
X60850001Y-102500000D03*
X61500000Y-102500000D03*
X62149999Y-102500000D03*
%TD*%
D10*
%TO.C,C33*%
X65250000Y-81270000D03*
X65250000Y-82230000D03*
%TD*%
%TO.C,C36*%
X65250000Y-96520000D03*
X65250000Y-97480000D03*
%TD*%
%TO.C,C35*%
X65250000Y-91520000D03*
X65250000Y-92480000D03*
%TD*%
%TO.C,C18*%
X67750000Y-83020000D03*
X67750000Y-83980000D03*
%TD*%
%TO.C,C26*%
X66500000Y-97020000D03*
X66500000Y-97980000D03*
%TD*%
%TO.C,C31*%
X65250000Y-86540000D03*
X65250000Y-87500000D03*
%TD*%
%TO.C,C34*%
X66500000Y-92000000D03*
X66500000Y-92960000D03*
%TD*%
%TO.C,C14*%
X67750000Y-93020000D03*
X67750000Y-93980000D03*
%TD*%
%TO.C,C11*%
X69000000Y-99020000D03*
X69000000Y-99980000D03*
%TD*%
%TO.C,C28*%
X66500000Y-87020000D03*
X66500000Y-87980000D03*
%TD*%
D12*
%TO.C,U2*%
X62149999Y-85000000D03*
X61500000Y-85000000D03*
X60850001Y-85000000D03*
X60850001Y-82726700D03*
X61500000Y-82726700D03*
X62149999Y-82726700D03*
%TD*%
%TO.C,U10*%
X62149999Y-95136650D03*
X61500000Y-95136650D03*
X60850001Y-95136650D03*
X60850001Y-92863350D03*
X61500000Y-92863350D03*
X62149999Y-92863350D03*
%TD*%
%TO.C,U4*%
X62149999Y-100136650D03*
X61500000Y-100136650D03*
X60850001Y-100136650D03*
X60850001Y-97863350D03*
X61500000Y-97863350D03*
X62149999Y-97863350D03*
%TD*%
%TO.C,U3*%
X62149999Y-90136650D03*
X61500000Y-90136650D03*
X60850001Y-90136650D03*
X60850001Y-87863350D03*
X61500000Y-87863350D03*
X62149999Y-87863350D03*
%TD*%
D10*
%TO.C,C12*%
X67750000Y-98020000D03*
X67750000Y-98980000D03*
%TD*%
%TO.C,C15*%
X69000000Y-89000000D03*
X69000000Y-89960000D03*
%TD*%
D12*
%TO.C,U5*%
X60850001Y-74863350D03*
X61500000Y-74863350D03*
X62149999Y-74863350D03*
X62149999Y-77136650D03*
X61500000Y-77136650D03*
X60850001Y-77136650D03*
%TD*%
D13*
X52375000Y-72050000D02*
X122375000Y-72050000D01*
X122375000Y-112050000D01*
X52375000Y-112050000D01*
X52375000Y-72050000D01*
M02*
