%TF.GenerationSoftware,KiCad,Pcbnew,9.0.5-1.fc42*%
%TF.CreationDate,2025-11-21T18:00:38+01:00*%
%TF.ProjectId,bioamplifier,62696f61-6d70-46c6-9966-6965722e6b69,rev?*%
%TF.SameCoordinates,Original*%
%TF.FileFunction,Soldermask,Top*%
%TF.FilePolarity,Negative*%
%FSLAX46Y46*%
G04 Gerber Fmt 4.6, Leading zero omitted, Abs format (unit mm)*
G04 Created by KiCad (PCBNEW 9.0.5-1.fc42) date 2025-11-21 18:00:38*
%MOMM*%
%LPD*%
G01*
G04 APERTURE LIST*
G04 Aperture macros list*
%AMRoundRect*
0 Rectangle with rounded corners*
0 $1 Rounding radius*
0 $2 $3 $4 $5 $6 $7 $8 $9 X,Y pos of 4 corners*
0 Add a 4 corners polygon primitive as box body*
4,1,4,$2,$3,$4,$5,$6,$7,$8,$9,$2,$3,0*
0 Add four circle primitives for the rounded corners*
1,1,$1+$1,$2,$3*
1,1,$1+$1,$4,$5*
1,1,$1+$1,$6,$7*
1,1,$1+$1,$8,$9*
0 Add four rect primitives between the rounded corners*
20,1,$1+$1,$2,$3,$4,$5,0*
20,1,$1+$1,$4,$5,$6,$7,0*
20,1,$1+$1,$6,$7,$8,$9,0*
20,1,$1+$1,$8,$9,$2,$3,0*%
G04 Aperture macros list end*
%ADD10R,1.700000X1.700000*%
%ADD11C,1.700000*%
%ADD12R,1.805236X0.612132*%
%ADD13RoundRect,0.135000X-0.185000X0.135000X-0.185000X-0.135000X0.185000X-0.135000X0.185000X0.135000X0*%
%ADD14RoundRect,0.140000X0.140000X0.170000X-0.140000X0.170000X-0.140000X-0.170000X0.140000X-0.170000X0*%
%ADD15R,0.800000X0.500000*%
%ADD16R,0.800000X0.400000*%
%ADD17C,3.000000*%
%ADD18RoundRect,0.200000X-0.200000X-0.275000X0.200000X-0.275000X0.200000X0.275000X-0.200000X0.275000X0*%
%ADD19RoundRect,0.250000X-0.475000X0.250000X-0.475000X-0.250000X0.475000X-0.250000X0.475000X0.250000X0*%
%ADD20RoundRect,0.200000X0.200000X0.275000X-0.200000X0.275000X-0.200000X-0.275000X0.200000X-0.275000X0*%
%ADD21RoundRect,0.135000X-0.135000X-0.185000X0.135000X-0.185000X0.135000X0.185000X-0.135000X0.185000X0*%
%ADD22RoundRect,0.140000X0.170000X-0.140000X0.170000X0.140000X-0.170000X0.140000X-0.170000X-0.140000X0*%
%ADD23RoundRect,0.147500X0.147500X0.172500X-0.147500X0.172500X-0.147500X-0.172500X0.147500X-0.172500X0*%
%ADD24RoundRect,0.140000X-0.170000X0.140000X-0.170000X-0.140000X0.170000X-0.140000X0.170000X0.140000X0*%
%ADD25RoundRect,0.140000X-0.140000X-0.170000X0.140000X-0.170000X0.140000X0.170000X-0.140000X0.170000X0*%
%ADD26RoundRect,0.150000X0.512500X0.150000X-0.512500X0.150000X-0.512500X-0.150000X0.512500X-0.150000X0*%
%ADD27RoundRect,0.150000X-0.512500X-0.150000X0.512500X-0.150000X0.512500X0.150000X-0.512500X0.150000X0*%
%ADD28RoundRect,0.250000X0.250000X0.475000X-0.250000X0.475000X-0.250000X-0.475000X0.250000X-0.475000X0*%
%ADD29RoundRect,0.225000X0.250000X-0.225000X0.250000X0.225000X-0.250000X0.225000X-0.250000X-0.225000X0*%
%ADD30RoundRect,0.225000X-0.250000X0.225000X-0.250000X-0.225000X0.250000X-0.225000X0.250000X0.225000X0*%
%ADD31R,1.346200X0.279400*%
%ADD32R,0.279400X1.346200*%
%ADD33RoundRect,0.200000X0.275000X-0.200000X0.275000X0.200000X-0.275000X0.200000X-0.275000X-0.200000X0*%
%ADD34O,1.700000X1.700000*%
%ADD35C,2.000000*%
%ADD36RoundRect,0.225000X-0.225000X-0.250000X0.225000X-0.250000X0.225000X0.250000X-0.225000X0.250000X0*%
%ADD37RoundRect,0.243750X0.456250X-0.243750X0.456250X0.243750X-0.456250X0.243750X-0.456250X-0.243750X0*%
%ADD38RoundRect,0.225000X0.225000X0.250000X-0.225000X0.250000X-0.225000X-0.250000X0.225000X-0.250000X0*%
%TA.AperFunction,Profile*%
%ADD39C,0.100000*%
%TD*%
G04 APERTURE END LIST*
D10*
%TO.C,J4*%
X77780000Y-76370000D03*
D11*
X77780000Y-78910000D03*
%TD*%
D12*
%TO.C,U8*%
X105650483Y-108450001D03*
X105650483Y-107500000D03*
X105650483Y-106549999D03*
X103349517Y-106549999D03*
X103349517Y-108450001D03*
%TD*%
D13*
%TO.C,R14*%
X94385557Y-98490000D03*
X94385557Y-99510000D03*
%TD*%
D14*
%TO.C,C17*%
X67750000Y-83376709D03*
X66790000Y-83376709D03*
%TD*%
D15*
%TO.C,RN4*%
X62000000Y-84723435D03*
D16*
X62000000Y-83923435D03*
X62000000Y-83123435D03*
D15*
X62000000Y-82323435D03*
X60200000Y-82323435D03*
D16*
X60200000Y-83123435D03*
X60200000Y-83923435D03*
D15*
X60200000Y-84723435D03*
%TD*%
D17*
%TO.C,FID4*%
X60750000Y-109250000D03*
%TD*%
D18*
%TO.C,R22*%
X66100000Y-76250000D03*
X67750000Y-76250000D03*
%TD*%
D13*
%TO.C,R10*%
X104477111Y-98490000D03*
X104477111Y-99510000D03*
%TD*%
D17*
%TO.C,FID5*%
X1775000Y-1775000D03*
%TD*%
D19*
%TO.C,C5*%
X89750000Y-97550000D03*
X89750000Y-99450000D03*
%TD*%
D14*
%TO.C,C16*%
X67750000Y-88407532D03*
X66790000Y-88407532D03*
%TD*%
D20*
%TO.C,R15*%
X114650000Y-111000000D03*
X113000000Y-111000000D03*
%TD*%
D14*
%TO.C,C4*%
X89730000Y-96000000D03*
X88770000Y-96000000D03*
%TD*%
D21*
%TO.C,R7*%
X105912865Y-87422865D03*
X106932865Y-87422865D03*
%TD*%
D17*
%TO.C,FID2*%
X119500000Y-98500000D03*
%TD*%
D21*
%TO.C,R8*%
X105740000Y-90000000D03*
X106760000Y-90000000D03*
%TD*%
D22*
%TO.C,C45*%
X82860000Y-111140000D03*
X82860000Y-110180000D03*
%TD*%
D14*
%TO.C,C32*%
X67750000Y-80022827D03*
X66790000Y-80022827D03*
%TD*%
D23*
%TO.C,D1*%
X101735000Y-88500000D03*
X100765000Y-88500000D03*
%TD*%
D24*
%TO.C,C23*%
X86250000Y-80020000D03*
X86250000Y-80980000D03*
%TD*%
%TO.C,C25*%
X107849517Y-108195001D03*
X107849517Y-109155001D03*
%TD*%
D14*
%TO.C,C21*%
X91980000Y-96000000D03*
X91020000Y-96000000D03*
%TD*%
%TO.C,C13*%
X67750000Y-96792236D03*
X66790000Y-96792236D03*
%TD*%
D25*
%TO.C,C20*%
X90770000Y-82000000D03*
X91730000Y-82000000D03*
%TD*%
D26*
%TO.C,U7*%
X84137500Y-104950000D03*
X84137500Y-104000000D03*
X84137500Y-103050000D03*
X81862500Y-103050000D03*
X81862500Y-104950000D03*
%TD*%
D15*
%TO.C,RN1*%
X62000000Y-100200000D03*
D16*
X62000000Y-99400000D03*
X62000000Y-98600000D03*
D15*
X62000000Y-97800000D03*
X60200000Y-97800000D03*
D16*
X60200000Y-98600000D03*
X60200000Y-99400000D03*
D15*
X60200000Y-100200000D03*
%TD*%
D25*
%TO.C,C1*%
X92020000Y-97500000D03*
X92980000Y-97500000D03*
%TD*%
D27*
%TO.C,U6*%
X115725000Y-103550000D03*
X115725000Y-104500000D03*
X115725000Y-105450000D03*
X118000000Y-105450000D03*
X118000000Y-103550000D03*
%TD*%
D13*
%TO.C,R11*%
X101954223Y-98490000D03*
X101954223Y-99510000D03*
%TD*%
D18*
%TO.C,R2*%
X67845000Y-107500000D03*
X69495000Y-107500000D03*
%TD*%
D24*
%TO.C,C37*%
X65250000Y-107520000D03*
X65250000Y-108480000D03*
%TD*%
D22*
%TO.C,C39*%
X62000000Y-78960000D03*
X62000000Y-78000000D03*
%TD*%
D14*
%TO.C,C38*%
X66305000Y-105418850D03*
X65345000Y-105418850D03*
%TD*%
%TO.C,C33*%
X67750000Y-78345886D03*
X66790000Y-78345886D03*
%TD*%
D28*
%TO.C,C9*%
X83950000Y-98500000D03*
X82050000Y-98500000D03*
%TD*%
D22*
%TO.C,C44*%
X80000000Y-102480000D03*
X80000000Y-101520000D03*
%TD*%
D14*
%TO.C,C36*%
X67750000Y-98469177D03*
X66790000Y-98469177D03*
%TD*%
D29*
%TO.C,C42*%
X87000000Y-104275000D03*
X87000000Y-102725000D03*
%TD*%
D10*
%TO.C,J5*%
X112540000Y-97000000D03*
D11*
X110000000Y-97000000D03*
%TD*%
D14*
%TO.C,C35*%
X67750000Y-91761413D03*
X66790000Y-91761413D03*
%TD*%
D30*
%TO.C,C41*%
X116862500Y-107725000D03*
X116862500Y-109275000D03*
%TD*%
D14*
%TO.C,C18*%
X67750000Y-81699768D03*
X66790000Y-81699768D03*
%TD*%
%TO.C,C26*%
X67750000Y-100146118D03*
X66790000Y-100146118D03*
%TD*%
D13*
%TO.C,R13*%
X96908446Y-98490000D03*
X96908446Y-99510000D03*
%TD*%
D14*
%TO.C,C31*%
X67750000Y-85053650D03*
X66790000Y-85053650D03*
%TD*%
%TO.C,C34*%
X67750000Y-93438354D03*
X66790000Y-93438354D03*
%TD*%
%TO.C,C14*%
X67750000Y-95115295D03*
X66790000Y-95115295D03*
%TD*%
D13*
%TO.C,R9*%
X107000000Y-98490000D03*
X107000000Y-99510000D03*
%TD*%
D31*
%TO.C,U1*%
X78471500Y-84750000D03*
X78471500Y-85249999D03*
X78471500Y-85750000D03*
X78471500Y-86249999D03*
X78471500Y-86750001D03*
X78471500Y-87250000D03*
X78471500Y-87749999D03*
X78471500Y-88250000D03*
X78471500Y-88750000D03*
X78471500Y-89250001D03*
X78471500Y-89750000D03*
X78471500Y-90249999D03*
X78471500Y-90750001D03*
X78471500Y-91250000D03*
X78471500Y-91750001D03*
X78471500Y-92250000D03*
D32*
X80500000Y-94278500D03*
X80999999Y-94278500D03*
X81500000Y-94278500D03*
X81999999Y-94278500D03*
X82500001Y-94278500D03*
X83000000Y-94278500D03*
X83499999Y-94278500D03*
X84000000Y-94278500D03*
X84500000Y-94278500D03*
X85000001Y-94278500D03*
X85500000Y-94278500D03*
X85999999Y-94278500D03*
X86500001Y-94278500D03*
X87000000Y-94278500D03*
X87500001Y-94278500D03*
X88000000Y-94278500D03*
D31*
X90028500Y-92250000D03*
X90028500Y-91750001D03*
X90028500Y-91250000D03*
X90028500Y-90750001D03*
X90028500Y-90249999D03*
X90028500Y-89750000D03*
X90028500Y-89250001D03*
X90028500Y-88750000D03*
X90028500Y-88250000D03*
X90028500Y-87749999D03*
X90028500Y-87250000D03*
X90028500Y-86750001D03*
X90028500Y-86249999D03*
X90028500Y-85750000D03*
X90028500Y-85249999D03*
X90028500Y-84750000D03*
D32*
X88000000Y-82721500D03*
X87500001Y-82721500D03*
X87000000Y-82721500D03*
X86500001Y-82721500D03*
X85999999Y-82721500D03*
X85500000Y-82721500D03*
X85000001Y-82721500D03*
X84500000Y-82721500D03*
X84000000Y-82721500D03*
X83499999Y-82721500D03*
X83000000Y-82721500D03*
X82500001Y-82721500D03*
X81999999Y-82721500D03*
X81500000Y-82721500D03*
X80999999Y-82721500D03*
X80500000Y-82721500D03*
%TD*%
D25*
%TO.C,C7*%
X85270000Y-77000000D03*
X86230000Y-77000000D03*
%TD*%
D14*
%TO.C,C11*%
X67750000Y-103500000D03*
X66790000Y-103500000D03*
%TD*%
D18*
%TO.C,R20*%
X69500000Y-105000000D03*
X71150000Y-105000000D03*
%TD*%
D33*
%TO.C,R18*%
X75000000Y-79825000D03*
X75000000Y-78175000D03*
%TD*%
D25*
%TO.C,C19*%
X90770000Y-83500000D03*
X91730000Y-83500000D03*
%TD*%
%TO.C,C22*%
X81905962Y-80308321D03*
X82865962Y-80308321D03*
%TD*%
D14*
%TO.C,C28*%
X67750000Y-86730591D03*
X66790000Y-86730591D03*
%TD*%
D21*
%TO.C,R3*%
X105740000Y-77250000D03*
X106760000Y-77250000D03*
%TD*%
D10*
%TO.C,J3*%
X110000000Y-77300000D03*
D34*
X110000000Y-79840000D03*
X110000000Y-82380000D03*
X110000000Y-84920000D03*
X110000000Y-87460000D03*
X110000000Y-90000000D03*
X110000000Y-92540000D03*
%TD*%
D21*
%TO.C,R5*%
X105740000Y-82250000D03*
X106760000Y-82250000D03*
%TD*%
D24*
%TO.C,C30*%
X73305000Y-78000000D03*
X73305000Y-78960000D03*
%TD*%
D35*
%TO.C,H2*%
X115000000Y-87000000D03*
%TD*%
D36*
%TO.C,C3*%
X89475000Y-78000000D03*
X91025000Y-78000000D03*
%TD*%
D35*
%TO.C,H3*%
X55750000Y-109500000D03*
%TD*%
D25*
%TO.C,C46*%
X90520000Y-108087500D03*
X91480000Y-108087500D03*
%TD*%
%TO.C,C6*%
X85270000Y-78500000D03*
X86230000Y-78500000D03*
%TD*%
D30*
%TO.C,C43*%
X80000000Y-105225000D03*
X80000000Y-106775000D03*
%TD*%
D10*
%TO.C,J2*%
X57340000Y-105260000D03*
D34*
X54800000Y-105260000D03*
X57340000Y-102720000D03*
X54800000Y-102720000D03*
X57340000Y-100180000D03*
X54800000Y-100180000D03*
X57340000Y-97640000D03*
X54800000Y-97640000D03*
X57340000Y-95100000D03*
X54800000Y-95100000D03*
X57340000Y-92560000D03*
X54800000Y-92560000D03*
X57340000Y-90020000D03*
X54800000Y-90020000D03*
X57340000Y-87480000D03*
X54800000Y-87480000D03*
X57340000Y-84940000D03*
X54800000Y-84940000D03*
X57340000Y-82400000D03*
X54800000Y-82400000D03*
X57340000Y-79860000D03*
X54800000Y-79860000D03*
X57340000Y-77320000D03*
X54800000Y-77320000D03*
X57340000Y-74780000D03*
X54800000Y-74780000D03*
%TD*%
D30*
%TO.C,C27*%
X112862500Y-101225000D03*
X112862500Y-102775000D03*
%TD*%
D18*
%TO.C,R17*%
X69600000Y-76250000D03*
X71250000Y-76250000D03*
%TD*%
D25*
%TO.C,C2*%
X88615000Y-80000000D03*
X89575000Y-80000000D03*
%TD*%
D17*
%TO.C,FID3*%
X118250000Y-75250000D03*
%TD*%
D27*
%TO.C,U11*%
X85725000Y-108137500D03*
X85725000Y-109087500D03*
X85725000Y-110037500D03*
X88000000Y-110037500D03*
X88000000Y-109087500D03*
X88000000Y-108137500D03*
%TD*%
D30*
%TO.C,C29*%
X118862500Y-107725000D03*
X118862500Y-109275000D03*
%TD*%
D14*
%TO.C,C12*%
X67750000Y-101823059D03*
X66790000Y-101823059D03*
%TD*%
%TO.C,C15*%
X67750000Y-90084473D03*
X66790000Y-90084473D03*
%TD*%
D13*
%TO.C,R12*%
X99431334Y-98490000D03*
X99431334Y-99510000D03*
%TD*%
D14*
%TO.C,C24*%
X84230000Y-79000000D03*
X83270000Y-79000000D03*
%TD*%
D37*
%TO.C,D2*%
X114062500Y-108937500D03*
X114062500Y-107062500D03*
%TD*%
D35*
%TO.C,H1*%
X96750000Y-74600000D03*
%TD*%
D15*
%TO.C,RN3*%
X62000000Y-95041145D03*
D16*
X62000000Y-94241145D03*
X62000000Y-93441145D03*
D15*
X62000000Y-92641145D03*
X60200000Y-92641145D03*
D16*
X60200000Y-93441145D03*
X60200000Y-94241145D03*
D15*
X60200000Y-95041145D03*
%TD*%
D38*
%TO.C,C10*%
X83525000Y-96500000D03*
X81975000Y-96500000D03*
%TD*%
D18*
%TO.C,R1*%
X102175000Y-90000000D03*
X103825000Y-90000000D03*
%TD*%
D21*
%TO.C,R6*%
X105766826Y-84904542D03*
X106786826Y-84904542D03*
%TD*%
D29*
%TO.C,C40*%
X100000000Y-108050000D03*
X100000000Y-106500000D03*
%TD*%
D30*
%TO.C,C8*%
X86000000Y-97225000D03*
X86000000Y-98775000D03*
%TD*%
D21*
%TO.C,R4*%
X105750000Y-79750000D03*
X106770000Y-79750000D03*
%TD*%
D15*
%TO.C,RN2*%
X62000000Y-89882290D03*
D16*
X62000000Y-89082290D03*
X62000000Y-88282290D03*
D15*
X62000000Y-87482290D03*
X60200000Y-87482290D03*
D16*
X60200000Y-88282290D03*
X60200000Y-89082290D03*
D15*
X60200000Y-89882290D03*
%TD*%
D10*
%TO.C,J1*%
X109620000Y-102500000D03*
D34*
X107080000Y-102500000D03*
X104540000Y-102500000D03*
X102000000Y-102500000D03*
X99460000Y-102500000D03*
X96920000Y-102500000D03*
X94380000Y-102500000D03*
%TD*%
D39*
X50601596Y-72042903D02*
X122375000Y-72042903D01*
X122375000Y-112556276D01*
X50601596Y-112556276D01*
X50601596Y-72042903D01*
M02*
