%TF.GenerationSoftware,KiCad,Pcbnew,9.0.2-2.fc42*%
%TF.CreationDate,2025-06-23T11:30:10+02:00*%
%TF.ProjectId,bioamplifier,62696f61-6d70-46c6-9966-6965722e6b69,rev?*%
%TF.SameCoordinates,Original*%
%TF.FileFunction,Legend,Bot*%
%TF.FilePolarity,Positive*%
%FSLAX46Y46*%
G04 Gerber Fmt 4.6, Leading zero omitted, Abs format (unit mm)*
G04 Created by KiCad (PCBNEW 9.0.2-2.fc42) date 2025-06-23 11:30:10*
%MOMM*%
%LPD*%
G01*
G04 APERTURE LIST*
%ADD10C,0.150000*%
%ADD11C,0.120000*%
%ADD12C,0.152400*%
%TA.AperFunction,Profile*%
%ADD13C,0.100000*%
%TD*%
G04 APERTURE END LIST*
D10*
X85792080Y-108444642D02*
X85839700Y-108397023D01*
X85839700Y-108397023D02*
X85887319Y-108254166D01*
X85887319Y-108254166D02*
X85887319Y-108158928D01*
X85887319Y-108158928D02*
X85839700Y-108016071D01*
X85839700Y-108016071D02*
X85744461Y-107920833D01*
X85744461Y-107920833D02*
X85649223Y-107873214D01*
X85649223Y-107873214D02*
X85458747Y-107825595D01*
X85458747Y-107825595D02*
X85315890Y-107825595D01*
X85315890Y-107825595D02*
X85125414Y-107873214D01*
X85125414Y-107873214D02*
X85030176Y-107920833D01*
X85030176Y-107920833D02*
X84934938Y-108016071D01*
X84934938Y-108016071D02*
X84887319Y-108158928D01*
X84887319Y-108158928D02*
X84887319Y-108254166D01*
X84887319Y-108254166D02*
X84934938Y-108397023D01*
X84934938Y-108397023D02*
X84982557Y-108444642D01*
X85220652Y-109301785D02*
X85887319Y-109301785D01*
X84839700Y-109063690D02*
X85553985Y-108825595D01*
X85553985Y-108825595D02*
X85553985Y-109444642D01*
X84887319Y-110301785D02*
X84887319Y-109825595D01*
X84887319Y-109825595D02*
X85363509Y-109777976D01*
X85363509Y-109777976D02*
X85315890Y-109825595D01*
X85315890Y-109825595D02*
X85268271Y-109920833D01*
X85268271Y-109920833D02*
X85268271Y-110158928D01*
X85268271Y-110158928D02*
X85315890Y-110254166D01*
X85315890Y-110254166D02*
X85363509Y-110301785D01*
X85363509Y-110301785D02*
X85458747Y-110349404D01*
X85458747Y-110349404D02*
X85696842Y-110349404D01*
X85696842Y-110349404D02*
X85792080Y-110301785D01*
X85792080Y-110301785D02*
X85839700Y-110254166D01*
X85839700Y-110254166D02*
X85887319Y-110158928D01*
X85887319Y-110158928D02*
X85887319Y-109920833D01*
X85887319Y-109920833D02*
X85839700Y-109825595D01*
X85839700Y-109825595D02*
X85792080Y-109777976D01*
X62045180Y-104398554D02*
X61235657Y-104398554D01*
X61235657Y-104398554D02*
X61140419Y-104350935D01*
X61140419Y-104350935D02*
X61092800Y-104303316D01*
X61092800Y-104303316D02*
X61045180Y-104208078D01*
X61045180Y-104208078D02*
X61045180Y-104017602D01*
X61045180Y-104017602D02*
X61092800Y-103922364D01*
X61092800Y-103922364D02*
X61140419Y-103874745D01*
X61140419Y-103874745D02*
X61235657Y-103827126D01*
X61235657Y-103827126D02*
X62045180Y-103827126D01*
X61045180Y-103303316D02*
X61045180Y-103112840D01*
X61045180Y-103112840D02*
X61092800Y-103017602D01*
X61092800Y-103017602D02*
X61140419Y-102969983D01*
X61140419Y-102969983D02*
X61283276Y-102874745D01*
X61283276Y-102874745D02*
X61473752Y-102827126D01*
X61473752Y-102827126D02*
X61854704Y-102827126D01*
X61854704Y-102827126D02*
X61949942Y-102874745D01*
X61949942Y-102874745D02*
X61997561Y-102922364D01*
X61997561Y-102922364D02*
X62045180Y-103017602D01*
X62045180Y-103017602D02*
X62045180Y-103208078D01*
X62045180Y-103208078D02*
X61997561Y-103303316D01*
X61997561Y-103303316D02*
X61949942Y-103350935D01*
X61949942Y-103350935D02*
X61854704Y-103398554D01*
X61854704Y-103398554D02*
X61616609Y-103398554D01*
X61616609Y-103398554D02*
X61521371Y-103350935D01*
X61521371Y-103350935D02*
X61473752Y-103303316D01*
X61473752Y-103303316D02*
X61426133Y-103208078D01*
X61426133Y-103208078D02*
X61426133Y-103017602D01*
X61426133Y-103017602D02*
X61473752Y-102922364D01*
X61473752Y-102922364D02*
X61521371Y-102874745D01*
X61521371Y-102874745D02*
X61616609Y-102827126D01*
X63103419Y-105027300D02*
X63341514Y-105027300D01*
X63246276Y-104789205D02*
X63341514Y-105027300D01*
X63341514Y-105027300D02*
X63246276Y-105265395D01*
X63531990Y-104884443D02*
X63341514Y-105027300D01*
X63341514Y-105027300D02*
X63531990Y-105170157D01*
X64193780Y-105027299D02*
X63955685Y-105027299D01*
X64050923Y-105265394D02*
X63955685Y-105027299D01*
X63955685Y-105027299D02*
X64050923Y-104789204D01*
X63765209Y-105170156D02*
X63955685Y-105027299D01*
X63955685Y-105027299D02*
X63765209Y-104884442D01*
X62045180Y-84625254D02*
X61235657Y-84625254D01*
X61235657Y-84625254D02*
X61140419Y-84577635D01*
X61140419Y-84577635D02*
X61092800Y-84530016D01*
X61092800Y-84530016D02*
X61045180Y-84434778D01*
X61045180Y-84434778D02*
X61045180Y-84244302D01*
X61045180Y-84244302D02*
X61092800Y-84149064D01*
X61092800Y-84149064D02*
X61140419Y-84101445D01*
X61140419Y-84101445D02*
X61235657Y-84053826D01*
X61235657Y-84053826D02*
X62045180Y-84053826D01*
X61949942Y-83625254D02*
X61997561Y-83577635D01*
X61997561Y-83577635D02*
X62045180Y-83482397D01*
X62045180Y-83482397D02*
X62045180Y-83244302D01*
X62045180Y-83244302D02*
X61997561Y-83149064D01*
X61997561Y-83149064D02*
X61949942Y-83101445D01*
X61949942Y-83101445D02*
X61854704Y-83053826D01*
X61854704Y-83053826D02*
X61759466Y-83053826D01*
X61759466Y-83053826D02*
X61616609Y-83101445D01*
X61616609Y-83101445D02*
X61045180Y-83672873D01*
X61045180Y-83672873D02*
X61045180Y-83053826D01*
X64193780Y-85253999D02*
X63955685Y-85253999D01*
X64050923Y-85492094D02*
X63955685Y-85253999D01*
X63955685Y-85253999D02*
X64050923Y-85015904D01*
X63765209Y-85396856D02*
X63955685Y-85253999D01*
X63955685Y-85253999D02*
X63765209Y-85111142D01*
X63103419Y-85254000D02*
X63341514Y-85254000D01*
X63246276Y-85015905D02*
X63341514Y-85254000D01*
X63341514Y-85254000D02*
X63246276Y-85492095D01*
X63531990Y-85111143D02*
X63341514Y-85254000D01*
X63341514Y-85254000D02*
X63531990Y-85396857D01*
X62045180Y-95238094D02*
X61235657Y-95238094D01*
X61235657Y-95238094D02*
X61140419Y-95190475D01*
X61140419Y-95190475D02*
X61092800Y-95142856D01*
X61092800Y-95142856D02*
X61045180Y-95047618D01*
X61045180Y-95047618D02*
X61045180Y-94857142D01*
X61045180Y-94857142D02*
X61092800Y-94761904D01*
X61092800Y-94761904D02*
X61140419Y-94714285D01*
X61140419Y-94714285D02*
X61235657Y-94666666D01*
X61235657Y-94666666D02*
X62045180Y-94666666D01*
X61045180Y-93666666D02*
X61045180Y-94238094D01*
X61045180Y-93952380D02*
X62045180Y-93952380D01*
X62045180Y-93952380D02*
X61902323Y-94047618D01*
X61902323Y-94047618D02*
X61807085Y-94142856D01*
X61807085Y-94142856D02*
X61759466Y-94238094D01*
X62045180Y-93047618D02*
X62045180Y-92952380D01*
X62045180Y-92952380D02*
X61997561Y-92857142D01*
X61997561Y-92857142D02*
X61949942Y-92809523D01*
X61949942Y-92809523D02*
X61854704Y-92761904D01*
X61854704Y-92761904D02*
X61664228Y-92714285D01*
X61664228Y-92714285D02*
X61426133Y-92714285D01*
X61426133Y-92714285D02*
X61235657Y-92761904D01*
X61235657Y-92761904D02*
X61140419Y-92809523D01*
X61140419Y-92809523D02*
X61092800Y-92857142D01*
X61092800Y-92857142D02*
X61045180Y-92952380D01*
X61045180Y-92952380D02*
X61045180Y-93047618D01*
X61045180Y-93047618D02*
X61092800Y-93142856D01*
X61092800Y-93142856D02*
X61140419Y-93190475D01*
X61140419Y-93190475D02*
X61235657Y-93238094D01*
X61235657Y-93238094D02*
X61426133Y-93285713D01*
X61426133Y-93285713D02*
X61664228Y-93285713D01*
X61664228Y-93285713D02*
X61854704Y-93238094D01*
X61854704Y-93238094D02*
X61949942Y-93190475D01*
X61949942Y-93190475D02*
X61997561Y-93142856D01*
X61997561Y-93142856D02*
X62045180Y-93047618D01*
X64193780Y-95390649D02*
X63955685Y-95390649D01*
X64050923Y-95628744D02*
X63955685Y-95390649D01*
X63955685Y-95390649D02*
X64050923Y-95152554D01*
X63765209Y-95533506D02*
X63955685Y-95390649D01*
X63955685Y-95390649D02*
X63765209Y-95247792D01*
X63103419Y-95390650D02*
X63341514Y-95390650D01*
X63246276Y-95152555D02*
X63341514Y-95390650D01*
X63341514Y-95390650D02*
X63246276Y-95628745D01*
X63531990Y-95247793D02*
X63341514Y-95390650D01*
X63341514Y-95390650D02*
X63531990Y-95533507D01*
X62045180Y-99761904D02*
X61235657Y-99761904D01*
X61235657Y-99761904D02*
X61140419Y-99714285D01*
X61140419Y-99714285D02*
X61092800Y-99666666D01*
X61092800Y-99666666D02*
X61045180Y-99571428D01*
X61045180Y-99571428D02*
X61045180Y-99380952D01*
X61045180Y-99380952D02*
X61092800Y-99285714D01*
X61092800Y-99285714D02*
X61140419Y-99238095D01*
X61140419Y-99238095D02*
X61235657Y-99190476D01*
X61235657Y-99190476D02*
X62045180Y-99190476D01*
X61711847Y-98285714D02*
X61045180Y-98285714D01*
X62092800Y-98523809D02*
X61378514Y-98761904D01*
X61378514Y-98761904D02*
X61378514Y-98142857D01*
X64193780Y-100390649D02*
X63955685Y-100390649D01*
X64050923Y-100628744D02*
X63955685Y-100390649D01*
X63955685Y-100390649D02*
X64050923Y-100152554D01*
X63765209Y-100533506D02*
X63955685Y-100390649D01*
X63955685Y-100390649D02*
X63765209Y-100247792D01*
X63103419Y-100390650D02*
X63341514Y-100390650D01*
X63246276Y-100152555D02*
X63341514Y-100390650D01*
X63341514Y-100390650D02*
X63246276Y-100628745D01*
X63531990Y-100247793D02*
X63341514Y-100390650D01*
X63341514Y-100390650D02*
X63531990Y-100533507D01*
X62045180Y-89761904D02*
X61235657Y-89761904D01*
X61235657Y-89761904D02*
X61140419Y-89714285D01*
X61140419Y-89714285D02*
X61092800Y-89666666D01*
X61092800Y-89666666D02*
X61045180Y-89571428D01*
X61045180Y-89571428D02*
X61045180Y-89380952D01*
X61045180Y-89380952D02*
X61092800Y-89285714D01*
X61092800Y-89285714D02*
X61140419Y-89238095D01*
X61140419Y-89238095D02*
X61235657Y-89190476D01*
X61235657Y-89190476D02*
X62045180Y-89190476D01*
X62045180Y-88809523D02*
X62045180Y-88190476D01*
X62045180Y-88190476D02*
X61664228Y-88523809D01*
X61664228Y-88523809D02*
X61664228Y-88380952D01*
X61664228Y-88380952D02*
X61616609Y-88285714D01*
X61616609Y-88285714D02*
X61568990Y-88238095D01*
X61568990Y-88238095D02*
X61473752Y-88190476D01*
X61473752Y-88190476D02*
X61235657Y-88190476D01*
X61235657Y-88190476D02*
X61140419Y-88238095D01*
X61140419Y-88238095D02*
X61092800Y-88285714D01*
X61092800Y-88285714D02*
X61045180Y-88380952D01*
X61045180Y-88380952D02*
X61045180Y-88666666D01*
X61045180Y-88666666D02*
X61092800Y-88761904D01*
X61092800Y-88761904D02*
X61140419Y-88809523D01*
X63103419Y-90390650D02*
X63341514Y-90390650D01*
X63246276Y-90152555D02*
X63341514Y-90390650D01*
X63341514Y-90390650D02*
X63246276Y-90628745D01*
X63531990Y-90247793D02*
X63341514Y-90390650D01*
X63341514Y-90390650D02*
X63531990Y-90533507D01*
X63648599Y-89845469D02*
X63648599Y-90083564D01*
X63886694Y-89988326D02*
X63648599Y-90083564D01*
X63648599Y-90083564D02*
X63410504Y-89988326D01*
X63791456Y-90274040D02*
X63648599Y-90083564D01*
X63648599Y-90083564D02*
X63505742Y-90274040D01*
X60954819Y-75238095D02*
X61764342Y-75238095D01*
X61764342Y-75238095D02*
X61859580Y-75285714D01*
X61859580Y-75285714D02*
X61907200Y-75333333D01*
X61907200Y-75333333D02*
X61954819Y-75428571D01*
X61954819Y-75428571D02*
X61954819Y-75619047D01*
X61954819Y-75619047D02*
X61907200Y-75714285D01*
X61907200Y-75714285D02*
X61859580Y-75761904D01*
X61859580Y-75761904D02*
X61764342Y-75809523D01*
X61764342Y-75809523D02*
X60954819Y-75809523D01*
X60954819Y-76761904D02*
X60954819Y-76285714D01*
X60954819Y-76285714D02*
X61431009Y-76238095D01*
X61431009Y-76238095D02*
X61383390Y-76285714D01*
X61383390Y-76285714D02*
X61335771Y-76380952D01*
X61335771Y-76380952D02*
X61335771Y-76619047D01*
X61335771Y-76619047D02*
X61383390Y-76714285D01*
X61383390Y-76714285D02*
X61431009Y-76761904D01*
X61431009Y-76761904D02*
X61526247Y-76809523D01*
X61526247Y-76809523D02*
X61764342Y-76809523D01*
X61764342Y-76809523D02*
X61859580Y-76761904D01*
X61859580Y-76761904D02*
X61907200Y-76714285D01*
X61907200Y-76714285D02*
X61954819Y-76619047D01*
X61954819Y-76619047D02*
X61954819Y-76380952D01*
X61954819Y-76380952D02*
X61907200Y-76285714D01*
X61907200Y-76285714D02*
X61859580Y-76238095D01*
X58806219Y-74609350D02*
X59044314Y-74609350D01*
X58949076Y-74371255D02*
X59044314Y-74609350D01*
X59044314Y-74609350D02*
X58949076Y-74847445D01*
X59234790Y-74466493D02*
X59044314Y-74609350D01*
X59044314Y-74609350D02*
X59234790Y-74752207D01*
X58806219Y-74609350D02*
X59044314Y-74609350D01*
X58949076Y-74371255D02*
X59044314Y-74609350D01*
X59044314Y-74609350D02*
X58949076Y-74847445D01*
X59234790Y-74466493D02*
X59044314Y-74609350D01*
X59044314Y-74609350D02*
X59234790Y-74752207D01*
D11*
%TO.C,C17*%
X68640000Y-84357836D02*
X68640000Y-84142164D01*
X69360000Y-84357836D02*
X69360000Y-84142164D01*
%TO.C,C16*%
X67390000Y-88627836D02*
X67390000Y-88412164D01*
X68110000Y-88627836D02*
X68110000Y-88412164D01*
%TO.C,C45*%
X86352500Y-109228080D02*
X86352500Y-108946920D01*
X87372500Y-109228080D02*
X87372500Y-108946920D01*
%TO.C,C32*%
X66140000Y-82627836D02*
X66140000Y-82412164D01*
X66860000Y-82627836D02*
X66860000Y-82412164D01*
%TO.C,C13*%
X68640000Y-94607836D02*
X68640000Y-94392164D01*
X69360000Y-94607836D02*
X69360000Y-94392164D01*
D12*
%TO.C,U9*%
X60293500Y-102798450D02*
X60293500Y-104474850D01*
X62706500Y-104474850D02*
X62706500Y-102798450D01*
D11*
%TO.C,C33*%
X64890000Y-81857836D02*
X64890000Y-81642164D01*
X65610000Y-81857836D02*
X65610000Y-81642164D01*
%TO.C,C36*%
X64890000Y-97107836D02*
X64890000Y-96892164D01*
X65610000Y-97107836D02*
X65610000Y-96892164D01*
%TO.C,C35*%
X64890000Y-92107836D02*
X64890000Y-91892164D01*
X65610000Y-92107836D02*
X65610000Y-91892164D01*
%TO.C,C18*%
X67390000Y-83607836D02*
X67390000Y-83392164D01*
X68110000Y-83607836D02*
X68110000Y-83392164D01*
%TO.C,C26*%
X66140000Y-97607836D02*
X66140000Y-97392164D01*
X66860000Y-97607836D02*
X66860000Y-97392164D01*
%TO.C,C31*%
X64890000Y-87127836D02*
X64890000Y-86912164D01*
X65610000Y-87127836D02*
X65610000Y-86912164D01*
%TO.C,C34*%
X66140000Y-92587836D02*
X66140000Y-92372164D01*
X66860000Y-92587836D02*
X66860000Y-92372164D01*
%TO.C,C14*%
X67390000Y-93607836D02*
X67390000Y-93392164D01*
X68110000Y-93607836D02*
X68110000Y-93392164D01*
%TO.C,C11*%
X68640000Y-99607836D02*
X68640000Y-99392164D01*
X69360000Y-99607836D02*
X69360000Y-99392164D01*
%TO.C,C28*%
X66140000Y-87607836D02*
X66140000Y-87392164D01*
X66860000Y-87607836D02*
X66860000Y-87392164D01*
D12*
%TO.C,U2*%
X60293500Y-83025150D02*
X60293500Y-84701550D01*
X62706500Y-84701550D02*
X62706500Y-83025150D01*
%TO.C,U10*%
X60293500Y-93161800D02*
X60293500Y-94838200D01*
X62706500Y-94838200D02*
X62706500Y-93161800D01*
%TO.C,U4*%
X60293500Y-98161800D02*
X60293500Y-99838200D01*
X62706500Y-99838200D02*
X62706500Y-98161800D01*
%TO.C,U3*%
X60293500Y-88161800D02*
X60293500Y-89838200D01*
X62706500Y-89838200D02*
X62706500Y-88161800D01*
D11*
%TO.C,C12*%
X67390000Y-98607836D02*
X67390000Y-98392164D01*
X68110000Y-98607836D02*
X68110000Y-98392164D01*
%TO.C,C15*%
X68640000Y-89587836D02*
X68640000Y-89372164D01*
X69360000Y-89587836D02*
X69360000Y-89372164D01*
D12*
%TO.C,U5*%
X60293500Y-75161800D02*
X60293500Y-76838200D01*
X62706500Y-76838200D02*
X62706500Y-75161800D01*
%TD*%
D13*
X52375000Y-72050000D02*
X122375000Y-72050000D01*
X122375000Y-112050000D01*
X52375000Y-112050000D01*
X52375000Y-72050000D01*
M02*
