%TF.GenerationSoftware,KiCad,Pcbnew,9.0.5-1.fc42*%
%TF.CreationDate,2025-11-21T18:00:37+01:00*%
%TF.ProjectId,bioamplifier,62696f61-6d70-46c6-9966-6965722e6b69,rev?*%
%TF.SameCoordinates,Original*%
%TF.FileFunction,Copper,L4,Bot*%
%TF.FilePolarity,Positive*%
%FSLAX46Y46*%
G04 Gerber Fmt 4.6, Leading zero omitted, Abs format (unit mm)*
G04 Created by KiCad (PCBNEW 9.0.5-1.fc42) date 2025-11-21 18:00:37*
%MOMM*%
%LPD*%
G01*
G04 APERTURE LIST*
%TA.AperFunction,ComponentPad*%
%ADD10R,1.700000X1.700000*%
%TD*%
%TA.AperFunction,ComponentPad*%
%ADD11C,1.700000*%
%TD*%
%TA.AperFunction,ComponentPad*%
%ADD12O,1.700000X1.700000*%
%TD*%
%TA.AperFunction,SMDPad,CuDef*%
%ADD13R,0.355600X0.850900*%
%TD*%
%TA.AperFunction,SMDPad,CuDef*%
%ADD14C,1.000000*%
%TD*%
%TA.AperFunction,ViaPad*%
%ADD15C,0.800000*%
%TD*%
%TA.AperFunction,Conductor*%
%ADD16C,0.250000*%
%TD*%
%TA.AperFunction,Conductor*%
%ADD17C,0.500000*%
%TD*%
%TA.AperFunction,Conductor*%
%ADD18C,0.160000*%
%TD*%
%TA.AperFunction,Conductor*%
%ADD19C,0.200000*%
%TD*%
%TA.AperFunction,Profile*%
%ADD20C,0.100000*%
%TD*%
G04 APERTURE END LIST*
D10*
%TO.P,J4,1,Pin_1*%
%TO.N,GNDA*%
X77780000Y-76370000D03*
D11*
%TO.P,J4,2,Pin_2*%
%TO.N,BIASINV*%
X77780000Y-78910000D03*
%TD*%
D10*
%TO.P,J5,1,Pin_1*%
%TO.N,GNDD*%
X112540000Y-97000000D03*
D11*
%TO.P,J5,2,Pin_2*%
%TO.N,/DAISY-IN*%
X110000000Y-97000000D03*
%TD*%
D10*
%TO.P,J3,1,Pin_1*%
%TO.N,Net-(J3-Pin_1)*%
X110000000Y-77300000D03*
D12*
%TO.P,J3,2,Pin_2*%
%TO.N,Net-(J3-Pin_2)*%
X110000000Y-79840000D03*
%TO.P,J3,3,Pin_3*%
%TO.N,Net-(J3-Pin_3)*%
X110000000Y-82380000D03*
%TO.P,J3,4,Pin_4*%
%TO.N,Net-(J3-Pin_4)*%
X110000000Y-84920000D03*
%TO.P,J3,5,Pin_5*%
%TO.N,Net-(J3-Pin_5)*%
X110000000Y-87460000D03*
%TO.P,J3,6,Pin_6*%
%TO.N,Net-(J3-Pin_6)*%
X110000000Y-90000000D03*
%TO.P,J3,7,Pin_7*%
%TO.N,GNDD*%
X110000000Y-92540000D03*
%TD*%
D10*
%TO.P,J2,1,Pin_1*%
%TO.N,AVSS*%
X57340000Y-105260000D03*
D12*
%TO.P,J2,2,Pin_2*%
X54800000Y-105260000D03*
%TO.P,J2,3,Pin_3*%
%TO.N,/Electrodes input/REF1*%
X57340000Y-102720000D03*
%TO.P,J2,4,Pin_4*%
%TO.N,/Electrodes input/REF2*%
X54800000Y-102720000D03*
%TO.P,J2,5,Pin_5*%
%TO.N,/Electrodes input/P1*%
X57340000Y-100180000D03*
%TO.P,J2,6,Pin_6*%
%TO.N,/Electrodes input/N1*%
X54800000Y-100180000D03*
%TO.P,J2,7,Pin_7*%
%TO.N,/Electrodes input/P2*%
X57340000Y-97640000D03*
%TO.P,J2,8,Pin_8*%
%TO.N,/Electrodes input/N2*%
X54800000Y-97640000D03*
%TO.P,J2,9,Pin_9*%
%TO.N,/Electrodes input/P3*%
X57340000Y-95100000D03*
%TO.P,J2,10,Pin_10*%
%TO.N,/Electrodes input/N3*%
X54800000Y-95100000D03*
%TO.P,J2,11,Pin_11*%
%TO.N,/Electrodes input/P4*%
X57340000Y-92560000D03*
%TO.P,J2,12,Pin_12*%
%TO.N,/Electrodes input/N4*%
X54800000Y-92560000D03*
%TO.P,J2,13,Pin_13*%
%TO.N,/Electrodes input/P5*%
X57340000Y-90020000D03*
%TO.P,J2,14,Pin_14*%
%TO.N,/Electrodes input/N5*%
X54800000Y-90020000D03*
%TO.P,J2,15,Pin_15*%
%TO.N,/Electrodes input/P6*%
X57340000Y-87480000D03*
%TO.P,J2,16,Pin_16*%
%TO.N,/Electrodes input/N6*%
X54800000Y-87480000D03*
%TO.P,J2,17,Pin_17*%
%TO.N,/Electrodes input/P7*%
X57340000Y-84940000D03*
%TO.P,J2,18,Pin_18*%
%TO.N,/Electrodes input/N7*%
X54800000Y-84940000D03*
%TO.P,J2,19,Pin_19*%
%TO.N,/Electrodes input/P8*%
X57340000Y-82400000D03*
%TO.P,J2,20,Pin_20*%
%TO.N,/Electrodes input/N8*%
X54800000Y-82400000D03*
%TO.P,J2,21,Pin_21*%
%TO.N,/Electrodes input/BIAS*%
X57340000Y-79860000D03*
%TO.P,J2,22,Pin_22*%
X54800000Y-79860000D03*
%TO.P,J2,23,Pin_23*%
%TO.N,GNDA*%
X57340000Y-77320000D03*
%TO.P,J2,24,Pin_24*%
X54800000Y-77320000D03*
%TO.P,J2,25,Pin_25*%
%TO.N,AVDD*%
X57340000Y-74780000D03*
%TO.P,J2,26,Pin_26*%
X54800000Y-74780000D03*
%TD*%
D10*
%TO.P,J1,1,Pin_1*%
%TO.N,3.3V_UNREG*%
X109620000Y-102500000D03*
D12*
%TO.P,J1,2,Pin_2*%
%TO.N,Net-(J1-Pin_2)*%
X107080000Y-102500000D03*
%TO.P,J1,3,Pin_3*%
%TO.N,Net-(J1-Pin_3)*%
X104540000Y-102500000D03*
%TO.P,J1,4,Pin_4*%
%TO.N,Net-(J1-Pin_4)*%
X102000000Y-102500000D03*
%TO.P,J1,5,Pin_5*%
%TO.N,Net-(J1-Pin_5)*%
X99460000Y-102500000D03*
%TO.P,J1,6,Pin_6*%
%TO.N,Net-(J1-Pin_6)*%
X96920000Y-102500000D03*
%TO.P,J1,7,Pin_7*%
%TO.N,Net-(J1-Pin_7)*%
X94380000Y-102500000D03*
%TD*%
D13*
%TO.P,U9,1,IO1*%
%TO.N,AVSS*%
X62149999Y-104773300D03*
%TO.P,U9,2,IO2*%
%TO.N,unconnected-(U9-IO2-Pad2)*%
X61500000Y-104773300D03*
%TO.P,U9,3,GND*%
%TO.N,GNDA*%
X60850001Y-104773300D03*
%TO.P,U9,4,IO3*%
%TO.N,/Electrodes input/REF2*%
X60850001Y-102500000D03*
%TO.P,U9,5,IO4*%
%TO.N,/Electrodes input/REF1*%
X61500000Y-102500000D03*
%TO.P,U9,6,NC*%
%TO.N,unconnected-(U9-NC-Pad6)*%
X62149999Y-102500000D03*
%TD*%
%TO.P,U2,1,IO1*%
%TO.N,/Electrodes input/N7*%
X62149999Y-85000000D03*
%TO.P,U2,2,IO2*%
%TO.N,/Electrodes input/P7*%
X61500000Y-85000000D03*
%TO.P,U2,3,GND*%
%TO.N,GNDA*%
X60850001Y-85000000D03*
%TO.P,U2,4,IO3*%
%TO.N,/Electrodes input/P8*%
X60850001Y-82726700D03*
%TO.P,U2,5,IO4*%
%TO.N,/Electrodes input/N8*%
X61500000Y-82726700D03*
%TO.P,U2,6,NC*%
%TO.N,unconnected-(U2-NC-Pad6)*%
X62149999Y-82726700D03*
%TD*%
%TO.P,U10,1,IO1*%
%TO.N,/Electrodes input/N3*%
X62149999Y-95136650D03*
%TO.P,U10,2,IO2*%
%TO.N,/Electrodes input/P3*%
X61500000Y-95136650D03*
%TO.P,U10,3,GND*%
%TO.N,GNDA*%
X60850001Y-95136650D03*
%TO.P,U10,4,IO3*%
%TO.N,/Electrodes input/P4*%
X60850001Y-92863350D03*
%TO.P,U10,5,IO4*%
%TO.N,/Electrodes input/N4*%
X61500000Y-92863350D03*
%TO.P,U10,6,NC*%
%TO.N,unconnected-(U10-NC-Pad6)*%
X62149999Y-92863350D03*
%TD*%
%TO.P,U4,1,IO1*%
%TO.N,/Electrodes input/N1*%
X62149999Y-100136650D03*
%TO.P,U4,2,IO2*%
%TO.N,/Electrodes input/P1*%
X61500000Y-100136650D03*
%TO.P,U4,3,GND*%
%TO.N,GNDA*%
X60850001Y-100136650D03*
%TO.P,U4,4,IO3*%
%TO.N,/Electrodes input/P2*%
X60850001Y-97863350D03*
%TO.P,U4,5,IO4*%
%TO.N,/Electrodes input/N2*%
X61500000Y-97863350D03*
%TO.P,U4,6,NC*%
%TO.N,unconnected-(U4-NC-Pad6)*%
X62149999Y-97863350D03*
%TD*%
%TO.P,U3,1,IO1*%
%TO.N,/Electrodes input/N5*%
X62149999Y-90136650D03*
%TO.P,U3,2,IO2*%
%TO.N,/Electrodes input/P5*%
X61500000Y-90136650D03*
%TO.P,U3,3,GND*%
%TO.N,GNDA*%
X60850001Y-90136650D03*
%TO.P,U3,4,IO3*%
%TO.N,/Electrodes input/P6*%
X60850001Y-87863350D03*
%TO.P,U3,5,IO4*%
%TO.N,/Electrodes input/N6*%
X61500000Y-87863350D03*
%TO.P,U3,6,NC*%
%TO.N,unconnected-(U3-NC-Pad6)*%
X62149999Y-87863350D03*
%TD*%
D14*
%TO.P,FID1,*%
%TO.N,*%
X96750000Y-88000000D03*
%TD*%
D13*
%TO.P,U5,1,IO1*%
%TO.N,unconnected-(U5-IO1-Pad1)*%
X60850001Y-74863350D03*
%TO.P,U5,2,IO2*%
%TO.N,AVDD*%
X61500000Y-74863350D03*
%TO.P,U5,3,GND*%
%TO.N,GNDA*%
X62149999Y-74863350D03*
%TO.P,U5,4,IO3*%
%TO.N,/Electrodes input/BIAS*%
X62149999Y-77136650D03*
%TO.P,U5,5,IO4*%
%TO.N,GNDA*%
X61500000Y-77136650D03*
%TO.P,U5,6,NC*%
%TO.N,unconnected-(U5-NC-Pad6)*%
X60850001Y-77136650D03*
%TD*%
D15*
%TO.N,AVDD*%
X83000000Y-91000000D03*
X91250000Y-94500000D03*
%TO.N,GNDD*%
X85750000Y-84500000D03*
X91750000Y-79500000D03*
X116000000Y-97000000D03*
X88475500Y-90216800D03*
X113362500Y-104500000D03*
X93000000Y-98500000D03*
X117862500Y-111000000D03*
%TO.N,GNDA*%
X73250000Y-75000000D03*
X69250000Y-95000000D03*
X69250000Y-91500000D03*
X69270000Y-86446852D03*
X69250000Y-101750000D03*
X69249825Y-98499825D03*
X69270000Y-84946852D03*
X111000000Y-111000000D03*
X69250000Y-93500000D03*
X69270000Y-79946852D03*
X69270000Y-81696852D03*
X81750000Y-84500000D03*
X87274662Y-96242371D03*
X81750000Y-107250000D03*
X69250000Y-103500000D03*
X69270000Y-78446852D03*
X82250000Y-108500000D03*
X69250000Y-96750000D03*
X74500000Y-75000000D03*
X109500000Y-111000000D03*
X101500000Y-105500000D03*
X92000000Y-109587500D03*
X111500000Y-110000000D03*
X69270000Y-83196852D03*
X69250000Y-100250000D03*
X66439122Y-108943294D03*
X63800000Y-74800000D03*
X63250000Y-79000000D03*
X81000000Y-108500000D03*
X69270000Y-89696852D03*
X74000000Y-76000000D03*
X66500000Y-106500000D03*
X69270000Y-88196852D03*
%TO.N,-2.5V_UNREG*%
X88500000Y-105587500D03*
%TO.N,AVSS*%
X78500000Y-104000000D03*
X88250000Y-100000000D03*
X87750000Y-77500000D03*
X82500000Y-77500000D03*
X77500000Y-106500000D03*
X82000000Y-100500000D03*
%TO.N,Net-(U11-CAP+)*%
X86670000Y-111930000D03*
X87725000Y-106587500D03*
%TO.N,DVDD*%
X114725000Y-100275000D03*
X85500000Y-101500000D03*
X86500000Y-91000000D03*
X90000000Y-110000000D03*
X85000000Y-106500000D03*
%TD*%
D16*
%TO.N,AVDD*%
X61465000Y-74152900D02*
X61500000Y-74187900D01*
X57340000Y-74780000D02*
X57967100Y-74152900D01*
X57967100Y-74152900D02*
X61465000Y-74152900D01*
X62867900Y-72750000D02*
X61465000Y-74152900D01*
X61500000Y-74187900D02*
X61500000Y-74863350D01*
D17*
X86500000Y-94500000D02*
X83000000Y-91000000D01*
D16*
X88750000Y-72750000D02*
X62867900Y-72750000D01*
X93500000Y-77500000D02*
X88750000Y-72750000D01*
X54800000Y-74780000D02*
X57340000Y-74780000D01*
D17*
X91250000Y-94500000D02*
X86500000Y-94500000D01*
D16*
X83000000Y-91000000D02*
X93500000Y-80500000D01*
X93500000Y-80500000D02*
X93500000Y-77500000D01*
%TO.N,GNDA*%
X58660000Y-76000000D02*
X61250000Y-76000000D01*
X63736650Y-74863350D02*
X63800000Y-74800000D01*
X62350000Y-76250000D02*
X63800000Y-74800000D01*
X61500000Y-76250000D02*
X62350000Y-76250000D01*
X61500000Y-77136650D02*
X61500000Y-76250000D01*
X57340000Y-77320000D02*
X58660000Y-76000000D01*
X61250000Y-76000000D02*
X61500000Y-76250000D01*
X62149999Y-74863350D02*
X63736650Y-74863350D01*
X54800000Y-77320000D02*
X57340000Y-77320000D01*
D18*
%TO.N,/Electrodes input/N1*%
X62149999Y-99551200D02*
X62149999Y-100136650D01*
X54800000Y-100180000D02*
X55930000Y-99050000D01*
X61648799Y-99050000D02*
X62149999Y-99551200D01*
X55930000Y-99050000D02*
X61648799Y-99050000D01*
%TO.N,/Electrodes input/P1*%
X61500000Y-99551200D02*
X61500000Y-100136650D01*
X57340000Y-100180000D02*
X58088800Y-99431200D01*
X61380000Y-99431200D02*
X61500000Y-99551200D01*
X58088800Y-99431200D02*
X61380000Y-99431200D01*
%TO.N,/Electrodes input/P2*%
X60626651Y-97640000D02*
X60850001Y-97863350D01*
X57340000Y-97640000D02*
X60626651Y-97640000D01*
%TO.N,/Electrodes input/N2*%
X58750000Y-96510000D02*
X55930000Y-96510000D01*
X59240000Y-97000000D02*
X58750000Y-96510000D01*
X61222100Y-97000000D02*
X59240000Y-97000000D01*
X61500000Y-97277900D02*
X61222100Y-97000000D01*
X61500000Y-97863350D02*
X61500000Y-97277900D01*
X55930000Y-96510000D02*
X54800000Y-97640000D01*
%TO.N,/Electrodes input/N3*%
X54800000Y-95100000D02*
X55930000Y-93970000D01*
X61568799Y-93970000D02*
X62149999Y-94551200D01*
X55930000Y-93970000D02*
X61568799Y-93970000D01*
X62149999Y-94551200D02*
X62149999Y-95136650D01*
%TO.N,/Electrodes input/P3*%
X57340000Y-95100000D02*
X58008800Y-94431200D01*
X58008800Y-94431200D02*
X61380000Y-94431200D01*
X61380000Y-94431200D02*
X61500000Y-94551200D01*
X61500000Y-94551200D02*
X61500000Y-95136650D01*
%TO.N,/Electrodes input/N4*%
X55930000Y-91430000D02*
X54800000Y-92560000D01*
X58500000Y-91430000D02*
X55930000Y-91430000D01*
X61500000Y-92863350D02*
X61500000Y-92277900D01*
X59070000Y-92000000D02*
X58500000Y-91430000D01*
X61500000Y-92277900D02*
X61222100Y-92000000D01*
X61222100Y-92000000D02*
X59070000Y-92000000D01*
%TO.N,/Electrodes input/P4*%
X57340000Y-92560000D02*
X60546651Y-92560000D01*
X60546651Y-92560000D02*
X60850001Y-92863350D01*
D19*
%TO.N,/Electrodes input/N5*%
X62149999Y-89511200D02*
X61427799Y-88789000D01*
X61427799Y-88789000D02*
X56031000Y-88789000D01*
X62149999Y-90136650D02*
X62149999Y-89511200D01*
X56031000Y-88789000D02*
X54800000Y-90020000D01*
D18*
%TO.N,/Electrodes input/P5*%
X61500000Y-89551200D02*
X61500000Y-90136650D01*
X58190000Y-89170000D02*
X61118800Y-89170000D01*
X61118800Y-89170000D02*
X61500000Y-89551200D01*
X57340000Y-90020000D02*
X58190000Y-89170000D01*
%TO.N,/Electrodes input/N6*%
X60572100Y-86350000D02*
X61500000Y-87277900D01*
X54800000Y-87480000D02*
X55930000Y-86350000D01*
X55930000Y-86350000D02*
X60572100Y-86350000D01*
X61500000Y-87277900D02*
X61500000Y-87863350D01*
%TO.N,/Electrodes input/P6*%
X60466651Y-87480000D02*
X60850001Y-87863350D01*
X57340000Y-87480000D02*
X60466651Y-87480000D01*
D19*
%TO.N,/Electrodes input/N7*%
X62149999Y-85000000D02*
X62149999Y-84457449D01*
X62149999Y-84457449D02*
X61381550Y-83689000D01*
X61381550Y-83689000D02*
X56051000Y-83689000D01*
X56051000Y-83689000D02*
X54800000Y-84940000D01*
%TO.N,/Electrodes input/P7*%
X57340000Y-84940000D02*
X58190000Y-84090000D01*
X58190000Y-84090000D02*
X61215450Y-84090000D01*
X61500000Y-84374550D02*
X61500000Y-85000000D01*
X61215450Y-84090000D02*
X61500000Y-84374550D01*
D18*
%TO.N,/Electrodes input/N8*%
X54800000Y-82400000D02*
X56210000Y-80990000D01*
X61500000Y-82141250D02*
X61500000Y-82726700D01*
X60348750Y-80990000D02*
X61500000Y-82141250D01*
X56210000Y-80990000D02*
X60348750Y-80990000D01*
D19*
%TO.N,/Electrodes input/P8*%
X60523301Y-82400000D02*
X60850001Y-82726700D01*
X57340000Y-82400000D02*
X60523301Y-82400000D01*
D16*
%TO.N,AVSS*%
X76600001Y-105600001D02*
X77500000Y-106500000D01*
D17*
X78500000Y-105500000D02*
X78000000Y-106000000D01*
X82500000Y-77500000D02*
X87750000Y-77500000D01*
X78500000Y-104000000D02*
X82000000Y-100500000D01*
X78000000Y-106000000D02*
X77750000Y-106250000D01*
D16*
X58740000Y-105260000D02*
X60000000Y-104000000D01*
X62500000Y-105600001D02*
X76600001Y-105600001D01*
X54800000Y-105260000D02*
X57340000Y-105260000D01*
D17*
X78500000Y-104000000D02*
X78500000Y-105500000D01*
D16*
X57340000Y-105260000D02*
X58740000Y-105260000D01*
D17*
X88250000Y-100000000D02*
X82500000Y-100000000D01*
X62149999Y-104097850D02*
X62052149Y-104000000D01*
X82500000Y-77500000D02*
X80750000Y-79250000D01*
X80750000Y-79250000D02*
X80750000Y-99250000D01*
X62149999Y-104773300D02*
X62149999Y-105250000D01*
X62149999Y-105250000D02*
X62500000Y-105600001D01*
X78000000Y-106000000D02*
X77500000Y-106500000D01*
D16*
X62149999Y-105600001D02*
X62500000Y-105600001D01*
X60000000Y-104000000D02*
X62052149Y-104000000D01*
D17*
X80750000Y-99250000D02*
X82000000Y-100500000D01*
X82500000Y-100000000D02*
X82000000Y-100500000D01*
X62149999Y-104773300D02*
X62149999Y-104097850D01*
D16*
%TO.N,Net-(U11-CAP+)*%
X87725000Y-110875000D02*
X86670000Y-111930000D01*
X87725000Y-106587500D02*
X87725000Y-110875000D01*
%TO.N,/Electrodes input/REF2*%
X56020000Y-101500000D02*
X59850001Y-101500000D01*
X54800000Y-102720000D02*
X56020000Y-101500000D01*
X59850001Y-101500000D02*
X60850001Y-102500000D01*
D17*
%TO.N,DVDD*%
X87500000Y-104000000D02*
X89000000Y-104000000D01*
D16*
X89218738Y-91000000D02*
X94000000Y-95781263D01*
X86500000Y-91000000D02*
X89218738Y-91000000D01*
D17*
X114725000Y-100275000D02*
X113450000Y-99000000D01*
X87500000Y-104000000D02*
X85000000Y-106500000D01*
X90000000Y-103000000D02*
X90000000Y-103500000D01*
D16*
X94000000Y-95781263D02*
X94000000Y-99000000D01*
D17*
X89000000Y-104000000D02*
X90250000Y-102750000D01*
X113450000Y-99000000D02*
X94000000Y-99000000D01*
X94000000Y-99000000D02*
X90250000Y-102750000D01*
X90000000Y-103500000D02*
X90000000Y-104000000D01*
X88000000Y-104000000D02*
X89000000Y-104000000D01*
X85500000Y-101500000D02*
X88000000Y-104000000D01*
X90000000Y-104000000D02*
X90000000Y-110000000D01*
X90250000Y-102750000D02*
X90000000Y-103000000D01*
D16*
%TO.N,/Electrodes input/REF1*%
X61105450Y-103570000D02*
X61500000Y-103175450D01*
X57340000Y-102720000D02*
X58190000Y-103570000D01*
X58190000Y-103570000D02*
X61105450Y-103570000D01*
X61500000Y-103175450D02*
X61500000Y-102500000D01*
X57560000Y-102500000D02*
X57340000Y-102720000D01*
%TO.N,/Electrodes input/BIAS*%
X62149999Y-77136650D02*
X62149999Y-79350001D01*
X61640000Y-79860000D02*
X57340000Y-79860000D01*
X62149999Y-79350001D02*
X61640000Y-79860000D01*
X57340000Y-79860000D02*
X54800000Y-79860000D01*
%TD*%
%TA.AperFunction,Conductor*%
%TO.N,GNDA*%
G36*
X56874075Y-77127007D02*
G01*
X56840000Y-77254174D01*
X56840000Y-77385826D01*
X56874075Y-77512993D01*
X56906988Y-77570000D01*
X55233012Y-77570000D01*
X55265925Y-77512993D01*
X55300000Y-77385826D01*
X55300000Y-77254174D01*
X55265925Y-77127007D01*
X55233012Y-77070000D01*
X56906988Y-77070000D01*
X56874075Y-77127007D01*
G37*
%TD.AperFunction*%
%TA.AperFunction,Conductor*%
G36*
X122317539Y-72063088D02*
G01*
X122363294Y-72115892D01*
X122374500Y-72167403D01*
X122374500Y-112431776D01*
X122354815Y-112498815D01*
X122302011Y-112544570D01*
X122250500Y-112555776D01*
X87263532Y-112555776D01*
X87196493Y-112536091D01*
X87150738Y-112483287D01*
X87140794Y-112414129D01*
X87169819Y-112350573D01*
X87174977Y-112345032D01*
X87175271Y-112344673D01*
X87175276Y-112344669D01*
X87246465Y-112238127D01*
X87295501Y-112119744D01*
X87320500Y-111994069D01*
X87320500Y-111865931D01*
X87320500Y-111861898D01*
X87340185Y-111794859D01*
X87356819Y-111774217D01*
X87625763Y-111505273D01*
X88025474Y-111105563D01*
X88048378Y-111065892D01*
X88049429Y-111064071D01*
X117211999Y-111064071D01*
X117236997Y-111189738D01*
X117236999Y-111189744D01*
X117286033Y-111308124D01*
X117286038Y-111308133D01*
X117357223Y-111414668D01*
X117357226Y-111414672D01*
X117447827Y-111505273D01*
X117447831Y-111505276D01*
X117554366Y-111576461D01*
X117554372Y-111576464D01*
X117554373Y-111576465D01*
X117672756Y-111625501D01*
X117672760Y-111625501D01*
X117672761Y-111625502D01*
X117798428Y-111650500D01*
X117798431Y-111650500D01*
X117926571Y-111650500D01*
X118011115Y-111633682D01*
X118052244Y-111625501D01*
X118170627Y-111576465D01*
X118277169Y-111505276D01*
X118367776Y-111414669D01*
X118438965Y-111308127D01*
X118488001Y-111189744D01*
X118504747Y-111105561D01*
X118513000Y-111064071D01*
X118513000Y-110935928D01*
X118488002Y-110810261D01*
X118488001Y-110810260D01*
X118488001Y-110810256D01*
X118438965Y-110691873D01*
X118438964Y-110691872D01*
X118438961Y-110691866D01*
X118367776Y-110585331D01*
X118367773Y-110585327D01*
X118277172Y-110494726D01*
X118277168Y-110494723D01*
X118170633Y-110423538D01*
X118170624Y-110423533D01*
X118052244Y-110374499D01*
X118052238Y-110374497D01*
X117926571Y-110349500D01*
X117926569Y-110349500D01*
X117798431Y-110349500D01*
X117798429Y-110349500D01*
X117672761Y-110374497D01*
X117672755Y-110374499D01*
X117554375Y-110423533D01*
X117554366Y-110423538D01*
X117447831Y-110494723D01*
X117447827Y-110494726D01*
X117357226Y-110585327D01*
X117357223Y-110585331D01*
X117286038Y-110691866D01*
X117286033Y-110691875D01*
X117236999Y-110810255D01*
X117236997Y-110810261D01*
X117212000Y-110935928D01*
X117212000Y-110935931D01*
X117212000Y-111064069D01*
X117212000Y-111064071D01*
X117211999Y-111064071D01*
X88049429Y-111064071D01*
X88074910Y-111019938D01*
X88100500Y-110924435D01*
X88100500Y-107183307D01*
X88120185Y-107116268D01*
X88136819Y-107095625D01*
X88139665Y-107092778D01*
X88139669Y-107092776D01*
X88230276Y-107002169D01*
X88301465Y-106895627D01*
X88350501Y-106777244D01*
X88358682Y-106736115D01*
X88375500Y-106651571D01*
X88375500Y-106523428D01*
X88349313Y-106391782D01*
X88350517Y-106391542D01*
X88349948Y-106328134D01*
X88387194Y-106269019D01*
X88450486Y-106239425D01*
X88469234Y-106238000D01*
X88564071Y-106238000D01*
X88648615Y-106221182D01*
X88689744Y-106213001D01*
X88808127Y-106163965D01*
X88914669Y-106092776D01*
X89005276Y-106002169D01*
X89076465Y-105895627D01*
X89125501Y-105777244D01*
X89139277Y-105707989D01*
X89150500Y-105651571D01*
X89150500Y-105523428D01*
X89125502Y-105397761D01*
X89125501Y-105397760D01*
X89125501Y-105397756D01*
X89083555Y-105296490D01*
X89076466Y-105279375D01*
X89076461Y-105279366D01*
X89005276Y-105172831D01*
X89005273Y-105172827D01*
X88914672Y-105082226D01*
X88914668Y-105082223D01*
X88808133Y-105011038D01*
X88808124Y-105011033D01*
X88689744Y-104961999D01*
X88689738Y-104961997D01*
X88564071Y-104937000D01*
X88564069Y-104937000D01*
X88435931Y-104937000D01*
X88435929Y-104937000D01*
X88310261Y-104961997D01*
X88310255Y-104961999D01*
X88191875Y-105011033D01*
X88191866Y-105011038D01*
X88085331Y-105082223D01*
X88085327Y-105082226D01*
X87994726Y-105172827D01*
X87994723Y-105172831D01*
X87923538Y-105279366D01*
X87923533Y-105279375D01*
X87874499Y-105397755D01*
X87874497Y-105397761D01*
X87849500Y-105523428D01*
X87849500Y-105523431D01*
X87849500Y-105651569D01*
X87849500Y-105651571D01*
X87849499Y-105651571D01*
X87875687Y-105783218D01*
X87874482Y-105783457D01*
X87875052Y-105846866D01*
X87837806Y-105905981D01*
X87774514Y-105935575D01*
X87755766Y-105937000D01*
X87660929Y-105937000D01*
X87535261Y-105961997D01*
X87535255Y-105961999D01*
X87416875Y-106011033D01*
X87416866Y-106011038D01*
X87310331Y-106082223D01*
X87310327Y-106082226D01*
X87219726Y-106172827D01*
X87219723Y-106172831D01*
X87148538Y-106279366D01*
X87148533Y-106279375D01*
X87099499Y-106397755D01*
X87099497Y-106397761D01*
X87074500Y-106523428D01*
X87074500Y-106523431D01*
X87074500Y-106651569D01*
X87074500Y-106651571D01*
X87074499Y-106651571D01*
X87099497Y-106777238D01*
X87099499Y-106777244D01*
X87148533Y-106895624D01*
X87148538Y-106895633D01*
X87219722Y-107002167D01*
X87219723Y-107002168D01*
X87219724Y-107002169D01*
X87310331Y-107092776D01*
X87310333Y-107092777D01*
X87313181Y-107095625D01*
X87346666Y-107156948D01*
X87349500Y-107183307D01*
X87349500Y-110668100D01*
X87329815Y-110735139D01*
X87313181Y-110755781D01*
X86825781Y-111243181D01*
X86764458Y-111276666D01*
X86738100Y-111279500D01*
X86605929Y-111279500D01*
X86480261Y-111304497D01*
X86480255Y-111304499D01*
X86361875Y-111353533D01*
X86361866Y-111353538D01*
X86255331Y-111424723D01*
X86255327Y-111424726D01*
X86164726Y-111515327D01*
X86164723Y-111515331D01*
X86093538Y-111621866D01*
X86093533Y-111621875D01*
X86044499Y-111740255D01*
X86044497Y-111740261D01*
X86019500Y-111865928D01*
X86019500Y-111865931D01*
X86019500Y-111994069D01*
X86019500Y-111994071D01*
X86019499Y-111994071D01*
X86044497Y-112119738D01*
X86044499Y-112119744D01*
X86093533Y-112238124D01*
X86093538Y-112238133D01*
X86164723Y-112344668D01*
X86168589Y-112349379D01*
X86167515Y-112350260D01*
X86197634Y-112405418D01*
X86192650Y-112475110D01*
X86150778Y-112531043D01*
X86085314Y-112555460D01*
X86076468Y-112555776D01*
X50726096Y-112555776D01*
X50659057Y-112536091D01*
X50613302Y-112483287D01*
X50602096Y-112431776D01*
X50602096Y-109397648D01*
X54449500Y-109397648D01*
X54449500Y-109602351D01*
X54481522Y-109804534D01*
X54544781Y-109999223D01*
X54637715Y-110181613D01*
X54758028Y-110347213D01*
X54902786Y-110491971D01*
X55019086Y-110576466D01*
X55068390Y-110612287D01*
X55177929Y-110668100D01*
X55250776Y-110705218D01*
X55250778Y-110705218D01*
X55250781Y-110705220D01*
X55342862Y-110735139D01*
X55445465Y-110768477D01*
X55546557Y-110784488D01*
X55647648Y-110800500D01*
X55647649Y-110800500D01*
X55852351Y-110800500D01*
X55852352Y-110800500D01*
X56054534Y-110768477D01*
X56249219Y-110705220D01*
X56431610Y-110612287D01*
X56524590Y-110544732D01*
X56597213Y-110491971D01*
X56597215Y-110491968D01*
X56597219Y-110491966D01*
X56741966Y-110347219D01*
X56741968Y-110347215D01*
X56741971Y-110347213D01*
X56856377Y-110189744D01*
X56862287Y-110181610D01*
X56955220Y-109999219D01*
X57018477Y-109804534D01*
X57050500Y-109602352D01*
X57050500Y-109397648D01*
X57018477Y-109195466D01*
X56955220Y-109000781D01*
X56955218Y-109000778D01*
X56955218Y-109000776D01*
X56921503Y-108934607D01*
X56862287Y-108818390D01*
X56854556Y-108807749D01*
X56741971Y-108652786D01*
X56597213Y-108508028D01*
X56431613Y-108387715D01*
X56431612Y-108387714D01*
X56431610Y-108387713D01*
X56374653Y-108358691D01*
X56249223Y-108294781D01*
X56054534Y-108231522D01*
X55879995Y-108203878D01*
X55852352Y-108199500D01*
X55647648Y-108199500D01*
X55623329Y-108203351D01*
X55445465Y-108231522D01*
X55250776Y-108294781D01*
X55068386Y-108387715D01*
X54902786Y-108508028D01*
X54758028Y-108652786D01*
X54637715Y-108818386D01*
X54544781Y-109000776D01*
X54481522Y-109195465D01*
X54449500Y-109397648D01*
X50602096Y-109397648D01*
X50602096Y-77070000D01*
X53472769Y-77070000D01*
X54366988Y-77070000D01*
X54334075Y-77127007D01*
X54300000Y-77254174D01*
X54300000Y-77385826D01*
X54334075Y-77512993D01*
X54366988Y-77570000D01*
X53472769Y-77570000D01*
X53483242Y-77636126D01*
X53483242Y-77636129D01*
X53548904Y-77838217D01*
X53645379Y-78027557D01*
X53770272Y-78199459D01*
X53770276Y-78199464D01*
X53920535Y-78349723D01*
X53920540Y-78349727D01*
X54092442Y-78474620D01*
X54281784Y-78571096D01*
X54380711Y-78603239D01*
X54438387Y-78642676D01*
X54465586Y-78707034D01*
X54453672Y-78775881D01*
X54406428Y-78827357D01*
X54380722Y-78839097D01*
X54379522Y-78839487D01*
X54377550Y-78840128D01*
X54223211Y-78918768D01*
X54143256Y-78976859D01*
X54083072Y-79020586D01*
X54083070Y-79020588D01*
X54083069Y-79020588D01*
X53960588Y-79143069D01*
X53960588Y-79143070D01*
X53960586Y-79143072D01*
X53923247Y-79194464D01*
X53858768Y-79283211D01*
X53780128Y-79437552D01*
X53726597Y-79602302D01*
X53699500Y-79773389D01*
X53699500Y-79946610D01*
X53723429Y-80097697D01*
X53726598Y-80117701D01*
X53780127Y-80282445D01*
X53858768Y-80436788D01*
X53960586Y-80576928D01*
X54083072Y-80699414D01*
X54223212Y-80801232D01*
X54377555Y-80879873D01*
X54542299Y-80933402D01*
X54713389Y-80960500D01*
X54713390Y-80960500D01*
X54886610Y-80960500D01*
X54886611Y-80960500D01*
X55057701Y-80933402D01*
X55222445Y-80879873D01*
X55376788Y-80801232D01*
X55516928Y-80699414D01*
X55639414Y-80576928D01*
X55741232Y-80436788D01*
X55809295Y-80303206D01*
X55857269Y-80252409D01*
X55919780Y-80235500D01*
X56220220Y-80235500D01*
X56232913Y-80239227D01*
X56246107Y-80238232D01*
X56265791Y-80248881D01*
X56287259Y-80255185D01*
X56297300Y-80265928D01*
X56307559Y-80271478D01*
X56325589Y-80296193D01*
X56328820Y-80299650D01*
X56329791Y-80301413D01*
X56398768Y-80436788D01*
X56422079Y-80468872D01*
X56425814Y-80475650D01*
X56431766Y-80502507D01*
X56441012Y-80528420D01*
X56439218Y-80536133D01*
X56440932Y-80543865D01*
X56431417Y-80569678D01*
X56425187Y-80596474D01*
X56419507Y-80601993D01*
X56416769Y-80609424D01*
X56394808Y-80625996D01*
X56375081Y-80645169D01*
X56366631Y-80647261D01*
X56360999Y-80651512D01*
X56344417Y-80652762D01*
X56317214Y-80659500D01*
X56166489Y-80659500D01*
X56082429Y-80682023D01*
X56007068Y-80725534D01*
X56007065Y-80725536D01*
X55372288Y-81360312D01*
X55310965Y-81393797D01*
X55241273Y-81388813D01*
X55228314Y-81383117D01*
X55222448Y-81380128D01*
X55160895Y-81360128D01*
X55057701Y-81326598D01*
X55057699Y-81326597D01*
X55057698Y-81326597D01*
X54926271Y-81305781D01*
X54886611Y-81299500D01*
X54713389Y-81299500D01*
X54673728Y-81305781D01*
X54542302Y-81326597D01*
X54377552Y-81380128D01*
X54223211Y-81458768D01*
X54180928Y-81489489D01*
X54083072Y-81560586D01*
X54083070Y-81560588D01*
X54083069Y-81560588D01*
X53960588Y-81683069D01*
X53960588Y-81683070D01*
X53960586Y-81683072D01*
X53916859Y-81743256D01*
X53858768Y-81823211D01*
X53780128Y-81977552D01*
X53726597Y-82142302D01*
X53699500Y-82313389D01*
X53699500Y-82486610D01*
X53723429Y-82637697D01*
X53726598Y-82657701D01*
X53780127Y-82822445D01*
X53858768Y-82976788D01*
X53960586Y-83116928D01*
X54083072Y-83239414D01*
X54223212Y-83341232D01*
X54377555Y-83419873D01*
X54542299Y-83473402D01*
X54713389Y-83500500D01*
X54713390Y-83500500D01*
X54886610Y-83500500D01*
X54886611Y-83500500D01*
X55057701Y-83473402D01*
X55222445Y-83419873D01*
X55376788Y-83341232D01*
X55516928Y-83239414D01*
X55639414Y-83116928D01*
X55741232Y-82976788D01*
X55819873Y-82822445D01*
X55873402Y-82657701D01*
X55900500Y-82486611D01*
X55900500Y-82313389D01*
X55873402Y-82142299D01*
X55819873Y-81977555D01*
X55816880Y-81971682D01*
X55803986Y-81903014D01*
X55830264Y-81838274D01*
X55839676Y-81827720D01*
X56310579Y-81356819D01*
X56371902Y-81323334D01*
X56398260Y-81320500D01*
X56571890Y-81320500D01*
X56638929Y-81340185D01*
X56684684Y-81392989D01*
X56694628Y-81462147D01*
X56665603Y-81525703D01*
X56644775Y-81544818D01*
X56623075Y-81560583D01*
X56623069Y-81560588D01*
X56500588Y-81683069D01*
X56500588Y-81683070D01*
X56500586Y-81683072D01*
X56456859Y-81743256D01*
X56398768Y-81823211D01*
X56320128Y-81977552D01*
X56266597Y-82142302D01*
X56239500Y-82313389D01*
X56239500Y-82486610D01*
X56263429Y-82637697D01*
X56266598Y-82657701D01*
X56320127Y-82822445D01*
X56398768Y-82976788D01*
X56500586Y-83116928D01*
X56500588Y-83116930D01*
X56510477Y-83126819D01*
X56543962Y-83188142D01*
X56538978Y-83257834D01*
X56497106Y-83313767D01*
X56431642Y-83338184D01*
X56422796Y-83338500D01*
X56004856Y-83338500D01*
X55915712Y-83362386D01*
X55915709Y-83362387D01*
X55835791Y-83408527D01*
X55835786Y-83408531D01*
X55352969Y-83891347D01*
X55291646Y-83924832D01*
X55226970Y-83921597D01*
X55057698Y-83866597D01*
X54926271Y-83845781D01*
X54886611Y-83839500D01*
X54713389Y-83839500D01*
X54673728Y-83845781D01*
X54542302Y-83866597D01*
X54377552Y-83920128D01*
X54223211Y-83998768D01*
X54160236Y-84044523D01*
X54083072Y-84100586D01*
X54083070Y-84100588D01*
X54083069Y-84100588D01*
X53960588Y-84223069D01*
X53960588Y-84223070D01*
X53960586Y-84223072D01*
X53946662Y-84242237D01*
X53858768Y-84363211D01*
X53780128Y-84517552D01*
X53726597Y-84682302D01*
X53699500Y-84853389D01*
X53699500Y-85026610D01*
X53723429Y-85177697D01*
X53726598Y-85197701D01*
X53780127Y-85362445D01*
X53858768Y-85516788D01*
X53960586Y-85656928D01*
X54083072Y-85779414D01*
X54223212Y-85881232D01*
X54377555Y-85959873D01*
X54542299Y-86013402D01*
X54713389Y-86040500D01*
X54713390Y-86040500D01*
X54886610Y-86040500D01*
X54886611Y-86040500D01*
X55057701Y-86013402D01*
X55222445Y-85959873D01*
X55376788Y-85881232D01*
X55516928Y-85779414D01*
X55639414Y-85656928D01*
X55741232Y-85516788D01*
X55819873Y-85362445D01*
X55873402Y-85197701D01*
X55900500Y-85026611D01*
X55900500Y-84853389D01*
X55873402Y-84682299D01*
X55819873Y-84517555D01*
X55819869Y-84517547D01*
X55818401Y-84513029D01*
X55816406Y-84443188D01*
X55848648Y-84387033D01*
X56159865Y-84075816D01*
X56186796Y-84061111D01*
X56212609Y-84044523D01*
X56218809Y-84043631D01*
X56221186Y-84042334D01*
X56247544Y-84039500D01*
X56390595Y-84039500D01*
X56457634Y-84059185D01*
X56503389Y-84111989D01*
X56513333Y-84181147D01*
X56490913Y-84236386D01*
X56398768Y-84363211D01*
X56320128Y-84517552D01*
X56266597Y-84682302D01*
X56239500Y-84853389D01*
X56239500Y-85026610D01*
X56263429Y-85177697D01*
X56266598Y-85197701D01*
X56320127Y-85362445D01*
X56398768Y-85516788D01*
X56500586Y-85656928D01*
X56623072Y-85779414D01*
X56644221Y-85794780D01*
X56644775Y-85795182D01*
X56687441Y-85850511D01*
X56693420Y-85920125D01*
X56660815Y-85981920D01*
X56599976Y-86016277D01*
X56571890Y-86019500D01*
X55886489Y-86019500D01*
X55802431Y-86042023D01*
X55802428Y-86042024D01*
X55774846Y-86057948D01*
X55774846Y-86057949D01*
X55727073Y-86085531D01*
X55727068Y-86085534D01*
X55727065Y-86085536D01*
X55665532Y-86147070D01*
X55372289Y-86440312D01*
X55310966Y-86473797D01*
X55241274Y-86468813D01*
X55228320Y-86463119D01*
X55222452Y-86460129D01*
X55143694Y-86434539D01*
X55057701Y-86406598D01*
X55057699Y-86406597D01*
X55057698Y-86406597D01*
X54926271Y-86385781D01*
X54886611Y-86379500D01*
X54713389Y-86379500D01*
X54673728Y-86385781D01*
X54542302Y-86406597D01*
X54377552Y-86460128D01*
X54223211Y-86538768D01*
X54143256Y-86596859D01*
X54083072Y-86640586D01*
X54083070Y-86640588D01*
X54083069Y-86640588D01*
X53960588Y-86763069D01*
X53960588Y-86763070D01*
X53960586Y-86763072D01*
X53942070Y-86788557D01*
X53858768Y-86903211D01*
X53780128Y-87057552D01*
X53726597Y-87222302D01*
X53699500Y-87393389D01*
X53699500Y-87566610D01*
X53723429Y-87717697D01*
X53726598Y-87737701D01*
X53780127Y-87902445D01*
X53858768Y-88056788D01*
X53960586Y-88196928D01*
X54083072Y-88319414D01*
X54223212Y-88421232D01*
X54377555Y-88499873D01*
X54542299Y-88553402D01*
X54713389Y-88580500D01*
X54713390Y-88580500D01*
X54886610Y-88580500D01*
X54886611Y-88580500D01*
X55057701Y-88553402D01*
X55222445Y-88499873D01*
X55376788Y-88421232D01*
X55516928Y-88319414D01*
X55639414Y-88196928D01*
X55741232Y-88056788D01*
X55819873Y-87902445D01*
X55873402Y-87737701D01*
X55900500Y-87566611D01*
X55900500Y-87393389D01*
X55873402Y-87222299D01*
X55819873Y-87057555D01*
X55816882Y-87051686D01*
X55803986Y-86983018D01*
X55830261Y-86918277D01*
X55839667Y-86907728D01*
X56030579Y-86716816D01*
X56057508Y-86702113D01*
X56083324Y-86685523D01*
X56089526Y-86684631D01*
X56091902Y-86683334D01*
X56118259Y-86680500D01*
X56317214Y-86680500D01*
X56384253Y-86700185D01*
X56430008Y-86752989D01*
X56439952Y-86822147D01*
X56417532Y-86877386D01*
X56398768Y-86903211D01*
X56320128Y-87057552D01*
X56266597Y-87222302D01*
X56239500Y-87393389D01*
X56239500Y-87566610D01*
X56263429Y-87717697D01*
X56266598Y-87737701D01*
X56320127Y-87902445D01*
X56398768Y-88056788D01*
X56500586Y-88196928D01*
X56500588Y-88196930D01*
X56530477Y-88226819D01*
X56563962Y-88288142D01*
X56558978Y-88357834D01*
X56517106Y-88413767D01*
X56451642Y-88438184D01*
X56442796Y-88438500D01*
X55984856Y-88438500D01*
X55895712Y-88462386D01*
X55895709Y-88462387D01*
X55815791Y-88508527D01*
X55815786Y-88508531D01*
X55352969Y-88971347D01*
X55291646Y-89004832D01*
X55226970Y-89001597D01*
X55057698Y-88946597D01*
X54926271Y-88925781D01*
X54886611Y-88919500D01*
X54713389Y-88919500D01*
X54673728Y-88925781D01*
X54542302Y-88946597D01*
X54377552Y-89000128D01*
X54223211Y-89078768D01*
X54143256Y-89136859D01*
X54083072Y-89180586D01*
X54083070Y-89180588D01*
X54083069Y-89180588D01*
X53960588Y-89303069D01*
X53960588Y-89303070D01*
X53960586Y-89303072D01*
X53936382Y-89336386D01*
X53858768Y-89443211D01*
X53780128Y-89597552D01*
X53726597Y-89762302D01*
X53699500Y-89933389D01*
X53699500Y-90106610D01*
X53723429Y-90257697D01*
X53726598Y-90277701D01*
X53780127Y-90442445D01*
X53858768Y-90596788D01*
X53960586Y-90736928D01*
X54083072Y-90859414D01*
X54223212Y-90961232D01*
X54377555Y-91039873D01*
X54542299Y-91093402D01*
X54713389Y-91120500D01*
X54713390Y-91120500D01*
X54886610Y-91120500D01*
X54886611Y-91120500D01*
X55057701Y-91093402D01*
X55222445Y-91039873D01*
X55376788Y-90961232D01*
X55516928Y-90859414D01*
X55639414Y-90736928D01*
X55741232Y-90596788D01*
X55819873Y-90442445D01*
X55873402Y-90277701D01*
X55900500Y-90106611D01*
X55900500Y-89933389D01*
X55873402Y-89762299D01*
X55819873Y-89597555D01*
X55819869Y-89597547D01*
X55818401Y-89593029D01*
X55816406Y-89523188D01*
X55848648Y-89467033D01*
X56139864Y-89175816D01*
X56166796Y-89161111D01*
X56192609Y-89144523D01*
X56198809Y-89143631D01*
X56201186Y-89142334D01*
X56227544Y-89139500D01*
X56376064Y-89139500D01*
X56443103Y-89159185D01*
X56488858Y-89211989D01*
X56498802Y-89281147D01*
X56476382Y-89336386D01*
X56398768Y-89443211D01*
X56320128Y-89597552D01*
X56266597Y-89762302D01*
X56239500Y-89933389D01*
X56239500Y-90106610D01*
X56263429Y-90257697D01*
X56266598Y-90277701D01*
X56320127Y-90442445D01*
X56398768Y-90596788D01*
X56500586Y-90736928D01*
X56623072Y-90859414D01*
X56623075Y-90859416D01*
X56644775Y-90875182D01*
X56687441Y-90930511D01*
X56693420Y-91000125D01*
X56660815Y-91061920D01*
X56599976Y-91096277D01*
X56571890Y-91099500D01*
X55886489Y-91099500D01*
X55802431Y-91122023D01*
X55802428Y-91122024D01*
X55774846Y-91137948D01*
X55774846Y-91137949D01*
X55727070Y-91165533D01*
X55727068Y-91165534D01*
X55727065Y-91165536D01*
X55665532Y-91227070D01*
X55372289Y-91520312D01*
X55310966Y-91553797D01*
X55241274Y-91548813D01*
X55228320Y-91543119D01*
X55222452Y-91540129D01*
X55143694Y-91514539D01*
X55057701Y-91486598D01*
X55057699Y-91486597D01*
X55057698Y-91486597D01*
X54926271Y-91465781D01*
X54886611Y-91459500D01*
X54713389Y-91459500D01*
X54673728Y-91465781D01*
X54542302Y-91486597D01*
X54377552Y-91540128D01*
X54223211Y-91618768D01*
X54143256Y-91676859D01*
X54083072Y-91720586D01*
X54083070Y-91720588D01*
X54083069Y-91720588D01*
X53960588Y-91843069D01*
X53960588Y-91843070D01*
X53960586Y-91843072D01*
X53917665Y-91902147D01*
X53858768Y-91983211D01*
X53780128Y-92137552D01*
X53780128Y-92137553D01*
X53780127Y-92137555D01*
X53775975Y-92150332D01*
X53726597Y-92302302D01*
X53699500Y-92473389D01*
X53699500Y-92646610D01*
X53723429Y-92797697D01*
X53726598Y-92817701D01*
X53780127Y-92982445D01*
X53858768Y-93136788D01*
X53960586Y-93276928D01*
X54083072Y-93399414D01*
X54223212Y-93501232D01*
X54377555Y-93579873D01*
X54542299Y-93633402D01*
X54713389Y-93660500D01*
X54713390Y-93660500D01*
X54886610Y-93660500D01*
X54886611Y-93660500D01*
X55057701Y-93633402D01*
X55222445Y-93579873D01*
X55376788Y-93501232D01*
X55516928Y-93399414D01*
X55639414Y-93276928D01*
X55741232Y-93136788D01*
X55819873Y-92982445D01*
X55873402Y-92817701D01*
X55900500Y-92646611D01*
X55900500Y-92473389D01*
X55873402Y-92302299D01*
X55819873Y-92137555D01*
X55816882Y-92131686D01*
X55803986Y-92063018D01*
X55830261Y-91998277D01*
X55839667Y-91987728D01*
X56030579Y-91796816D01*
X56057508Y-91782113D01*
X56083324Y-91765523D01*
X56089526Y-91764631D01*
X56091902Y-91763334D01*
X56118259Y-91760500D01*
X56317214Y-91760500D01*
X56384253Y-91780185D01*
X56430008Y-91832989D01*
X56439952Y-91902147D01*
X56417532Y-91957386D01*
X56398768Y-91983211D01*
X56320128Y-92137552D01*
X56320128Y-92137553D01*
X56320127Y-92137555D01*
X56315975Y-92150332D01*
X56266597Y-92302302D01*
X56239500Y-92473389D01*
X56239500Y-92646610D01*
X56263429Y-92797697D01*
X56266598Y-92817701D01*
X56320127Y-92982445D01*
X56398768Y-93136788D01*
X56500586Y-93276928D01*
X56623072Y-93399414D01*
X56623075Y-93399416D01*
X56644775Y-93415182D01*
X56687441Y-93470511D01*
X56693420Y-93540125D01*
X56660815Y-93601920D01*
X56599976Y-93636277D01*
X56571890Y-93639500D01*
X55886489Y-93639500D01*
X55802431Y-93662023D01*
X55802428Y-93662024D01*
X55774846Y-93677948D01*
X55774846Y-93677949D01*
X55738139Y-93699142D01*
X55727068Y-93705534D01*
X55727065Y-93705536D01*
X55665532Y-93767070D01*
X55372289Y-94060312D01*
X55310966Y-94093797D01*
X55241274Y-94088813D01*
X55228320Y-94083119D01*
X55222452Y-94080129D01*
X55143694Y-94054539D01*
X55057701Y-94026598D01*
X55057699Y-94026597D01*
X55057698Y-94026597D01*
X54926271Y-94005781D01*
X54886611Y-93999500D01*
X54713389Y-93999500D01*
X54673728Y-94005781D01*
X54542302Y-94026597D01*
X54377552Y-94080128D01*
X54223211Y-94158768D01*
X54177647Y-94191873D01*
X54083072Y-94260586D01*
X54083070Y-94260588D01*
X54083069Y-94260588D01*
X53960588Y-94383069D01*
X53960588Y-94383070D01*
X53960586Y-94383072D01*
X53931117Y-94423633D01*
X53858768Y-94523211D01*
X53780128Y-94677552D01*
X53726597Y-94842302D01*
X53699500Y-95013389D01*
X53699500Y-95186610D01*
X53719747Y-95314450D01*
X53726598Y-95357701D01*
X53780127Y-95522445D01*
X53858768Y-95676788D01*
X53960586Y-95816928D01*
X54083072Y-95939414D01*
X54223212Y-96041232D01*
X54377555Y-96119873D01*
X54542299Y-96173402D01*
X54713389Y-96200500D01*
X54713390Y-96200500D01*
X54886610Y-96200500D01*
X54886611Y-96200500D01*
X55057701Y-96173402D01*
X55222445Y-96119873D01*
X55376788Y-96041232D01*
X55516928Y-95939414D01*
X55639414Y-95816928D01*
X55741232Y-95676788D01*
X55819873Y-95522445D01*
X55873402Y-95357701D01*
X55900500Y-95186611D01*
X55900500Y-95013389D01*
X55873402Y-94842299D01*
X55819873Y-94677555D01*
X55816882Y-94671686D01*
X55803986Y-94603018D01*
X55830261Y-94538277D01*
X55839667Y-94527728D01*
X56030579Y-94336816D01*
X56057508Y-94322113D01*
X56083324Y-94305523D01*
X56089526Y-94304631D01*
X56091902Y-94303334D01*
X56118259Y-94300500D01*
X56317214Y-94300500D01*
X56384253Y-94320185D01*
X56430008Y-94372989D01*
X56439952Y-94442147D01*
X56417532Y-94497386D01*
X56398768Y-94523211D01*
X56320128Y-94677552D01*
X56266597Y-94842302D01*
X56239500Y-95013389D01*
X56239500Y-95186610D01*
X56259747Y-95314450D01*
X56266598Y-95357701D01*
X56320127Y-95522445D01*
X56398768Y-95676788D01*
X56500586Y-95816928D01*
X56623072Y-95939414D01*
X56623075Y-95939416D01*
X56644775Y-95955182D01*
X56687441Y-96010511D01*
X56693420Y-96080125D01*
X56660815Y-96141920D01*
X56599976Y-96176277D01*
X56571890Y-96179500D01*
X55886489Y-96179500D01*
X55802431Y-96202023D01*
X55802428Y-96202024D01*
X55774846Y-96217948D01*
X55774846Y-96217949D01*
X55727070Y-96245533D01*
X55727068Y-96245534D01*
X55727065Y-96245536D01*
X55665532Y-96307070D01*
X55372289Y-96600312D01*
X55310966Y-96633797D01*
X55241274Y-96628813D01*
X55228320Y-96623119D01*
X55222452Y-96620129D01*
X55143694Y-96594539D01*
X55057701Y-96566598D01*
X55057699Y-96566597D01*
X55057698Y-96566597D01*
X54926271Y-96545781D01*
X54886611Y-96539500D01*
X54713389Y-96539500D01*
X54673728Y-96545781D01*
X54542302Y-96566597D01*
X54377552Y-96620128D01*
X54223211Y-96698768D01*
X54163297Y-96742299D01*
X54083072Y-96800586D01*
X54083070Y-96800588D01*
X54083069Y-96800588D01*
X53960588Y-96923069D01*
X53960588Y-96923070D01*
X53960586Y-96923072D01*
X53943308Y-96946853D01*
X53858768Y-97063211D01*
X53780128Y-97217552D01*
X53726597Y-97382302D01*
X53699500Y-97553389D01*
X53699500Y-97726610D01*
X53722951Y-97874678D01*
X53726598Y-97897701D01*
X53780127Y-98062445D01*
X53858768Y-98216788D01*
X53960586Y-98356928D01*
X54083072Y-98479414D01*
X54223212Y-98581232D01*
X54377555Y-98659873D01*
X54542299Y-98713402D01*
X54713389Y-98740500D01*
X54713390Y-98740500D01*
X54886610Y-98740500D01*
X54886611Y-98740500D01*
X55057701Y-98713402D01*
X55222445Y-98659873D01*
X55376788Y-98581232D01*
X55516928Y-98479414D01*
X55639414Y-98356928D01*
X55741232Y-98216788D01*
X55819873Y-98062445D01*
X55873402Y-97897701D01*
X55900500Y-97726611D01*
X55900500Y-97553389D01*
X55873402Y-97382299D01*
X55819873Y-97217555D01*
X55816882Y-97211686D01*
X55803986Y-97143018D01*
X55830261Y-97078277D01*
X55839667Y-97067728D01*
X56030579Y-96876816D01*
X56057508Y-96862113D01*
X56083324Y-96845523D01*
X56089526Y-96844631D01*
X56091902Y-96843334D01*
X56118259Y-96840500D01*
X56317214Y-96840500D01*
X56384253Y-96860185D01*
X56430008Y-96912989D01*
X56439952Y-96982147D01*
X56417532Y-97037386D01*
X56398768Y-97063211D01*
X56320128Y-97217552D01*
X56266597Y-97382302D01*
X56239500Y-97553389D01*
X56239500Y-97726610D01*
X56262951Y-97874678D01*
X56266598Y-97897701D01*
X56320127Y-98062445D01*
X56398768Y-98216788D01*
X56500586Y-98356928D01*
X56623072Y-98479414D01*
X56623075Y-98479416D01*
X56644775Y-98495182D01*
X56687441Y-98550511D01*
X56693420Y-98620125D01*
X56660815Y-98681920D01*
X56599976Y-98716277D01*
X56571890Y-98719500D01*
X55886489Y-98719500D01*
X55802430Y-98742023D01*
X55797073Y-98745116D01*
X55797070Y-98745118D01*
X55789481Y-98749500D01*
X55727068Y-98785534D01*
X55665534Y-98847068D01*
X55665532Y-98847070D01*
X55660239Y-98852362D01*
X55660235Y-98852366D01*
X55372289Y-99140312D01*
X55310966Y-99173797D01*
X55241274Y-99168813D01*
X55228320Y-99163119D01*
X55222452Y-99160129D01*
X55143694Y-99134539D01*
X55057701Y-99106598D01*
X55057699Y-99106597D01*
X55057698Y-99106597D01*
X54926271Y-99085781D01*
X54886611Y-99079500D01*
X54713389Y-99079500D01*
X54673728Y-99085781D01*
X54542302Y-99106597D01*
X54377552Y-99160128D01*
X54223211Y-99238768D01*
X54157193Y-99286734D01*
X54083072Y-99340586D01*
X54083070Y-99340588D01*
X54083069Y-99340588D01*
X53960588Y-99463069D01*
X53960588Y-99463070D01*
X53960586Y-99463072D01*
X53933393Y-99500500D01*
X53858768Y-99603211D01*
X53780128Y-99757552D01*
X53726597Y-99922302D01*
X53701169Y-100082850D01*
X53699500Y-100093389D01*
X53699500Y-100266611D01*
X53706076Y-100308133D01*
X53722950Y-100414672D01*
X53726598Y-100437701D01*
X53780127Y-100602445D01*
X53858768Y-100756788D01*
X53960586Y-100896928D01*
X54083072Y-101019414D01*
X54223212Y-101121232D01*
X54377555Y-101199873D01*
X54542299Y-101253402D01*
X54713389Y-101280500D01*
X54713390Y-101280500D01*
X54886610Y-101280500D01*
X54886611Y-101280500D01*
X55057701Y-101253402D01*
X55222445Y-101199873D01*
X55376788Y-101121232D01*
X55516928Y-101019414D01*
X55639414Y-100896928D01*
X55741232Y-100756788D01*
X55819873Y-100602445D01*
X55873402Y-100437701D01*
X55900500Y-100266611D01*
X55900500Y-100093389D01*
X55873402Y-99922299D01*
X55819873Y-99757555D01*
X55816882Y-99751686D01*
X55803986Y-99683018D01*
X55830261Y-99618277D01*
X55839667Y-99607728D01*
X56030579Y-99416816D01*
X56057508Y-99402113D01*
X56083324Y-99385523D01*
X56089526Y-99384631D01*
X56091902Y-99383334D01*
X56118259Y-99380500D01*
X56317214Y-99380500D01*
X56384253Y-99400185D01*
X56430008Y-99452989D01*
X56439952Y-99522147D01*
X56417532Y-99577386D01*
X56398768Y-99603211D01*
X56320128Y-99757552D01*
X56266597Y-99922302D01*
X56241169Y-100082850D01*
X56239500Y-100093389D01*
X56239500Y-100266611D01*
X56246076Y-100308133D01*
X56262950Y-100414672D01*
X56266598Y-100437701D01*
X56320127Y-100602445D01*
X56398768Y-100756788D01*
X56500586Y-100896928D01*
X56500588Y-100896930D01*
X56516477Y-100912819D01*
X56549962Y-100974142D01*
X56544978Y-101043834D01*
X56503106Y-101099767D01*
X56437642Y-101124184D01*
X56428796Y-101124500D01*
X55970564Y-101124500D01*
X55875061Y-101150089D01*
X55789438Y-101199525D01*
X55789435Y-101199527D01*
X55326284Y-101662677D01*
X55264961Y-101696162D01*
X55200286Y-101692927D01*
X55057701Y-101646598D01*
X55057699Y-101646597D01*
X55057698Y-101646597D01*
X54923363Y-101625321D01*
X54886611Y-101619500D01*
X54713389Y-101619500D01*
X54676637Y-101625321D01*
X54542302Y-101646597D01*
X54377552Y-101700128D01*
X54223211Y-101778768D01*
X54160887Y-101824050D01*
X54083072Y-101880586D01*
X54083070Y-101880588D01*
X54083069Y-101880588D01*
X53960588Y-102003069D01*
X53960588Y-102003070D01*
X53960586Y-102003072D01*
X53926583Y-102049873D01*
X53858768Y-102143211D01*
X53780128Y-102297552D01*
X53726597Y-102462302D01*
X53699500Y-102633389D01*
X53699500Y-102806610D01*
X53726597Y-102977697D01*
X53726597Y-102977699D01*
X53726598Y-102977701D01*
X53768301Y-103106050D01*
X53780128Y-103142447D01*
X53797732Y-103176998D01*
X53858768Y-103296788D01*
X53960586Y-103436928D01*
X54083072Y-103559414D01*
X54223212Y-103661232D01*
X54377555Y-103739873D01*
X54542299Y-103793402D01*
X54713389Y-103820500D01*
X54713390Y-103820500D01*
X54886610Y-103820500D01*
X54886611Y-103820500D01*
X55057701Y-103793402D01*
X55222445Y-103739873D01*
X55376788Y-103661232D01*
X55516928Y-103559414D01*
X55639414Y-103436928D01*
X55741232Y-103296788D01*
X55819873Y-103142445D01*
X55873402Y-102977701D01*
X55900500Y-102806611D01*
X55900500Y-102633389D01*
X55873402Y-102462299D01*
X55827071Y-102319710D01*
X55825077Y-102249871D01*
X55857319Y-102193717D01*
X56139219Y-101911816D01*
X56166151Y-101897111D01*
X56191964Y-101880523D01*
X56198164Y-101879631D01*
X56200541Y-101878334D01*
X56226899Y-101875500D01*
X56349909Y-101875500D01*
X56416948Y-101895185D01*
X56462703Y-101947989D01*
X56472647Y-102017147D01*
X56450227Y-102072383D01*
X56446471Y-102077555D01*
X56398768Y-102143211D01*
X56320128Y-102297552D01*
X56266597Y-102462302D01*
X56239500Y-102633389D01*
X56239500Y-102806610D01*
X56266597Y-102977697D01*
X56266597Y-102977699D01*
X56266598Y-102977701D01*
X56308301Y-103106050D01*
X56320128Y-103142447D01*
X56337732Y-103176998D01*
X56398768Y-103296788D01*
X56500586Y-103436928D01*
X56623072Y-103559414D01*
X56763212Y-103661232D01*
X56917555Y-103739873D01*
X57082299Y-103793402D01*
X57253389Y-103820500D01*
X57253390Y-103820500D01*
X57426610Y-103820500D01*
X57426611Y-103820500D01*
X57597701Y-103793402D01*
X57740289Y-103747071D01*
X57810126Y-103745077D01*
X57866285Y-103777322D01*
X57959438Y-103870475D01*
X58045063Y-103919911D01*
X58045070Y-103919913D01*
X58047541Y-103920937D01*
X58049312Y-103922364D01*
X58052102Y-103923975D01*
X58051850Y-103924409D01*
X58101946Y-103964776D01*
X58124013Y-104031070D01*
X58106736Y-104098770D01*
X58055600Y-104146382D01*
X58000092Y-104159500D01*
X56465323Y-104159500D01*
X56392264Y-104174032D01*
X56392260Y-104174033D01*
X56309399Y-104229399D01*
X56254033Y-104312260D01*
X56254032Y-104312264D01*
X56239500Y-104385321D01*
X56239500Y-104760500D01*
X56236949Y-104769185D01*
X56238238Y-104778147D01*
X56227259Y-104802187D01*
X56219815Y-104827539D01*
X56212974Y-104833466D01*
X56209213Y-104841703D01*
X56186978Y-104855992D01*
X56167011Y-104873294D01*
X56156496Y-104875581D01*
X56150435Y-104879477D01*
X56115500Y-104884500D01*
X55919780Y-104884500D01*
X55852741Y-104864815D01*
X55809295Y-104816794D01*
X55741233Y-104683213D01*
X55691807Y-104615185D01*
X55639414Y-104543072D01*
X55516928Y-104420586D01*
X55376788Y-104318768D01*
X55222445Y-104240127D01*
X55057701Y-104186598D01*
X55057699Y-104186597D01*
X55057698Y-104186597D01*
X54926271Y-104165781D01*
X54886611Y-104159500D01*
X54713389Y-104159500D01*
X54673728Y-104165781D01*
X54542302Y-104186597D01*
X54377552Y-104240128D01*
X54223211Y-104318768D01*
X54145127Y-104375500D01*
X54083072Y-104420586D01*
X54083070Y-104420588D01*
X54083069Y-104420588D01*
X53960588Y-104543069D01*
X53960588Y-104543070D01*
X53960586Y-104543072D01*
X53944764Y-104564849D01*
X53858768Y-104683211D01*
X53780128Y-104837552D01*
X53726597Y-105002302D01*
X53699500Y-105173389D01*
X53699500Y-105346610D01*
X53723192Y-105496201D01*
X53726598Y-105517701D01*
X53780127Y-105682445D01*
X53858768Y-105836788D01*
X53960586Y-105976928D01*
X54083072Y-106099414D01*
X54223212Y-106201232D01*
X54377555Y-106279873D01*
X54542299Y-106333402D01*
X54713389Y-106360500D01*
X54713390Y-106360500D01*
X54886610Y-106360500D01*
X54886611Y-106360500D01*
X55057701Y-106333402D01*
X55222445Y-106279873D01*
X55376788Y-106201232D01*
X55516928Y-106099414D01*
X55639414Y-105976928D01*
X55741232Y-105836788D01*
X55788030Y-105744941D01*
X55809295Y-105703206D01*
X55819744Y-105692141D01*
X55826067Y-105678297D01*
X55843246Y-105667256D01*
X55857269Y-105652409D01*
X55872950Y-105648167D01*
X55884845Y-105640523D01*
X55919780Y-105635500D01*
X56115500Y-105635500D01*
X56182539Y-105655185D01*
X56228294Y-105707989D01*
X56239500Y-105759500D01*
X56239500Y-106134678D01*
X56254032Y-106207735D01*
X56254033Y-106207739D01*
X56257549Y-106213001D01*
X56309399Y-106290601D01*
X56389644Y-106344218D01*
X56392260Y-106345966D01*
X56392264Y-106345967D01*
X56465321Y-106360499D01*
X56465324Y-106360500D01*
X56465326Y-106360500D01*
X58214676Y-106360500D01*
X58214677Y-106360499D01*
X58287740Y-106345966D01*
X58370601Y-106290601D01*
X58425966Y-106207740D01*
X58440500Y-106134674D01*
X58440500Y-105759500D01*
X58460185Y-105692461D01*
X58512989Y-105646706D01*
X58564500Y-105635500D01*
X58789435Y-105635500D01*
X58789436Y-105635500D01*
X58837186Y-105622705D01*
X58884938Y-105609910D01*
X58970562Y-105560475D01*
X59040475Y-105490562D01*
X59284443Y-105246594D01*
X60172201Y-105246594D01*
X60178602Y-105306122D01*
X60178604Y-105306129D01*
X60228846Y-105440836D01*
X60228850Y-105440843D01*
X60315010Y-105555937D01*
X60315013Y-105555940D01*
X60430107Y-105642100D01*
X60430114Y-105642104D01*
X60564821Y-105692346D01*
X60564828Y-105692348D01*
X60624356Y-105698749D01*
X60624373Y-105698750D01*
X60672201Y-105698750D01*
X60672201Y-104951100D01*
X60172201Y-104951100D01*
X60172201Y-105246594D01*
X59284443Y-105246594D01*
X59966188Y-104564849D01*
X60027511Y-104531364D01*
X60097203Y-104536348D01*
X60141550Y-104564849D01*
X60172201Y-104595500D01*
X60726001Y-104595500D01*
X60793040Y-104615185D01*
X60838795Y-104667989D01*
X60850001Y-104719500D01*
X60850001Y-104773300D01*
X60903801Y-104773300D01*
X60970840Y-104792985D01*
X61016595Y-104845789D01*
X61027801Y-104897300D01*
X61027801Y-105698750D01*
X61075629Y-105698750D01*
X61075645Y-105698749D01*
X61135173Y-105692348D01*
X61135180Y-105692346D01*
X61269887Y-105642104D01*
X61269894Y-105642100D01*
X61384986Y-105555941D01*
X61384991Y-105555936D01*
X61427660Y-105498939D01*
X61431316Y-105496201D01*
X61433214Y-105492047D01*
X61459028Y-105475456D01*
X61483594Y-105457068D01*
X61489223Y-105456052D01*
X61491992Y-105454273D01*
X61526927Y-105449250D01*
X61615517Y-105449250D01*
X61682556Y-105468935D01*
X61722904Y-105511250D01*
X61753563Y-105564353D01*
X61752210Y-105565133D01*
X61774068Y-105621660D01*
X61774499Y-105631986D01*
X61774499Y-105649436D01*
X61800089Y-105744939D01*
X61849524Y-105830563D01*
X61919437Y-105900476D01*
X62005061Y-105949911D01*
X62100564Y-105975501D01*
X62118013Y-105975501D01*
X62185052Y-105995186D01*
X62192266Y-106000258D01*
X62192684Y-106000499D01*
X62192686Y-106000501D01*
X62306814Y-106066393D01*
X62434107Y-106100501D01*
X62434109Y-106100501D01*
X62565890Y-106100501D01*
X62565892Y-106100501D01*
X62693186Y-106066393D01*
X62807314Y-106000501D01*
X62807315Y-106000499D01*
X62814352Y-105996437D01*
X62815131Y-105997787D01*
X62871671Y-105975931D01*
X62881987Y-105975501D01*
X76393102Y-105975501D01*
X76460141Y-105995186D01*
X76480782Y-106011819D01*
X76813182Y-106344219D01*
X76846666Y-106405541D01*
X76849500Y-106431899D01*
X76849500Y-106435931D01*
X76849500Y-106564069D01*
X76849500Y-106564071D01*
X76849499Y-106564071D01*
X76874497Y-106689738D01*
X76874499Y-106689744D01*
X76923533Y-106808124D01*
X76923538Y-106808133D01*
X76994723Y-106914668D01*
X76994726Y-106914672D01*
X77085327Y-107005273D01*
X77085331Y-107005276D01*
X77191866Y-107076461D01*
X77191872Y-107076464D01*
X77191873Y-107076465D01*
X77310256Y-107125501D01*
X77310260Y-107125501D01*
X77310261Y-107125502D01*
X77435928Y-107150500D01*
X77435931Y-107150500D01*
X77564071Y-107150500D01*
X77648615Y-107133682D01*
X77689744Y-107125501D01*
X77808127Y-107076465D01*
X77914669Y-107005276D01*
X78005276Y-106914669D01*
X78076465Y-106808127D01*
X78125501Y-106689744D01*
X78144839Y-106592528D01*
X78177224Y-106530617D01*
X78178719Y-106529094D01*
X78400500Y-106307314D01*
X78900500Y-105807314D01*
X78966392Y-105693186D01*
X79000500Y-105565892D01*
X79000500Y-105434107D01*
X79000500Y-104459432D01*
X79020185Y-104392393D01*
X79021398Y-104390541D01*
X79076461Y-104308133D01*
X79076461Y-104308132D01*
X79076465Y-104308127D01*
X79125501Y-104189744D01*
X79144839Y-104092528D01*
X79177224Y-104030617D01*
X79178719Y-104029094D01*
X82029040Y-101178773D01*
X82090361Y-101145290D01*
X82092528Y-101144839D01*
X82093004Y-101144744D01*
X82189744Y-101125501D01*
X82308127Y-101076465D01*
X82414669Y-101005276D01*
X82505276Y-100914669D01*
X82576465Y-100808127D01*
X82625501Y-100689744D01*
X82629931Y-100667472D01*
X82643292Y-100600308D01*
X82675677Y-100538397D01*
X82736393Y-100503823D01*
X82764909Y-100500500D01*
X87790568Y-100500500D01*
X87857607Y-100520185D01*
X87859459Y-100521398D01*
X87941866Y-100576461D01*
X87941872Y-100576464D01*
X87941873Y-100576465D01*
X88060256Y-100625501D01*
X88060260Y-100625501D01*
X88060261Y-100625502D01*
X88185928Y-100650500D01*
X88185931Y-100650500D01*
X88314071Y-100650500D01*
X88398615Y-100633682D01*
X88439744Y-100625501D01*
X88558127Y-100576465D01*
X88664669Y-100505276D01*
X88755276Y-100414669D01*
X88826465Y-100308127D01*
X88875501Y-100189744D01*
X88900500Y-100064069D01*
X88900500Y-99935931D01*
X88900500Y-99935928D01*
X88875502Y-99810261D01*
X88875501Y-99810260D01*
X88875501Y-99810256D01*
X88829226Y-99698538D01*
X88826466Y-99691875D01*
X88826461Y-99691866D01*
X88755276Y-99585331D01*
X88755273Y-99585327D01*
X88664672Y-99494726D01*
X88664668Y-99494723D01*
X88558133Y-99423538D01*
X88558124Y-99423533D01*
X88439744Y-99374499D01*
X88439738Y-99374497D01*
X88314071Y-99349500D01*
X88314069Y-99349500D01*
X88185931Y-99349500D01*
X88185929Y-99349500D01*
X88060261Y-99374497D01*
X88060255Y-99374499D01*
X87941875Y-99423533D01*
X87941866Y-99423538D01*
X87859459Y-99478602D01*
X87792782Y-99499480D01*
X87790568Y-99499500D01*
X82434108Y-99499500D01*
X82306812Y-99533608D01*
X82192686Y-99599500D01*
X82192683Y-99599502D01*
X82087681Y-99704505D01*
X82026358Y-99737990D01*
X81956666Y-99733006D01*
X81912319Y-99704505D01*
X81286819Y-99079005D01*
X81253334Y-99017682D01*
X81250500Y-98991324D01*
X81250500Y-84564071D01*
X85099499Y-84564071D01*
X85124497Y-84689738D01*
X85124499Y-84689744D01*
X85173533Y-84808124D01*
X85173538Y-84808133D01*
X85244723Y-84914668D01*
X85244726Y-84914672D01*
X85335327Y-85005273D01*
X85335331Y-85005276D01*
X85441866Y-85076461D01*
X85441872Y-85076464D01*
X85441873Y-85076465D01*
X85560256Y-85125501D01*
X85560260Y-85125501D01*
X85560261Y-85125502D01*
X85685928Y-85150500D01*
X85685931Y-85150500D01*
X85814071Y-85150500D01*
X85898615Y-85133682D01*
X85939744Y-85125501D01*
X86058127Y-85076465D01*
X86164669Y-85005276D01*
X86255276Y-84914669D01*
X86326465Y-84808127D01*
X86375501Y-84689744D01*
X86392792Y-84602818D01*
X86400500Y-84564071D01*
X86400500Y-84435928D01*
X86375502Y-84310261D01*
X86375501Y-84310260D01*
X86375501Y-84310256D01*
X86326465Y-84191873D01*
X86326464Y-84191872D01*
X86326461Y-84191866D01*
X86255276Y-84085331D01*
X86255273Y-84085327D01*
X86164672Y-83994726D01*
X86164668Y-83994723D01*
X86058133Y-83923538D01*
X86058124Y-83923533D01*
X85939744Y-83874499D01*
X85939738Y-83874497D01*
X85814071Y-83849500D01*
X85814069Y-83849500D01*
X85685931Y-83849500D01*
X85685929Y-83849500D01*
X85560261Y-83874497D01*
X85560255Y-83874499D01*
X85441875Y-83923533D01*
X85441866Y-83923538D01*
X85335331Y-83994723D01*
X85335327Y-83994726D01*
X85244726Y-84085327D01*
X85244723Y-84085331D01*
X85173538Y-84191866D01*
X85173533Y-84191875D01*
X85124499Y-84310255D01*
X85124497Y-84310261D01*
X85099500Y-84435928D01*
X85099500Y-84435931D01*
X85099500Y-84564069D01*
X85099500Y-84564071D01*
X85099499Y-84564071D01*
X81250500Y-84564071D01*
X81250500Y-79564071D01*
X91099499Y-79564071D01*
X91124497Y-79689738D01*
X91124499Y-79689744D01*
X91173533Y-79808124D01*
X91173538Y-79808133D01*
X91244723Y-79914668D01*
X91244726Y-79914672D01*
X91335327Y-80005273D01*
X91335331Y-80005276D01*
X91441866Y-80076461D01*
X91441872Y-80076464D01*
X91441873Y-80076465D01*
X91560256Y-80125501D01*
X91560260Y-80125501D01*
X91560261Y-80125502D01*
X91685928Y-80150500D01*
X91685931Y-80150500D01*
X91814071Y-80150500D01*
X91898615Y-80133682D01*
X91939744Y-80125501D01*
X92058127Y-80076465D01*
X92164669Y-80005276D01*
X92255276Y-79914669D01*
X92326465Y-79808127D01*
X92375501Y-79689744D01*
X92392895Y-79602302D01*
X92400500Y-79564071D01*
X92400500Y-79435928D01*
X92375502Y-79310261D01*
X92375501Y-79310260D01*
X92375501Y-79310256D01*
X92326465Y-79191873D01*
X92326464Y-79191872D01*
X92326461Y-79191866D01*
X92255276Y-79085331D01*
X92255273Y-79085327D01*
X92164672Y-78994726D01*
X92164668Y-78994723D01*
X92058133Y-78923538D01*
X92058124Y-78923533D01*
X91939744Y-78874499D01*
X91939738Y-78874497D01*
X91814071Y-78849500D01*
X91814069Y-78849500D01*
X91685931Y-78849500D01*
X91685929Y-78849500D01*
X91560261Y-78874497D01*
X91560255Y-78874499D01*
X91441875Y-78923533D01*
X91441866Y-78923538D01*
X91335331Y-78994723D01*
X91335327Y-78994726D01*
X91244726Y-79085327D01*
X91244723Y-79085331D01*
X91173538Y-79191866D01*
X91173533Y-79191875D01*
X91124499Y-79310255D01*
X91124497Y-79310261D01*
X91099500Y-79435928D01*
X91099500Y-79435931D01*
X91099500Y-79564069D01*
X91099500Y-79564071D01*
X91099499Y-79564071D01*
X81250500Y-79564071D01*
X81250500Y-79508676D01*
X81259144Y-79479235D01*
X81265668Y-79449249D01*
X81269422Y-79444233D01*
X81270185Y-79441637D01*
X81286819Y-79420995D01*
X81365656Y-79342158D01*
X81941217Y-78766597D01*
X82529040Y-78178773D01*
X82590361Y-78145290D01*
X82592528Y-78144839D01*
X82593004Y-78144744D01*
X82689744Y-78125501D01*
X82808127Y-78076465D01*
X82890541Y-78021398D01*
X82957218Y-78000520D01*
X82959432Y-78000500D01*
X87290568Y-78000500D01*
X87357607Y-78020185D01*
X87359459Y-78021398D01*
X87441866Y-78076461D01*
X87441875Y-78076466D01*
X87468692Y-78087574D01*
X87560256Y-78125501D01*
X87560260Y-78125501D01*
X87560261Y-78125502D01*
X87685928Y-78150500D01*
X87685931Y-78150500D01*
X87814071Y-78150500D01*
X87898615Y-78133682D01*
X87939744Y-78125501D01*
X88058127Y-78076465D01*
X88164669Y-78005276D01*
X88255276Y-77914669D01*
X88326465Y-77808127D01*
X88375501Y-77689744D01*
X88397891Y-77577187D01*
X88400500Y-77564071D01*
X88400500Y-77435928D01*
X88375502Y-77310261D01*
X88375501Y-77310260D01*
X88375501Y-77310256D01*
X88326465Y-77191873D01*
X88326464Y-77191872D01*
X88326461Y-77191866D01*
X88255276Y-77085331D01*
X88255273Y-77085327D01*
X88164672Y-76994726D01*
X88164668Y-76994723D01*
X88058133Y-76923538D01*
X88058124Y-76923533D01*
X87939744Y-76874499D01*
X87939738Y-76874497D01*
X87814071Y-76849500D01*
X87814069Y-76849500D01*
X87685931Y-76849500D01*
X87685929Y-76849500D01*
X87560261Y-76874497D01*
X87560255Y-76874499D01*
X87441875Y-76923533D01*
X87441866Y-76923538D01*
X87359459Y-76978602D01*
X87292782Y-76999480D01*
X87290568Y-76999500D01*
X82959432Y-76999500D01*
X82892393Y-76979815D01*
X82890541Y-76978602D01*
X82808133Y-76923538D01*
X82808124Y-76923533D01*
X82689744Y-76874499D01*
X82689738Y-76874497D01*
X82564071Y-76849500D01*
X82564069Y-76849500D01*
X82435931Y-76849500D01*
X82435929Y-76849500D01*
X82310261Y-76874497D01*
X82310255Y-76874499D01*
X82191875Y-76923533D01*
X82191866Y-76923538D01*
X82085331Y-76994723D01*
X82085327Y-76994726D01*
X81994726Y-77085327D01*
X81994723Y-77085331D01*
X81923538Y-77191866D01*
X81923533Y-77191875D01*
X81874499Y-77310255D01*
X81874497Y-77310260D01*
X81855160Y-77407473D01*
X81822774Y-77469383D01*
X81821224Y-77470961D01*
X80442686Y-78849500D01*
X80349502Y-78942683D01*
X80349500Y-78942686D01*
X80283608Y-79056812D01*
X80249500Y-79184108D01*
X80249500Y-99315891D01*
X80283608Y-99443187D01*
X80313365Y-99494726D01*
X80349500Y-99557314D01*
X80349502Y-99557316D01*
X81204505Y-100412319D01*
X81237990Y-100473642D01*
X81233006Y-100543334D01*
X81204505Y-100587681D01*
X78470961Y-103321224D01*
X78409638Y-103354709D01*
X78407473Y-103355160D01*
X78310260Y-103374497D01*
X78310255Y-103374499D01*
X78191875Y-103423533D01*
X78191866Y-103423538D01*
X78085331Y-103494723D01*
X78085327Y-103494726D01*
X77994726Y-103585327D01*
X77994723Y-103585331D01*
X77923538Y-103691866D01*
X77923533Y-103691875D01*
X77874499Y-103810255D01*
X77874497Y-103810261D01*
X77849500Y-103935928D01*
X77849500Y-103935931D01*
X77849500Y-104064069D01*
X77849500Y-104064071D01*
X77849499Y-104064071D01*
X77874497Y-104189738D01*
X77874499Y-104189744D01*
X77923533Y-104308124D01*
X77923538Y-104308133D01*
X77978602Y-104390541D01*
X77999480Y-104457218D01*
X77999500Y-104459432D01*
X77999500Y-105241324D01*
X77979815Y-105308363D01*
X77963181Y-105329005D01*
X77692686Y-105599500D01*
X77499292Y-105792893D01*
X77437969Y-105826378D01*
X77368277Y-105821394D01*
X77323932Y-105792894D01*
X76830564Y-105299527D01*
X76830563Y-105299526D01*
X76744939Y-105250091D01*
X76697187Y-105237296D01*
X76697185Y-105237295D01*
X76697183Y-105237294D01*
X76649437Y-105224501D01*
X76649436Y-105224501D01*
X62883676Y-105224501D01*
X62854235Y-105215856D01*
X62824249Y-105209333D01*
X62819233Y-105205578D01*
X62816637Y-105204816D01*
X62795995Y-105188182D01*
X62686818Y-105079005D01*
X62653333Y-105017682D01*
X62650499Y-104991324D01*
X62650499Y-104031960D01*
X62650499Y-104031958D01*
X62616391Y-103904664D01*
X62550499Y-103790536D01*
X62457313Y-103697350D01*
X62359463Y-103599500D01*
X62290027Y-103559411D01*
X62245336Y-103533608D01*
X62181688Y-103516554D01*
X62118041Y-103499500D01*
X61986257Y-103499500D01*
X61986255Y-103499500D01*
X61978201Y-103500561D01*
X61977823Y-103497694D01*
X61921886Y-103496341D01*
X61864039Y-103457156D01*
X61836560Y-103392917D01*
X61841165Y-103341803D01*
X61845287Y-103328393D01*
X61849910Y-103320388D01*
X61863539Y-103269525D01*
X61864567Y-103265686D01*
X61865237Y-103263509D01*
X61883286Y-103236191D01*
X61900340Y-103208206D01*
X61902456Y-103207177D01*
X61903753Y-103205215D01*
X61933719Y-103191986D01*
X61963184Y-103177669D01*
X61966844Y-103177363D01*
X61967672Y-103176998D01*
X61968904Y-103177191D01*
X61983761Y-103175950D01*
X62352475Y-103175950D01*
X62352476Y-103175949D01*
X62425539Y-103161416D01*
X62508400Y-103106051D01*
X62563765Y-103023190D01*
X62578299Y-102950124D01*
X62578299Y-102049876D01*
X62578299Y-102049873D01*
X62578298Y-102049871D01*
X62563766Y-101976814D01*
X62563765Y-101976810D01*
X62508400Y-101893949D01*
X62429104Y-101840966D01*
X62425538Y-101838583D01*
X62425534Y-101838582D01*
X62352476Y-101824050D01*
X62352473Y-101824050D01*
X61947525Y-101824050D01*
X61947523Y-101824050D01*
X61874457Y-101838583D01*
X61872446Y-101839417D01*
X61867711Y-101839925D01*
X61862482Y-101840966D01*
X61862388Y-101840497D01*
X61802976Y-101846882D01*
X61777554Y-101839417D01*
X61775541Y-101838583D01*
X61702477Y-101824050D01*
X61702474Y-101824050D01*
X61297526Y-101824050D01*
X61297524Y-101824050D01*
X61224458Y-101838583D01*
X61222447Y-101839417D01*
X61217712Y-101839925D01*
X61212483Y-101840966D01*
X61212389Y-101840497D01*
X61152977Y-101846882D01*
X61127555Y-101839417D01*
X61125542Y-101838583D01*
X61052478Y-101824050D01*
X61052475Y-101824050D01*
X60756450Y-101824050D01*
X60689411Y-101804365D01*
X60668769Y-101787731D01*
X60080564Y-101199526D01*
X60080563Y-101199525D01*
X59994939Y-101150090D01*
X59947187Y-101137295D01*
X59947185Y-101137294D01*
X59947183Y-101137293D01*
X59899437Y-101124500D01*
X59899436Y-101124500D01*
X58251204Y-101124500D01*
X58184165Y-101104815D01*
X58138410Y-101052011D01*
X58128466Y-100982853D01*
X58157491Y-100919297D01*
X58163523Y-100912819D01*
X58179414Y-100896928D01*
X58281232Y-100756788D01*
X58356052Y-100609944D01*
X60172201Y-100609944D01*
X60178602Y-100669472D01*
X60178604Y-100669479D01*
X60228846Y-100804186D01*
X60228850Y-100804193D01*
X60315010Y-100919287D01*
X60315013Y-100919290D01*
X60430107Y-101005450D01*
X60430114Y-101005454D01*
X60564821Y-101055696D01*
X60564828Y-101055698D01*
X60624356Y-101062099D01*
X60624373Y-101062100D01*
X60672201Y-101062100D01*
X60672201Y-100314450D01*
X60172201Y-100314450D01*
X60172201Y-100609944D01*
X58356052Y-100609944D01*
X58359873Y-100602445D01*
X58413402Y-100437701D01*
X58440500Y-100266611D01*
X58440500Y-100093389D01*
X58413402Y-99922299D01*
X58413400Y-99922292D01*
X58412263Y-99917552D01*
X58413767Y-99917190D01*
X58411964Y-99854184D01*
X58448041Y-99794349D01*
X58510740Y-99763517D01*
X58531892Y-99761700D01*
X60048201Y-99761700D01*
X60115240Y-99781385D01*
X60160995Y-99834189D01*
X60172201Y-99885700D01*
X60172201Y-99958850D01*
X60726001Y-99958850D01*
X60793040Y-99978535D01*
X60838795Y-100031339D01*
X60850001Y-100082850D01*
X60850001Y-100136650D01*
X60903801Y-100136650D01*
X60970840Y-100156335D01*
X61016595Y-100209139D01*
X61027801Y-100260650D01*
X61027801Y-101062100D01*
X61075629Y-101062100D01*
X61075645Y-101062099D01*
X61135173Y-101055698D01*
X61135180Y-101055696D01*
X61269887Y-101005454D01*
X61269894Y-101005450D01*
X61384986Y-100919291D01*
X61384991Y-100919286D01*
X61427660Y-100862289D01*
X61483594Y-100820418D01*
X61526927Y-100812600D01*
X61702476Y-100812600D01*
X61702477Y-100812599D01*
X61775540Y-100798066D01*
X61775545Y-100798062D01*
X61777535Y-100797239D01*
X61782255Y-100796731D01*
X61787519Y-100795684D01*
X61787612Y-100796154D01*
X61847004Y-100789763D01*
X61872460Y-100797237D01*
X61874455Y-100798063D01*
X61874459Y-100798066D01*
X61874463Y-100798066D01*
X61874466Y-100798068D01*
X61947520Y-100812599D01*
X61947523Y-100812600D01*
X61947525Y-100812600D01*
X62352475Y-100812600D01*
X62352476Y-100812599D01*
X62425539Y-100798066D01*
X62508400Y-100742701D01*
X62563765Y-100659840D01*
X62578299Y-100586774D01*
X62578299Y-99686526D01*
X62578299Y-99686523D01*
X62578298Y-99686521D01*
X62563766Y-99613464D01*
X62563765Y-99613463D01*
X62563765Y-99613460D01*
X62508400Y-99530599D01*
X62508398Y-99530596D01*
X62502165Y-99524363D01*
X62470072Y-99468776D01*
X62457976Y-99423632D01*
X62414465Y-99348268D01*
X62352931Y-99286734D01*
X61851731Y-98785534D01*
X61801155Y-98756334D01*
X61752940Y-98705768D01*
X61739716Y-98637161D01*
X61765684Y-98572296D01*
X61822598Y-98531767D01*
X61887347Y-98527330D01*
X61947522Y-98539300D01*
X61947525Y-98539300D01*
X62352475Y-98539300D01*
X62352476Y-98539299D01*
X62425539Y-98524766D01*
X62508400Y-98469401D01*
X62563765Y-98386540D01*
X62578299Y-98313474D01*
X62578299Y-97413226D01*
X62578299Y-97413223D01*
X62578298Y-97413221D01*
X62563766Y-97340164D01*
X62563765Y-97340160D01*
X62543279Y-97309500D01*
X62508400Y-97257299D01*
X62425539Y-97201934D01*
X62425538Y-97201933D01*
X62425534Y-97201932D01*
X62352476Y-97187400D01*
X62352473Y-97187400D01*
X61947525Y-97187400D01*
X61928697Y-97191145D01*
X61859106Y-97184916D01*
X61803929Y-97142053D01*
X61797119Y-97131526D01*
X61797054Y-97131414D01*
X61764466Y-97074968D01*
X61702932Y-97013434D01*
X61425032Y-96735534D01*
X61349668Y-96692023D01*
X61265611Y-96669500D01*
X61265610Y-96669500D01*
X59428260Y-96669500D01*
X59361221Y-96649815D01*
X59340579Y-96633181D01*
X58952933Y-96245535D01*
X58952932Y-96245534D01*
X58877568Y-96202023D01*
X58793511Y-96179500D01*
X58793510Y-96179500D01*
X58108110Y-96179500D01*
X58041071Y-96159815D01*
X57995316Y-96107011D01*
X57985372Y-96037853D01*
X58014397Y-95974297D01*
X58035225Y-95955182D01*
X58056928Y-95939414D01*
X58179414Y-95816928D01*
X58281232Y-95676788D01*
X58315290Y-95609944D01*
X60172201Y-95609944D01*
X60178602Y-95669472D01*
X60178604Y-95669479D01*
X60228846Y-95804186D01*
X60228850Y-95804193D01*
X60315010Y-95919287D01*
X60315013Y-95919290D01*
X60430107Y-96005450D01*
X60430114Y-96005454D01*
X60564821Y-96055696D01*
X60564828Y-96055698D01*
X60624356Y-96062099D01*
X60624373Y-96062100D01*
X60672201Y-96062100D01*
X60672201Y-95314450D01*
X60172201Y-95314450D01*
X60172201Y-95609944D01*
X58315290Y-95609944D01*
X58359873Y-95522445D01*
X58413402Y-95357701D01*
X58440500Y-95186611D01*
X58440500Y-95013389D01*
X58423348Y-94905096D01*
X58432302Y-94835805D01*
X58477299Y-94782353D01*
X58544050Y-94761713D01*
X58545821Y-94761700D01*
X60048201Y-94761700D01*
X60115240Y-94781385D01*
X60160995Y-94834189D01*
X60172201Y-94885700D01*
X60172201Y-94958850D01*
X60726001Y-94958850D01*
X60793040Y-94978535D01*
X60838795Y-95031339D01*
X60850001Y-95082850D01*
X60850001Y-95136650D01*
X60903801Y-95136650D01*
X60970840Y-95156335D01*
X61016595Y-95209139D01*
X61027801Y-95260650D01*
X61027801Y-96062100D01*
X61075629Y-96062100D01*
X61075645Y-96062099D01*
X61135173Y-96055698D01*
X61135180Y-96055696D01*
X61269887Y-96005454D01*
X61269894Y-96005450D01*
X61384986Y-95919291D01*
X61384991Y-95919286D01*
X61427660Y-95862289D01*
X61483594Y-95820418D01*
X61526927Y-95812600D01*
X61702476Y-95812600D01*
X61702477Y-95812599D01*
X61775540Y-95798066D01*
X61775545Y-95798062D01*
X61777535Y-95797239D01*
X61782255Y-95796731D01*
X61787519Y-95795684D01*
X61787612Y-95796154D01*
X61847004Y-95789763D01*
X61872460Y-95797237D01*
X61874455Y-95798063D01*
X61874459Y-95798066D01*
X61874463Y-95798066D01*
X61874466Y-95798068D01*
X61947520Y-95812599D01*
X61947523Y-95812600D01*
X61947525Y-95812600D01*
X62352475Y-95812600D01*
X62352476Y-95812599D01*
X62425539Y-95798066D01*
X62508400Y-95742701D01*
X62563765Y-95659840D01*
X62578299Y-95586774D01*
X62578299Y-94686526D01*
X62578299Y-94686523D01*
X62578298Y-94686521D01*
X62563766Y-94613464D01*
X62563765Y-94613463D01*
X62563765Y-94613460D01*
X62508400Y-94530599D01*
X62508398Y-94530596D01*
X62502165Y-94524363D01*
X62470072Y-94468776D01*
X62457976Y-94423632D01*
X62414465Y-94348268D01*
X62352931Y-94286734D01*
X61809616Y-93743419D01*
X61776131Y-93682096D01*
X61781115Y-93612404D01*
X61822987Y-93556471D01*
X61888451Y-93532054D01*
X61921488Y-93534120D01*
X61935182Y-93536844D01*
X61947524Y-93539300D01*
X61947525Y-93539300D01*
X62352475Y-93539300D01*
X62352476Y-93539299D01*
X62425539Y-93524766D01*
X62508400Y-93469401D01*
X62563765Y-93386540D01*
X62578299Y-93313474D01*
X62578299Y-92413226D01*
X62578299Y-92413223D01*
X62578298Y-92413221D01*
X62563766Y-92340164D01*
X62563765Y-92340160D01*
X62508400Y-92257299D01*
X62425539Y-92201934D01*
X62425538Y-92201933D01*
X62425534Y-92201932D01*
X62352476Y-92187400D01*
X62352473Y-92187400D01*
X61947525Y-92187400D01*
X61928697Y-92191145D01*
X61859106Y-92184916D01*
X61803929Y-92142053D01*
X61797119Y-92131526D01*
X61789051Y-92117552D01*
X61764466Y-92074968D01*
X61702932Y-92013434D01*
X61425032Y-91735534D01*
X61349668Y-91692023D01*
X61265611Y-91669500D01*
X61265610Y-91669500D01*
X59258260Y-91669500D01*
X59191221Y-91649815D01*
X59170579Y-91633181D01*
X58702933Y-91165535D01*
X58702932Y-91165534D01*
X58627568Y-91122023D01*
X58543511Y-91099500D01*
X58543510Y-91099500D01*
X58108110Y-91099500D01*
X58041071Y-91079815D01*
X57995316Y-91027011D01*
X57985372Y-90957853D01*
X58014397Y-90894297D01*
X58035225Y-90875182D01*
X58056928Y-90859414D01*
X58179414Y-90736928D01*
X58271674Y-90609944D01*
X60172201Y-90609944D01*
X60178602Y-90669472D01*
X60178604Y-90669479D01*
X60228846Y-90804186D01*
X60228850Y-90804193D01*
X60315010Y-90919287D01*
X60315013Y-90919290D01*
X60430107Y-91005450D01*
X60430114Y-91005454D01*
X60564821Y-91055696D01*
X60564828Y-91055698D01*
X60624356Y-91062099D01*
X60624373Y-91062100D01*
X60672201Y-91062100D01*
X60672201Y-90314450D01*
X60172201Y-90314450D01*
X60172201Y-90609944D01*
X58271674Y-90609944D01*
X58281232Y-90596788D01*
X58359873Y-90442445D01*
X58413402Y-90277701D01*
X58440500Y-90106611D01*
X58440500Y-89933389D01*
X58413402Y-89762299D01*
X58381077Y-89662816D01*
X58379083Y-89592977D01*
X58415163Y-89533144D01*
X58477864Y-89502316D01*
X58499009Y-89500500D01*
X60051665Y-89500500D01*
X60118704Y-89520185D01*
X60164459Y-89572989D01*
X60174955Y-89637755D01*
X60172201Y-89663371D01*
X60172201Y-89958850D01*
X60726001Y-89958850D01*
X60793040Y-89978535D01*
X60838795Y-90031339D01*
X60850001Y-90082850D01*
X60850001Y-90136650D01*
X60903801Y-90136650D01*
X60970840Y-90156335D01*
X61016595Y-90209139D01*
X61027801Y-90260650D01*
X61027801Y-91062100D01*
X61075629Y-91062100D01*
X61075645Y-91062099D01*
X61135173Y-91055698D01*
X61135180Y-91055696D01*
X61269887Y-91005454D01*
X61269894Y-91005450D01*
X61384986Y-90919291D01*
X61384991Y-90919286D01*
X61427660Y-90862289D01*
X61483594Y-90820418D01*
X61526927Y-90812600D01*
X61702476Y-90812600D01*
X61702477Y-90812599D01*
X61775540Y-90798066D01*
X61775545Y-90798062D01*
X61777535Y-90797239D01*
X61782255Y-90796731D01*
X61787519Y-90795684D01*
X61787612Y-90796154D01*
X61847004Y-90789763D01*
X61872460Y-90797237D01*
X61874455Y-90798063D01*
X61874459Y-90798066D01*
X61874463Y-90798066D01*
X61874466Y-90798068D01*
X61947520Y-90812599D01*
X61947523Y-90812600D01*
X61947525Y-90812600D01*
X62352475Y-90812600D01*
X62352476Y-90812599D01*
X62425539Y-90798066D01*
X62508400Y-90742701D01*
X62563765Y-90659840D01*
X62578299Y-90586774D01*
X62578299Y-89686526D01*
X62578299Y-89686523D01*
X62578298Y-89686521D01*
X62563766Y-89613464D01*
X62563765Y-89613463D01*
X62563765Y-89613460D01*
X62521396Y-89550049D01*
X62500519Y-89483371D01*
X62500499Y-89481159D01*
X62500499Y-89465058D01*
X62500499Y-89465056D01*
X62476613Y-89375912D01*
X62430469Y-89295988D01*
X61885462Y-88750981D01*
X61851977Y-88689658D01*
X61856961Y-88619966D01*
X61898833Y-88564033D01*
X61964297Y-88539616D01*
X61973143Y-88539300D01*
X62352475Y-88539300D01*
X62352476Y-88539299D01*
X62425539Y-88524766D01*
X62508400Y-88469401D01*
X62563765Y-88386540D01*
X62578299Y-88313474D01*
X62578299Y-87413226D01*
X62578299Y-87413223D01*
X62578298Y-87413221D01*
X62563766Y-87340164D01*
X62563765Y-87340160D01*
X62541388Y-87306670D01*
X62508400Y-87257299D01*
X62426090Y-87202302D01*
X62425538Y-87201933D01*
X62425534Y-87201932D01*
X62352476Y-87187400D01*
X62352473Y-87187400D01*
X61947525Y-87187400D01*
X61928697Y-87191145D01*
X61859106Y-87184916D01*
X61803929Y-87142053D01*
X61797119Y-87131526D01*
X61796131Y-87129815D01*
X61764466Y-87074968D01*
X61702932Y-87013434D01*
X60775032Y-86085534D01*
X60775031Y-86085533D01*
X60775028Y-86085531D01*
X60734201Y-86061960D01*
X60685986Y-86011393D01*
X60672201Y-85954573D01*
X60672201Y-85177800D01*
X60172201Y-85177800D01*
X60172201Y-85473294D01*
X60178602Y-85532822D01*
X60178604Y-85532829D01*
X60228846Y-85667536D01*
X60228850Y-85667543D01*
X60315010Y-85782637D01*
X60315013Y-85782640D01*
X60333172Y-85796234D01*
X60375043Y-85852167D01*
X60380027Y-85921859D01*
X60346541Y-85983182D01*
X60285218Y-86016666D01*
X60258861Y-86019500D01*
X58108110Y-86019500D01*
X58041071Y-85999815D01*
X57995316Y-85947011D01*
X57985372Y-85877853D01*
X58014397Y-85814297D01*
X58035225Y-85795182D01*
X58035777Y-85794781D01*
X58056928Y-85779414D01*
X58179414Y-85656928D01*
X58281232Y-85516788D01*
X58359873Y-85362445D01*
X58413402Y-85197701D01*
X58440500Y-85026611D01*
X58440500Y-84853389D01*
X58413402Y-84682299D01*
X58387577Y-84602818D01*
X58385582Y-84532977D01*
X58421663Y-84473144D01*
X58484364Y-84442316D01*
X58505508Y-84440500D01*
X60048201Y-84440500D01*
X60115240Y-84460185D01*
X60160995Y-84512989D01*
X60172201Y-84564500D01*
X60172201Y-84822200D01*
X60726001Y-84822200D01*
X60793040Y-84841885D01*
X60838795Y-84894689D01*
X60850001Y-84946200D01*
X60850001Y-85000000D01*
X60903801Y-85000000D01*
X60970840Y-85019685D01*
X61016595Y-85072489D01*
X61027801Y-85124000D01*
X61027801Y-85925450D01*
X61075629Y-85925450D01*
X61075645Y-85925449D01*
X61135173Y-85919048D01*
X61135180Y-85919046D01*
X61269887Y-85868804D01*
X61269894Y-85868800D01*
X61384986Y-85782641D01*
X61384991Y-85782636D01*
X61427660Y-85725639D01*
X61483594Y-85683768D01*
X61526927Y-85675950D01*
X61702476Y-85675950D01*
X61702477Y-85675949D01*
X61775540Y-85661416D01*
X61775545Y-85661412D01*
X61777535Y-85660589D01*
X61782255Y-85660081D01*
X61787519Y-85659034D01*
X61787612Y-85659504D01*
X61847004Y-85653113D01*
X61872460Y-85660587D01*
X61874455Y-85661413D01*
X61874459Y-85661416D01*
X61874463Y-85661416D01*
X61874466Y-85661418D01*
X61947520Y-85675949D01*
X61947523Y-85675950D01*
X61947525Y-85675950D01*
X62352475Y-85675950D01*
X62352476Y-85675949D01*
X62425539Y-85661416D01*
X62508400Y-85606051D01*
X62563765Y-85523190D01*
X62578299Y-85450124D01*
X62578299Y-84549876D01*
X62578299Y-84549873D01*
X62578298Y-84549871D01*
X62563766Y-84476814D01*
X62563765Y-84476813D01*
X62563765Y-84476810D01*
X62508400Y-84393949D01*
X62508399Y-84393948D01*
X62505655Y-84389841D01*
X62505101Y-84389448D01*
X62504221Y-84387694D01*
X62501615Y-84383794D01*
X62502101Y-84383469D01*
X62497297Y-84373895D01*
X62487397Y-84358916D01*
X62484598Y-84351963D01*
X62476613Y-84322161D01*
X62467752Y-84306814D01*
X62430469Y-84242237D01*
X62111765Y-83923533D01*
X61791373Y-83603140D01*
X61757888Y-83541817D01*
X61762872Y-83472125D01*
X61804744Y-83416192D01*
X61870208Y-83391775D01*
X61903244Y-83393841D01*
X61932699Y-83399701D01*
X61947524Y-83402650D01*
X61947525Y-83402650D01*
X62352475Y-83402650D01*
X62352476Y-83402649D01*
X62425539Y-83388116D01*
X62508400Y-83332751D01*
X62563765Y-83249890D01*
X62578299Y-83176824D01*
X62578299Y-82276576D01*
X62578299Y-82276573D01*
X62578298Y-82276571D01*
X62563766Y-82203514D01*
X62563765Y-82203510D01*
X62508400Y-82120649D01*
X62425539Y-82065284D01*
X62425538Y-82065283D01*
X62425534Y-82065282D01*
X62352476Y-82050750D01*
X62352473Y-82050750D01*
X61947525Y-82050750D01*
X61928697Y-82054495D01*
X61904860Y-82052361D01*
X61881041Y-82054636D01*
X61870696Y-82049303D01*
X61859106Y-82048266D01*
X61840209Y-82033586D01*
X61818938Y-82022621D01*
X61807703Y-82008334D01*
X61803929Y-82005403D01*
X61797121Y-81994878D01*
X61797120Y-81994877D01*
X61775572Y-81957555D01*
X61764466Y-81938318D01*
X61764465Y-81938317D01*
X61764462Y-81938313D01*
X61698613Y-81872464D01*
X61698590Y-81872443D01*
X61125647Y-81299500D01*
X60551682Y-80725534D01*
X60476318Y-80682023D01*
X60392261Y-80659500D01*
X60392260Y-80659500D01*
X58362786Y-80659500D01*
X58358167Y-80658143D01*
X58353459Y-80659149D01*
X58324962Y-80648393D01*
X58295747Y-80639815D01*
X58292594Y-80636177D01*
X58288090Y-80634477D01*
X58269932Y-80610023D01*
X58249992Y-80587011D01*
X58249306Y-80582245D01*
X58246437Y-80578381D01*
X58244382Y-80547997D01*
X58240048Y-80517853D01*
X58241958Y-80512150D01*
X58241723Y-80508671D01*
X58247190Y-80496533D01*
X58254186Y-80475650D01*
X58257920Y-80468872D01*
X58281232Y-80436788D01*
X58350208Y-80301413D01*
X58351180Y-80299650D01*
X58374609Y-80276402D01*
X58397269Y-80252409D01*
X58399359Y-80251843D01*
X58400777Y-80250437D01*
X58418715Y-80246607D01*
X58459780Y-80235500D01*
X61689435Y-80235500D01*
X61689436Y-80235500D01*
X61737186Y-80222705D01*
X61784938Y-80209910D01*
X61870562Y-80160475D01*
X61940475Y-80090562D01*
X62450474Y-79580563D01*
X62499910Y-79494938D01*
X62525499Y-79399437D01*
X62525499Y-79300565D01*
X62525499Y-77754725D01*
X62545184Y-77687686D01*
X62546397Y-77685834D01*
X62561417Y-77663354D01*
X62563765Y-77659840D01*
X62578299Y-77586774D01*
X62578299Y-76686526D01*
X62578299Y-76686523D01*
X62578298Y-76686521D01*
X62563766Y-76613462D01*
X62563765Y-76613461D01*
X62563765Y-76613460D01*
X62508400Y-76530599D01*
X62425539Y-76475234D01*
X62425538Y-76475233D01*
X62425534Y-76475232D01*
X62352476Y-76460700D01*
X62352473Y-76460700D01*
X62176926Y-76460700D01*
X62109887Y-76441015D01*
X62077659Y-76411011D01*
X62034990Y-76354013D01*
X62034985Y-76354008D01*
X61919893Y-76267849D01*
X61919886Y-76267845D01*
X61785179Y-76217603D01*
X61785172Y-76217601D01*
X61725644Y-76211200D01*
X61677800Y-76211200D01*
X61677800Y-78062100D01*
X61689148Y-78073448D01*
X61717538Y-78081785D01*
X61763293Y-78134589D01*
X61774499Y-78186100D01*
X61774499Y-79143102D01*
X61754814Y-79210141D01*
X61738180Y-79230783D01*
X61520782Y-79448181D01*
X61459459Y-79481666D01*
X61433101Y-79484500D01*
X58459780Y-79484500D01*
X58392741Y-79464815D01*
X58349295Y-79416794D01*
X58281233Y-79283213D01*
X58243140Y-79230783D01*
X58179414Y-79143072D01*
X58056928Y-79020586D01*
X57916788Y-78918768D01*
X57762446Y-78840127D01*
X57759284Y-78839100D01*
X57758236Y-78838383D01*
X57757952Y-78838266D01*
X57757976Y-78838206D01*
X57701609Y-78799661D01*
X57674413Y-78735302D01*
X57686329Y-78666456D01*
X57733574Y-78614981D01*
X57759288Y-78603239D01*
X57858215Y-78571096D01*
X58047557Y-78474620D01*
X58219459Y-78349727D01*
X58219464Y-78349723D01*
X58369723Y-78199464D01*
X58369727Y-78199459D01*
X58494620Y-78027557D01*
X58591095Y-77838217D01*
X58656757Y-77636129D01*
X58656757Y-77636126D01*
X58667231Y-77570000D01*
X57773012Y-77570000D01*
X57805925Y-77512993D01*
X57840000Y-77385826D01*
X57840000Y-77254174D01*
X57805925Y-77127007D01*
X57773012Y-77070000D01*
X58667231Y-77070000D01*
X58656757Y-77003873D01*
X58656757Y-77003870D01*
X58591095Y-76801782D01*
X58557949Y-76736729D01*
X58532366Y-76686521D01*
X60421701Y-76686521D01*
X60421701Y-77586778D01*
X60436233Y-77659835D01*
X60436234Y-77659839D01*
X60436235Y-77659840D01*
X60491600Y-77742701D01*
X60566114Y-77792489D01*
X60574461Y-77798066D01*
X60574465Y-77798067D01*
X60647522Y-77812599D01*
X60647525Y-77812600D01*
X60823074Y-77812600D01*
X60890113Y-77832285D01*
X60922341Y-77862289D01*
X60965009Y-77919286D01*
X60965014Y-77919291D01*
X61080106Y-78005450D01*
X61080113Y-78005454D01*
X61214820Y-78055696D01*
X61214827Y-78055698D01*
X61274355Y-78062099D01*
X61274372Y-78062100D01*
X61322200Y-78062100D01*
X61322200Y-76211200D01*
X61274355Y-76211200D01*
X61214827Y-76217601D01*
X61214820Y-76217603D01*
X61080113Y-76267845D01*
X61080106Y-76267849D01*
X60965014Y-76354008D01*
X60965009Y-76354013D01*
X60922341Y-76411011D01*
X60866407Y-76452882D01*
X60823074Y-76460700D01*
X60647524Y-76460700D01*
X60574465Y-76475232D01*
X60574461Y-76475233D01*
X60491600Y-76530599D01*
X60436234Y-76613460D01*
X60436233Y-76613464D01*
X60421701Y-76686521D01*
X58532366Y-76686521D01*
X58494620Y-76612442D01*
X58369727Y-76440540D01*
X58369723Y-76440535D01*
X58219464Y-76290276D01*
X58219459Y-76290272D01*
X58047557Y-76165379D01*
X57858217Y-76068904D01*
X57759287Y-76036760D01*
X57701611Y-75997323D01*
X57674413Y-75932964D01*
X57686328Y-75864118D01*
X57733572Y-75812642D01*
X57759290Y-75800897D01*
X57762445Y-75799873D01*
X57916788Y-75721232D01*
X58056928Y-75619414D01*
X58179414Y-75496928D01*
X58281232Y-75356788D01*
X58359873Y-75202445D01*
X58413402Y-75037701D01*
X58440500Y-74866611D01*
X58440500Y-74693389D01*
X58437080Y-74671797D01*
X58446034Y-74602505D01*
X58491030Y-74549053D01*
X58557782Y-74528413D01*
X58559553Y-74528400D01*
X60297701Y-74528400D01*
X60364740Y-74548085D01*
X60410495Y-74600889D01*
X60421701Y-74652400D01*
X60421701Y-75313478D01*
X60436233Y-75386535D01*
X60436234Y-75386539D01*
X60436235Y-75386540D01*
X60491600Y-75469401D01*
X60570896Y-75522384D01*
X60574461Y-75524766D01*
X60574465Y-75524767D01*
X60647522Y-75539299D01*
X60647525Y-75539300D01*
X60647527Y-75539300D01*
X61052477Y-75539300D01*
X61052478Y-75539299D01*
X61125541Y-75524766D01*
X61125546Y-75524762D01*
X61127536Y-75523939D01*
X61132256Y-75523431D01*
X61137520Y-75522384D01*
X61137613Y-75522854D01*
X61197005Y-75516463D01*
X61222461Y-75523937D01*
X61224456Y-75524763D01*
X61224460Y-75524766D01*
X61224464Y-75524766D01*
X61224467Y-75524768D01*
X61297521Y-75539299D01*
X61297524Y-75539300D01*
X61473073Y-75539300D01*
X61540112Y-75558985D01*
X61572340Y-75588989D01*
X61615008Y-75645986D01*
X61615013Y-75645991D01*
X61730105Y-75732150D01*
X61730112Y-75732154D01*
X61864819Y-75782396D01*
X61864826Y-75782398D01*
X61924354Y-75788799D01*
X61924371Y-75788800D01*
X61972199Y-75788800D01*
X62327799Y-75788800D01*
X62375627Y-75788800D01*
X62375643Y-75788799D01*
X62435171Y-75782398D01*
X62435178Y-75782396D01*
X62569885Y-75732154D01*
X62569892Y-75732150D01*
X62684986Y-75645990D01*
X62684989Y-75645987D01*
X62771149Y-75530893D01*
X62771153Y-75530886D01*
X62793058Y-75472155D01*
X76430000Y-75472155D01*
X76430000Y-76120000D01*
X77346988Y-76120000D01*
X77314075Y-76177007D01*
X77280000Y-76304174D01*
X77280000Y-76435826D01*
X77314075Y-76562993D01*
X77346988Y-76620000D01*
X76430000Y-76620000D01*
X76430000Y-77267844D01*
X76436401Y-77327372D01*
X76436403Y-77327379D01*
X76486645Y-77462086D01*
X76486649Y-77462093D01*
X76572809Y-77577187D01*
X76572812Y-77577190D01*
X76687906Y-77663350D01*
X76687913Y-77663354D01*
X76822620Y-77713596D01*
X76822627Y-77713598D01*
X76882155Y-77719999D01*
X76882172Y-77720000D01*
X77174949Y-77720000D01*
X77241988Y-77739685D01*
X77287743Y-77792489D01*
X77297687Y-77861647D01*
X77268662Y-77925203D01*
X77231244Y-77954485D01*
X77203211Y-77968768D01*
X77152718Y-78005454D01*
X77063072Y-78070586D01*
X77063070Y-78070588D01*
X77063069Y-78070588D01*
X76940588Y-78193069D01*
X76940588Y-78193070D01*
X76940586Y-78193072D01*
X76935946Y-78199459D01*
X76838768Y-78333211D01*
X76760128Y-78487552D01*
X76706597Y-78652302D01*
X76679500Y-78823389D01*
X76679500Y-78996610D01*
X76702696Y-79143069D01*
X76706598Y-79167701D01*
X76760127Y-79332445D01*
X76838768Y-79486788D01*
X76940586Y-79626928D01*
X77063072Y-79749414D01*
X77203212Y-79851232D01*
X77357555Y-79929873D01*
X77522299Y-79983402D01*
X77693389Y-80010500D01*
X77693390Y-80010500D01*
X77866610Y-80010500D01*
X77866611Y-80010500D01*
X78037701Y-79983402D01*
X78202445Y-79929873D01*
X78356788Y-79851232D01*
X78496928Y-79749414D01*
X78619414Y-79626928D01*
X78721232Y-79486788D01*
X78799873Y-79332445D01*
X78853402Y-79167701D01*
X78880500Y-78996611D01*
X78880500Y-78823389D01*
X78853402Y-78652299D01*
X78799873Y-78487555D01*
X78721232Y-78333212D01*
X78619414Y-78193072D01*
X78496928Y-78070586D01*
X78356788Y-77968768D01*
X78328756Y-77954485D01*
X78277960Y-77906510D01*
X78261165Y-77838689D01*
X78283703Y-77772554D01*
X78338418Y-77729103D01*
X78385051Y-77720000D01*
X78677828Y-77720000D01*
X78677844Y-77719999D01*
X78737372Y-77713598D01*
X78737379Y-77713596D01*
X78872086Y-77663354D01*
X78872093Y-77663350D01*
X78987187Y-77577190D01*
X78987190Y-77577187D01*
X79073350Y-77462093D01*
X79073354Y-77462086D01*
X79123596Y-77327379D01*
X79123598Y-77327372D01*
X79129999Y-77267844D01*
X79130000Y-77267827D01*
X79130000Y-76620000D01*
X78213012Y-76620000D01*
X78245925Y-76562993D01*
X78280000Y-76435826D01*
X78280000Y-76304174D01*
X78245925Y-76177007D01*
X78213012Y-76120000D01*
X79130000Y-76120000D01*
X79130000Y-75472172D01*
X79129999Y-75472155D01*
X79123598Y-75412627D01*
X79123596Y-75412620D01*
X79073354Y-75277913D01*
X79073350Y-75277906D01*
X78987190Y-75162812D01*
X78987187Y-75162809D01*
X78872093Y-75076649D01*
X78872086Y-75076645D01*
X78737379Y-75026403D01*
X78737372Y-75026401D01*
X78677844Y-75020000D01*
X78030000Y-75020000D01*
X78030000Y-75936988D01*
X77972993Y-75904075D01*
X77845826Y-75870000D01*
X77714174Y-75870000D01*
X77587007Y-75904075D01*
X77530000Y-75936988D01*
X77530000Y-75020000D01*
X76882155Y-75020000D01*
X76822627Y-75026401D01*
X76822620Y-75026403D01*
X76687913Y-75076645D01*
X76687906Y-75076649D01*
X76572812Y-75162809D01*
X76572809Y-75162812D01*
X76486649Y-75277906D01*
X76486645Y-75277913D01*
X76436403Y-75412620D01*
X76436401Y-75412627D01*
X76430000Y-75472155D01*
X62793058Y-75472155D01*
X62810453Y-75425518D01*
X62810453Y-75425517D01*
X62821396Y-75396176D01*
X62821397Y-75396172D01*
X62827798Y-75336644D01*
X62827799Y-75336627D01*
X62827799Y-75041150D01*
X62327799Y-75041150D01*
X62327799Y-75788800D01*
X61972199Y-75788800D01*
X61972199Y-74987350D01*
X61991884Y-74920311D01*
X62044688Y-74874556D01*
X62096199Y-74863350D01*
X62149999Y-74863350D01*
X62149999Y-74809550D01*
X62169684Y-74742511D01*
X62222488Y-74696756D01*
X62273999Y-74685550D01*
X62827799Y-74685550D01*
X62827799Y-74390072D01*
X62827798Y-74390055D01*
X62821397Y-74330527D01*
X62821395Y-74330520D01*
X62771153Y-74195813D01*
X62771149Y-74195806D01*
X62684989Y-74080712D01*
X62684986Y-74080709D01*
X62569892Y-73994549D01*
X62569885Y-73994545D01*
X62448045Y-73949102D01*
X62392111Y-73907231D01*
X62367694Y-73841767D01*
X62382546Y-73773494D01*
X62403694Y-73745242D01*
X62987118Y-73161819D01*
X63048441Y-73128334D01*
X63074799Y-73125500D01*
X88543101Y-73125500D01*
X88610140Y-73145185D01*
X88630782Y-73161819D01*
X93088181Y-77619218D01*
X93121666Y-77680541D01*
X93124500Y-77706899D01*
X93124500Y-80293100D01*
X93104815Y-80360139D01*
X93088181Y-80380781D01*
X83155781Y-90313181D01*
X83094458Y-90346666D01*
X83068100Y-90349500D01*
X82935929Y-90349500D01*
X82810261Y-90374497D01*
X82810255Y-90374499D01*
X82691875Y-90423533D01*
X82691866Y-90423538D01*
X82585331Y-90494723D01*
X82585327Y-90494726D01*
X82494726Y-90585327D01*
X82494723Y-90585331D01*
X82423538Y-90691866D01*
X82423533Y-90691875D01*
X82374499Y-90810255D01*
X82374497Y-90810261D01*
X82349500Y-90935928D01*
X82349500Y-90935931D01*
X82349500Y-91064069D01*
X82349500Y-91064071D01*
X82349499Y-91064071D01*
X82374497Y-91189738D01*
X82374499Y-91189744D01*
X82423533Y-91308124D01*
X82423538Y-91308133D01*
X82494723Y-91414668D01*
X82494726Y-91414672D01*
X82585327Y-91505273D01*
X82585331Y-91505276D01*
X82691866Y-91576461D01*
X82691872Y-91576464D01*
X82691873Y-91576465D01*
X82810256Y-91625501D01*
X82874455Y-91638271D01*
X82907471Y-91644839D01*
X82969382Y-91677224D01*
X82970961Y-91678775D01*
X86099500Y-94807314D01*
X86192686Y-94900500D01*
X86306814Y-94966392D01*
X86434107Y-95000500D01*
X86434108Y-95000500D01*
X90790568Y-95000500D01*
X90857607Y-95020185D01*
X90859459Y-95021398D01*
X90941866Y-95076461D01*
X90941872Y-95076464D01*
X90941873Y-95076465D01*
X91060256Y-95125501D01*
X91060260Y-95125501D01*
X91060261Y-95125502D01*
X91185928Y-95150500D01*
X91185931Y-95150500D01*
X91314071Y-95150500D01*
X91398615Y-95133682D01*
X91439744Y-95125501D01*
X91558127Y-95076465D01*
X91664669Y-95005276D01*
X91755276Y-94914669D01*
X91826465Y-94808127D01*
X91875501Y-94689744D01*
X91883682Y-94648615D01*
X91900500Y-94564071D01*
X91900500Y-94512161D01*
X91920185Y-94445122D01*
X91972989Y-94399367D01*
X92042147Y-94389423D01*
X92105703Y-94418448D01*
X92112181Y-94424480D01*
X93588181Y-95900480D01*
X93621666Y-95961803D01*
X93624500Y-95988161D01*
X93624500Y-97905192D01*
X93604815Y-97972231D01*
X93552011Y-98017986D01*
X93482853Y-98027930D01*
X93419297Y-97998905D01*
X93415827Y-97995674D01*
X93414668Y-97994723D01*
X93308133Y-97923538D01*
X93308124Y-97923533D01*
X93189744Y-97874499D01*
X93189738Y-97874497D01*
X93064071Y-97849500D01*
X93064069Y-97849500D01*
X92935931Y-97849500D01*
X92935929Y-97849500D01*
X92810261Y-97874497D01*
X92810255Y-97874499D01*
X92691875Y-97923533D01*
X92691866Y-97923538D01*
X92585331Y-97994723D01*
X92585327Y-97994726D01*
X92494726Y-98085327D01*
X92494723Y-98085331D01*
X92423538Y-98191866D01*
X92423533Y-98191875D01*
X92374499Y-98310255D01*
X92374497Y-98310261D01*
X92349500Y-98435928D01*
X92349500Y-98435931D01*
X92349500Y-98564069D01*
X92349500Y-98564071D01*
X92349499Y-98564071D01*
X92374497Y-98689738D01*
X92374499Y-98689744D01*
X92423533Y-98808124D01*
X92423538Y-98808133D01*
X92494723Y-98914668D01*
X92494726Y-98914672D01*
X92585327Y-99005273D01*
X92585331Y-99005276D01*
X92691866Y-99076461D01*
X92691872Y-99076464D01*
X92691873Y-99076465D01*
X92810256Y-99125501D01*
X92866608Y-99136710D01*
X92880018Y-99139378D01*
X92941929Y-99171763D01*
X92976503Y-99232478D01*
X92972764Y-99302248D01*
X92943508Y-99348676D01*
X89942686Y-102349500D01*
X88829005Y-103463181D01*
X88767682Y-103496666D01*
X88741324Y-103499500D01*
X88258676Y-103499500D01*
X88191637Y-103479815D01*
X88170995Y-103463181D01*
X86178775Y-101470961D01*
X86145290Y-101409638D01*
X86144839Y-101407471D01*
X86125502Y-101310263D01*
X86125502Y-101310261D01*
X86125501Y-101310256D01*
X86079778Y-101199871D01*
X86076466Y-101191875D01*
X86076461Y-101191866D01*
X86005276Y-101085331D01*
X86005273Y-101085327D01*
X85914672Y-100994726D01*
X85914668Y-100994723D01*
X85808133Y-100923538D01*
X85808124Y-100923533D01*
X85689744Y-100874499D01*
X85689738Y-100874497D01*
X85564071Y-100849500D01*
X85564069Y-100849500D01*
X85435931Y-100849500D01*
X85435929Y-100849500D01*
X85310261Y-100874497D01*
X85310255Y-100874499D01*
X85191875Y-100923533D01*
X85191866Y-100923538D01*
X85085331Y-100994723D01*
X85085327Y-100994726D01*
X84994726Y-101085327D01*
X84994723Y-101085331D01*
X84923538Y-101191866D01*
X84923533Y-101191875D01*
X84874499Y-101310255D01*
X84874497Y-101310261D01*
X84849500Y-101435928D01*
X84849500Y-101435931D01*
X84849500Y-101564069D01*
X84849500Y-101564071D01*
X84849499Y-101564071D01*
X84874497Y-101689738D01*
X84874499Y-101689744D01*
X84923533Y-101808124D01*
X84923538Y-101808133D01*
X84994723Y-101914668D01*
X84994726Y-101914672D01*
X85085327Y-102005273D01*
X85085331Y-102005276D01*
X85191866Y-102076461D01*
X85191872Y-102076464D01*
X85191873Y-102076465D01*
X85310256Y-102125501D01*
X85374455Y-102138271D01*
X85407471Y-102144839D01*
X85469382Y-102177224D01*
X85470961Y-102178775D01*
X86954505Y-103662319D01*
X86987990Y-103723642D01*
X86983006Y-103793334D01*
X86954505Y-103837681D01*
X84970961Y-105821224D01*
X84909638Y-105854709D01*
X84907473Y-105855160D01*
X84810260Y-105874497D01*
X84810255Y-105874499D01*
X84691875Y-105923533D01*
X84691866Y-105923538D01*
X84585331Y-105994723D01*
X84585327Y-105994726D01*
X84494726Y-106085327D01*
X84494723Y-106085331D01*
X84423538Y-106191866D01*
X84423533Y-106191875D01*
X84374499Y-106310255D01*
X84374497Y-106310261D01*
X84349500Y-106435928D01*
X84349500Y-106435931D01*
X84349500Y-106564069D01*
X84349500Y-106564071D01*
X84349499Y-106564071D01*
X84374497Y-106689738D01*
X84374499Y-106689744D01*
X84423533Y-106808124D01*
X84423538Y-106808133D01*
X84494723Y-106914668D01*
X84494726Y-106914672D01*
X84585327Y-107005273D01*
X84585331Y-107005276D01*
X84691866Y-107076461D01*
X84691872Y-107076464D01*
X84691873Y-107076465D01*
X84810256Y-107125501D01*
X84810260Y-107125501D01*
X84810261Y-107125502D01*
X84935928Y-107150500D01*
X84935931Y-107150500D01*
X85064071Y-107150500D01*
X85148615Y-107133682D01*
X85189744Y-107125501D01*
X85308127Y-107076465D01*
X85414669Y-107005276D01*
X85505276Y-106914669D01*
X85576465Y-106808127D01*
X85625501Y-106689744D01*
X85644839Y-106592528D01*
X85677224Y-106530617D01*
X85678719Y-106529094D01*
X87670995Y-104536819D01*
X87732318Y-104503334D01*
X87758676Y-104500500D01*
X89065890Y-104500500D01*
X89065892Y-104500500D01*
X89193186Y-104466392D01*
X89307314Y-104400500D01*
X89307316Y-104400497D01*
X89313499Y-104396928D01*
X89381399Y-104380455D01*
X89447426Y-104403307D01*
X89490617Y-104458228D01*
X89499500Y-104504315D01*
X89499500Y-109540567D01*
X89479815Y-109607606D01*
X89478602Y-109609457D01*
X89423541Y-109691861D01*
X89423533Y-109691875D01*
X89374499Y-109810255D01*
X89374497Y-109810261D01*
X89349500Y-109935928D01*
X89349500Y-109935931D01*
X89349500Y-110064069D01*
X89349500Y-110064071D01*
X89349499Y-110064071D01*
X89374497Y-110189738D01*
X89374499Y-110189744D01*
X89423533Y-110308124D01*
X89423538Y-110308133D01*
X89494723Y-110414668D01*
X89494726Y-110414672D01*
X89585327Y-110505273D01*
X89585331Y-110505276D01*
X89691866Y-110576461D01*
X89691872Y-110576464D01*
X89691873Y-110576465D01*
X89810256Y-110625501D01*
X89810260Y-110625501D01*
X89810261Y-110625502D01*
X89935928Y-110650500D01*
X89935931Y-110650500D01*
X90064071Y-110650500D01*
X90148615Y-110633682D01*
X90189744Y-110625501D01*
X90308127Y-110576465D01*
X90414669Y-110505276D01*
X90505276Y-110414669D01*
X90576465Y-110308127D01*
X90625501Y-110189744D01*
X90650500Y-110064069D01*
X90650500Y-109935931D01*
X90650500Y-109935928D01*
X90625502Y-109810261D01*
X90625501Y-109810260D01*
X90625501Y-109810256D01*
X90576465Y-109691873D01*
X90576464Y-109691871D01*
X90576458Y-109691861D01*
X90521398Y-109609457D01*
X90500520Y-109542780D01*
X90500500Y-109540567D01*
X90500500Y-104564071D01*
X112711999Y-104564071D01*
X112736997Y-104689738D01*
X112736999Y-104689744D01*
X112786033Y-104808124D01*
X112786038Y-104808133D01*
X112857223Y-104914668D01*
X112857226Y-104914672D01*
X112947827Y-105005273D01*
X112947831Y-105005276D01*
X113054366Y-105076461D01*
X113054372Y-105076464D01*
X113054373Y-105076465D01*
X113172756Y-105125501D01*
X113172760Y-105125501D01*
X113172761Y-105125502D01*
X113298428Y-105150500D01*
X113298431Y-105150500D01*
X113426571Y-105150500D01*
X113511115Y-105133682D01*
X113552244Y-105125501D01*
X113670627Y-105076465D01*
X113777169Y-105005276D01*
X113867776Y-104914669D01*
X113938965Y-104808127D01*
X113988001Y-104689744D01*
X114013000Y-104564069D01*
X114013000Y-104435931D01*
X114013000Y-104435928D01*
X113988002Y-104310261D01*
X113988001Y-104310260D01*
X113988001Y-104310256D01*
X113938965Y-104191873D01*
X113938964Y-104191872D01*
X113938961Y-104191866D01*
X113867776Y-104085331D01*
X113867773Y-104085327D01*
X113777172Y-103994726D01*
X113777168Y-103994723D01*
X113670633Y-103923538D01*
X113670624Y-103923533D01*
X113552244Y-103874499D01*
X113552238Y-103874497D01*
X113426571Y-103849500D01*
X113426569Y-103849500D01*
X113298431Y-103849500D01*
X113298429Y-103849500D01*
X113172761Y-103874497D01*
X113172755Y-103874499D01*
X113054375Y-103923533D01*
X113054366Y-103923538D01*
X112947831Y-103994723D01*
X112947827Y-103994726D01*
X112857226Y-104085327D01*
X112857223Y-104085331D01*
X112786038Y-104191866D01*
X112786033Y-104191875D01*
X112736999Y-104310255D01*
X112736997Y-104310261D01*
X112712000Y-104435928D01*
X112712000Y-104435931D01*
X112712000Y-104564069D01*
X112712000Y-104564071D01*
X112711999Y-104564071D01*
X90500500Y-104564071D01*
X90500500Y-103258676D01*
X90520185Y-103191637D01*
X90536819Y-103170995D01*
X91294425Y-102413389D01*
X93279500Y-102413389D01*
X93279500Y-102586611D01*
X93306598Y-102757701D01*
X93360127Y-102922445D01*
X93438768Y-103076788D01*
X93540586Y-103216928D01*
X93663072Y-103339414D01*
X93803212Y-103441232D01*
X93957555Y-103519873D01*
X94122299Y-103573402D01*
X94293389Y-103600500D01*
X94293390Y-103600500D01*
X94466610Y-103600500D01*
X94466611Y-103600500D01*
X94637701Y-103573402D01*
X94802445Y-103519873D01*
X94956788Y-103441232D01*
X95096928Y-103339414D01*
X95219414Y-103216928D01*
X95321232Y-103076788D01*
X95399873Y-102922445D01*
X95453402Y-102757701D01*
X95480500Y-102586611D01*
X95480500Y-102413389D01*
X95819500Y-102413389D01*
X95819500Y-102586611D01*
X95846598Y-102757701D01*
X95900127Y-102922445D01*
X95978768Y-103076788D01*
X96080586Y-103216928D01*
X96203072Y-103339414D01*
X96343212Y-103441232D01*
X96497555Y-103519873D01*
X96662299Y-103573402D01*
X96833389Y-103600500D01*
X96833390Y-103600500D01*
X97006610Y-103600500D01*
X97006611Y-103600500D01*
X97177701Y-103573402D01*
X97342445Y-103519873D01*
X97496788Y-103441232D01*
X97636928Y-103339414D01*
X97759414Y-103216928D01*
X97861232Y-103076788D01*
X97939873Y-102922445D01*
X97993402Y-102757701D01*
X98020500Y-102586611D01*
X98020500Y-102413389D01*
X98359500Y-102413389D01*
X98359500Y-102586611D01*
X98386598Y-102757701D01*
X98440127Y-102922445D01*
X98518768Y-103076788D01*
X98620586Y-103216928D01*
X98743072Y-103339414D01*
X98883212Y-103441232D01*
X99037555Y-103519873D01*
X99202299Y-103573402D01*
X99373389Y-103600500D01*
X99373390Y-103600500D01*
X99546610Y-103600500D01*
X99546611Y-103600500D01*
X99717701Y-103573402D01*
X99882445Y-103519873D01*
X100036788Y-103441232D01*
X100176928Y-103339414D01*
X100299414Y-103216928D01*
X100401232Y-103076788D01*
X100479873Y-102922445D01*
X100533402Y-102757701D01*
X100560500Y-102586611D01*
X100560500Y-102413389D01*
X100899500Y-102413389D01*
X100899500Y-102586611D01*
X100926598Y-102757701D01*
X100980127Y-102922445D01*
X101058768Y-103076788D01*
X101160586Y-103216928D01*
X101283072Y-103339414D01*
X101423212Y-103441232D01*
X101577555Y-103519873D01*
X101742299Y-103573402D01*
X101913389Y-103600500D01*
X101913390Y-103600500D01*
X102086610Y-103600500D01*
X102086611Y-103600500D01*
X102257701Y-103573402D01*
X102422445Y-103519873D01*
X102576788Y-103441232D01*
X102716928Y-103339414D01*
X102839414Y-103216928D01*
X102941232Y-103076788D01*
X103019873Y-102922445D01*
X103073402Y-102757701D01*
X103100500Y-102586611D01*
X103100500Y-102413389D01*
X103439500Y-102413389D01*
X103439500Y-102586611D01*
X103466598Y-102757701D01*
X103520127Y-102922445D01*
X103598768Y-103076788D01*
X103700586Y-103216928D01*
X103823072Y-103339414D01*
X103963212Y-103441232D01*
X104117555Y-103519873D01*
X104282299Y-103573402D01*
X104453389Y-103600500D01*
X104453390Y-103600500D01*
X104626610Y-103600500D01*
X104626611Y-103600500D01*
X104797701Y-103573402D01*
X104962445Y-103519873D01*
X105116788Y-103441232D01*
X105256928Y-103339414D01*
X105379414Y-103216928D01*
X105481232Y-103076788D01*
X105559873Y-102922445D01*
X105613402Y-102757701D01*
X105640500Y-102586611D01*
X105640500Y-102413389D01*
X105979500Y-102413389D01*
X105979500Y-102586611D01*
X106006598Y-102757701D01*
X106060127Y-102922445D01*
X106138768Y-103076788D01*
X106240586Y-103216928D01*
X106363072Y-103339414D01*
X106503212Y-103441232D01*
X106657555Y-103519873D01*
X106822299Y-103573402D01*
X106993389Y-103600500D01*
X106993390Y-103600500D01*
X107166610Y-103600500D01*
X107166611Y-103600500D01*
X107337701Y-103573402D01*
X107502445Y-103519873D01*
X107656788Y-103441232D01*
X107796928Y-103339414D01*
X107919414Y-103216928D01*
X108021232Y-103076788D01*
X108099873Y-102922445D01*
X108153402Y-102757701D01*
X108180500Y-102586611D01*
X108180500Y-102413389D01*
X108153402Y-102242299D01*
X108099873Y-102077555D01*
X108021232Y-101923212D01*
X107919414Y-101783072D01*
X107796928Y-101660586D01*
X107748390Y-101625321D01*
X108519500Y-101625321D01*
X108519500Y-103374678D01*
X108534032Y-103447735D01*
X108534033Y-103447739D01*
X108534034Y-103447740D01*
X108589399Y-103530601D01*
X108671304Y-103585327D01*
X108672260Y-103585966D01*
X108672264Y-103585967D01*
X108745321Y-103600499D01*
X108745324Y-103600500D01*
X108745326Y-103600500D01*
X110494676Y-103600500D01*
X110494677Y-103600499D01*
X110567740Y-103585966D01*
X110650601Y-103530601D01*
X110705966Y-103447740D01*
X110720500Y-103374674D01*
X110720500Y-101625326D01*
X110720500Y-101625323D01*
X110720499Y-101625321D01*
X110705967Y-101552264D01*
X110705966Y-101552260D01*
X110650601Y-101469399D01*
X110567740Y-101414034D01*
X110567739Y-101414033D01*
X110567735Y-101414032D01*
X110494677Y-101399500D01*
X110494674Y-101399500D01*
X108745326Y-101399500D01*
X108745323Y-101399500D01*
X108672264Y-101414032D01*
X108672260Y-101414033D01*
X108589399Y-101469399D01*
X108534033Y-101552260D01*
X108534032Y-101552264D01*
X108519500Y-101625321D01*
X107748390Y-101625321D01*
X107656788Y-101558768D01*
X107502445Y-101480127D01*
X107337701Y-101426598D01*
X107337699Y-101426597D01*
X107337698Y-101426597D01*
X107206271Y-101405781D01*
X107166611Y-101399500D01*
X106993389Y-101399500D01*
X106953728Y-101405781D01*
X106822302Y-101426597D01*
X106657552Y-101480128D01*
X106503211Y-101558768D01*
X106423256Y-101616859D01*
X106363072Y-101660586D01*
X106363070Y-101660588D01*
X106363069Y-101660588D01*
X106240588Y-101783069D01*
X106240588Y-101783070D01*
X106240586Y-101783072D01*
X106200255Y-101838583D01*
X106138768Y-101923211D01*
X106060128Y-102077552D01*
X106006597Y-102242302D01*
X105997846Y-102297555D01*
X105979500Y-102413389D01*
X105640500Y-102413389D01*
X105613402Y-102242299D01*
X105559873Y-102077555D01*
X105481232Y-101923212D01*
X105379414Y-101783072D01*
X105256928Y-101660586D01*
X105116788Y-101558768D01*
X104962445Y-101480127D01*
X104797701Y-101426598D01*
X104797699Y-101426597D01*
X104797698Y-101426597D01*
X104666271Y-101405781D01*
X104626611Y-101399500D01*
X104453389Y-101399500D01*
X104413728Y-101405781D01*
X104282302Y-101426597D01*
X104117552Y-101480128D01*
X103963211Y-101558768D01*
X103883256Y-101616859D01*
X103823072Y-101660586D01*
X103823070Y-101660588D01*
X103823069Y-101660588D01*
X103700588Y-101783069D01*
X103700588Y-101783070D01*
X103700586Y-101783072D01*
X103660255Y-101838583D01*
X103598768Y-101923211D01*
X103520128Y-102077552D01*
X103466597Y-102242302D01*
X103457846Y-102297555D01*
X103439500Y-102413389D01*
X103100500Y-102413389D01*
X103073402Y-102242299D01*
X103019873Y-102077555D01*
X102941232Y-101923212D01*
X102839414Y-101783072D01*
X102716928Y-101660586D01*
X102576788Y-101558768D01*
X102422445Y-101480127D01*
X102257701Y-101426598D01*
X102257699Y-101426597D01*
X102257698Y-101426597D01*
X102126271Y-101405781D01*
X102086611Y-101399500D01*
X101913389Y-101399500D01*
X101873728Y-101405781D01*
X101742302Y-101426597D01*
X101577552Y-101480128D01*
X101423211Y-101558768D01*
X101343256Y-101616859D01*
X101283072Y-101660586D01*
X101283070Y-101660588D01*
X101283069Y-101660588D01*
X101160588Y-101783069D01*
X101160588Y-101783070D01*
X101160586Y-101783072D01*
X101120255Y-101838583D01*
X101058768Y-101923211D01*
X100980128Y-102077552D01*
X100926597Y-102242302D01*
X100917846Y-102297555D01*
X100899500Y-102413389D01*
X100560500Y-102413389D01*
X100533402Y-102242299D01*
X100479873Y-102077555D01*
X100401232Y-101923212D01*
X100299414Y-101783072D01*
X100176928Y-101660586D01*
X100036788Y-101558768D01*
X99882445Y-101480127D01*
X99717701Y-101426598D01*
X99717699Y-101426597D01*
X99717698Y-101426597D01*
X99586271Y-101405781D01*
X99546611Y-101399500D01*
X99373389Y-101399500D01*
X99333728Y-101405781D01*
X99202302Y-101426597D01*
X99037552Y-101480128D01*
X98883211Y-101558768D01*
X98803256Y-101616859D01*
X98743072Y-101660586D01*
X98743070Y-101660588D01*
X98743069Y-101660588D01*
X98620588Y-101783069D01*
X98620588Y-101783070D01*
X98620586Y-101783072D01*
X98580255Y-101838583D01*
X98518768Y-101923211D01*
X98440128Y-102077552D01*
X98386597Y-102242302D01*
X98377846Y-102297555D01*
X98359500Y-102413389D01*
X98020500Y-102413389D01*
X97993402Y-102242299D01*
X97939873Y-102077555D01*
X97861232Y-101923212D01*
X97759414Y-101783072D01*
X97636928Y-101660586D01*
X97496788Y-101558768D01*
X97342445Y-101480127D01*
X97177701Y-101426598D01*
X97177699Y-101426597D01*
X97177698Y-101426597D01*
X97046271Y-101405781D01*
X97006611Y-101399500D01*
X96833389Y-101399500D01*
X96793728Y-101405781D01*
X96662302Y-101426597D01*
X96497552Y-101480128D01*
X96343211Y-101558768D01*
X96263256Y-101616859D01*
X96203072Y-101660586D01*
X96203070Y-101660588D01*
X96203069Y-101660588D01*
X96080588Y-101783069D01*
X96080588Y-101783070D01*
X96080586Y-101783072D01*
X96040255Y-101838583D01*
X95978768Y-101923211D01*
X95900128Y-102077552D01*
X95846597Y-102242302D01*
X95837846Y-102297555D01*
X95819500Y-102413389D01*
X95480500Y-102413389D01*
X95453402Y-102242299D01*
X95399873Y-102077555D01*
X95321232Y-101923212D01*
X95219414Y-101783072D01*
X95096928Y-101660586D01*
X94956788Y-101558768D01*
X94802445Y-101480127D01*
X94637701Y-101426598D01*
X94637699Y-101426597D01*
X94637698Y-101426597D01*
X94506271Y-101405781D01*
X94466611Y-101399500D01*
X94293389Y-101399500D01*
X94253728Y-101405781D01*
X94122302Y-101426597D01*
X93957552Y-101480128D01*
X93803211Y-101558768D01*
X93723256Y-101616859D01*
X93663072Y-101660586D01*
X93663070Y-101660588D01*
X93663069Y-101660588D01*
X93540588Y-101783069D01*
X93540588Y-101783070D01*
X93540586Y-101783072D01*
X93500255Y-101838583D01*
X93438768Y-101923211D01*
X93360128Y-102077552D01*
X93306597Y-102242302D01*
X93297846Y-102297555D01*
X93279500Y-102413389D01*
X91294425Y-102413389D01*
X94170995Y-99536819D01*
X94232318Y-99503334D01*
X94258676Y-99500500D01*
X113191324Y-99500500D01*
X113258363Y-99520185D01*
X113279005Y-99536819D01*
X114046224Y-100304037D01*
X114079709Y-100365360D01*
X114080160Y-100367526D01*
X114099497Y-100464738D01*
X114099499Y-100464744D01*
X114148533Y-100583124D01*
X114148538Y-100583133D01*
X114219723Y-100689668D01*
X114219726Y-100689672D01*
X114310327Y-100780273D01*
X114310331Y-100780276D01*
X114416866Y-100851461D01*
X114416872Y-100851464D01*
X114416873Y-100851465D01*
X114535256Y-100900501D01*
X114535260Y-100900501D01*
X114535261Y-100900502D01*
X114660928Y-100925500D01*
X114660931Y-100925500D01*
X114789071Y-100925500D01*
X114873615Y-100908682D01*
X114914744Y-100900501D01*
X115033127Y-100851465D01*
X115139669Y-100780276D01*
X115230276Y-100689669D01*
X115301465Y-100583127D01*
X115350501Y-100464744D01*
X115360929Y-100412319D01*
X115375500Y-100339071D01*
X115375500Y-100210928D01*
X115350502Y-100085261D01*
X115350501Y-100085260D01*
X115350501Y-100085256D01*
X115301465Y-99966873D01*
X115301464Y-99966872D01*
X115301461Y-99966866D01*
X115230276Y-99860331D01*
X115230273Y-99860327D01*
X115139672Y-99769726D01*
X115139668Y-99769723D01*
X115033133Y-99698538D01*
X115033124Y-99698533D01*
X114914744Y-99649499D01*
X114914738Y-99649497D01*
X114817526Y-99630160D01*
X114755615Y-99597775D01*
X114754037Y-99596224D01*
X114264411Y-99106598D01*
X113757314Y-98599500D01*
X113664667Y-98546010D01*
X113643187Y-98533608D01*
X113571116Y-98514297D01*
X113515892Y-98499500D01*
X113515891Y-98499500D01*
X94499500Y-98499500D01*
X94432461Y-98479815D01*
X94386706Y-98427011D01*
X94375500Y-98375500D01*
X94375500Y-96913389D01*
X108899500Y-96913389D01*
X108899500Y-97086610D01*
X108922491Y-97231774D01*
X108926598Y-97257701D01*
X108980127Y-97422445D01*
X109058768Y-97576788D01*
X109160586Y-97716928D01*
X109283072Y-97839414D01*
X109423212Y-97941232D01*
X109577555Y-98019873D01*
X109742299Y-98073402D01*
X109913389Y-98100500D01*
X109913390Y-98100500D01*
X110086610Y-98100500D01*
X110086611Y-98100500D01*
X110257701Y-98073402D01*
X110422445Y-98019873D01*
X110576788Y-97941232D01*
X110716928Y-97839414D01*
X110839414Y-97716928D01*
X110941232Y-97576788D01*
X111019873Y-97422445D01*
X111073402Y-97257701D01*
X111100500Y-97086611D01*
X111100500Y-96913389D01*
X111073402Y-96742299D01*
X111019873Y-96577555D01*
X110941232Y-96423212D01*
X110839414Y-96283072D01*
X110716928Y-96160586D01*
X110668390Y-96125321D01*
X111439500Y-96125321D01*
X111439500Y-97874678D01*
X111454032Y-97947735D01*
X111454033Y-97947739D01*
X111454034Y-97947740D01*
X111509399Y-98030601D01*
X111591304Y-98085327D01*
X111592260Y-98085966D01*
X111592264Y-98085967D01*
X111665321Y-98100499D01*
X111665324Y-98100500D01*
X111665326Y-98100500D01*
X113414676Y-98100500D01*
X113414677Y-98100499D01*
X113487740Y-98085966D01*
X113570601Y-98030601D01*
X113625966Y-97947740D01*
X113640500Y-97874674D01*
X113640500Y-97064071D01*
X115349499Y-97064071D01*
X115374497Y-97189738D01*
X115374499Y-97189744D01*
X115423533Y-97308124D01*
X115423538Y-97308133D01*
X115494723Y-97414668D01*
X115494726Y-97414672D01*
X115585327Y-97505273D01*
X115585331Y-97505276D01*
X115691866Y-97576461D01*
X115691875Y-97576466D01*
X115718692Y-97587574D01*
X115810256Y-97625501D01*
X115810260Y-97625501D01*
X115810261Y-97625502D01*
X115935928Y-97650500D01*
X115935931Y-97650500D01*
X116064071Y-97650500D01*
X116148615Y-97633682D01*
X116189744Y-97625501D01*
X116308127Y-97576465D01*
X116414669Y-97505276D01*
X116505276Y-97414669D01*
X116576465Y-97308127D01*
X116625501Y-97189744D01*
X116648332Y-97074968D01*
X116650500Y-97064071D01*
X116650500Y-96935928D01*
X116625502Y-96810261D01*
X116625501Y-96810260D01*
X116625501Y-96810256D01*
X116576465Y-96691873D01*
X116576464Y-96691872D01*
X116576461Y-96691866D01*
X116505276Y-96585331D01*
X116505273Y-96585327D01*
X116414672Y-96494726D01*
X116414668Y-96494723D01*
X116308133Y-96423538D01*
X116308124Y-96423533D01*
X116189744Y-96374499D01*
X116189738Y-96374497D01*
X116064071Y-96349500D01*
X116064069Y-96349500D01*
X115935931Y-96349500D01*
X115935929Y-96349500D01*
X115810261Y-96374497D01*
X115810255Y-96374499D01*
X115691875Y-96423533D01*
X115691866Y-96423538D01*
X115585331Y-96494723D01*
X115585327Y-96494726D01*
X115494726Y-96585327D01*
X115494723Y-96585331D01*
X115423538Y-96691866D01*
X115423533Y-96691875D01*
X115374499Y-96810255D01*
X115374497Y-96810261D01*
X115349500Y-96935928D01*
X115349500Y-96935931D01*
X115349500Y-97064069D01*
X115349500Y-97064071D01*
X115349499Y-97064071D01*
X113640500Y-97064071D01*
X113640500Y-96125326D01*
X113640500Y-96125323D01*
X113640499Y-96125321D01*
X113625967Y-96052264D01*
X113625966Y-96052260D01*
X113616340Y-96037853D01*
X113570601Y-95969399D01*
X113495608Y-95919291D01*
X113487739Y-95914033D01*
X113487735Y-95914032D01*
X113414677Y-95899500D01*
X113414674Y-95899500D01*
X111665326Y-95899500D01*
X111665323Y-95899500D01*
X111592264Y-95914032D01*
X111592260Y-95914033D01*
X111509399Y-95969399D01*
X111454033Y-96052260D01*
X111454032Y-96052264D01*
X111439500Y-96125321D01*
X110668390Y-96125321D01*
X110576788Y-96058768D01*
X110535740Y-96037853D01*
X110422447Y-95980128D01*
X110422446Y-95980127D01*
X110422445Y-95980127D01*
X110257701Y-95926598D01*
X110257699Y-95926597D01*
X110257698Y-95926597D01*
X110092798Y-95900480D01*
X110086611Y-95899500D01*
X109913389Y-95899500D01*
X109907202Y-95900480D01*
X109742302Y-95926597D01*
X109577552Y-95980128D01*
X109423211Y-96058768D01*
X109356811Y-96107011D01*
X109283072Y-96160586D01*
X109283070Y-96160588D01*
X109283069Y-96160588D01*
X109160588Y-96283069D01*
X109160588Y-96283070D01*
X109160586Y-96283072D01*
X109116859Y-96343256D01*
X109058768Y-96423211D01*
X108980128Y-96577552D01*
X108926597Y-96742302D01*
X108899500Y-96913389D01*
X94375500Y-96913389D01*
X94375500Y-95731830D01*
X94375500Y-95731828D01*
X94349910Y-95636325D01*
X94300475Y-95550701D01*
X94230562Y-95480788D01*
X92776371Y-94026597D01*
X91285973Y-92536198D01*
X91203164Y-92453389D01*
X108899500Y-92453389D01*
X108899500Y-92626611D01*
X108926598Y-92797701D01*
X108980127Y-92962445D01*
X109058768Y-93116788D01*
X109160586Y-93256928D01*
X109283072Y-93379414D01*
X109423212Y-93481232D01*
X109577555Y-93559873D01*
X109742299Y-93613402D01*
X109913389Y-93640500D01*
X109913390Y-93640500D01*
X110086610Y-93640500D01*
X110086611Y-93640500D01*
X110257701Y-93613402D01*
X110422445Y-93559873D01*
X110576788Y-93481232D01*
X110716928Y-93379414D01*
X110839414Y-93256928D01*
X110941232Y-93116788D01*
X111019873Y-92962445D01*
X111073402Y-92797701D01*
X111100500Y-92626611D01*
X111100500Y-92453389D01*
X111073402Y-92282299D01*
X111019873Y-92117555D01*
X110941232Y-91963212D01*
X110839414Y-91823072D01*
X110716928Y-91700586D01*
X110576788Y-91598768D01*
X110467570Y-91543119D01*
X110422447Y-91520128D01*
X110422446Y-91520127D01*
X110422445Y-91520127D01*
X110257701Y-91466598D01*
X110257699Y-91466597D01*
X110257698Y-91466597D01*
X110126271Y-91445781D01*
X110086611Y-91439500D01*
X109913389Y-91439500D01*
X109873728Y-91445781D01*
X109742302Y-91466597D01*
X109577552Y-91520128D01*
X109423211Y-91598768D01*
X109359801Y-91644839D01*
X109283072Y-91700586D01*
X109283070Y-91700588D01*
X109283069Y-91700588D01*
X109160588Y-91823069D01*
X109160588Y-91823070D01*
X109160586Y-91823072D01*
X109146057Y-91843070D01*
X109058768Y-91963211D01*
X108980128Y-92117552D01*
X108926597Y-92282302D01*
X108917433Y-92340164D01*
X108899500Y-92453389D01*
X91203164Y-92453389D01*
X89449301Y-90699526D01*
X89449300Y-90699525D01*
X89363676Y-90650090D01*
X89294182Y-90631469D01*
X89294181Y-90631468D01*
X89268174Y-90624500D01*
X89268173Y-90624500D01*
X89196300Y-90624500D01*
X89129261Y-90604815D01*
X89083506Y-90552011D01*
X89073562Y-90482853D01*
X89081739Y-90453048D01*
X89100999Y-90406548D01*
X89101001Y-90406544D01*
X89126000Y-90280869D01*
X89126000Y-90152731D01*
X89126000Y-90152728D01*
X89101002Y-90027061D01*
X89101001Y-90027060D01*
X89101001Y-90027056D01*
X89062203Y-89933389D01*
X89051966Y-89908675D01*
X89051961Y-89908666D01*
X88980776Y-89802131D01*
X88980773Y-89802127D01*
X88890172Y-89711526D01*
X88890168Y-89711523D01*
X88783633Y-89640338D01*
X88783624Y-89640333D01*
X88665244Y-89591299D01*
X88665238Y-89591297D01*
X88539571Y-89566300D01*
X88539569Y-89566300D01*
X88411431Y-89566300D01*
X88411429Y-89566300D01*
X88285761Y-89591297D01*
X88285755Y-89591299D01*
X88167375Y-89640333D01*
X88167366Y-89640338D01*
X88060831Y-89711523D01*
X88060827Y-89711526D01*
X87970226Y-89802127D01*
X87970223Y-89802131D01*
X87899038Y-89908666D01*
X87899033Y-89908675D01*
X87849999Y-90027055D01*
X87849997Y-90027061D01*
X87825000Y-90152728D01*
X87825000Y-90152731D01*
X87825000Y-90280869D01*
X87825000Y-90280871D01*
X87824999Y-90280871D01*
X87849997Y-90406538D01*
X87850000Y-90406548D01*
X87869261Y-90453048D01*
X87876730Y-90522517D01*
X87845454Y-90584996D01*
X87785365Y-90620648D01*
X87754700Y-90624500D01*
X87095808Y-90624500D01*
X87028769Y-90604815D01*
X87008127Y-90588181D01*
X86914672Y-90494726D01*
X86914668Y-90494723D01*
X86808133Y-90423538D01*
X86808124Y-90423533D01*
X86689744Y-90374499D01*
X86689738Y-90374497D01*
X86564071Y-90349500D01*
X86564069Y-90349500D01*
X86435931Y-90349500D01*
X86435929Y-90349500D01*
X86310261Y-90374497D01*
X86310255Y-90374499D01*
X86191875Y-90423533D01*
X86191866Y-90423538D01*
X86085331Y-90494723D01*
X86085327Y-90494726D01*
X85994726Y-90585327D01*
X85994723Y-90585331D01*
X85923538Y-90691866D01*
X85923533Y-90691875D01*
X85874499Y-90810255D01*
X85874497Y-90810261D01*
X85849500Y-90935928D01*
X85849500Y-90935931D01*
X85849500Y-91064069D01*
X85849500Y-91064071D01*
X85849499Y-91064071D01*
X85874497Y-91189738D01*
X85874499Y-91189744D01*
X85923533Y-91308124D01*
X85923538Y-91308133D01*
X85994723Y-91414668D01*
X85994726Y-91414672D01*
X86085327Y-91505273D01*
X86085331Y-91505276D01*
X86191866Y-91576461D01*
X86191872Y-91576464D01*
X86191873Y-91576465D01*
X86310256Y-91625501D01*
X86310260Y-91625501D01*
X86310261Y-91625502D01*
X86435928Y-91650500D01*
X86435931Y-91650500D01*
X86564071Y-91650500D01*
X86651135Y-91633181D01*
X86689744Y-91625501D01*
X86808127Y-91576465D01*
X86914669Y-91505276D01*
X86960445Y-91459500D01*
X87008127Y-91411819D01*
X87069450Y-91378334D01*
X87095808Y-91375500D01*
X89011839Y-91375500D01*
X89078878Y-91395185D01*
X89099520Y-91411819D01*
X91325520Y-93637819D01*
X91359005Y-93699142D01*
X91354021Y-93768834D01*
X91312149Y-93824767D01*
X91246685Y-93849184D01*
X91237839Y-93849500D01*
X91185929Y-93849500D01*
X91060261Y-93874497D01*
X91060255Y-93874499D01*
X90941875Y-93923533D01*
X90941866Y-93923538D01*
X90859459Y-93978602D01*
X90792782Y-93999480D01*
X90790568Y-93999500D01*
X86758676Y-93999500D01*
X86691637Y-93979815D01*
X86670995Y-93963181D01*
X83707106Y-90999292D01*
X83673621Y-90937969D01*
X83678605Y-90868277D01*
X83707106Y-90823930D01*
X86671468Y-87859568D01*
X94249500Y-87859568D01*
X94249500Y-88140431D01*
X94280942Y-88419494D01*
X94280945Y-88419512D01*
X94343439Y-88693317D01*
X94343443Y-88693329D01*
X94436200Y-88958411D01*
X94558053Y-89211442D01*
X94558055Y-89211445D01*
X94707477Y-89449248D01*
X94774382Y-89533144D01*
X94878234Y-89663371D01*
X94882584Y-89668825D01*
X95081175Y-89867416D01*
X95300752Y-90042523D01*
X95538555Y-90191945D01*
X95791592Y-90313801D01*
X95965051Y-90374497D01*
X96056670Y-90406556D01*
X96056682Y-90406560D01*
X96330491Y-90469055D01*
X96330497Y-90469055D01*
X96330505Y-90469057D01*
X96516547Y-90490018D01*
X96609569Y-90500499D01*
X96609572Y-90500500D01*
X96609575Y-90500500D01*
X96890428Y-90500500D01*
X96890429Y-90500499D01*
X97047048Y-90482853D01*
X97169494Y-90469057D01*
X97169499Y-90469056D01*
X97169509Y-90469055D01*
X97443318Y-90406560D01*
X97708408Y-90313801D01*
X97961445Y-90191945D01*
X98199248Y-90042523D01*
X98361177Y-89913389D01*
X108899500Y-89913389D01*
X108899500Y-90086610D01*
X108918906Y-90209139D01*
X108926598Y-90257701D01*
X108980127Y-90422445D01*
X109058768Y-90576788D01*
X109160586Y-90716928D01*
X109283072Y-90839414D01*
X109423212Y-90941232D01*
X109577555Y-91019873D01*
X109742299Y-91073402D01*
X109913389Y-91100500D01*
X109913390Y-91100500D01*
X110086610Y-91100500D01*
X110086611Y-91100500D01*
X110257701Y-91073402D01*
X110422445Y-91019873D01*
X110576788Y-90941232D01*
X110716928Y-90839414D01*
X110839414Y-90716928D01*
X110941232Y-90576788D01*
X111019873Y-90422445D01*
X111073402Y-90257701D01*
X111100500Y-90086611D01*
X111100500Y-89913389D01*
X111073402Y-89742299D01*
X111019873Y-89577555D01*
X110941232Y-89423212D01*
X110839414Y-89283072D01*
X110716928Y-89160586D01*
X110576788Y-89058768D01*
X110422445Y-88980127D01*
X110257701Y-88926598D01*
X110257699Y-88926597D01*
X110257698Y-88926597D01*
X110126271Y-88905781D01*
X110086611Y-88899500D01*
X109913389Y-88899500D01*
X109873728Y-88905781D01*
X109742302Y-88926597D01*
X109577552Y-88980128D01*
X109423211Y-89058768D01*
X109395684Y-89078768D01*
X109283072Y-89160586D01*
X109283070Y-89160588D01*
X109283069Y-89160588D01*
X109160588Y-89283069D01*
X109160588Y-89283070D01*
X109160586Y-89283072D01*
X109146057Y-89303070D01*
X109058768Y-89423211D01*
X108980128Y-89577552D01*
X108980127Y-89577554D01*
X108980127Y-89577555D01*
X108968461Y-89613460D01*
X108926597Y-89742302D01*
X108899500Y-89913389D01*
X98361177Y-89913389D01*
X98418825Y-89867416D01*
X98617416Y-89668825D01*
X98792523Y-89449248D01*
X98941945Y-89211445D01*
X99063801Y-88958408D01*
X99156560Y-88693318D01*
X99219055Y-88419509D01*
X99219134Y-88418815D01*
X99243199Y-88205220D01*
X99250500Y-88140425D01*
X99250500Y-87859575D01*
X99219055Y-87580491D01*
X99171785Y-87373389D01*
X108899500Y-87373389D01*
X108899500Y-87546610D01*
X108920881Y-87681610D01*
X108926598Y-87717701D01*
X108980127Y-87882445D01*
X109058768Y-88036788D01*
X109160586Y-88176928D01*
X109283072Y-88299414D01*
X109423212Y-88401232D01*
X109577555Y-88479873D01*
X109742299Y-88533402D01*
X109913389Y-88560500D01*
X109913390Y-88560500D01*
X110086610Y-88560500D01*
X110086611Y-88560500D01*
X110257701Y-88533402D01*
X110422445Y-88479873D01*
X110576788Y-88401232D01*
X110716928Y-88299414D01*
X110839414Y-88176928D01*
X110941232Y-88036788D01*
X111019873Y-87882445D01*
X111073402Y-87717701D01*
X111100500Y-87546611D01*
X111100500Y-87373389D01*
X111073402Y-87202299D01*
X111019873Y-87037555D01*
X111007583Y-87013434D01*
X110974790Y-86949072D01*
X110974789Y-86949071D01*
X110948587Y-86897648D01*
X113699500Y-86897648D01*
X113699500Y-87102351D01*
X113731522Y-87304534D01*
X113794781Y-87499223D01*
X113887715Y-87681613D01*
X114008028Y-87847213D01*
X114152786Y-87991971D01*
X114307749Y-88104556D01*
X114318390Y-88112287D01*
X114434607Y-88171503D01*
X114500776Y-88205218D01*
X114500778Y-88205218D01*
X114500781Y-88205220D01*
X114567256Y-88226819D01*
X114695465Y-88268477D01*
X114796557Y-88284488D01*
X114897648Y-88300500D01*
X114897649Y-88300500D01*
X115102351Y-88300500D01*
X115102352Y-88300500D01*
X115304534Y-88268477D01*
X115499219Y-88205220D01*
X115681610Y-88112287D01*
X115785526Y-88036788D01*
X115847213Y-87991971D01*
X115847215Y-87991968D01*
X115847219Y-87991966D01*
X115991966Y-87847219D01*
X115991968Y-87847215D01*
X115991971Y-87847213D01*
X116071535Y-87737701D01*
X116112287Y-87681610D01*
X116205220Y-87499219D01*
X116268477Y-87304534D01*
X116300500Y-87102352D01*
X116300500Y-86897648D01*
X116279185Y-86763070D01*
X116268477Y-86695465D01*
X116221457Y-86550753D01*
X116205220Y-86500781D01*
X116205218Y-86500778D01*
X116205218Y-86500776D01*
X116157231Y-86406597D01*
X116112287Y-86318390D01*
X116104556Y-86307749D01*
X115991971Y-86152786D01*
X115847213Y-86008028D01*
X115681613Y-85887715D01*
X115681612Y-85887714D01*
X115681610Y-85887713D01*
X115608597Y-85850511D01*
X115499223Y-85794781D01*
X115304534Y-85731522D01*
X115129995Y-85703878D01*
X115102352Y-85699500D01*
X114897648Y-85699500D01*
X114873329Y-85703351D01*
X114695465Y-85731522D01*
X114500776Y-85794781D01*
X114318386Y-85887715D01*
X114152786Y-86008028D01*
X114008028Y-86152786D01*
X113887715Y-86318386D01*
X113794781Y-86500776D01*
X113731522Y-86695465D01*
X113699500Y-86897648D01*
X110948587Y-86897648D01*
X110941231Y-86883211D01*
X110936999Y-86877386D01*
X110839414Y-86743072D01*
X110716928Y-86620586D01*
X110576788Y-86518768D01*
X110467570Y-86463119D01*
X110422447Y-86440128D01*
X110422446Y-86440127D01*
X110422445Y-86440127D01*
X110257701Y-86386598D01*
X110257699Y-86386597D01*
X110257698Y-86386597D01*
X110126271Y-86365781D01*
X110086611Y-86359500D01*
X109913389Y-86359500D01*
X109873728Y-86365781D01*
X109742302Y-86386597D01*
X109577552Y-86440128D01*
X109423211Y-86518768D01*
X109343256Y-86576859D01*
X109283072Y-86620586D01*
X109283070Y-86620588D01*
X109283069Y-86620588D01*
X109160588Y-86743069D01*
X109160588Y-86743070D01*
X109160586Y-86743072D01*
X109146057Y-86763070D01*
X109058768Y-86883211D01*
X108980128Y-87037552D01*
X108926597Y-87202302D01*
X108899500Y-87373389D01*
X99171785Y-87373389D01*
X99156560Y-87306682D01*
X99155808Y-87304534D01*
X99102940Y-87153446D01*
X99063801Y-87041592D01*
X98941945Y-86788555D01*
X98792523Y-86550752D01*
X98617416Y-86331175D01*
X98418825Y-86132584D01*
X98199248Y-85957477D01*
X97961445Y-85808055D01*
X97961442Y-85808053D01*
X97708411Y-85686200D01*
X97443329Y-85593443D01*
X97443317Y-85593439D01*
X97169512Y-85530945D01*
X97169494Y-85530942D01*
X96890431Y-85499500D01*
X96890425Y-85499500D01*
X96609575Y-85499500D01*
X96609568Y-85499500D01*
X96330505Y-85530942D01*
X96330487Y-85530945D01*
X96056682Y-85593439D01*
X96056670Y-85593443D01*
X95791588Y-85686200D01*
X95538557Y-85808053D01*
X95300753Y-85957476D01*
X95081175Y-86132583D01*
X94882583Y-86331175D01*
X94707476Y-86550753D01*
X94558053Y-86788557D01*
X94436200Y-87041588D01*
X94343443Y-87306670D01*
X94343439Y-87306682D01*
X94280945Y-87580487D01*
X94280942Y-87580505D01*
X94249500Y-87859568D01*
X86671468Y-87859568D01*
X86762621Y-87768415D01*
X89697648Y-84833389D01*
X108899500Y-84833389D01*
X108899500Y-85006610D01*
X108918092Y-85124000D01*
X108926598Y-85177701D01*
X108980127Y-85342445D01*
X109058768Y-85496788D01*
X109160586Y-85636928D01*
X109283072Y-85759414D01*
X109423212Y-85861232D01*
X109577555Y-85939873D01*
X109742299Y-85993402D01*
X109913389Y-86020500D01*
X109913390Y-86020500D01*
X110086610Y-86020500D01*
X110086611Y-86020500D01*
X110257701Y-85993402D01*
X110422445Y-85939873D01*
X110576788Y-85861232D01*
X110716928Y-85759414D01*
X110839414Y-85636928D01*
X110941232Y-85496788D01*
X111019873Y-85342445D01*
X111073402Y-85177701D01*
X111100500Y-85006611D01*
X111100500Y-84833389D01*
X111073402Y-84662299D01*
X111019873Y-84497555D01*
X110941232Y-84343212D01*
X110839414Y-84203072D01*
X110716928Y-84080586D01*
X110576788Y-83978768D01*
X110422445Y-83900127D01*
X110257701Y-83846598D01*
X110257699Y-83846597D01*
X110257698Y-83846597D01*
X110126271Y-83825781D01*
X110086611Y-83819500D01*
X109913389Y-83819500D01*
X109873728Y-83825781D01*
X109742302Y-83846597D01*
X109577552Y-83900128D01*
X109423211Y-83978768D01*
X109395684Y-83998768D01*
X109283072Y-84080586D01*
X109283070Y-84080588D01*
X109283069Y-84080588D01*
X109160588Y-84203069D01*
X109160588Y-84203070D01*
X109160586Y-84203072D01*
X109132131Y-84242237D01*
X109058768Y-84343211D01*
X108980128Y-84497552D01*
X108926597Y-84662302D01*
X108899500Y-84833389D01*
X89697648Y-84833389D01*
X89790201Y-84740836D01*
X92237648Y-82293389D01*
X108899500Y-82293389D01*
X108899500Y-82466611D01*
X108926598Y-82637701D01*
X108980127Y-82802445D01*
X109058768Y-82956788D01*
X109160586Y-83096928D01*
X109283072Y-83219414D01*
X109423212Y-83321232D01*
X109577555Y-83399873D01*
X109742299Y-83453402D01*
X109913389Y-83480500D01*
X109913390Y-83480500D01*
X110086610Y-83480500D01*
X110086611Y-83480500D01*
X110257701Y-83453402D01*
X110422445Y-83399873D01*
X110576788Y-83321232D01*
X110716928Y-83219414D01*
X110839414Y-83096928D01*
X110941232Y-82956788D01*
X111019873Y-82802445D01*
X111073402Y-82637701D01*
X111100500Y-82466611D01*
X111100500Y-82293389D01*
X111073402Y-82122299D01*
X111019873Y-81957555D01*
X110941232Y-81803212D01*
X110839414Y-81663072D01*
X110716928Y-81540586D01*
X110576788Y-81438768D01*
X110422445Y-81360127D01*
X110257701Y-81306598D01*
X110257699Y-81306597D01*
X110257698Y-81306597D01*
X110126271Y-81285781D01*
X110086611Y-81279500D01*
X109913389Y-81279500D01*
X109873728Y-81285781D01*
X109742302Y-81306597D01*
X109577552Y-81360128D01*
X109423211Y-81438768D01*
X109353401Y-81489489D01*
X109283072Y-81540586D01*
X109283070Y-81540588D01*
X109283069Y-81540588D01*
X109160588Y-81663069D01*
X109160588Y-81663070D01*
X109160586Y-81663072D01*
X109146057Y-81683070D01*
X109058768Y-81803211D01*
X108980128Y-81957552D01*
X108926597Y-82122302D01*
X108913735Y-82203510D01*
X108899500Y-82293389D01*
X92237648Y-82293389D01*
X93800474Y-80730563D01*
X93800475Y-80730562D01*
X93849910Y-80644938D01*
X93875500Y-80549435D01*
X93875500Y-79753389D01*
X108899500Y-79753389D01*
X108899500Y-79926610D01*
X108923234Y-80076466D01*
X108926598Y-80097701D01*
X108976682Y-80251843D01*
X108980128Y-80262447D01*
X108987238Y-80276402D01*
X109058768Y-80416788D01*
X109160586Y-80556928D01*
X109283072Y-80679414D01*
X109423212Y-80781232D01*
X109577555Y-80859873D01*
X109742299Y-80913402D01*
X109913389Y-80940500D01*
X109913390Y-80940500D01*
X110086610Y-80940500D01*
X110086611Y-80940500D01*
X110257701Y-80913402D01*
X110422445Y-80859873D01*
X110576788Y-80781232D01*
X110716928Y-80679414D01*
X110839414Y-80556928D01*
X110941232Y-80416788D01*
X111019873Y-80262445D01*
X111073402Y-80097701D01*
X111100500Y-79926611D01*
X111100500Y-79753389D01*
X111073402Y-79582299D01*
X111019873Y-79417555D01*
X110941232Y-79263212D01*
X110839414Y-79123072D01*
X110716928Y-79000586D01*
X110576788Y-78898768D01*
X110422445Y-78820127D01*
X110257701Y-78766598D01*
X110257699Y-78766597D01*
X110257698Y-78766597D01*
X110126271Y-78745781D01*
X110086611Y-78739500D01*
X109913389Y-78739500D01*
X109873728Y-78745781D01*
X109742302Y-78766597D01*
X109577552Y-78820128D01*
X109423211Y-78898768D01*
X109389123Y-78923535D01*
X109283072Y-79000586D01*
X109283070Y-79000588D01*
X109283069Y-79000588D01*
X109160588Y-79123069D01*
X109160588Y-79123070D01*
X109160586Y-79123072D01*
X109128164Y-79167697D01*
X109058768Y-79263211D01*
X108980128Y-79417552D01*
X108926597Y-79582302D01*
X108899500Y-79753389D01*
X93875500Y-79753389D01*
X93875500Y-77450565D01*
X93871090Y-77434108D01*
X93849910Y-77355063D01*
X93849910Y-77355062D01*
X93800475Y-77269438D01*
X93730562Y-77199525D01*
X92956358Y-76425321D01*
X108899500Y-76425321D01*
X108899500Y-78174678D01*
X108914032Y-78247735D01*
X108914033Y-78247739D01*
X108914034Y-78247740D01*
X108969399Y-78330601D01*
X109052260Y-78385966D01*
X109052264Y-78385967D01*
X109125321Y-78400499D01*
X109125324Y-78400500D01*
X109125326Y-78400500D01*
X110874676Y-78400500D01*
X110874677Y-78400499D01*
X110947740Y-78385966D01*
X111030601Y-78330601D01*
X111085966Y-78247740D01*
X111100500Y-78174674D01*
X111100500Y-76425326D01*
X111100500Y-76425323D01*
X111100499Y-76425321D01*
X111085967Y-76352264D01*
X111085966Y-76352260D01*
X111030601Y-76269399D01*
X110975235Y-76232405D01*
X110947739Y-76214033D01*
X110947735Y-76214032D01*
X110874677Y-76199500D01*
X110874674Y-76199500D01*
X109125326Y-76199500D01*
X109125323Y-76199500D01*
X109052264Y-76214032D01*
X109052260Y-76214033D01*
X108969399Y-76269399D01*
X108914033Y-76352260D01*
X108914032Y-76352264D01*
X108899500Y-76425321D01*
X92956358Y-76425321D01*
X91028685Y-74497648D01*
X95449500Y-74497648D01*
X95449500Y-74702351D01*
X95481522Y-74904534D01*
X95544781Y-75099223D01*
X95597376Y-75202445D01*
X95635829Y-75277913D01*
X95637715Y-75281613D01*
X95758028Y-75447213D01*
X95902786Y-75591971D01*
X96057749Y-75704556D01*
X96068390Y-75712287D01*
X96184607Y-75771503D01*
X96250776Y-75805218D01*
X96250778Y-75805218D01*
X96250781Y-75805220D01*
X96273624Y-75812642D01*
X96445465Y-75868477D01*
X96521375Y-75880500D01*
X96647648Y-75900500D01*
X96647649Y-75900500D01*
X96852351Y-75900500D01*
X96852352Y-75900500D01*
X97054534Y-75868477D01*
X97249219Y-75805220D01*
X97431610Y-75712287D01*
X97559444Y-75619411D01*
X97597213Y-75591971D01*
X97597215Y-75591968D01*
X97597219Y-75591966D01*
X97741966Y-75447219D01*
X97741968Y-75447215D01*
X97741971Y-75447213D01*
X97807669Y-75356786D01*
X97862287Y-75281610D01*
X97955220Y-75099219D01*
X98018477Y-74904534D01*
X98050500Y-74702352D01*
X98050500Y-74497648D01*
X98018477Y-74295466D01*
X98014390Y-74282889D01*
X97955218Y-74100776D01*
X97901090Y-73994545D01*
X97862287Y-73918390D01*
X97804439Y-73838768D01*
X97741971Y-73752786D01*
X97597213Y-73608028D01*
X97431613Y-73487715D01*
X97431612Y-73487714D01*
X97431610Y-73487713D01*
X97374653Y-73458691D01*
X97249223Y-73394781D01*
X97054534Y-73331522D01*
X96879995Y-73303878D01*
X96852352Y-73299500D01*
X96647648Y-73299500D01*
X96623329Y-73303351D01*
X96445465Y-73331522D01*
X96250776Y-73394781D01*
X96068386Y-73487715D01*
X95902786Y-73608028D01*
X95758028Y-73752786D01*
X95637715Y-73918386D01*
X95544781Y-74100776D01*
X95481522Y-74295465D01*
X95449500Y-74497648D01*
X91028685Y-74497648D01*
X88980563Y-72449526D01*
X88980562Y-72449525D01*
X88894938Y-72400090D01*
X88847186Y-72387295D01*
X88847184Y-72387294D01*
X88847182Y-72387293D01*
X88799436Y-72374500D01*
X88799435Y-72374500D01*
X62917336Y-72374500D01*
X62818464Y-72374500D01*
X62770712Y-72387295D01*
X62770711Y-72387294D01*
X62722963Y-72400089D01*
X62722962Y-72400089D01*
X62637335Y-72449527D01*
X61345782Y-73741081D01*
X61284459Y-73774566D01*
X61258101Y-73777400D01*
X58016536Y-73777400D01*
X57917664Y-73777400D01*
X57892118Y-73784245D01*
X57884131Y-73786385D01*
X57814281Y-73784720D01*
X57795745Y-73777094D01*
X57762447Y-73760128D01*
X57762446Y-73760127D01*
X57762445Y-73760127D01*
X57597701Y-73706598D01*
X57597699Y-73706597D01*
X57597698Y-73706597D01*
X57466271Y-73685781D01*
X57426611Y-73679500D01*
X57253389Y-73679500D01*
X57213728Y-73685781D01*
X57082302Y-73706597D01*
X57082299Y-73706598D01*
X56940164Y-73752781D01*
X56917552Y-73760128D01*
X56763211Y-73838768D01*
X56683256Y-73896859D01*
X56623072Y-73940586D01*
X56623070Y-73940588D01*
X56623069Y-73940588D01*
X56500588Y-74063069D01*
X56500588Y-74063070D01*
X56500586Y-74063072D01*
X56487772Y-74080709D01*
X56398766Y-74203213D01*
X56330705Y-74336794D01*
X56282731Y-74387591D01*
X56220220Y-74404500D01*
X55919780Y-74404500D01*
X55852741Y-74384815D01*
X55809295Y-74336794D01*
X55741233Y-74203213D01*
X55725937Y-74182160D01*
X55639414Y-74063072D01*
X55516928Y-73940586D01*
X55376788Y-73838768D01*
X55222445Y-73760127D01*
X55057701Y-73706598D01*
X55057699Y-73706597D01*
X55057698Y-73706597D01*
X54926271Y-73685781D01*
X54886611Y-73679500D01*
X54713389Y-73679500D01*
X54673728Y-73685781D01*
X54542302Y-73706597D01*
X54542299Y-73706598D01*
X54400164Y-73752781D01*
X54377552Y-73760128D01*
X54223211Y-73838768D01*
X54143256Y-73896859D01*
X54083072Y-73940586D01*
X54083070Y-73940588D01*
X54083069Y-73940588D01*
X53960588Y-74063069D01*
X53960588Y-74063070D01*
X53960586Y-74063072D01*
X53933189Y-74100781D01*
X53858768Y-74203211D01*
X53780128Y-74357552D01*
X53726597Y-74522302D01*
X53699500Y-74693389D01*
X53699500Y-74866610D01*
X53724808Y-75026403D01*
X53726598Y-75037701D01*
X53780127Y-75202445D01*
X53858768Y-75356788D01*
X53960586Y-75496928D01*
X54083072Y-75619414D01*
X54223212Y-75721232D01*
X54377555Y-75799873D01*
X54380708Y-75800897D01*
X54381752Y-75801611D01*
X54382048Y-75801734D01*
X54382022Y-75801795D01*
X54438383Y-75840330D01*
X54465585Y-75904688D01*
X54453674Y-75973535D01*
X54406433Y-76025013D01*
X54380712Y-76036760D01*
X54281783Y-76068904D01*
X54092442Y-76165379D01*
X53920540Y-76290272D01*
X53920535Y-76290276D01*
X53770276Y-76440535D01*
X53770272Y-76440540D01*
X53645379Y-76612442D01*
X53548904Y-76801782D01*
X53483242Y-77003870D01*
X53483242Y-77003873D01*
X53472769Y-77070000D01*
X50602096Y-77070000D01*
X50602096Y-72167403D01*
X50621781Y-72100364D01*
X50674585Y-72054609D01*
X50726096Y-72043403D01*
X122250500Y-72043403D01*
X122317539Y-72063088D01*
G37*
%TD.AperFunction*%
%TD*%
D20*
X50601596Y-72042903D02*
X122375000Y-72042903D01*
X122375000Y-112556276D01*
X50601596Y-112556276D01*
X50601596Y-72042903D01*
M02*
