%TF.GenerationSoftware,KiCad,Pcbnew,9.0.8-1.fc43*%
%TF.CreationDate,2026-04-28T19:00:54+02:00*%
%TF.ProjectId,bioamplifier,62696f61-6d70-46c6-9966-6965722e6b69,rev?*%
%TF.SameCoordinates,Original*%
%TF.FileFunction,Legend,Top*%
%TF.FilePolarity,Positive*%
%FSLAX46Y46*%
G04 Gerber Fmt 4.6, Leading zero omitted, Abs format (unit mm)*
G04 Created by KiCad (PCBNEW 9.0.8-1.fc43) date 2026-04-28 19:00:54*
%MOMM*%
%LPD*%
G01*
G04 APERTURE LIST*
%ADD10C,0.150000*%
%ADD11C,0.125000*%
%ADD12C,0.120000*%
%ADD13C,0.250000*%
%ADD14C,0.100000*%
%ADD15C,0.152400*%
%ADD16C,0.000000*%
%TA.AperFunction,Profile*%
%ADD17C,0.100000*%
%TD*%
G04 APERTURE END LIST*
D10*
X79375000Y-71120000D02*
X95885000Y-71120000D01*
X95885000Y-73050400D01*
X79375000Y-73050400D01*
X79375000Y-71120000D01*
X79375000Y-72999600D02*
X95885000Y-72999600D01*
X95885000Y-74930000D01*
X79375000Y-74930000D01*
X79375000Y-72999600D01*
X93771728Y-100904649D02*
X93071728Y-100904649D01*
X93071728Y-100904649D02*
X93071728Y-100737982D01*
X93071728Y-100737982D02*
X93105061Y-100637982D01*
X93105061Y-100637982D02*
X93171728Y-100571316D01*
X93171728Y-100571316D02*
X93238395Y-100537982D01*
X93238395Y-100537982D02*
X93371728Y-100504649D01*
X93371728Y-100504649D02*
X93471728Y-100504649D01*
X93471728Y-100504649D02*
X93605061Y-100537982D01*
X93605061Y-100537982D02*
X93671728Y-100571316D01*
X93671728Y-100571316D02*
X93738395Y-100637982D01*
X93738395Y-100637982D02*
X93771728Y-100737982D01*
X93771728Y-100737982D02*
X93771728Y-100904649D01*
X93771728Y-100204649D02*
X93071728Y-100204649D01*
X93771728Y-99871316D02*
X93071728Y-99871316D01*
X93071728Y-99871316D02*
X93771728Y-99471316D01*
X93771728Y-99471316D02*
X93071728Y-99471316D01*
X95692317Y-100904649D02*
X95692317Y-100371316D01*
X95692317Y-100371316D02*
X95858983Y-100371316D01*
X96025650Y-100037982D02*
X95325650Y-100037982D01*
X95325650Y-100037982D02*
X95325650Y-99771315D01*
X95325650Y-99771315D02*
X95358983Y-99704649D01*
X95358983Y-99704649D02*
X95392317Y-99671315D01*
X95392317Y-99671315D02*
X95458983Y-99637982D01*
X95458983Y-99637982D02*
X95558983Y-99637982D01*
X95558983Y-99637982D02*
X95625650Y-99671315D01*
X95625650Y-99671315D02*
X95658983Y-99704649D01*
X95658983Y-99704649D02*
X95692317Y-99771315D01*
X95692317Y-99771315D02*
X95692317Y-100037982D01*
X95325650Y-99404649D02*
X96025650Y-99237982D01*
X96025650Y-99237982D02*
X95525650Y-99104649D01*
X95525650Y-99104649D02*
X96025650Y-98971315D01*
X96025650Y-98971315D02*
X95325650Y-98804649D01*
X96025650Y-98537982D02*
X95325650Y-98537982D01*
X95325650Y-98537982D02*
X95325650Y-98371315D01*
X95325650Y-98371315D02*
X95358983Y-98271315D01*
X95358983Y-98271315D02*
X95425650Y-98204649D01*
X95425650Y-98204649D02*
X95492317Y-98171315D01*
X95492317Y-98171315D02*
X95625650Y-98137982D01*
X95625650Y-98137982D02*
X95725650Y-98137982D01*
X95725650Y-98137982D02*
X95858983Y-98171315D01*
X95858983Y-98171315D02*
X95925650Y-98204649D01*
X95925650Y-98204649D02*
X95992317Y-98271315D01*
X95992317Y-98271315D02*
X96025650Y-98371315D01*
X96025650Y-98371315D02*
X96025650Y-98537982D01*
X96025650Y-97837982D02*
X95325650Y-97837982D01*
X95325650Y-97837982D02*
X96025650Y-97437982D01*
X96025650Y-97437982D02*
X95325650Y-97437982D01*
X97946239Y-100904649D02*
X97946239Y-100371316D01*
X97946239Y-100371316D02*
X98112905Y-100371316D01*
X98279572Y-99637982D02*
X97946239Y-99871315D01*
X98279572Y-100037982D02*
X97579572Y-100037982D01*
X97579572Y-100037982D02*
X97579572Y-99771315D01*
X97579572Y-99771315D02*
X97612905Y-99704649D01*
X97612905Y-99704649D02*
X97646239Y-99671315D01*
X97646239Y-99671315D02*
X97712905Y-99637982D01*
X97712905Y-99637982D02*
X97812905Y-99637982D01*
X97812905Y-99637982D02*
X97879572Y-99671315D01*
X97879572Y-99671315D02*
X97912905Y-99704649D01*
X97912905Y-99704649D02*
X97946239Y-99771315D01*
X97946239Y-99771315D02*
X97946239Y-100037982D01*
X97912905Y-99337982D02*
X97912905Y-99104649D01*
X98279572Y-99004649D02*
X98279572Y-99337982D01*
X98279572Y-99337982D02*
X97579572Y-99337982D01*
X97579572Y-99337982D02*
X97579572Y-99004649D01*
X98246239Y-98737982D02*
X98279572Y-98637982D01*
X98279572Y-98637982D02*
X98279572Y-98471316D01*
X98279572Y-98471316D02*
X98246239Y-98404649D01*
X98246239Y-98404649D02*
X98212905Y-98371316D01*
X98212905Y-98371316D02*
X98146239Y-98337982D01*
X98146239Y-98337982D02*
X98079572Y-98337982D01*
X98079572Y-98337982D02*
X98012905Y-98371316D01*
X98012905Y-98371316D02*
X97979572Y-98404649D01*
X97979572Y-98404649D02*
X97946239Y-98471316D01*
X97946239Y-98471316D02*
X97912905Y-98604649D01*
X97912905Y-98604649D02*
X97879572Y-98671316D01*
X97879572Y-98671316D02*
X97846239Y-98704649D01*
X97846239Y-98704649D02*
X97779572Y-98737982D01*
X97779572Y-98737982D02*
X97712905Y-98737982D01*
X97712905Y-98737982D02*
X97646239Y-98704649D01*
X97646239Y-98704649D02*
X97612905Y-98671316D01*
X97612905Y-98671316D02*
X97579572Y-98604649D01*
X97579572Y-98604649D02*
X97579572Y-98437982D01*
X97579572Y-98437982D02*
X97612905Y-98337982D01*
X97912905Y-98037982D02*
X97912905Y-97804649D01*
X98279572Y-97704649D02*
X98279572Y-98037982D01*
X98279572Y-98037982D02*
X97579572Y-98037982D01*
X97579572Y-98037982D02*
X97579572Y-97704649D01*
X97579572Y-97504649D02*
X97579572Y-97104649D01*
X98279572Y-97304649D02*
X97579572Y-97304649D01*
X112049160Y-76767882D02*
X112658684Y-76767882D01*
X112658684Y-76767882D02*
X112658684Y-76958359D01*
X113039636Y-77148835D02*
X113039636Y-76348835D01*
X113039636Y-76348835D02*
X113230112Y-76348835D01*
X113230112Y-76348835D02*
X113344398Y-76386930D01*
X113344398Y-76386930D02*
X113420588Y-76463120D01*
X113420588Y-76463120D02*
X113458683Y-76539311D01*
X113458683Y-76539311D02*
X113496779Y-76691692D01*
X113496779Y-76691692D02*
X113496779Y-76805978D01*
X113496779Y-76805978D02*
X113458683Y-76958359D01*
X113458683Y-76958359D02*
X113420588Y-77034549D01*
X113420588Y-77034549D02*
X113344398Y-77110740D01*
X113344398Y-77110740D02*
X113230112Y-77148835D01*
X113230112Y-77148835D02*
X113039636Y-77148835D01*
X114296779Y-77148835D02*
X114030112Y-76767882D01*
X113839636Y-77148835D02*
X113839636Y-76348835D01*
X113839636Y-76348835D02*
X114144398Y-76348835D01*
X114144398Y-76348835D02*
X114220588Y-76386930D01*
X114220588Y-76386930D02*
X114258683Y-76425025D01*
X114258683Y-76425025D02*
X114296779Y-76501216D01*
X114296779Y-76501216D02*
X114296779Y-76615501D01*
X114296779Y-76615501D02*
X114258683Y-76691692D01*
X114258683Y-76691692D02*
X114220588Y-76729787D01*
X114220588Y-76729787D02*
X114144398Y-76767882D01*
X114144398Y-76767882D02*
X113839636Y-76767882D01*
X114639636Y-77148835D02*
X114639636Y-76348835D01*
X114639636Y-76348835D02*
X114830112Y-76348835D01*
X114830112Y-76348835D02*
X114944398Y-76386930D01*
X114944398Y-76386930D02*
X115020588Y-76463120D01*
X115020588Y-76463120D02*
X115058683Y-76539311D01*
X115058683Y-76539311D02*
X115096779Y-76691692D01*
X115096779Y-76691692D02*
X115096779Y-76805978D01*
X115096779Y-76805978D02*
X115058683Y-76958359D01*
X115058683Y-76958359D02*
X115020588Y-77034549D01*
X115020588Y-77034549D02*
X114944398Y-77110740D01*
X114944398Y-77110740D02*
X114830112Y-77148835D01*
X114830112Y-77148835D02*
X114639636Y-77148835D01*
X115592017Y-76767882D02*
X115592017Y-77148835D01*
X115325350Y-76348835D02*
X115592017Y-76767882D01*
X115592017Y-76767882D02*
X115858683Y-76348835D01*
X112468207Y-78962840D02*
X112392017Y-78924745D01*
X112392017Y-78924745D02*
X112277731Y-78924745D01*
X112277731Y-78924745D02*
X112163445Y-78962840D01*
X112163445Y-78962840D02*
X112087255Y-79039030D01*
X112087255Y-79039030D02*
X112049160Y-79115221D01*
X112049160Y-79115221D02*
X112011064Y-79267602D01*
X112011064Y-79267602D02*
X112011064Y-79381888D01*
X112011064Y-79381888D02*
X112049160Y-79534269D01*
X112049160Y-79534269D02*
X112087255Y-79610459D01*
X112087255Y-79610459D02*
X112163445Y-79686650D01*
X112163445Y-79686650D02*
X112277731Y-79724745D01*
X112277731Y-79724745D02*
X112353922Y-79724745D01*
X112353922Y-79724745D02*
X112468207Y-79686650D01*
X112468207Y-79686650D02*
X112506303Y-79648554D01*
X112506303Y-79648554D02*
X112506303Y-79381888D01*
X112506303Y-79381888D02*
X112353922Y-79381888D01*
X112849160Y-79724745D02*
X112849160Y-78924745D01*
X112849160Y-78924745D02*
X113153922Y-78924745D01*
X113153922Y-78924745D02*
X113230112Y-78962840D01*
X113230112Y-78962840D02*
X113268207Y-79000935D01*
X113268207Y-79000935D02*
X113306303Y-79077126D01*
X113306303Y-79077126D02*
X113306303Y-79191411D01*
X113306303Y-79191411D02*
X113268207Y-79267602D01*
X113268207Y-79267602D02*
X113230112Y-79305697D01*
X113230112Y-79305697D02*
X113153922Y-79343792D01*
X113153922Y-79343792D02*
X112849160Y-79343792D01*
X113649160Y-79724745D02*
X113649160Y-78924745D01*
X114182493Y-78924745D02*
X114334874Y-78924745D01*
X114334874Y-78924745D02*
X114411064Y-78962840D01*
X114411064Y-78962840D02*
X114487255Y-79039030D01*
X114487255Y-79039030D02*
X114525350Y-79191411D01*
X114525350Y-79191411D02*
X114525350Y-79458078D01*
X114525350Y-79458078D02*
X114487255Y-79610459D01*
X114487255Y-79610459D02*
X114411064Y-79686650D01*
X114411064Y-79686650D02*
X114334874Y-79724745D01*
X114334874Y-79724745D02*
X114182493Y-79724745D01*
X114182493Y-79724745D02*
X114106302Y-79686650D01*
X114106302Y-79686650D02*
X114030112Y-79610459D01*
X114030112Y-79610459D02*
X113992016Y-79458078D01*
X113992016Y-79458078D02*
X113992016Y-79191411D01*
X113992016Y-79191411D02*
X114030112Y-79039030D01*
X114030112Y-79039030D02*
X114106302Y-78962840D01*
X114106302Y-78962840D02*
X114182493Y-78924745D01*
X115211064Y-79191411D02*
X115211064Y-79724745D01*
X115020588Y-78886650D02*
X114830111Y-79458078D01*
X114830111Y-79458078D02*
X115325350Y-79458078D01*
X112468207Y-81538750D02*
X112392017Y-81500655D01*
X112392017Y-81500655D02*
X112277731Y-81500655D01*
X112277731Y-81500655D02*
X112163445Y-81538750D01*
X112163445Y-81538750D02*
X112087255Y-81614940D01*
X112087255Y-81614940D02*
X112049160Y-81691131D01*
X112049160Y-81691131D02*
X112011064Y-81843512D01*
X112011064Y-81843512D02*
X112011064Y-81957798D01*
X112011064Y-81957798D02*
X112049160Y-82110179D01*
X112049160Y-82110179D02*
X112087255Y-82186369D01*
X112087255Y-82186369D02*
X112163445Y-82262560D01*
X112163445Y-82262560D02*
X112277731Y-82300655D01*
X112277731Y-82300655D02*
X112353922Y-82300655D01*
X112353922Y-82300655D02*
X112468207Y-82262560D01*
X112468207Y-82262560D02*
X112506303Y-82224464D01*
X112506303Y-82224464D02*
X112506303Y-81957798D01*
X112506303Y-81957798D02*
X112353922Y-81957798D01*
X112849160Y-82300655D02*
X112849160Y-81500655D01*
X112849160Y-81500655D02*
X113153922Y-81500655D01*
X113153922Y-81500655D02*
X113230112Y-81538750D01*
X113230112Y-81538750D02*
X113268207Y-81576845D01*
X113268207Y-81576845D02*
X113306303Y-81653036D01*
X113306303Y-81653036D02*
X113306303Y-81767321D01*
X113306303Y-81767321D02*
X113268207Y-81843512D01*
X113268207Y-81843512D02*
X113230112Y-81881607D01*
X113230112Y-81881607D02*
X113153922Y-81919702D01*
X113153922Y-81919702D02*
X112849160Y-81919702D01*
X113649160Y-82300655D02*
X113649160Y-81500655D01*
X114182493Y-81500655D02*
X114334874Y-81500655D01*
X114334874Y-81500655D02*
X114411064Y-81538750D01*
X114411064Y-81538750D02*
X114487255Y-81614940D01*
X114487255Y-81614940D02*
X114525350Y-81767321D01*
X114525350Y-81767321D02*
X114525350Y-82033988D01*
X114525350Y-82033988D02*
X114487255Y-82186369D01*
X114487255Y-82186369D02*
X114411064Y-82262560D01*
X114411064Y-82262560D02*
X114334874Y-82300655D01*
X114334874Y-82300655D02*
X114182493Y-82300655D01*
X114182493Y-82300655D02*
X114106302Y-82262560D01*
X114106302Y-82262560D02*
X114030112Y-82186369D01*
X114030112Y-82186369D02*
X113992016Y-82033988D01*
X113992016Y-82033988D02*
X113992016Y-81767321D01*
X113992016Y-81767321D02*
X114030112Y-81614940D01*
X114030112Y-81614940D02*
X114106302Y-81538750D01*
X114106302Y-81538750D02*
X114182493Y-81500655D01*
X114792016Y-81500655D02*
X115287254Y-81500655D01*
X115287254Y-81500655D02*
X115020588Y-81805417D01*
X115020588Y-81805417D02*
X115134873Y-81805417D01*
X115134873Y-81805417D02*
X115211064Y-81843512D01*
X115211064Y-81843512D02*
X115249159Y-81881607D01*
X115249159Y-81881607D02*
X115287254Y-81957798D01*
X115287254Y-81957798D02*
X115287254Y-82148274D01*
X115287254Y-82148274D02*
X115249159Y-82224464D01*
X115249159Y-82224464D02*
X115211064Y-82262560D01*
X115211064Y-82262560D02*
X115134873Y-82300655D01*
X115134873Y-82300655D02*
X114906302Y-82300655D01*
X114906302Y-82300655D02*
X114830111Y-82262560D01*
X114830111Y-82262560D02*
X114792016Y-82224464D01*
X112468207Y-84114660D02*
X112392017Y-84076565D01*
X112392017Y-84076565D02*
X112277731Y-84076565D01*
X112277731Y-84076565D02*
X112163445Y-84114660D01*
X112163445Y-84114660D02*
X112087255Y-84190850D01*
X112087255Y-84190850D02*
X112049160Y-84267041D01*
X112049160Y-84267041D02*
X112011064Y-84419422D01*
X112011064Y-84419422D02*
X112011064Y-84533708D01*
X112011064Y-84533708D02*
X112049160Y-84686089D01*
X112049160Y-84686089D02*
X112087255Y-84762279D01*
X112087255Y-84762279D02*
X112163445Y-84838470D01*
X112163445Y-84838470D02*
X112277731Y-84876565D01*
X112277731Y-84876565D02*
X112353922Y-84876565D01*
X112353922Y-84876565D02*
X112468207Y-84838470D01*
X112468207Y-84838470D02*
X112506303Y-84800374D01*
X112506303Y-84800374D02*
X112506303Y-84533708D01*
X112506303Y-84533708D02*
X112353922Y-84533708D01*
X112849160Y-84876565D02*
X112849160Y-84076565D01*
X112849160Y-84076565D02*
X113153922Y-84076565D01*
X113153922Y-84076565D02*
X113230112Y-84114660D01*
X113230112Y-84114660D02*
X113268207Y-84152755D01*
X113268207Y-84152755D02*
X113306303Y-84228946D01*
X113306303Y-84228946D02*
X113306303Y-84343231D01*
X113306303Y-84343231D02*
X113268207Y-84419422D01*
X113268207Y-84419422D02*
X113230112Y-84457517D01*
X113230112Y-84457517D02*
X113153922Y-84495612D01*
X113153922Y-84495612D02*
X112849160Y-84495612D01*
X113649160Y-84876565D02*
X113649160Y-84076565D01*
X114182493Y-84076565D02*
X114334874Y-84076565D01*
X114334874Y-84076565D02*
X114411064Y-84114660D01*
X114411064Y-84114660D02*
X114487255Y-84190850D01*
X114487255Y-84190850D02*
X114525350Y-84343231D01*
X114525350Y-84343231D02*
X114525350Y-84609898D01*
X114525350Y-84609898D02*
X114487255Y-84762279D01*
X114487255Y-84762279D02*
X114411064Y-84838470D01*
X114411064Y-84838470D02*
X114334874Y-84876565D01*
X114334874Y-84876565D02*
X114182493Y-84876565D01*
X114182493Y-84876565D02*
X114106302Y-84838470D01*
X114106302Y-84838470D02*
X114030112Y-84762279D01*
X114030112Y-84762279D02*
X113992016Y-84609898D01*
X113992016Y-84609898D02*
X113992016Y-84343231D01*
X113992016Y-84343231D02*
X114030112Y-84190850D01*
X114030112Y-84190850D02*
X114106302Y-84114660D01*
X114106302Y-84114660D02*
X114182493Y-84076565D01*
X114830111Y-84152755D02*
X114868207Y-84114660D01*
X114868207Y-84114660D02*
X114944397Y-84076565D01*
X114944397Y-84076565D02*
X115134873Y-84076565D01*
X115134873Y-84076565D02*
X115211064Y-84114660D01*
X115211064Y-84114660D02*
X115249159Y-84152755D01*
X115249159Y-84152755D02*
X115287254Y-84228946D01*
X115287254Y-84228946D02*
X115287254Y-84305136D01*
X115287254Y-84305136D02*
X115249159Y-84419422D01*
X115249159Y-84419422D02*
X114792016Y-84876565D01*
X114792016Y-84876565D02*
X115287254Y-84876565D01*
X112049160Y-87452475D02*
X112049160Y-86652475D01*
X112049160Y-86652475D02*
X112239636Y-86652475D01*
X112239636Y-86652475D02*
X112353922Y-86690570D01*
X112353922Y-86690570D02*
X112430112Y-86766760D01*
X112430112Y-86766760D02*
X112468207Y-86842951D01*
X112468207Y-86842951D02*
X112506303Y-86995332D01*
X112506303Y-86995332D02*
X112506303Y-87109618D01*
X112506303Y-87109618D02*
X112468207Y-87261999D01*
X112468207Y-87261999D02*
X112430112Y-87338189D01*
X112430112Y-87338189D02*
X112353922Y-87414380D01*
X112353922Y-87414380D02*
X112239636Y-87452475D01*
X112239636Y-87452475D02*
X112049160Y-87452475D01*
X113001541Y-86652475D02*
X113153922Y-86652475D01*
X113153922Y-86652475D02*
X113230112Y-86690570D01*
X113230112Y-86690570D02*
X113306303Y-86766760D01*
X113306303Y-86766760D02*
X113344398Y-86919141D01*
X113344398Y-86919141D02*
X113344398Y-87185808D01*
X113344398Y-87185808D02*
X113306303Y-87338189D01*
X113306303Y-87338189D02*
X113230112Y-87414380D01*
X113230112Y-87414380D02*
X113153922Y-87452475D01*
X113153922Y-87452475D02*
X113001541Y-87452475D01*
X113001541Y-87452475D02*
X112925350Y-87414380D01*
X112925350Y-87414380D02*
X112849160Y-87338189D01*
X112849160Y-87338189D02*
X112811064Y-87185808D01*
X112811064Y-87185808D02*
X112811064Y-86919141D01*
X112811064Y-86919141D02*
X112849160Y-86766760D01*
X112849160Y-86766760D02*
X112925350Y-86690570D01*
X112925350Y-86690570D02*
X113001541Y-86652475D01*
X113687255Y-86652475D02*
X113687255Y-87300094D01*
X113687255Y-87300094D02*
X113725350Y-87376284D01*
X113725350Y-87376284D02*
X113763445Y-87414380D01*
X113763445Y-87414380D02*
X113839636Y-87452475D01*
X113839636Y-87452475D02*
X113992017Y-87452475D01*
X113992017Y-87452475D02*
X114068207Y-87414380D01*
X114068207Y-87414380D02*
X114106302Y-87376284D01*
X114106302Y-87376284D02*
X114144398Y-87300094D01*
X114144398Y-87300094D02*
X114144398Y-86652475D01*
X114411064Y-86652475D02*
X114868207Y-86652475D01*
X114639635Y-87452475D02*
X114639635Y-86652475D01*
X112468207Y-89266480D02*
X112392017Y-89228385D01*
X112392017Y-89228385D02*
X112277731Y-89228385D01*
X112277731Y-89228385D02*
X112163445Y-89266480D01*
X112163445Y-89266480D02*
X112087255Y-89342670D01*
X112087255Y-89342670D02*
X112049160Y-89418861D01*
X112049160Y-89418861D02*
X112011064Y-89571242D01*
X112011064Y-89571242D02*
X112011064Y-89685528D01*
X112011064Y-89685528D02*
X112049160Y-89837909D01*
X112049160Y-89837909D02*
X112087255Y-89914099D01*
X112087255Y-89914099D02*
X112163445Y-89990290D01*
X112163445Y-89990290D02*
X112277731Y-90028385D01*
X112277731Y-90028385D02*
X112353922Y-90028385D01*
X112353922Y-90028385D02*
X112468207Y-89990290D01*
X112468207Y-89990290D02*
X112506303Y-89952194D01*
X112506303Y-89952194D02*
X112506303Y-89685528D01*
X112506303Y-89685528D02*
X112353922Y-89685528D01*
X112849160Y-90028385D02*
X112849160Y-89228385D01*
X112849160Y-89228385D02*
X113153922Y-89228385D01*
X113153922Y-89228385D02*
X113230112Y-89266480D01*
X113230112Y-89266480D02*
X113268207Y-89304575D01*
X113268207Y-89304575D02*
X113306303Y-89380766D01*
X113306303Y-89380766D02*
X113306303Y-89495051D01*
X113306303Y-89495051D02*
X113268207Y-89571242D01*
X113268207Y-89571242D02*
X113230112Y-89609337D01*
X113230112Y-89609337D02*
X113153922Y-89647432D01*
X113153922Y-89647432D02*
X112849160Y-89647432D01*
X113649160Y-90028385D02*
X113649160Y-89228385D01*
X114182493Y-89228385D02*
X114334874Y-89228385D01*
X114334874Y-89228385D02*
X114411064Y-89266480D01*
X114411064Y-89266480D02*
X114487255Y-89342670D01*
X114487255Y-89342670D02*
X114525350Y-89495051D01*
X114525350Y-89495051D02*
X114525350Y-89761718D01*
X114525350Y-89761718D02*
X114487255Y-89914099D01*
X114487255Y-89914099D02*
X114411064Y-89990290D01*
X114411064Y-89990290D02*
X114334874Y-90028385D01*
X114334874Y-90028385D02*
X114182493Y-90028385D01*
X114182493Y-90028385D02*
X114106302Y-89990290D01*
X114106302Y-89990290D02*
X114030112Y-89914099D01*
X114030112Y-89914099D02*
X113992016Y-89761718D01*
X113992016Y-89761718D02*
X113992016Y-89495051D01*
X113992016Y-89495051D02*
X114030112Y-89342670D01*
X114030112Y-89342670D02*
X114106302Y-89266480D01*
X114106302Y-89266480D02*
X114182493Y-89228385D01*
X115287254Y-90028385D02*
X114830111Y-90028385D01*
X115058683Y-90028385D02*
X115058683Y-89228385D01*
X115058683Y-89228385D02*
X114982492Y-89342670D01*
X114982492Y-89342670D02*
X114906302Y-89418861D01*
X114906302Y-89418861D02*
X114830111Y-89456956D01*
X112468207Y-91842390D02*
X112392017Y-91804295D01*
X112392017Y-91804295D02*
X112277731Y-91804295D01*
X112277731Y-91804295D02*
X112163445Y-91842390D01*
X112163445Y-91842390D02*
X112087255Y-91918580D01*
X112087255Y-91918580D02*
X112049160Y-91994771D01*
X112049160Y-91994771D02*
X112011064Y-92147152D01*
X112011064Y-92147152D02*
X112011064Y-92261438D01*
X112011064Y-92261438D02*
X112049160Y-92413819D01*
X112049160Y-92413819D02*
X112087255Y-92490009D01*
X112087255Y-92490009D02*
X112163445Y-92566200D01*
X112163445Y-92566200D02*
X112277731Y-92604295D01*
X112277731Y-92604295D02*
X112353922Y-92604295D01*
X112353922Y-92604295D02*
X112468207Y-92566200D01*
X112468207Y-92566200D02*
X112506303Y-92528104D01*
X112506303Y-92528104D02*
X112506303Y-92261438D01*
X112506303Y-92261438D02*
X112353922Y-92261438D01*
X112849160Y-92604295D02*
X112849160Y-91804295D01*
X112849160Y-91804295D02*
X113306303Y-92604295D01*
X113306303Y-92604295D02*
X113306303Y-91804295D01*
X113687255Y-92604295D02*
X113687255Y-91804295D01*
X113687255Y-91804295D02*
X113877731Y-91804295D01*
X113877731Y-91804295D02*
X113992017Y-91842390D01*
X113992017Y-91842390D02*
X114068207Y-91918580D01*
X114068207Y-91918580D02*
X114106302Y-91994771D01*
X114106302Y-91994771D02*
X114144398Y-92147152D01*
X114144398Y-92147152D02*
X114144398Y-92261438D01*
X114144398Y-92261438D02*
X114106302Y-92413819D01*
X114106302Y-92413819D02*
X114068207Y-92490009D01*
X114068207Y-92490009D02*
X113992017Y-92566200D01*
X113992017Y-92566200D02*
X113877731Y-92604295D01*
X113877731Y-92604295D02*
X113687255Y-92604295D01*
X114487255Y-92604295D02*
X114487255Y-91804295D01*
X114487255Y-91804295D02*
X114677731Y-91804295D01*
X114677731Y-91804295D02*
X114792017Y-91842390D01*
X114792017Y-91842390D02*
X114868207Y-91918580D01*
X114868207Y-91918580D02*
X114906302Y-91994771D01*
X114906302Y-91994771D02*
X114944398Y-92147152D01*
X114944398Y-92147152D02*
X114944398Y-92261438D01*
X114944398Y-92261438D02*
X114906302Y-92413819D01*
X114906302Y-92413819D02*
X114868207Y-92490009D01*
X114868207Y-92490009D02*
X114792017Y-92566200D01*
X114792017Y-92566200D02*
X114677731Y-92604295D01*
X114677731Y-92604295D02*
X114487255Y-92604295D01*
X79980978Y-74526554D02*
X80019073Y-74564649D01*
X80019073Y-74564649D02*
X80057168Y-74526554D01*
X80057168Y-74526554D02*
X80019073Y-74488458D01*
X80019073Y-74488458D02*
X79980978Y-74526554D01*
X79980978Y-74526554D02*
X80057168Y-74526554D01*
X79980978Y-71517031D02*
X80019073Y-71555126D01*
X80019073Y-71555126D02*
X80057168Y-71517031D01*
X80057168Y-71517031D02*
X80019073Y-71478935D01*
X80019073Y-71478935D02*
X79980978Y-71517031D01*
X79980978Y-71517031D02*
X80057168Y-71517031D01*
X80095263Y-70450364D02*
X80095263Y-70069411D01*
X80323835Y-70526554D02*
X79523835Y-70259887D01*
X79523835Y-70259887D02*
X80323835Y-69993221D01*
X79523835Y-69840840D02*
X80323835Y-69574173D01*
X80323835Y-69574173D02*
X79523835Y-69307507D01*
X80323835Y-69040840D02*
X79523835Y-69040840D01*
X79523835Y-69040840D02*
X79523835Y-68850364D01*
X79523835Y-68850364D02*
X79561930Y-68736078D01*
X79561930Y-68736078D02*
X79638120Y-68659888D01*
X79638120Y-68659888D02*
X79714311Y-68621793D01*
X79714311Y-68621793D02*
X79866692Y-68583697D01*
X79866692Y-68583697D02*
X79980978Y-68583697D01*
X79980978Y-68583697D02*
X80133359Y-68621793D01*
X80133359Y-68621793D02*
X80209549Y-68659888D01*
X80209549Y-68659888D02*
X80285740Y-68736078D01*
X80285740Y-68736078D02*
X80323835Y-68850364D01*
X80323835Y-68850364D02*
X80323835Y-69040840D01*
X80323835Y-68240840D02*
X79523835Y-68240840D01*
X79523835Y-68240840D02*
X79523835Y-68050364D01*
X79523835Y-68050364D02*
X79561930Y-67936078D01*
X79561930Y-67936078D02*
X79638120Y-67859888D01*
X79638120Y-67859888D02*
X79714311Y-67821793D01*
X79714311Y-67821793D02*
X79866692Y-67783697D01*
X79866692Y-67783697D02*
X79980978Y-67783697D01*
X79980978Y-67783697D02*
X80133359Y-67821793D01*
X80133359Y-67821793D02*
X80209549Y-67859888D01*
X80209549Y-67859888D02*
X80285740Y-67936078D01*
X80285740Y-67936078D02*
X80323835Y-68050364D01*
X80323835Y-68050364D02*
X80323835Y-68240840D01*
X81268933Y-74526554D02*
X81307028Y-74564649D01*
X81307028Y-74564649D02*
X81345123Y-74526554D01*
X81345123Y-74526554D02*
X81307028Y-74488458D01*
X81307028Y-74488458D02*
X81268933Y-74526554D01*
X81268933Y-74526554D02*
X81345123Y-74526554D01*
X81268933Y-71517031D02*
X81307028Y-71555126D01*
X81307028Y-71555126D02*
X81345123Y-71517031D01*
X81345123Y-71517031D02*
X81307028Y-71478935D01*
X81307028Y-71478935D02*
X81268933Y-71517031D01*
X81268933Y-71517031D02*
X81345123Y-71517031D01*
X80849885Y-69993221D02*
X80811790Y-70069411D01*
X80811790Y-70069411D02*
X80811790Y-70183697D01*
X80811790Y-70183697D02*
X80849885Y-70297983D01*
X80849885Y-70297983D02*
X80926075Y-70374173D01*
X80926075Y-70374173D02*
X81002266Y-70412268D01*
X81002266Y-70412268D02*
X81154647Y-70450364D01*
X81154647Y-70450364D02*
X81268933Y-70450364D01*
X81268933Y-70450364D02*
X81421314Y-70412268D01*
X81421314Y-70412268D02*
X81497504Y-70374173D01*
X81497504Y-70374173D02*
X81573695Y-70297983D01*
X81573695Y-70297983D02*
X81611790Y-70183697D01*
X81611790Y-70183697D02*
X81611790Y-70107506D01*
X81611790Y-70107506D02*
X81573695Y-69993221D01*
X81573695Y-69993221D02*
X81535599Y-69955125D01*
X81535599Y-69955125D02*
X81268933Y-69955125D01*
X81268933Y-69955125D02*
X81268933Y-70107506D01*
X81611790Y-69612268D02*
X80811790Y-69612268D01*
X80811790Y-69612268D02*
X81611790Y-69155125D01*
X81611790Y-69155125D02*
X80811790Y-69155125D01*
X81611790Y-68774173D02*
X80811790Y-68774173D01*
X80811790Y-68774173D02*
X80811790Y-68583697D01*
X80811790Y-68583697D02*
X80849885Y-68469411D01*
X80849885Y-68469411D02*
X80926075Y-68393221D01*
X80926075Y-68393221D02*
X81002266Y-68355126D01*
X81002266Y-68355126D02*
X81154647Y-68317030D01*
X81154647Y-68317030D02*
X81268933Y-68317030D01*
X81268933Y-68317030D02*
X81421314Y-68355126D01*
X81421314Y-68355126D02*
X81497504Y-68393221D01*
X81497504Y-68393221D02*
X81573695Y-68469411D01*
X81573695Y-68469411D02*
X81611790Y-68583697D01*
X81611790Y-68583697D02*
X81611790Y-68774173D01*
X81383218Y-68012269D02*
X81383218Y-67631316D01*
X81611790Y-68088459D02*
X80811790Y-67821792D01*
X80811790Y-67821792D02*
X81611790Y-67555126D01*
X82556888Y-74526554D02*
X82594983Y-74564649D01*
X82594983Y-74564649D02*
X82633078Y-74526554D01*
X82633078Y-74526554D02*
X82594983Y-74488458D01*
X82594983Y-74488458D02*
X82556888Y-74526554D01*
X82556888Y-74526554D02*
X82633078Y-74526554D01*
X82556888Y-71517031D02*
X82594983Y-71555126D01*
X82594983Y-71555126D02*
X82633078Y-71517031D01*
X82633078Y-71517031D02*
X82594983Y-71478935D01*
X82594983Y-71478935D02*
X82556888Y-71517031D01*
X82556888Y-71517031D02*
X82633078Y-71517031D01*
X82480697Y-70145602D02*
X82518792Y-70031316D01*
X82518792Y-70031316D02*
X82556888Y-69993221D01*
X82556888Y-69993221D02*
X82633078Y-69955125D01*
X82633078Y-69955125D02*
X82747364Y-69955125D01*
X82747364Y-69955125D02*
X82823554Y-69993221D01*
X82823554Y-69993221D02*
X82861650Y-70031316D01*
X82861650Y-70031316D02*
X82899745Y-70107506D01*
X82899745Y-70107506D02*
X82899745Y-70412268D01*
X82899745Y-70412268D02*
X82099745Y-70412268D01*
X82099745Y-70412268D02*
X82099745Y-70145602D01*
X82099745Y-70145602D02*
X82137840Y-70069411D01*
X82137840Y-70069411D02*
X82175935Y-70031316D01*
X82175935Y-70031316D02*
X82252126Y-69993221D01*
X82252126Y-69993221D02*
X82328316Y-69993221D01*
X82328316Y-69993221D02*
X82404507Y-70031316D01*
X82404507Y-70031316D02*
X82442602Y-70069411D01*
X82442602Y-70069411D02*
X82480697Y-70145602D01*
X82480697Y-70145602D02*
X82480697Y-70412268D01*
X82899745Y-69612268D02*
X82099745Y-69612268D01*
X82671173Y-69269412D02*
X82671173Y-68888459D01*
X82899745Y-69345602D02*
X82099745Y-69078935D01*
X82099745Y-69078935D02*
X82899745Y-68812269D01*
X82861650Y-68583698D02*
X82899745Y-68469412D01*
X82899745Y-68469412D02*
X82899745Y-68278936D01*
X82899745Y-68278936D02*
X82861650Y-68202745D01*
X82861650Y-68202745D02*
X82823554Y-68164650D01*
X82823554Y-68164650D02*
X82747364Y-68126555D01*
X82747364Y-68126555D02*
X82671173Y-68126555D01*
X82671173Y-68126555D02*
X82594983Y-68164650D01*
X82594983Y-68164650D02*
X82556888Y-68202745D01*
X82556888Y-68202745D02*
X82518792Y-68278936D01*
X82518792Y-68278936D02*
X82480697Y-68431317D01*
X82480697Y-68431317D02*
X82442602Y-68507507D01*
X82442602Y-68507507D02*
X82404507Y-68545602D01*
X82404507Y-68545602D02*
X82328316Y-68583698D01*
X82328316Y-68583698D02*
X82252126Y-68583698D01*
X82252126Y-68583698D02*
X82175935Y-68545602D01*
X82175935Y-68545602D02*
X82137840Y-68507507D01*
X82137840Y-68507507D02*
X82099745Y-68431317D01*
X82099745Y-68431317D02*
X82099745Y-68240840D01*
X82099745Y-68240840D02*
X82137840Y-68126555D01*
X83882938Y-74640839D02*
X83882938Y-74031316D01*
X83882938Y-72431315D02*
X83882938Y-71821792D01*
X84187700Y-72126553D02*
X83578176Y-72126553D01*
X83730557Y-70717030D02*
X83692462Y-70793220D01*
X83692462Y-70793220D02*
X83654366Y-70831315D01*
X83654366Y-70831315D02*
X83578176Y-70869411D01*
X83578176Y-70869411D02*
X83540081Y-70869411D01*
X83540081Y-70869411D02*
X83463890Y-70831315D01*
X83463890Y-70831315D02*
X83425795Y-70793220D01*
X83425795Y-70793220D02*
X83387700Y-70717030D01*
X83387700Y-70717030D02*
X83387700Y-70564649D01*
X83387700Y-70564649D02*
X83425795Y-70488458D01*
X83425795Y-70488458D02*
X83463890Y-70450363D01*
X83463890Y-70450363D02*
X83540081Y-70412268D01*
X83540081Y-70412268D02*
X83578176Y-70412268D01*
X83578176Y-70412268D02*
X83654366Y-70450363D01*
X83654366Y-70450363D02*
X83692462Y-70488458D01*
X83692462Y-70488458D02*
X83730557Y-70564649D01*
X83730557Y-70564649D02*
X83730557Y-70717030D01*
X83730557Y-70717030D02*
X83768652Y-70793220D01*
X83768652Y-70793220D02*
X83806747Y-70831315D01*
X83806747Y-70831315D02*
X83882938Y-70869411D01*
X83882938Y-70869411D02*
X84035319Y-70869411D01*
X84035319Y-70869411D02*
X84111509Y-70831315D01*
X84111509Y-70831315D02*
X84149605Y-70793220D01*
X84149605Y-70793220D02*
X84187700Y-70717030D01*
X84187700Y-70717030D02*
X84187700Y-70564649D01*
X84187700Y-70564649D02*
X84149605Y-70488458D01*
X84149605Y-70488458D02*
X84111509Y-70450363D01*
X84111509Y-70450363D02*
X84035319Y-70412268D01*
X84035319Y-70412268D02*
X83882938Y-70412268D01*
X83882938Y-70412268D02*
X83806747Y-70450363D01*
X83806747Y-70450363D02*
X83768652Y-70488458D01*
X83768652Y-70488458D02*
X83730557Y-70564649D01*
X85170893Y-74640839D02*
X85170893Y-74031316D01*
X85170893Y-72431315D02*
X85170893Y-71821792D01*
X85475655Y-72126553D02*
X84866131Y-72126553D01*
X84675655Y-70907506D02*
X84675655Y-70374172D01*
X84675655Y-70374172D02*
X85475655Y-70717030D01*
X86458848Y-74640839D02*
X86458848Y-74031316D01*
X86458848Y-72431315D02*
X86458848Y-71821792D01*
X86763610Y-72126553D02*
X86154086Y-72126553D01*
X85963610Y-70488458D02*
X85963610Y-70640839D01*
X85963610Y-70640839D02*
X86001705Y-70717030D01*
X86001705Y-70717030D02*
X86039800Y-70755125D01*
X86039800Y-70755125D02*
X86154086Y-70831315D01*
X86154086Y-70831315D02*
X86306467Y-70869411D01*
X86306467Y-70869411D02*
X86611229Y-70869411D01*
X86611229Y-70869411D02*
X86687419Y-70831315D01*
X86687419Y-70831315D02*
X86725515Y-70793220D01*
X86725515Y-70793220D02*
X86763610Y-70717030D01*
X86763610Y-70717030D02*
X86763610Y-70564649D01*
X86763610Y-70564649D02*
X86725515Y-70488458D01*
X86725515Y-70488458D02*
X86687419Y-70450363D01*
X86687419Y-70450363D02*
X86611229Y-70412268D01*
X86611229Y-70412268D02*
X86420753Y-70412268D01*
X86420753Y-70412268D02*
X86344562Y-70450363D01*
X86344562Y-70450363D02*
X86306467Y-70488458D01*
X86306467Y-70488458D02*
X86268372Y-70564649D01*
X86268372Y-70564649D02*
X86268372Y-70717030D01*
X86268372Y-70717030D02*
X86306467Y-70793220D01*
X86306467Y-70793220D02*
X86344562Y-70831315D01*
X86344562Y-70831315D02*
X86420753Y-70869411D01*
X87746803Y-74640839D02*
X87746803Y-74031316D01*
X87746803Y-72431315D02*
X87746803Y-71821792D01*
X88051565Y-72126553D02*
X87442041Y-72126553D01*
X87251565Y-70450363D02*
X87251565Y-70831315D01*
X87251565Y-70831315D02*
X87632517Y-70869411D01*
X87632517Y-70869411D02*
X87594422Y-70831315D01*
X87594422Y-70831315D02*
X87556327Y-70755125D01*
X87556327Y-70755125D02*
X87556327Y-70564649D01*
X87556327Y-70564649D02*
X87594422Y-70488458D01*
X87594422Y-70488458D02*
X87632517Y-70450363D01*
X87632517Y-70450363D02*
X87708708Y-70412268D01*
X87708708Y-70412268D02*
X87899184Y-70412268D01*
X87899184Y-70412268D02*
X87975374Y-70450363D01*
X87975374Y-70450363D02*
X88013470Y-70488458D01*
X88013470Y-70488458D02*
X88051565Y-70564649D01*
X88051565Y-70564649D02*
X88051565Y-70755125D01*
X88051565Y-70755125D02*
X88013470Y-70831315D01*
X88013470Y-70831315D02*
X87975374Y-70869411D01*
X89034758Y-74640839D02*
X89034758Y-74031316D01*
X89034758Y-72431315D02*
X89034758Y-71821792D01*
X89339520Y-72126553D02*
X88729996Y-72126553D01*
X88806186Y-70488458D02*
X89339520Y-70488458D01*
X88501425Y-70678934D02*
X89072853Y-70869411D01*
X89072853Y-70869411D02*
X89072853Y-70374172D01*
X90322713Y-74640839D02*
X90322713Y-74031316D01*
X90322713Y-72431315D02*
X90322713Y-71821792D01*
X90627475Y-72126553D02*
X90017951Y-72126553D01*
X89827475Y-70907506D02*
X89827475Y-70412268D01*
X89827475Y-70412268D02*
X90132237Y-70678934D01*
X90132237Y-70678934D02*
X90132237Y-70564649D01*
X90132237Y-70564649D02*
X90170332Y-70488458D01*
X90170332Y-70488458D02*
X90208427Y-70450363D01*
X90208427Y-70450363D02*
X90284618Y-70412268D01*
X90284618Y-70412268D02*
X90475094Y-70412268D01*
X90475094Y-70412268D02*
X90551284Y-70450363D01*
X90551284Y-70450363D02*
X90589380Y-70488458D01*
X90589380Y-70488458D02*
X90627475Y-70564649D01*
X90627475Y-70564649D02*
X90627475Y-70793220D01*
X90627475Y-70793220D02*
X90589380Y-70869411D01*
X90589380Y-70869411D02*
X90551284Y-70907506D01*
X91610668Y-74640839D02*
X91610668Y-74031316D01*
X91610668Y-72431315D02*
X91610668Y-71821792D01*
X91915430Y-72126553D02*
X91305906Y-72126553D01*
X91191620Y-70869411D02*
X91153525Y-70831315D01*
X91153525Y-70831315D02*
X91115430Y-70755125D01*
X91115430Y-70755125D02*
X91115430Y-70564649D01*
X91115430Y-70564649D02*
X91153525Y-70488458D01*
X91153525Y-70488458D02*
X91191620Y-70450363D01*
X91191620Y-70450363D02*
X91267811Y-70412268D01*
X91267811Y-70412268D02*
X91344001Y-70412268D01*
X91344001Y-70412268D02*
X91458287Y-70450363D01*
X91458287Y-70450363D02*
X91915430Y-70907506D01*
X91915430Y-70907506D02*
X91915430Y-70412268D01*
X92898623Y-74640839D02*
X92898623Y-74031316D01*
X92898623Y-72431315D02*
X92898623Y-71821792D01*
X93203385Y-72126553D02*
X92593861Y-72126553D01*
X93203385Y-70412268D02*
X93203385Y-70869411D01*
X93203385Y-70640839D02*
X92403385Y-70640839D01*
X92403385Y-70640839D02*
X92517670Y-70717030D01*
X92517670Y-70717030D02*
X92593861Y-70793220D01*
X92593861Y-70793220D02*
X92631956Y-70869411D01*
X93767530Y-74678935D02*
X93729435Y-74640839D01*
X93729435Y-74640839D02*
X93691340Y-74564649D01*
X93691340Y-74564649D02*
X93691340Y-74374173D01*
X93691340Y-74374173D02*
X93729435Y-74297982D01*
X93729435Y-74297982D02*
X93767530Y-74259887D01*
X93767530Y-74259887D02*
X93843721Y-74221792D01*
X93843721Y-74221792D02*
X93919911Y-74221792D01*
X93919911Y-74221792D02*
X94034197Y-74259887D01*
X94034197Y-74259887D02*
X94491340Y-74717030D01*
X94491340Y-74717030D02*
X94491340Y-74221792D01*
X94148483Y-73764649D02*
X94186578Y-73802744D01*
X94186578Y-73802744D02*
X94224673Y-73764649D01*
X94224673Y-73764649D02*
X94186578Y-73726553D01*
X94186578Y-73726553D02*
X94148483Y-73764649D01*
X94148483Y-73764649D02*
X94224673Y-73764649D01*
X94491340Y-72240839D02*
X94491340Y-72697982D01*
X94491340Y-72469410D02*
X93691340Y-72469410D01*
X93691340Y-72469410D02*
X93805625Y-72545601D01*
X93805625Y-72545601D02*
X93881816Y-72621791D01*
X93881816Y-72621791D02*
X93919911Y-72697982D01*
X94148483Y-71783696D02*
X94186578Y-71821791D01*
X94186578Y-71821791D02*
X94224673Y-71783696D01*
X94224673Y-71783696D02*
X94186578Y-71745600D01*
X94186578Y-71745600D02*
X94148483Y-71783696D01*
X94148483Y-71783696D02*
X94224673Y-71783696D01*
X94491340Y-70221790D02*
X94110387Y-70488457D01*
X94491340Y-70678933D02*
X93691340Y-70678933D01*
X93691340Y-70678933D02*
X93691340Y-70374171D01*
X93691340Y-70374171D02*
X93729435Y-70297981D01*
X93729435Y-70297981D02*
X93767530Y-70259886D01*
X93767530Y-70259886D02*
X93843721Y-70221790D01*
X93843721Y-70221790D02*
X93958006Y-70221790D01*
X93958006Y-70221790D02*
X94034197Y-70259886D01*
X94034197Y-70259886D02*
X94072292Y-70297981D01*
X94072292Y-70297981D02*
X94110387Y-70374171D01*
X94110387Y-70374171D02*
X94110387Y-70678933D01*
X94072292Y-69878933D02*
X94072292Y-69612267D01*
X94491340Y-69497981D02*
X94491340Y-69878933D01*
X94491340Y-69878933D02*
X93691340Y-69878933D01*
X93691340Y-69878933D02*
X93691340Y-69497981D01*
X94072292Y-68888457D02*
X94072292Y-69155123D01*
X94491340Y-69155123D02*
X93691340Y-69155123D01*
X93691340Y-69155123D02*
X93691340Y-68774171D01*
X95436438Y-74526554D02*
X95474533Y-74564649D01*
X95474533Y-74564649D02*
X95512628Y-74526554D01*
X95512628Y-74526554D02*
X95474533Y-74488458D01*
X95474533Y-74488458D02*
X95436438Y-74526554D01*
X95436438Y-74526554D02*
X95512628Y-74526554D01*
X95436438Y-71517031D02*
X95474533Y-71555126D01*
X95474533Y-71555126D02*
X95512628Y-71517031D01*
X95512628Y-71517031D02*
X95474533Y-71478935D01*
X95474533Y-71478935D02*
X95436438Y-71517031D01*
X95436438Y-71517031D02*
X95512628Y-71517031D01*
X95550723Y-70450364D02*
X95550723Y-70069411D01*
X95779295Y-70526554D02*
X94979295Y-70259887D01*
X94979295Y-70259887D02*
X95779295Y-69993221D01*
X94979295Y-69840840D02*
X95779295Y-69574173D01*
X95779295Y-69574173D02*
X94979295Y-69307507D01*
X95741200Y-69078936D02*
X95779295Y-68964650D01*
X95779295Y-68964650D02*
X95779295Y-68774174D01*
X95779295Y-68774174D02*
X95741200Y-68697983D01*
X95741200Y-68697983D02*
X95703104Y-68659888D01*
X95703104Y-68659888D02*
X95626914Y-68621793D01*
X95626914Y-68621793D02*
X95550723Y-68621793D01*
X95550723Y-68621793D02*
X95474533Y-68659888D01*
X95474533Y-68659888D02*
X95436438Y-68697983D01*
X95436438Y-68697983D02*
X95398342Y-68774174D01*
X95398342Y-68774174D02*
X95360247Y-68926555D01*
X95360247Y-68926555D02*
X95322152Y-69002745D01*
X95322152Y-69002745D02*
X95284057Y-69040840D01*
X95284057Y-69040840D02*
X95207866Y-69078936D01*
X95207866Y-69078936D02*
X95131676Y-69078936D01*
X95131676Y-69078936D02*
X95055485Y-69040840D01*
X95055485Y-69040840D02*
X95017390Y-69002745D01*
X95017390Y-69002745D02*
X94979295Y-68926555D01*
X94979295Y-68926555D02*
X94979295Y-68736078D01*
X94979295Y-68736078D02*
X95017390Y-68621793D01*
X95741200Y-68317031D02*
X95779295Y-68202745D01*
X95779295Y-68202745D02*
X95779295Y-68012269D01*
X95779295Y-68012269D02*
X95741200Y-67936078D01*
X95741200Y-67936078D02*
X95703104Y-67897983D01*
X95703104Y-67897983D02*
X95626914Y-67859888D01*
X95626914Y-67859888D02*
X95550723Y-67859888D01*
X95550723Y-67859888D02*
X95474533Y-67897983D01*
X95474533Y-67897983D02*
X95436438Y-67936078D01*
X95436438Y-67936078D02*
X95398342Y-68012269D01*
X95398342Y-68012269D02*
X95360247Y-68164650D01*
X95360247Y-68164650D02*
X95322152Y-68240840D01*
X95322152Y-68240840D02*
X95284057Y-68278935D01*
X95284057Y-68278935D02*
X95207866Y-68317031D01*
X95207866Y-68317031D02*
X95131676Y-68317031D01*
X95131676Y-68317031D02*
X95055485Y-68278935D01*
X95055485Y-68278935D02*
X95017390Y-68240840D01*
X95017390Y-68240840D02*
X94979295Y-68164650D01*
X94979295Y-68164650D02*
X94979295Y-67974173D01*
X94979295Y-67974173D02*
X95017390Y-67859888D01*
X100895276Y-100918935D02*
X100933371Y-100804649D01*
X100933371Y-100804649D02*
X100933371Y-100614173D01*
X100933371Y-100614173D02*
X100895276Y-100537982D01*
X100895276Y-100537982D02*
X100857180Y-100499887D01*
X100857180Y-100499887D02*
X100780990Y-100461792D01*
X100780990Y-100461792D02*
X100704799Y-100461792D01*
X100704799Y-100461792D02*
X100628609Y-100499887D01*
X100628609Y-100499887D02*
X100590514Y-100537982D01*
X100590514Y-100537982D02*
X100552418Y-100614173D01*
X100552418Y-100614173D02*
X100514323Y-100766554D01*
X100514323Y-100766554D02*
X100476228Y-100842744D01*
X100476228Y-100842744D02*
X100438133Y-100880839D01*
X100438133Y-100880839D02*
X100361942Y-100918935D01*
X100361942Y-100918935D02*
X100285752Y-100918935D01*
X100285752Y-100918935D02*
X100209561Y-100880839D01*
X100209561Y-100880839D02*
X100171466Y-100842744D01*
X100171466Y-100842744D02*
X100133371Y-100766554D01*
X100133371Y-100766554D02*
X100133371Y-100576077D01*
X100133371Y-100576077D02*
X100171466Y-100461792D01*
X100400037Y-100233220D02*
X100400037Y-99928458D01*
X100133371Y-100118934D02*
X100819085Y-100118934D01*
X100819085Y-100118934D02*
X100895276Y-100080839D01*
X100895276Y-100080839D02*
X100933371Y-100004649D01*
X100933371Y-100004649D02*
X100933371Y-99928458D01*
X100933371Y-99318934D02*
X100514323Y-99318934D01*
X100514323Y-99318934D02*
X100438133Y-99357029D01*
X100438133Y-99357029D02*
X100400037Y-99433220D01*
X100400037Y-99433220D02*
X100400037Y-99585601D01*
X100400037Y-99585601D02*
X100438133Y-99661791D01*
X100895276Y-99318934D02*
X100933371Y-99395125D01*
X100933371Y-99395125D02*
X100933371Y-99585601D01*
X100933371Y-99585601D02*
X100895276Y-99661791D01*
X100895276Y-99661791D02*
X100819085Y-99699887D01*
X100819085Y-99699887D02*
X100742895Y-99699887D01*
X100742895Y-99699887D02*
X100666704Y-99661791D01*
X100666704Y-99661791D02*
X100628609Y-99585601D01*
X100628609Y-99585601D02*
X100628609Y-99395125D01*
X100628609Y-99395125D02*
X100590514Y-99318934D01*
X100933371Y-98937981D02*
X100400037Y-98937981D01*
X100552418Y-98937981D02*
X100476228Y-98899886D01*
X100476228Y-98899886D02*
X100438133Y-98861791D01*
X100438133Y-98861791D02*
X100400037Y-98785600D01*
X100400037Y-98785600D02*
X100400037Y-98709410D01*
X100400037Y-98557029D02*
X100400037Y-98252267D01*
X100133371Y-98442743D02*
X100819085Y-98442743D01*
X100819085Y-98442743D02*
X100895276Y-98404648D01*
X100895276Y-98404648D02*
X100933371Y-98328458D01*
X100933371Y-98328458D02*
X100933371Y-98252267D01*
X103128328Y-100880839D02*
X103128328Y-100271316D01*
X103128328Y-100271316D02*
X103318805Y-100271316D01*
X103433090Y-99433220D02*
X103471186Y-99471316D01*
X103471186Y-99471316D02*
X103509281Y-99585601D01*
X103509281Y-99585601D02*
X103509281Y-99661792D01*
X103509281Y-99661792D02*
X103471186Y-99776078D01*
X103471186Y-99776078D02*
X103394995Y-99852268D01*
X103394995Y-99852268D02*
X103318805Y-99890363D01*
X103318805Y-99890363D02*
X103166424Y-99928459D01*
X103166424Y-99928459D02*
X103052138Y-99928459D01*
X103052138Y-99928459D02*
X102899757Y-99890363D01*
X102899757Y-99890363D02*
X102823566Y-99852268D01*
X102823566Y-99852268D02*
X102747376Y-99776078D01*
X102747376Y-99776078D02*
X102709281Y-99661792D01*
X102709281Y-99661792D02*
X102709281Y-99585601D01*
X102709281Y-99585601D02*
X102747376Y-99471316D01*
X102747376Y-99471316D02*
X102785471Y-99433220D01*
X103471186Y-99128459D02*
X103509281Y-99014173D01*
X103509281Y-99014173D02*
X103509281Y-98823697D01*
X103509281Y-98823697D02*
X103471186Y-98747506D01*
X103471186Y-98747506D02*
X103433090Y-98709411D01*
X103433090Y-98709411D02*
X103356900Y-98671316D01*
X103356900Y-98671316D02*
X103280709Y-98671316D01*
X103280709Y-98671316D02*
X103204519Y-98709411D01*
X103204519Y-98709411D02*
X103166424Y-98747506D01*
X103166424Y-98747506D02*
X103128328Y-98823697D01*
X103128328Y-98823697D02*
X103090233Y-98976078D01*
X103090233Y-98976078D02*
X103052138Y-99052268D01*
X103052138Y-99052268D02*
X103014043Y-99090363D01*
X103014043Y-99090363D02*
X102937852Y-99128459D01*
X102937852Y-99128459D02*
X102861662Y-99128459D01*
X102861662Y-99128459D02*
X102785471Y-99090363D01*
X102785471Y-99090363D02*
X102747376Y-99052268D01*
X102747376Y-99052268D02*
X102709281Y-98976078D01*
X102709281Y-98976078D02*
X102709281Y-98785601D01*
X102709281Y-98785601D02*
X102747376Y-98671316D01*
X106047096Y-100918935D02*
X106085191Y-100804649D01*
X106085191Y-100804649D02*
X106085191Y-100614173D01*
X106085191Y-100614173D02*
X106047096Y-100537982D01*
X106047096Y-100537982D02*
X106009000Y-100499887D01*
X106009000Y-100499887D02*
X105932810Y-100461792D01*
X105932810Y-100461792D02*
X105856619Y-100461792D01*
X105856619Y-100461792D02*
X105780429Y-100499887D01*
X105780429Y-100499887D02*
X105742334Y-100537982D01*
X105742334Y-100537982D02*
X105704238Y-100614173D01*
X105704238Y-100614173D02*
X105666143Y-100766554D01*
X105666143Y-100766554D02*
X105628048Y-100842744D01*
X105628048Y-100842744D02*
X105589953Y-100880839D01*
X105589953Y-100880839D02*
X105513762Y-100918935D01*
X105513762Y-100918935D02*
X105437572Y-100918935D01*
X105437572Y-100918935D02*
X105361381Y-100880839D01*
X105361381Y-100880839D02*
X105323286Y-100842744D01*
X105323286Y-100842744D02*
X105285191Y-100766554D01*
X105285191Y-100766554D02*
X105285191Y-100576077D01*
X105285191Y-100576077D02*
X105323286Y-100461792D01*
X106009000Y-99661791D02*
X106047096Y-99699887D01*
X106047096Y-99699887D02*
X106085191Y-99814172D01*
X106085191Y-99814172D02*
X106085191Y-99890363D01*
X106085191Y-99890363D02*
X106047096Y-100004649D01*
X106047096Y-100004649D02*
X105970905Y-100080839D01*
X105970905Y-100080839D02*
X105894715Y-100118934D01*
X105894715Y-100118934D02*
X105742334Y-100157030D01*
X105742334Y-100157030D02*
X105628048Y-100157030D01*
X105628048Y-100157030D02*
X105475667Y-100118934D01*
X105475667Y-100118934D02*
X105399476Y-100080839D01*
X105399476Y-100080839D02*
X105323286Y-100004649D01*
X105323286Y-100004649D02*
X105285191Y-99890363D01*
X105285191Y-99890363D02*
X105285191Y-99814172D01*
X105285191Y-99814172D02*
X105323286Y-99699887D01*
X105323286Y-99699887D02*
X105361381Y-99661791D01*
X106085191Y-98937982D02*
X106085191Y-99318934D01*
X106085191Y-99318934D02*
X105285191Y-99318934D01*
X106085191Y-98671315D02*
X105285191Y-98671315D01*
X106085191Y-98214172D02*
X105628048Y-98557030D01*
X105285191Y-98214172D02*
X105742334Y-98671315D01*
X107861101Y-100957030D02*
X107861101Y-100461792D01*
X107861101Y-100461792D02*
X108165863Y-100728458D01*
X108165863Y-100728458D02*
X108165863Y-100614173D01*
X108165863Y-100614173D02*
X108203958Y-100537982D01*
X108203958Y-100537982D02*
X108242053Y-100499887D01*
X108242053Y-100499887D02*
X108318244Y-100461792D01*
X108318244Y-100461792D02*
X108508720Y-100461792D01*
X108508720Y-100461792D02*
X108584910Y-100499887D01*
X108584910Y-100499887D02*
X108623006Y-100537982D01*
X108623006Y-100537982D02*
X108661101Y-100614173D01*
X108661101Y-100614173D02*
X108661101Y-100842744D01*
X108661101Y-100842744D02*
X108623006Y-100918935D01*
X108623006Y-100918935D02*
X108584910Y-100957030D01*
X108584910Y-100118934D02*
X108623006Y-100080839D01*
X108623006Y-100080839D02*
X108661101Y-100118934D01*
X108661101Y-100118934D02*
X108623006Y-100157030D01*
X108623006Y-100157030D02*
X108584910Y-100118934D01*
X108584910Y-100118934D02*
X108661101Y-100118934D01*
X107861101Y-99814173D02*
X107861101Y-99318935D01*
X107861101Y-99318935D02*
X108165863Y-99585601D01*
X108165863Y-99585601D02*
X108165863Y-99471316D01*
X108165863Y-99471316D02*
X108203958Y-99395125D01*
X108203958Y-99395125D02*
X108242053Y-99357030D01*
X108242053Y-99357030D02*
X108318244Y-99318935D01*
X108318244Y-99318935D02*
X108508720Y-99318935D01*
X108508720Y-99318935D02*
X108584910Y-99357030D01*
X108584910Y-99357030D02*
X108623006Y-99395125D01*
X108623006Y-99395125D02*
X108661101Y-99471316D01*
X108661101Y-99471316D02*
X108661101Y-99699887D01*
X108661101Y-99699887D02*
X108623006Y-99776078D01*
X108623006Y-99776078D02*
X108584910Y-99814173D01*
X107861101Y-99090363D02*
X108661101Y-98823696D01*
X108661101Y-98823696D02*
X107861101Y-98557030D01*
X54946779Y-72938866D02*
X55708684Y-72938866D01*
X56946779Y-72938866D02*
X57708684Y-72938866D01*
X57327731Y-73319819D02*
X57327731Y-72557914D01*
X58709160Y-75444160D02*
X59185350Y-75444160D01*
X58613922Y-75729875D02*
X58947255Y-74729875D01*
X58947255Y-74729875D02*
X59280588Y-75729875D01*
X59471065Y-74729875D02*
X59804398Y-75729875D01*
X59804398Y-75729875D02*
X60137731Y-74729875D01*
X60471065Y-75729875D02*
X60471065Y-74729875D01*
X60471065Y-74729875D02*
X60709160Y-74729875D01*
X60709160Y-74729875D02*
X60852017Y-74777494D01*
X60852017Y-74777494D02*
X60947255Y-74872732D01*
X60947255Y-74872732D02*
X60994874Y-74967970D01*
X60994874Y-74967970D02*
X61042493Y-75158446D01*
X61042493Y-75158446D02*
X61042493Y-75301303D01*
X61042493Y-75301303D02*
X60994874Y-75491779D01*
X60994874Y-75491779D02*
X60947255Y-75587017D01*
X60947255Y-75587017D02*
X60852017Y-75682256D01*
X60852017Y-75682256D02*
X60709160Y-75729875D01*
X60709160Y-75729875D02*
X60471065Y-75729875D01*
X61471065Y-75729875D02*
X61471065Y-74729875D01*
X61471065Y-74729875D02*
X61709160Y-74729875D01*
X61709160Y-74729875D02*
X61852017Y-74777494D01*
X61852017Y-74777494D02*
X61947255Y-74872732D01*
X61947255Y-74872732D02*
X61994874Y-74967970D01*
X61994874Y-74967970D02*
X62042493Y-75158446D01*
X62042493Y-75158446D02*
X62042493Y-75301303D01*
X62042493Y-75301303D02*
X61994874Y-75491779D01*
X61994874Y-75491779D02*
X61947255Y-75587017D01*
X61947255Y-75587017D02*
X61852017Y-75682256D01*
X61852017Y-75682256D02*
X61709160Y-75729875D01*
X61709160Y-75729875D02*
X61471065Y-75729875D01*
X59280588Y-76387438D02*
X59185350Y-76339819D01*
X59185350Y-76339819D02*
X59042493Y-76339819D01*
X59042493Y-76339819D02*
X58899636Y-76387438D01*
X58899636Y-76387438D02*
X58804398Y-76482676D01*
X58804398Y-76482676D02*
X58756779Y-76577914D01*
X58756779Y-76577914D02*
X58709160Y-76768390D01*
X58709160Y-76768390D02*
X58709160Y-76911247D01*
X58709160Y-76911247D02*
X58756779Y-77101723D01*
X58756779Y-77101723D02*
X58804398Y-77196961D01*
X58804398Y-77196961D02*
X58899636Y-77292200D01*
X58899636Y-77292200D02*
X59042493Y-77339819D01*
X59042493Y-77339819D02*
X59137731Y-77339819D01*
X59137731Y-77339819D02*
X59280588Y-77292200D01*
X59280588Y-77292200D02*
X59328207Y-77244580D01*
X59328207Y-77244580D02*
X59328207Y-76911247D01*
X59328207Y-76911247D02*
X59137731Y-76911247D01*
X59756779Y-77339819D02*
X59756779Y-76339819D01*
X59756779Y-76339819D02*
X60328207Y-77339819D01*
X60328207Y-77339819D02*
X60328207Y-76339819D01*
X60804398Y-77339819D02*
X60804398Y-76339819D01*
X60804398Y-76339819D02*
X61042493Y-76339819D01*
X61042493Y-76339819D02*
X61185350Y-76387438D01*
X61185350Y-76387438D02*
X61280588Y-76482676D01*
X61280588Y-76482676D02*
X61328207Y-76577914D01*
X61328207Y-76577914D02*
X61375826Y-76768390D01*
X61375826Y-76768390D02*
X61375826Y-76911247D01*
X61375826Y-76911247D02*
X61328207Y-77101723D01*
X61328207Y-77101723D02*
X61280588Y-77196961D01*
X61280588Y-77196961D02*
X61185350Y-77292200D01*
X61185350Y-77292200D02*
X61042493Y-77339819D01*
X61042493Y-77339819D02*
X60804398Y-77339819D01*
X61756779Y-77054104D02*
X62232969Y-77054104D01*
X61661541Y-77339819D02*
X61994874Y-76339819D01*
X61994874Y-76339819D02*
X62328207Y-77339819D01*
D11*
X118109524Y-97676119D02*
X118109524Y-96676119D01*
X118109524Y-96676119D02*
X118347619Y-96676119D01*
X118347619Y-96676119D02*
X118490476Y-96723738D01*
X118490476Y-96723738D02*
X118585714Y-96818976D01*
X118585714Y-96818976D02*
X118633333Y-96914214D01*
X118633333Y-96914214D02*
X118680952Y-97104690D01*
X118680952Y-97104690D02*
X118680952Y-97247547D01*
X118680952Y-97247547D02*
X118633333Y-97438023D01*
X118633333Y-97438023D02*
X118585714Y-97533261D01*
X118585714Y-97533261D02*
X118490476Y-97628500D01*
X118490476Y-97628500D02*
X118347619Y-97676119D01*
X118347619Y-97676119D02*
X118109524Y-97676119D01*
X118966667Y-96676119D02*
X119300000Y-97676119D01*
X119300000Y-97676119D02*
X119633333Y-96676119D01*
X119966667Y-97676119D02*
X119966667Y-96676119D01*
X119966667Y-96676119D02*
X120204762Y-96676119D01*
X120204762Y-96676119D02*
X120347619Y-96723738D01*
X120347619Y-96723738D02*
X120442857Y-96818976D01*
X120442857Y-96818976D02*
X120490476Y-96914214D01*
X120490476Y-96914214D02*
X120538095Y-97104690D01*
X120538095Y-97104690D02*
X120538095Y-97247547D01*
X120538095Y-97247547D02*
X120490476Y-97438023D01*
X120490476Y-97438023D02*
X120442857Y-97533261D01*
X120442857Y-97533261D02*
X120347619Y-97628500D01*
X120347619Y-97628500D02*
X120204762Y-97676119D01*
X120204762Y-97676119D02*
X119966667Y-97676119D01*
X120966667Y-97676119D02*
X120966667Y-96676119D01*
X120966667Y-96676119D02*
X121204762Y-96676119D01*
X121204762Y-96676119D02*
X121347619Y-96723738D01*
X121347619Y-96723738D02*
X121442857Y-96818976D01*
X121442857Y-96818976D02*
X121490476Y-96914214D01*
X121490476Y-96914214D02*
X121538095Y-97104690D01*
X121538095Y-97104690D02*
X121538095Y-97247547D01*
X121538095Y-97247547D02*
X121490476Y-97438023D01*
X121490476Y-97438023D02*
X121442857Y-97533261D01*
X121442857Y-97533261D02*
X121347619Y-97628500D01*
X121347619Y-97628500D02*
X121204762Y-97676119D01*
X121204762Y-97676119D02*
X120966667Y-97676119D01*
D10*
X97000000Y-110673866D02*
X97761905Y-110673866D01*
X98190476Y-110150057D02*
X98238095Y-110102438D01*
X98238095Y-110102438D02*
X98333333Y-110054819D01*
X98333333Y-110054819D02*
X98571428Y-110054819D01*
X98571428Y-110054819D02*
X98666666Y-110102438D01*
X98666666Y-110102438D02*
X98714285Y-110150057D01*
X98714285Y-110150057D02*
X98761904Y-110245295D01*
X98761904Y-110245295D02*
X98761904Y-110340533D01*
X98761904Y-110340533D02*
X98714285Y-110483390D01*
X98714285Y-110483390D02*
X98142857Y-111054819D01*
X98142857Y-111054819D02*
X98761904Y-111054819D01*
X99190476Y-110959580D02*
X99238095Y-111007200D01*
X99238095Y-111007200D02*
X99190476Y-111054819D01*
X99190476Y-111054819D02*
X99142857Y-111007200D01*
X99142857Y-111007200D02*
X99190476Y-110959580D01*
X99190476Y-110959580D02*
X99190476Y-111054819D01*
X100142856Y-110054819D02*
X99666666Y-110054819D01*
X99666666Y-110054819D02*
X99619047Y-110531009D01*
X99619047Y-110531009D02*
X99666666Y-110483390D01*
X99666666Y-110483390D02*
X99761904Y-110435771D01*
X99761904Y-110435771D02*
X99999999Y-110435771D01*
X99999999Y-110435771D02*
X100095237Y-110483390D01*
X100095237Y-110483390D02*
X100142856Y-110531009D01*
X100142856Y-110531009D02*
X100190475Y-110626247D01*
X100190475Y-110626247D02*
X100190475Y-110864342D01*
X100190475Y-110864342D02*
X100142856Y-110959580D01*
X100142856Y-110959580D02*
X100095237Y-111007200D01*
X100095237Y-111007200D02*
X99999999Y-111054819D01*
X99999999Y-111054819D02*
X99761904Y-111054819D01*
X99761904Y-111054819D02*
X99666666Y-111007200D01*
X99666666Y-111007200D02*
X99619047Y-110959580D01*
X100476190Y-110054819D02*
X100809523Y-111054819D01*
X100809523Y-111054819D02*
X101142856Y-110054819D01*
X72180952Y-110169104D02*
X72657142Y-110169104D01*
X72085714Y-110454819D02*
X72419047Y-109454819D01*
X72419047Y-109454819D02*
X72752380Y-110454819D01*
X72942857Y-109454819D02*
X73276190Y-110454819D01*
X73276190Y-110454819D02*
X73609523Y-109454819D01*
X73895238Y-110407200D02*
X74038095Y-110454819D01*
X74038095Y-110454819D02*
X74276190Y-110454819D01*
X74276190Y-110454819D02*
X74371428Y-110407200D01*
X74371428Y-110407200D02*
X74419047Y-110359580D01*
X74419047Y-110359580D02*
X74466666Y-110264342D01*
X74466666Y-110264342D02*
X74466666Y-110169104D01*
X74466666Y-110169104D02*
X74419047Y-110073866D01*
X74419047Y-110073866D02*
X74371428Y-110026247D01*
X74371428Y-110026247D02*
X74276190Y-109978628D01*
X74276190Y-109978628D02*
X74085714Y-109931009D01*
X74085714Y-109931009D02*
X73990476Y-109883390D01*
X73990476Y-109883390D02*
X73942857Y-109835771D01*
X73942857Y-109835771D02*
X73895238Y-109740533D01*
X73895238Y-109740533D02*
X73895238Y-109645295D01*
X73895238Y-109645295D02*
X73942857Y-109550057D01*
X73942857Y-109550057D02*
X73990476Y-109502438D01*
X73990476Y-109502438D02*
X74085714Y-109454819D01*
X74085714Y-109454819D02*
X74323809Y-109454819D01*
X74323809Y-109454819D02*
X74466666Y-109502438D01*
X74847619Y-110407200D02*
X74990476Y-110454819D01*
X74990476Y-110454819D02*
X75228571Y-110454819D01*
X75228571Y-110454819D02*
X75323809Y-110407200D01*
X75323809Y-110407200D02*
X75371428Y-110359580D01*
X75371428Y-110359580D02*
X75419047Y-110264342D01*
X75419047Y-110264342D02*
X75419047Y-110169104D01*
X75419047Y-110169104D02*
X75371428Y-110073866D01*
X75371428Y-110073866D02*
X75323809Y-110026247D01*
X75323809Y-110026247D02*
X75228571Y-109978628D01*
X75228571Y-109978628D02*
X75038095Y-109931009D01*
X75038095Y-109931009D02*
X74942857Y-109883390D01*
X74942857Y-109883390D02*
X74895238Y-109835771D01*
X74895238Y-109835771D02*
X74847619Y-109740533D01*
X74847619Y-109740533D02*
X74847619Y-109645295D01*
X74847619Y-109645295D02*
X74895238Y-109550057D01*
X74895238Y-109550057D02*
X74942857Y-109502438D01*
X74942857Y-109502438D02*
X75038095Y-109454819D01*
X75038095Y-109454819D02*
X75276190Y-109454819D01*
X75276190Y-109454819D02*
X75419047Y-109502438D01*
D11*
X51518333Y-107254809D02*
X51518333Y-107611952D01*
X51518333Y-107611952D02*
X51494524Y-107683380D01*
X51494524Y-107683380D02*
X51446905Y-107731000D01*
X51446905Y-107731000D02*
X51375476Y-107754809D01*
X51375476Y-107754809D02*
X51327857Y-107754809D01*
X51732619Y-107302428D02*
X51756428Y-107278619D01*
X51756428Y-107278619D02*
X51804047Y-107254809D01*
X51804047Y-107254809D02*
X51923095Y-107254809D01*
X51923095Y-107254809D02*
X51970714Y-107278619D01*
X51970714Y-107278619D02*
X51994523Y-107302428D01*
X51994523Y-107302428D02*
X52018333Y-107350047D01*
X52018333Y-107350047D02*
X52018333Y-107397666D01*
X52018333Y-107397666D02*
X51994523Y-107469095D01*
X51994523Y-107469095D02*
X51708809Y-107754809D01*
X51708809Y-107754809D02*
X52018333Y-107754809D01*
D10*
X97933333Y-105169104D02*
X98409523Y-105169104D01*
X97838095Y-105454819D02*
X98171428Y-104454819D01*
X98171428Y-104454819D02*
X98504761Y-105454819D01*
X98695238Y-104454819D02*
X99028571Y-105454819D01*
X99028571Y-105454819D02*
X99361904Y-104454819D01*
X99695238Y-105454819D02*
X99695238Y-104454819D01*
X99695238Y-104454819D02*
X99933333Y-104454819D01*
X99933333Y-104454819D02*
X100076190Y-104502438D01*
X100076190Y-104502438D02*
X100171428Y-104597676D01*
X100171428Y-104597676D02*
X100219047Y-104692914D01*
X100219047Y-104692914D02*
X100266666Y-104883390D01*
X100266666Y-104883390D02*
X100266666Y-105026247D01*
X100266666Y-105026247D02*
X100219047Y-105216723D01*
X100219047Y-105216723D02*
X100171428Y-105311961D01*
X100171428Y-105311961D02*
X100076190Y-105407200D01*
X100076190Y-105407200D02*
X99933333Y-105454819D01*
X99933333Y-105454819D02*
X99695238Y-105454819D01*
X100695238Y-105454819D02*
X100695238Y-104454819D01*
X100695238Y-104454819D02*
X100933333Y-104454819D01*
X100933333Y-104454819D02*
X101076190Y-104502438D01*
X101076190Y-104502438D02*
X101171428Y-104597676D01*
X101171428Y-104597676D02*
X101219047Y-104692914D01*
X101219047Y-104692914D02*
X101266666Y-104883390D01*
X101266666Y-104883390D02*
X101266666Y-105026247D01*
X101266666Y-105026247D02*
X101219047Y-105216723D01*
X101219047Y-105216723D02*
X101171428Y-105311961D01*
X101171428Y-105311961D02*
X101076190Y-105407200D01*
X101076190Y-105407200D02*
X100933333Y-105454819D01*
X100933333Y-105454819D02*
X100695238Y-105454819D01*
D12*
%TO.C,C24*%
X83857836Y-79360000D02*
X83642164Y-79360000D01*
X83857836Y-78640000D02*
X83642164Y-78640000D01*
%TO.C,C7*%
X85857836Y-77140000D02*
X85642164Y-77140000D01*
X85857836Y-77860000D02*
X85642164Y-77860000D01*
D10*
%TO.C,U8*%
X105900000Y-105800001D02*
X103100000Y-105800001D01*
X105900000Y-109199999D02*
X103100000Y-109199999D01*
D13*
X107528102Y-108474999D02*
G75*
G02*
X107278100Y-108474999I-125001J0D01*
G01*
X107278100Y-108474999D02*
G75*
G02*
X107528102Y-108474999I125001J0D01*
G01*
D12*
%TO.C,R14*%
X94005557Y-98846359D02*
X94005557Y-99153641D01*
X94765557Y-98846359D02*
X94765557Y-99153641D01*
%TO.C,C17*%
X67162164Y-83016709D02*
X67377836Y-83016709D01*
X67162164Y-83736709D02*
X67377836Y-83736709D01*
%TO.C,RN4*%
X60600000Y-81843435D02*
X61600000Y-81843435D01*
X60600000Y-85203435D02*
X61600000Y-85203435D01*
%TO.C,R22*%
X66687742Y-75727500D02*
X67162258Y-75727500D01*
X66687742Y-76772500D02*
X67162258Y-76772500D01*
%TO.C,R10*%
X104097111Y-98846359D02*
X104097111Y-99153641D01*
X104857111Y-98846359D02*
X104857111Y-99153641D01*
%TO.C,C5*%
X90140580Y-97690000D02*
X89859420Y-97690000D01*
X90140580Y-98710000D02*
X89859420Y-98710000D01*
%TO.C,C16*%
X67162164Y-88047532D02*
X67377836Y-88047532D01*
X67162164Y-88767532D02*
X67377836Y-88767532D01*
%TO.C,R15*%
X114062258Y-110477500D02*
X113587742Y-110477500D01*
X114062258Y-111522500D02*
X113587742Y-111522500D01*
%TO.C,C4*%
X89907836Y-95440000D02*
X89692164Y-95440000D01*
X89907836Y-96160000D02*
X89692164Y-96160000D01*
%TO.C,R7*%
X106269224Y-87042865D02*
X106576506Y-87042865D01*
X106269224Y-87802865D02*
X106576506Y-87802865D01*
%TO.C,R8*%
X106096359Y-89620000D02*
X106403641Y-89620000D01*
X106096359Y-90380000D02*
X106403641Y-90380000D01*
%TO.C,C32*%
X67162164Y-79662827D02*
X67377836Y-79662827D01*
X67162164Y-80382827D02*
X67377836Y-80382827D01*
D14*
%TO.C,D1*%
X102390000Y-88000000D02*
G75*
G02*
X102290000Y-88000000I-50000J0D01*
G01*
X102290000Y-88000000D02*
G75*
G02*
X102390000Y-88000000I50000J0D01*
G01*
D12*
%TO.C,C23*%
X86640000Y-80392164D02*
X86640000Y-80607836D01*
X87360000Y-80392164D02*
X87360000Y-80607836D01*
%TO.C,C25*%
X107339517Y-108534421D02*
X107339517Y-108815581D01*
X108359517Y-108534421D02*
X108359517Y-108815581D01*
%TO.C,C21*%
X80140000Y-96892164D02*
X80140000Y-97107836D01*
X80860000Y-96892164D02*
X80860000Y-97107836D01*
%TO.C,C13*%
X67162164Y-96432236D02*
X67377836Y-96432236D01*
X67162164Y-97152236D02*
X67377836Y-97152236D01*
%TO.C,C20*%
X91142164Y-81640000D02*
X91357836Y-81640000D01*
X91142164Y-82360000D02*
X91357836Y-82360000D01*
%TO.C,U7*%
X83000000Y-102440000D02*
X82200000Y-102440000D01*
X83000000Y-102440000D02*
X83800000Y-102440000D01*
X83000000Y-105560000D02*
X82200000Y-105560000D01*
X83000000Y-105560000D02*
X84800000Y-105560000D01*
%TO.C,RN1*%
X60600000Y-97320000D02*
X61600000Y-97320000D01*
X60600000Y-100680000D02*
X61600000Y-100680000D01*
%TO.C,C1*%
X82892164Y-96360000D02*
X83107836Y-96360000D01*
X82892164Y-95640000D02*
X83107836Y-95640000D01*
%TO.C,U6*%
X116862500Y-102940000D02*
X116062500Y-102940000D01*
X116862500Y-102940000D02*
X117662500Y-102940000D01*
X116862500Y-106060000D02*
X116062500Y-106060000D01*
X116862500Y-106060000D02*
X117662500Y-106060000D01*
X115562500Y-102990000D02*
X115322500Y-102660000D01*
X115802500Y-102660000D01*
X115562500Y-102990000D01*
G36*
X115562500Y-102990000D02*
G01*
X115322500Y-102660000D01*
X115802500Y-102660000D01*
X115562500Y-102990000D01*
G37*
%TO.C,R11*%
X101574223Y-98846359D02*
X101574223Y-99153641D01*
X102334223Y-98846359D02*
X102334223Y-99153641D01*
%TO.C,DVDD*%
X118420000Y-98220000D02*
X119800000Y-98220000D01*
X118420000Y-99600000D02*
X118420000Y-98220000D01*
X118420000Y-100870000D02*
X118420000Y-100980000D01*
X118420000Y-100870000D02*
X121180000Y-100870000D01*
X118420000Y-100980000D02*
X121180000Y-100980000D01*
X121180000Y-100870000D02*
X121180000Y-100980000D01*
%TO.C,R2*%
X68432742Y-106977500D02*
X68907258Y-106977500D01*
X68432742Y-108022500D02*
X68907258Y-108022500D01*
%TO.C,C37*%
X64890000Y-107892164D02*
X64890000Y-108107836D01*
X65610000Y-107892164D02*
X65610000Y-108107836D01*
%TO.C,C39*%
X61640000Y-78587836D02*
X61640000Y-78372164D01*
X62360000Y-78587836D02*
X62360000Y-78372164D01*
%TO.C,C38*%
X65932836Y-105058850D02*
X65717164Y-105058850D01*
X65932836Y-105778850D02*
X65717164Y-105778850D01*
%TO.C,C33*%
X67162164Y-77985886D02*
X67377836Y-77985886D01*
X67162164Y-78705886D02*
X67377836Y-78705886D01*
%TO.C,C9*%
X83665000Y-98938748D02*
X83665000Y-99461252D01*
X85135000Y-98938748D02*
X85135000Y-99461252D01*
%TO.C,C44*%
X79490000Y-102140580D02*
X79490000Y-101859420D01*
X80510000Y-102140580D02*
X80510000Y-101859420D01*
%TO.C,C36*%
X67162164Y-98109177D02*
X67377836Y-98109177D01*
X67162164Y-98829177D02*
X67377836Y-98829177D01*
%TO.C,C42*%
X86490000Y-103640580D02*
X86490000Y-103359420D01*
X87510000Y-103640580D02*
X87510000Y-103359420D01*
%TO.C,J5*%
X108620000Y-95620000D02*
X108620000Y-98380000D01*
X111270000Y-95620000D02*
X108620000Y-95620000D01*
X111270000Y-95620000D02*
X111270000Y-98380000D01*
X111270000Y-98380000D02*
X108620000Y-98380000D01*
X112540000Y-95620000D02*
X113920000Y-95620000D01*
X113920000Y-95620000D02*
X113920000Y-97000000D01*
%TO.C,C35*%
X67162164Y-91401413D02*
X67377836Y-91401413D01*
X67162164Y-92121413D02*
X67377836Y-92121413D01*
%TO.C,C41*%
X116352500Y-108359420D02*
X116352500Y-108640580D01*
X117372500Y-108359420D02*
X117372500Y-108640580D01*
%TO.C,C18*%
X67162164Y-81339768D02*
X67377836Y-81339768D01*
X67162164Y-82059768D02*
X67377836Y-82059768D01*
%TO.C,-2.5V*%
X94820000Y-109220000D02*
X96200000Y-109220000D01*
X94820000Y-110600000D02*
X94820000Y-109220000D01*
X94820000Y-111870000D02*
X94820000Y-111980000D01*
X94820000Y-111870000D02*
X97580000Y-111870000D01*
X94820000Y-111980000D02*
X97580000Y-111980000D01*
X97580000Y-111870000D02*
X97580000Y-111980000D01*
%TO.C,C26*%
X67162164Y-99786118D02*
X67377836Y-99786118D01*
X67162164Y-100506118D02*
X67377836Y-100506118D01*
%TO.C,R13*%
X96528446Y-98846359D02*
X96528446Y-99153641D01*
X97288446Y-98846359D02*
X97288446Y-99153641D01*
%TO.C,C31*%
X67162164Y-84693650D02*
X67377836Y-84693650D01*
X67162164Y-85413650D02*
X67377836Y-85413650D01*
%TO.C,C34*%
X67162164Y-93078354D02*
X67377836Y-93078354D01*
X67162164Y-93798354D02*
X67377836Y-93798354D01*
%TO.C,C14*%
X67162164Y-94755295D02*
X67377836Y-94755295D01*
X67162164Y-95475295D02*
X67377836Y-95475295D01*
%TO.C,R9*%
X106620000Y-98846359D02*
X106620000Y-99153641D01*
X107380000Y-98846359D02*
X107380000Y-99153641D01*
D15*
%TO.C,U1*%
X79017600Y-83267600D02*
X79017600Y-84277560D01*
X79017600Y-92722440D02*
X79017600Y-93732400D01*
X79017600Y-93732400D02*
X80027560Y-93732400D01*
X80027560Y-83267600D02*
X79017600Y-83267600D01*
X88472440Y-93732400D02*
X89482400Y-93732400D01*
X89482400Y-83267600D02*
X88472440Y-83267600D01*
X89482400Y-84277560D02*
X89482400Y-83267600D01*
X89482400Y-93732400D02*
X89482400Y-92722440D01*
D16*
G36*
X77544400Y-89440501D02*
G01*
X77290400Y-89440501D01*
X77290400Y-89059501D01*
X77544400Y-89059501D01*
X77544400Y-89440501D01*
G37*
G36*
X82190499Y-95459600D02*
G01*
X81809499Y-95459600D01*
X81809499Y-95205600D01*
X82190499Y-95205600D01*
X82190499Y-95459600D01*
G37*
G36*
X82690501Y-81794400D02*
G01*
X82309501Y-81794400D01*
X82309501Y-81540400D01*
X82690501Y-81540400D01*
X82690501Y-81794400D01*
G37*
G36*
X87190500Y-95459600D02*
G01*
X86809500Y-95459600D01*
X86809500Y-95205600D01*
X87190500Y-95205600D01*
X87190500Y-95459600D01*
G37*
G36*
X87690501Y-81794400D02*
G01*
X87309501Y-81794400D01*
X87309501Y-81540400D01*
X87690501Y-81540400D01*
X87690501Y-81794400D01*
G37*
G36*
X91209600Y-88940500D02*
G01*
X90955600Y-88940500D01*
X90955600Y-88559499D01*
X91209600Y-88559499D01*
X91209600Y-88940500D01*
G37*
D12*
%TO.C,C11*%
X67162164Y-103140000D02*
X67377836Y-103140000D01*
X67162164Y-103860000D02*
X67377836Y-103860000D01*
%TO.C,R20*%
X70087742Y-104477500D02*
X70562258Y-104477500D01*
X70087742Y-105522500D02*
X70562258Y-105522500D01*
%TO.C,R18*%
X74477500Y-79237258D02*
X74477500Y-78762742D01*
X75522500Y-79237258D02*
X75522500Y-78762742D01*
%TO.C,C19*%
X91142164Y-83140000D02*
X91357836Y-83140000D01*
X91142164Y-83860000D02*
X91357836Y-83860000D01*
%TO.C,C22*%
X82392164Y-80390000D02*
X82607836Y-80390000D01*
X82392164Y-81110000D02*
X82607836Y-81110000D01*
%TO.C,C28*%
X67162164Y-86370591D02*
X67377836Y-86370591D01*
X67162164Y-87090591D02*
X67377836Y-87090591D01*
%TO.C,R3*%
X106096359Y-76870000D02*
X106403641Y-76870000D01*
X106096359Y-77630000D02*
X106403641Y-77630000D01*
%TO.C,AVSS*%
X76220000Y-108420000D02*
X77600000Y-108420000D01*
X76220000Y-109800000D02*
X76220000Y-108420000D01*
X76220000Y-111070000D02*
X76220000Y-111180000D01*
X76220000Y-111070000D02*
X78980000Y-111070000D01*
X76220000Y-111180000D02*
X78980000Y-111180000D01*
X78980000Y-111070000D02*
X78980000Y-111180000D01*
%TO.C,J4*%
X76890000Y-75620000D02*
X78000000Y-75620000D01*
X76890000Y-76730000D02*
X76890000Y-75620000D01*
X76890000Y-77730000D02*
X76890000Y-79840000D01*
X76890000Y-77730000D02*
X79110000Y-77730000D01*
X76890000Y-79840000D02*
X79110000Y-79840000D01*
X79110000Y-77730000D02*
X79110000Y-79840000D01*
%TO.C,J3*%
X108670000Y-75970000D02*
X110000000Y-75970000D01*
X108670000Y-77300000D02*
X108670000Y-75970000D01*
X108670000Y-78570000D02*
X108670000Y-93870000D01*
X108670000Y-78570000D02*
X111330000Y-78570000D01*
X108670000Y-93870000D02*
X111330000Y-93870000D01*
X111330000Y-78570000D02*
X111330000Y-93870000D01*
%TO.C,R5*%
X106096359Y-81870000D02*
X106403641Y-81870000D01*
X106096359Y-82630000D02*
X106403641Y-82630000D01*
%TO.C,C30*%
X72945000Y-78372164D02*
X72945000Y-78587836D01*
X73665000Y-78372164D02*
X73665000Y-78587836D01*
%TO.C,C3*%
X89990000Y-79140580D02*
X89990000Y-78859420D01*
X91010000Y-79140580D02*
X91010000Y-78859420D01*
%TO.C,C46*%
X90859420Y-107577500D02*
X91140580Y-107577500D01*
X90859420Y-108597500D02*
X91140580Y-108597500D01*
%TO.C,C6*%
X85857836Y-79360000D02*
X85642164Y-79360000D01*
X85857836Y-78640000D02*
X85642164Y-78640000D01*
%TO.C,C43*%
X79490000Y-105859420D02*
X79490000Y-106140580D01*
X80510000Y-105859420D02*
X80510000Y-106140580D01*
%TO.C,J2*%
X44700000Y-74400000D02*
X50700000Y-74400000D01*
X44700000Y-75160000D02*
X44700000Y-74400000D01*
X44700000Y-76940000D02*
X50700000Y-76940000D01*
X44700000Y-77700000D02*
X44700000Y-76940000D01*
X44700000Y-79480000D02*
X50700000Y-79480000D01*
X44700000Y-80240000D02*
X44700000Y-79480000D01*
X44700000Y-82020000D02*
X50700000Y-82020000D01*
X44700000Y-82780000D02*
X44700000Y-82020000D01*
X44700000Y-84560000D02*
X50700000Y-84560000D01*
X44700000Y-85320000D02*
X44700000Y-84560000D01*
X44700000Y-87100000D02*
X50700000Y-87100000D01*
X44700000Y-87860000D02*
X44700000Y-87100000D01*
X44700000Y-89640000D02*
X50700000Y-89640000D01*
X44700000Y-90400000D02*
X44700000Y-89640000D01*
X44700000Y-92180000D02*
X50700000Y-92180000D01*
X44700000Y-92940000D02*
X44700000Y-92180000D01*
X44700000Y-94720000D02*
X50700000Y-94720000D01*
X44700000Y-95480000D02*
X44700000Y-94720000D01*
X44700000Y-97260000D02*
X50700000Y-97260000D01*
X44700000Y-98020000D02*
X44700000Y-97260000D01*
X44700000Y-99800000D02*
X50700000Y-99800000D01*
X44700000Y-100560000D02*
X44700000Y-99800000D01*
X44700000Y-102340000D02*
X50700000Y-102340000D01*
X44700000Y-103100000D02*
X44700000Y-102340000D01*
X44700000Y-104880000D02*
X50700000Y-104880000D01*
X44700000Y-105640000D02*
X44700000Y-104880000D01*
X50700000Y-73450000D02*
X50700000Y-106590000D01*
X50700000Y-75160000D02*
X44700000Y-75160000D01*
X50700000Y-77700000D02*
X44700000Y-77700000D01*
X50700000Y-80240000D02*
X44700000Y-80240000D01*
X50700000Y-82780000D02*
X44700000Y-82780000D01*
X50700000Y-85320000D02*
X44700000Y-85320000D01*
X50700000Y-87860000D02*
X44700000Y-87860000D01*
X50700000Y-90400000D02*
X44700000Y-90400000D01*
X50700000Y-92940000D02*
X44700000Y-92940000D01*
X50700000Y-95480000D02*
X44700000Y-95480000D01*
X50700000Y-98020000D02*
X44700000Y-98020000D01*
X50700000Y-100560000D02*
X44700000Y-100560000D01*
X50700000Y-103100000D02*
X44700000Y-103100000D01*
X50700000Y-104980000D02*
X44700000Y-104980000D01*
X50700000Y-105100000D02*
X44700000Y-105100000D01*
X50700000Y-105220000D02*
X44700000Y-105220000D01*
X50700000Y-105340000D02*
X44700000Y-105340000D01*
X50700000Y-105460000D02*
X44700000Y-105460000D01*
X50700000Y-105580000D02*
X44700000Y-105580000D01*
X50700000Y-105640000D02*
X44700000Y-105640000D01*
X50700000Y-106590000D02*
X53360000Y-106590000D01*
X53360000Y-73450000D02*
X50700000Y-73450000D01*
X53360000Y-76050000D02*
X50700000Y-76050000D01*
X53360000Y-78590000D02*
X50700000Y-78590000D01*
X53360000Y-81130000D02*
X50700000Y-81130000D01*
X53360000Y-83670000D02*
X50700000Y-83670000D01*
X53360000Y-86210000D02*
X50700000Y-86210000D01*
X53360000Y-88750000D02*
X50700000Y-88750000D01*
X53360000Y-91290000D02*
X50700000Y-91290000D01*
X53360000Y-93830000D02*
X50700000Y-93830000D01*
X53360000Y-96370000D02*
X50700000Y-96370000D01*
X53360000Y-98910000D02*
X50700000Y-98910000D01*
X53360000Y-101450000D02*
X50700000Y-101450000D01*
X53360000Y-103990000D02*
X50700000Y-103990000D01*
X53360000Y-106590000D02*
X53360000Y-73450000D01*
X53757071Y-74400000D02*
X53360000Y-74400000D01*
X53757071Y-75160000D02*
X53360000Y-75160000D01*
X53757071Y-76940000D02*
X53360000Y-76940000D01*
X53757071Y-77700000D02*
X53360000Y-77700000D01*
X53757071Y-79480000D02*
X53360000Y-79480000D01*
X53757071Y-80240000D02*
X53360000Y-80240000D01*
X53757071Y-82020000D02*
X53360000Y-82020000D01*
X53757071Y-82780000D02*
X53360000Y-82780000D01*
X53757071Y-84560000D02*
X53360000Y-84560000D01*
X53757071Y-85320000D02*
X53360000Y-85320000D01*
X53757071Y-87100000D02*
X53360000Y-87100000D01*
X53757071Y-87860000D02*
X53360000Y-87860000D01*
X53757071Y-89640000D02*
X53360000Y-89640000D01*
X53757071Y-90400000D02*
X53360000Y-90400000D01*
X53757071Y-92180000D02*
X53360000Y-92180000D01*
X53757071Y-92940000D02*
X53360000Y-92940000D01*
X53757071Y-94720000D02*
X53360000Y-94720000D01*
X53757071Y-95480000D02*
X53360000Y-95480000D01*
X53757071Y-97260000D02*
X53360000Y-97260000D01*
X53757071Y-98020000D02*
X53360000Y-98020000D01*
X53757071Y-99800000D02*
X53360000Y-99800000D01*
X53757071Y-100560000D02*
X53360000Y-100560000D01*
X53757071Y-102340000D02*
X53360000Y-102340000D01*
X53757071Y-103100000D02*
X53360000Y-103100000D01*
X53757071Y-104880000D02*
X53360000Y-104880000D01*
X53757071Y-105640000D02*
X53360000Y-105640000D01*
X56230000Y-104880000D02*
X55842929Y-104880000D01*
X56230000Y-105640000D02*
X55842929Y-105640000D01*
X56297071Y-74400000D02*
X55842929Y-74400000D01*
X56297071Y-75160000D02*
X55842929Y-75160000D01*
X56297071Y-76940000D02*
X55842929Y-76940000D01*
X56297071Y-77700000D02*
X55842929Y-77700000D01*
X56297071Y-79480000D02*
X55842929Y-79480000D01*
X56297071Y-80240000D02*
X55842929Y-80240000D01*
X56297071Y-82020000D02*
X55842929Y-82020000D01*
X56297071Y-82780000D02*
X55842929Y-82780000D01*
X56297071Y-84560000D02*
X55842929Y-84560000D01*
X56297071Y-85320000D02*
X55842929Y-85320000D01*
X56297071Y-87100000D02*
X55842929Y-87100000D01*
X56297071Y-87860000D02*
X55842929Y-87860000D01*
X56297071Y-89640000D02*
X55842929Y-89640000D01*
X56297071Y-90400000D02*
X55842929Y-90400000D01*
X56297071Y-92180000D02*
X55842929Y-92180000D01*
X56297071Y-92940000D02*
X55842929Y-92940000D01*
X56297071Y-94720000D02*
X55842929Y-94720000D01*
X56297071Y-95480000D02*
X55842929Y-95480000D01*
X56297071Y-97260000D02*
X55842929Y-97260000D01*
X56297071Y-98020000D02*
X55842929Y-98020000D01*
X56297071Y-99800000D02*
X55842929Y-99800000D01*
X56297071Y-100560000D02*
X55842929Y-100560000D01*
X56297071Y-102340000D02*
X55842929Y-102340000D01*
X56297071Y-103100000D02*
X55842929Y-103100000D01*
X58610000Y-105260000D02*
X58610000Y-106530000D01*
X58610000Y-106530000D02*
X57340000Y-106530000D01*
%TO.C,C27*%
X112352500Y-101859420D02*
X112352500Y-102140580D01*
X113372500Y-101859420D02*
X113372500Y-102140580D01*
%TO.C,R17*%
X70187742Y-75727500D02*
X70662258Y-75727500D01*
X70187742Y-76772500D02*
X70662258Y-76772500D01*
%TO.C,C2*%
X88640000Y-81107836D02*
X88640000Y-80892164D01*
X89360000Y-81107836D02*
X89360000Y-80892164D01*
%TO.C,U11*%
X86862500Y-107527500D02*
X86062500Y-107527500D01*
X86862500Y-107527500D02*
X87662500Y-107527500D01*
X86862500Y-110647500D02*
X86062500Y-110647500D01*
X86862500Y-110647500D02*
X87662500Y-110647500D01*
X85562500Y-107577500D02*
X85322500Y-107247500D01*
X85802500Y-107247500D01*
X85562500Y-107577500D01*
G36*
X85562500Y-107577500D02*
G01*
X85322500Y-107247500D01*
X85802500Y-107247500D01*
X85562500Y-107577500D01*
G37*
%TO.C,C29*%
X118352500Y-108359420D02*
X118352500Y-108640580D01*
X119372500Y-108359420D02*
X119372500Y-108640580D01*
%TO.C,C12*%
X67162164Y-101463059D02*
X67377836Y-101463059D01*
X67162164Y-102183059D02*
X67377836Y-102183059D01*
%TO.C,C15*%
X67162164Y-89724473D02*
X67377836Y-89724473D01*
X67162164Y-90444473D02*
X67377836Y-90444473D01*
%TO.C,R12*%
X99051334Y-98846359D02*
X99051334Y-99153641D01*
X99811334Y-98846359D02*
X99811334Y-99153641D01*
%TO.C,AVDD*%
X94420000Y-105020000D02*
X95800000Y-105020000D01*
X94420000Y-106400000D02*
X94420000Y-105020000D01*
X94420000Y-107670000D02*
X94420000Y-107780000D01*
X94420000Y-107670000D02*
X97180000Y-107670000D01*
X94420000Y-107780000D02*
X97180000Y-107780000D01*
X97180000Y-107670000D02*
X97180000Y-107780000D01*
%TO.C,D2*%
X113102500Y-107000000D02*
X113102500Y-109685000D01*
X113102500Y-109685000D02*
X115022500Y-109685000D01*
X115022500Y-109685000D02*
X115022500Y-107000000D01*
%TO.C,RN3*%
X60600000Y-92161145D02*
X61600000Y-92161145D01*
X60600000Y-95521145D02*
X61600000Y-95521145D01*
%TO.C,C10*%
X81890000Y-99359420D02*
X81890000Y-99640580D01*
X82910000Y-99359420D02*
X82910000Y-99640580D01*
%TO.C,R1*%
X102762742Y-88977500D02*
X103237258Y-88977500D01*
X102762742Y-90022500D02*
X103237258Y-90022500D01*
%TO.C,R6*%
X106123185Y-84524542D02*
X106430467Y-84524542D01*
X106123185Y-85284542D02*
X106430467Y-85284542D01*
%TO.C,C40*%
X99490000Y-107415580D02*
X99490000Y-107134420D01*
X100510000Y-107415580D02*
X100510000Y-107134420D01*
%TO.C,C8*%
X85890000Y-99059420D02*
X85890000Y-99340580D01*
X86910000Y-99059420D02*
X86910000Y-99340580D01*
%TO.C,R4*%
X106106359Y-79370000D02*
X106413641Y-79370000D01*
X106106359Y-80130000D02*
X106413641Y-80130000D01*
%TO.C,RN2*%
X60600000Y-87002290D02*
X61600000Y-87002290D01*
X60600000Y-90362290D02*
X61600000Y-90362290D01*
%TO.C,J1*%
X93050000Y-101170000D02*
X93050000Y-103830000D01*
X108350000Y-101170000D02*
X93050000Y-101170000D01*
X108350000Y-101170000D02*
X108350000Y-103830000D01*
X108350000Y-103830000D02*
X93050000Y-103830000D01*
X109620000Y-101170000D02*
X110950000Y-101170000D01*
X110950000Y-101170000D02*
X110950000Y-102500000D01*
%TD*%
D17*
X50601596Y-67442903D02*
X122375000Y-67442903D01*
X122375000Y-112556276D01*
X50601596Y-112556276D01*
X50601596Y-67442903D01*
M02*
