M48
; DRILL file {KiCad 9.0.5-1.fc42} date 2025-11-11T18:34:44+0100
; FORMAT={-:-/ absolute / inch / decimal}
; #@! TF.CreationDate,2025-11-11T18:34:44+01:00
; #@! TF.GenerationSoftware,Kicad,Pcbnew,9.0.5-1.fc42
; #@! TF.FileFunction,Plated,1,4,PTH
FMAT,2
INCH
; #@! TA.AperFunction,Plated,PTH,ViaDrill
T1C0.0157
; #@! TA.AperFunction,Plated,PTH,ComponentDrill
T2C0.0315
; #@! TA.AperFunction,Plated,PTH,ComponentDrill
T3C0.0394
%
G90
G05
T1
X2.4902Y-3.1102
X2.5118Y-2.9449
X2.6157Y-4.2891
X2.6181Y-4.1929
X2.7264Y-3.8779
X2.7264Y-3.6024
X2.7264Y-3.6811
X2.7264Y-3.7402
X2.7264Y-3.8091
X2.7264Y-3.9469
X2.7264Y-4.0059
X2.7264Y-4.0748
X2.7272Y-3.0885
X2.7272Y-3.1475
X2.7272Y-3.2164
X2.7272Y-3.2755
X2.7272Y-3.3444
X2.7272Y-3.4034
X2.7272Y-3.4723
X2.7272Y-3.5314
X2.8839Y-2.9528
X2.9134Y-2.9921
X2.9331Y-2.9528
X3.0512Y-4.1929
X3.0906Y-4.0945
X3.189Y-4.2717
X3.2185Y-3.3268
X3.2185Y-4.2224
X3.2283Y-3.9567
X3.2382Y-4.2717
X3.248Y-3.0512
X3.2677Y-3.5827
X3.3071Y-4.3342
X3.3465Y-4.1929
X3.3661Y-3.9961
X3.376Y-3.3268
X3.4055Y-3.5827
X3.436Y-3.7891
X3.4537Y-4.1964
X3.4547Y-3.0512
X3.4744Y-3.937
X3.4833Y-3.5518
X3.4843Y-4.157
X3.5433Y-4.3307
X3.5925Y-3.7205
X3.6122Y-3.1299
X3.622Y-4.3145
X3.6614Y-3.878
X3.9961Y-4.1535
X4.311Y-4.3701
X4.3701Y-4.3701
X4.3898Y-4.3307
X4.4631Y-4.1142
X4.5167Y-3.9478
X4.5669Y-3.8189
X4.6403Y-4.3701
T2
X3.0709Y-3.0209
X3.0709Y-3.0996
T3
X2.1575Y-2.9441
X2.1575Y-3.0441
X2.1575Y-3.1441
X2.1575Y-3.2441
X2.1575Y-3.3441
X2.1575Y-3.4441
X2.1575Y-3.5441
X2.1575Y-3.6441
X2.1575Y-3.7441
X2.1575Y-3.8441
X2.1575Y-3.9441
X2.1575Y-4.0441
X2.1575Y-4.1441
X2.2575Y-2.9441
X2.2575Y-3.0441
X2.2575Y-3.1441
X2.2575Y-3.2441
X2.2575Y-3.3441
X2.2575Y-3.4441
X2.2575Y-3.5441
X2.2575Y-3.6441
X2.2575Y-3.7441
X2.2575Y-3.8441
X2.2575Y-3.9441
X2.2575Y-4.0441
X2.2575Y-4.1441
X3.7157Y-4.0354
X3.8157Y-4.0354
X3.9157Y-4.0354
X4.0157Y-4.0354
X4.1157Y-4.0354
X4.2157Y-4.0354
X4.3157Y-4.0354
X4.3307Y-3.0433
X4.3307Y-3.1433
X4.3307Y-3.2433
X4.3307Y-3.3433
X4.3307Y-3.4433
X4.3307Y-3.5433
X4.3307Y-3.6433
X4.3307Y-3.8189
X4.4307Y-3.8189
M30
