%TF.GenerationSoftware,KiCad,Pcbnew,9.0.5-1.fc42*%
%TF.CreationDate,2025-11-11T18:34:47+01:00*%
%TF.ProjectId,bioamplifier,62696f61-6d70-46c6-9966-6965722e6b69,rev?*%
%TF.SameCoordinates,Original*%
%TF.FileFunction,Soldermask,Bot*%
%TF.FilePolarity,Negative*%
%FSLAX46Y46*%
G04 Gerber Fmt 4.6, Leading zero omitted, Abs format (unit mm)*
G04 Created by KiCad (PCBNEW 9.0.5-1.fc42) date 2025-11-11 18:34:47*
%MOMM*%
%LPD*%
G01*
G04 APERTURE LIST*
G04 Aperture macros list*
%AMRoundRect*
0 Rectangle with rounded corners*
0 $1 Rounding radius*
0 $2 $3 $4 $5 $6 $7 $8 $9 X,Y pos of 4 corners*
0 Add a 4 corners polygon primitive as box body*
4,1,4,$2,$3,$4,$5,$6,$7,$8,$9,$2,$3,0*
0 Add four circle primitives for the rounded corners*
1,1,$1+$1,$2,$3*
1,1,$1+$1,$4,$5*
1,1,$1+$1,$6,$7*
1,1,$1+$1,$8,$9*
0 Add four rect primitives between the rounded corners*
20,1,$1+$1,$2,$3,$4,$5,0*
20,1,$1+$1,$4,$5,$6,$7,0*
20,1,$1+$1,$6,$7,$8,$9,0*
20,1,$1+$1,$8,$9,$2,$3,0*%
G04 Aperture macros list end*
%ADD10R,1.700000X1.700000*%
%ADD11C,1.700000*%
%ADD12R,1.350000X1.350000*%
%ADD13C,1.350000*%
%ADD14O,1.700000X1.700000*%
%ADD15C,2.000000*%
%ADD16RoundRect,0.225000X-0.250000X0.225000X-0.250000X-0.225000X0.250000X-0.225000X0.250000X0.225000X0*%
%ADD17R,0.355600X0.850900*%
%ADD18C,3.000000*%
%TA.AperFunction,Profile*%
%ADD19C,0.100000*%
%TD*%
G04 APERTURE END LIST*
D10*
%TO.C,J5*%
X112540000Y-97000000D03*
D11*
X110000000Y-97000000D03*
%TD*%
D12*
%TO.C,J4*%
X78000000Y-76730000D03*
D13*
X78000000Y-78730000D03*
%TD*%
D10*
%TO.C,J3*%
X110000000Y-77300000D03*
D14*
X110000000Y-79840000D03*
X110000000Y-82380000D03*
X110000000Y-84920000D03*
X110000000Y-87460000D03*
X110000000Y-90000000D03*
X110000000Y-92540000D03*
%TD*%
D15*
%TO.C,H2*%
X115000000Y-87000000D03*
%TD*%
%TO.C,H3*%
X55750000Y-109500000D03*
%TD*%
%TO.C,H1*%
X96750000Y-74600000D03*
%TD*%
D10*
%TO.C,J1*%
X109620000Y-102500000D03*
D14*
X107080000Y-102500000D03*
X104540000Y-102500000D03*
X102000000Y-102500000D03*
X99460000Y-102500000D03*
X96920000Y-102500000D03*
X94380000Y-102500000D03*
%TD*%
D16*
%TO.C,C45*%
X86862500Y-108312500D03*
X86862500Y-109862500D03*
%TD*%
D17*
%TO.C,U9*%
X62149999Y-104773300D03*
X61500000Y-104773300D03*
X60850001Y-104773300D03*
X60850001Y-102500000D03*
X61500000Y-102500000D03*
X62149999Y-102500000D03*
%TD*%
%TO.C,U2*%
X62149999Y-85000000D03*
X61500000Y-85000000D03*
X60850001Y-85000000D03*
X60850001Y-82726700D03*
X61500000Y-82726700D03*
X62149999Y-82726700D03*
%TD*%
%TO.C,U10*%
X62149999Y-95136650D03*
X61500000Y-95136650D03*
X60850001Y-95136650D03*
X60850001Y-92863350D03*
X61500000Y-92863350D03*
X62149999Y-92863350D03*
%TD*%
%TO.C,U4*%
X62149999Y-100136650D03*
X61500000Y-100136650D03*
X60850001Y-100136650D03*
X60850001Y-97863350D03*
X61500000Y-97863350D03*
X62149999Y-97863350D03*
%TD*%
%TO.C,U3*%
X62149999Y-90136650D03*
X61500000Y-90136650D03*
X60850001Y-90136650D03*
X60850001Y-87863350D03*
X61500000Y-87863350D03*
X62149999Y-87863350D03*
%TD*%
D18*
%TO.C,FID1*%
X96750000Y-88000000D03*
%TD*%
D17*
%TO.C,U5*%
X60850001Y-74863350D03*
X61500000Y-74863350D03*
X62149999Y-74863350D03*
X62149999Y-77136650D03*
X61500000Y-77136650D03*
X60850001Y-77136650D03*
%TD*%
D10*
%TO.C,J2*%
X57340000Y-105260000D03*
D14*
X54800000Y-105260000D03*
X57340000Y-102720000D03*
X54800000Y-102720000D03*
X57340000Y-100180000D03*
X54800000Y-100180000D03*
X57340000Y-97640000D03*
X54800000Y-97640000D03*
X57340000Y-95100000D03*
X54800000Y-95100000D03*
X57340000Y-92560000D03*
X54800000Y-92560000D03*
X57340000Y-90020000D03*
X54800000Y-90020000D03*
X57340000Y-87480000D03*
X54800000Y-87480000D03*
X57340000Y-84940000D03*
X54800000Y-84940000D03*
X57340000Y-82400000D03*
X54800000Y-82400000D03*
X57340000Y-79860000D03*
X54800000Y-79860000D03*
X57340000Y-77320000D03*
X54800000Y-77320000D03*
X57340000Y-74780000D03*
X54800000Y-74780000D03*
%TD*%
D19*
X50601596Y-72042903D02*
X122375000Y-72042903D01*
X122375000Y-112556276D01*
X50601596Y-112556276D01*
X50601596Y-72042903D01*
M02*
